<svg width="93" height="64" viewBox="0 0 93 64" fill="none" xmlns="http://www.w3.org/2000/svg">
<path d="M74.9941 0C71.8905 2.97092 68.1581 5.30728 64.0219 6.79562C59.7068 7.5571 47.7655 2.01907 41.8813 7.67247C40.9006 8.65317 39.6892 9.63386 38.4201 10.6146C35.651 9.40311 31.3821 7.5571 28.267 5.76878C25.1519 3.98046 17.3063 0 17.3063 0L0 20.1907C0 20.1907 4.2689 25.9595 6.92253 29.7669C8.65317 32.3052 10.7876 36.1702 12.1721 38.7662L10.2107 41.0737C9.87615 41.7371 9.67424 42.5159 9.67424 43.3408C9.67424 44.6965 10.205 45.931 11.0761 46.8425C11.8721 47.4367 12.8701 47.7943 13.9604 47.7943C15.0507 47.7943 16.0487 47.4367 16.8564 46.8309C16.3141 47.4597 15.9968 48.2674 15.9968 49.15C15.9968 50.2634 16.5045 51.2556 17.3006 51.9132C18.1313 52.4036 19.1293 52.692 20.1907 52.692C21.2522 52.692 22.2502 52.4036 23.104 51.9017C22.4579 52.7036 22.0829 53.7073 22.0829 54.8034C22.0829 55.8995 22.4578 56.9032 23.0866 57.6993C23.6578 57.9012 24.3212 58.0224 25.0134 58.0224C26.2076 58.0224 27.3152 57.6589 28.2324 57.0417C27.9843 57.5897 27.8574 58.2127 27.8574 58.8704C27.8574 60.2203 28.4112 61.4375 29.3112 62.3028C30.0611 62.6432 30.9437 62.8393 31.8667 62.8393C33.1705 62.8393 34.3877 62.447 35.3914 61.7721L38.3681 59.0781C41.091 61.7894 44.8465 63.4681 48.9942 63.4681C49.1096 63.4681 49.2307 63.4681 49.3461 63.4623C52.1959 63.22 54.5842 61.4086 55.6572 58.8992C56.4994 59.2223 57.457 59.4415 58.4723 59.4415C59.8338 59.4415 61.0971 59.0492 62.1643 58.3743C65.5391 56.1418 64.7315 54.4111 64.7315 54.4111C65.4525 54.7284 66.289 54.913 67.1716 54.913C69.0234 54.913 70.6906 54.0938 71.8213 52.8016C72.8366 51.7575 73.4538 50.3384 73.4538 48.7808C73.4538 47.6847 73.1481 46.6636 72.6174 45.7926C72.6635 45.8214 72.7039 45.8214 72.7385 45.8214C75.1672 45.8214 77.2785 44.483 78.3804 42.5101C78.7727 41.5237 78.9861 40.4161 78.9861 39.2623C78.9861 37.2894 78.3515 35.4607 77.2785 33.9723L77.2959 34.0012C82.0262 33.0782 81.8532 30.713 84.1607 27.2517C86.3759 24.4019 89.0757 22.0483 92.162 20.283L74.9941 0ZM74.7057 40.7276C72.1674 43.2658 70.206 42.1698 65.8794 38.8816C61.5529 35.5934 52.9574 29.4208 52.9574 29.4208C53.3093 31.1802 54.1227 32.709 55.2707 33.9262C57.1109 35.9972 62.5912 40.7276 65.1872 43.1505C66.8024 44.6503 70.956 47.6501 68.5331 49.9576C66.1102 52.2651 64.2065 49.9576 60.226 46.7271C56.2456 43.4966 47.3617 35.5357 47.3617 35.5357C47.3559 35.6395 47.3501 35.7549 47.3501 35.876C47.3501 37.3644 47.9501 38.7085 48.9192 39.6892C49.8999 40.8429 55.3803 46.1502 57.6878 48.5731C59.9953 50.996 62.0144 52.4382 60.053 54.3419C58.0916 56.2456 54.1111 53.2458 51.919 50.996C48.5154 47.7078 41.7659 41.5929 41.7659 41.5929C41.7602 41.6852 41.7602 41.789 41.7602 41.8986C41.7602 43.537 42.3255 45.0368 43.2774 46.2252C44.9388 48.4058 48.1693 51.2325 50.1307 53.4246C52.0921 55.6168 53.2458 57.4628 50.1307 59.1934C47.0155 60.9241 42.4005 56.6552 40.3814 54.5784V54.5669C40.3814 53.9727 40.1622 53.4304 39.8046 53.0151C38.8873 52.1671 37.647 51.6421 36.2914 51.6421C35.6914 51.6421 35.1145 51.7459 34.5781 51.9305C35.3165 51.2729 35.7549 50.3499 35.7549 49.3231C35.7549 48.2962 35.3165 47.3732 34.6127 46.7271C33.8858 46.1791 32.9743 45.8502 31.9879 45.8502C31.0014 45.8502 30.0842 46.1791 29.3515 46.7329C30.0265 46.081 30.4418 45.1868 30.4418 44.1888C30.4418 42.9601 29.813 41.8813 28.8612 41.2525C27.9786 40.693 26.9229 40.3699 25.7922 40.3699C24.3846 40.3699 23.0924 40.8776 22.0886 41.714C22.6367 41.0564 22.9597 40.2141 22.9597 39.2911C22.9597 38.1662 22.4694 37.1567 21.6964 36.4587C20.6695 35.5068 19.2908 34.9242 17.7794 34.9242C16.7121 34.9242 15.7141 35.2126 14.8546 35.7203L11.0184 29.2419C8.36473 25.0307 5.24959 20.6465 5.24959 20.6465L18.4024 4.66694C18.4024 4.66694 23.0751 7.55133 26.9402 9.74347C28.8439 10.8395 32.1321 12.2817 34.6127 13.4355C30.6899 16.3776 27.4017 19.2043 28.3824 21.1656C30.0957 22.4002 32.2359 23.1443 34.5492 23.1443C36.7183 23.1443 38.7373 22.4925 40.4218 21.3733C42.5736 19.9254 45.2676 19.0485 48.1693 19.0485C50.1711 19.0485 52.0748 19.4639 53.7996 20.2196C56.9955 22.3771 62.8797 27.6844 68.2446 31.0303C74.9941 35.9337 76.3209 39.1065 74.7057 40.7218V40.7276Z" fill="#444444"/>
</svg>
