<svg width="98" height="84" viewBox="0 0 98 84" fill="none" xmlns="http://www.w3.org/2000/svg">
<path d="M63.4919 21.8675C63.4926 19.6176 62.9579 17.3998 61.932 15.3974C60.906 13.3949 59.4184 11.6654 57.5919 10.3515C55.7654 9.03769 53.6525 8.17731 51.4278 7.84148C49.2031 7.50565 46.9304 7.704 44.7974 8.42015C42.6645 9.1363 40.7326 10.3497 39.1613 11.9601C37.5901 13.5704 36.4245 15.5316 35.761 17.6815C35.0975 19.8313 34.9551 22.1082 35.3455 24.324C35.7359 26.5399 36.648 28.631 38.0063 30.4246C40.7535 34.039 42.2429 38.4529 42.2473 42.9929H56.3839C56.3411 38.5135 57.7913 34.1473 60.5056 30.5836C62.4489 28.0946 63.5005 25.0253 63.4919 21.8675Z" fill="white"/>
<path d="M56.3793 43.4391H42.2427C42.1256 43.4391 42.0132 43.3925 41.9304 43.3097C41.8475 43.2268 41.801 43.1145 41.801 42.9973C41.7889 38.5542 40.3313 34.2357 37.6483 30.6941C36.2484 28.8449 35.3083 26.6892 34.9059 24.405C34.5034 22.1208 34.6501 19.7736 35.3339 17.5573C36.0176 15.341 37.2187 13.3191 38.838 11.6586C40.4574 9.99812 42.4485 8.74665 44.6469 8.00755C46.8454 7.26845 49.1881 7.06291 51.4817 7.40792C53.7753 7.75292 55.9539 8.63857 57.8376 9.99173C59.7214 11.3449 61.2562 13.1267 62.3154 15.1901C63.3746 17.2536 63.9277 19.5393 63.9291 21.8587C63.9364 25.1134 62.8471 28.2757 60.8368 30.8354C58.1857 34.3315 56.773 38.6101 56.8211 42.9973C56.8211 43.1145 56.7746 43.2268 56.6917 43.3097C56.6089 43.3925 56.4965 43.4391 56.3793 43.4391ZM42.6845 42.5555H55.9376C55.9922 38.1237 57.4714 33.8271 60.1565 30.3009C62.0405 27.8944 63.0597 24.9238 63.05 21.8675C63.0474 19.9837 62.6587 18.1204 61.9081 16.3926C61.1574 14.6648 60.0606 13.1092 58.6854 11.8217C56.1691 9.48304 52.8681 8.17184 49.433 8.14658C45.9979 8.12131 42.6779 9.38382 40.1276 11.6852C37.5772 13.9866 35.9816 17.1599 35.6551 20.5796C35.3287 23.9993 36.2952 27.4172 38.364 30.1595C41.0684 33.7363 42.5798 38.0727 42.6845 42.5555Z" fill="#093F68"/>
<path d="M56.0614 46.9335H42.1766C41.269 46.9335 40.5332 47.6692 40.5332 48.5769V49.213C40.5332 50.1206 41.269 50.8564 42.1766 50.8564H56.0614C56.969 50.8564 57.7047 50.1206 57.7047 49.213V48.5769C57.7047 47.6692 56.969 46.9335 56.0614 46.9335Z" fill="#FFBC0E"/>
<path d="M56.0612 51.2981H42.1765C41.6238 51.297 41.0941 51.0769 40.7033 50.6861C40.3125 50.2953 40.0925 49.7657 40.0913 49.213V48.5768C40.0925 48.0242 40.3125 47.4945 40.7033 47.1037C41.0941 46.7129 41.6238 46.4929 42.1765 46.4917H56.0612C56.6139 46.4929 57.1436 46.7129 57.5344 47.1037C57.9252 47.4945 58.1452 48.0242 58.1464 48.5768V49.213C58.1452 49.7657 57.9252 50.2953 57.5344 50.6861C57.1436 51.0769 56.6139 51.297 56.0612 51.2981ZM42.1765 47.3708C41.8578 47.3708 41.5521 47.4974 41.3268 47.7228C41.1014 47.9481 40.9748 48.2537 40.9748 48.5724V49.2086C40.9748 49.5273 41.1014 49.8329 41.3268 50.0582C41.5521 50.2836 41.8578 50.4102 42.1765 50.4102H56.0612C56.3799 50.4102 56.6856 50.2836 56.9109 50.0582C57.1362 49.8329 57.2628 49.5273 57.2628 49.2086V48.5724C57.2628 48.2537 57.1362 47.9481 56.9109 47.7228C56.6856 47.4974 56.3799 47.3708 56.0612 47.3708H42.1765Z" fill="#093F68"/>
<path d="M56.0614 43.0106H42.1766C41.269 43.0106 40.5332 43.7464 40.5332 44.654V45.2901C40.5332 46.1978 41.269 46.9335 42.1766 46.9335H56.0614C56.969 46.9335 57.7047 46.1978 57.7047 45.2901V44.654C57.7047 43.7464 56.969 43.0106 56.0614 43.0106Z" fill="#FFBC0E"/>
<path d="M56.0612 47.3709H42.1765C41.6238 47.3697 41.0941 47.1497 40.7033 46.7589C40.3125 46.3681 40.0925 45.8384 40.0913 45.2857V44.6496C40.0925 44.0969 40.3125 43.5673 40.7033 43.1765C41.0941 42.7857 41.6238 42.5656 42.1765 42.5645H56.0612C56.6139 42.5656 57.1436 42.7857 57.5344 43.1765C57.9252 43.5673 58.1452 44.0969 58.1464 44.6496V45.2857C58.1452 45.8384 57.9252 46.3681 57.5344 46.7589C57.1436 47.1497 56.6139 47.3697 56.0612 47.3709ZM42.1765 43.448C41.8578 43.448 41.5521 43.5746 41.3268 43.7999C41.1014 44.0253 40.9748 44.3309 40.9748 44.6496V45.2857C40.9748 45.6044 41.1014 45.9101 41.3268 46.1354C41.5521 46.3608 41.8578 46.4874 42.1765 46.4874H56.0612C56.3799 46.4874 56.6856 46.3608 56.9109 46.1354C57.1362 45.9101 57.2628 45.6044 57.2628 45.2857V44.6496C57.2628 44.3309 57.1362 44.0253 56.9109 43.7999C56.6856 43.5746 56.3799 43.448 56.0612 43.448H42.1765Z" fill="#093F68"/>
<path d="M56.0614 39.0876H42.1766C41.269 39.0876 40.5332 39.8234 40.5332 40.731V41.3672C40.5332 42.2748 41.269 43.0106 42.1766 43.0106H56.0614C56.969 43.0106 57.7047 42.2748 57.7047 41.3672V40.731C57.7047 39.8234 56.969 39.0876 56.0614 39.0876Z" fill="#FFBC0E"/>
<path d="M56.0612 43.4524H42.1765C41.6238 43.4512 41.0941 43.2311 40.7033 42.8404C40.3125 42.4496 40.0925 41.9199 40.0913 41.3672V40.7443C40.0925 40.1917 40.3125 39.662 40.7033 39.2712C41.0941 38.8804 41.6238 38.6603 42.1765 38.6592H56.0612C56.6139 38.6603 57.1436 38.8804 57.5344 39.2712C57.9252 39.662 58.1452 40.1917 58.1464 40.7443V41.3805C58.1417 41.9308 57.9201 42.4571 57.5297 42.8451C57.1393 43.233 56.6116 43.4512 56.0612 43.4524ZM42.1765 39.5295C41.8578 39.5295 41.5521 39.6561 41.3268 39.8814C41.1014 40.1068 40.9748 40.4124 40.9748 40.7311V41.3672C40.9748 41.6859 41.1014 41.9915 41.3268 42.2169C41.5521 42.4422 41.8578 42.5688 42.1765 42.5688H56.0612C56.3799 42.5688 56.6856 42.4422 56.9109 42.2169C57.1362 41.9915 57.2628 41.6859 57.2628 41.3672V40.7443C57.2628 40.4256 57.1362 40.12 56.9109 39.8947C56.6856 39.6693 56.3799 39.5427 56.0612 39.5427L42.1765 39.5295Z" fill="#093F68"/>
<path d="M71.8767 82.814V63.4734C71.8767 60.1279 70.548 56.9194 68.1828 54.5534C65.8177 52.1874 62.6096 50.8576 59.2642 50.8564H39.3581C36.0127 50.8576 32.8046 52.1874 30.4395 54.5534C28.0743 56.9194 26.7456 60.1279 26.7456 63.4734V82.814H71.8767Z" fill="#68E1FD"/>
<path d="M71.8765 83.2557H26.7455C26.6283 83.2557 26.5159 83.2092 26.4331 83.1264C26.3503 83.0435 26.3037 82.9311 26.3037 82.814V63.4734C26.3072 60.0118 27.6836 56.693 30.1308 54.2449C32.5781 51.7968 35.8964 50.4194 39.358 50.4147H59.2641C62.7256 50.4194 66.0439 51.7968 68.4912 54.2449C70.9385 56.693 72.3148 60.0118 72.3183 63.4734V82.814C72.3183 82.9311 72.2718 83.0435 72.1889 83.1264C72.1061 83.2092 71.9937 83.2557 71.8765 83.2557ZM27.1872 82.3722H71.4348V63.4734C71.4324 60.2458 70.1496 57.151 67.8677 54.8684C65.5859 52.5857 62.4916 51.3017 59.2641 51.2982H39.358C36.1304 51.3017 33.0361 52.5857 30.7543 54.8684C28.4725 57.151 27.1896 60.2458 27.1872 63.4734V82.3722Z" fill="#093F68"/>
<path d="M57.5324 50.8564L52.7303 65.2669L49.0372 76.3465L45.45 64.6617L41.2046 50.8564H57.5324Z" fill="white"/>
<path d="M49.0374 76.7882C48.9394 76.7924 48.8427 76.7639 48.7627 76.7071C48.6828 76.6503 48.624 76.5685 48.5956 76.4746L40.7675 50.9846C40.7469 50.9184 40.7422 50.8484 40.7537 50.7801C40.7652 50.7118 40.7926 50.6471 40.8337 50.5914C40.8749 50.5365 40.9282 50.492 40.9896 50.4613C41.0509 50.4306 41.1185 50.4147 41.1871 50.4147H57.5326C57.6023 50.4147 57.671 50.4313 57.7331 50.463C57.7952 50.4947 57.8489 50.5406 57.8899 50.5971C57.9308 50.6535 57.9578 50.7189 57.9686 50.7878C57.9795 50.8566 57.9739 50.9271 57.9522 50.9934L49.457 76.4879C49.4274 76.5756 49.3709 76.6518 49.2956 76.7057C49.2203 76.7596 49.13 76.7885 49.0374 76.7882ZM41.8012 51.2982L49.0506 74.8975L56.9185 51.2982H41.8012Z" fill="#093F68"/>
<path d="M50.2874 50.8564H48.3304C47.5789 50.8564 46.9697 51.4656 46.9697 52.2171V53.1757C46.9697 53.9272 47.5789 54.5364 48.3304 54.5364H50.2874C51.0389 54.5364 51.6481 53.9272 51.6481 53.1757V52.2171C51.6481 51.4656 51.0389 50.8564 50.2874 50.8564Z" fill="#F56132"/>
<path d="M50.2917 54.9825H48.3302C48.0936 54.9825 47.8592 54.9359 47.6405 54.8453C47.4218 54.7547 47.2231 54.6219 47.0557 54.4546C46.8884 54.2872 46.7556 54.0885 46.665 53.8698C46.5745 53.6512 46.5278 53.4168 46.5278 53.1801V52.2303C46.5278 51.9936 46.5745 51.7592 46.665 51.5405C46.7556 51.3218 46.8884 51.1231 47.0557 50.9558C47.2231 50.7884 47.4218 50.6556 47.6405 50.5651C47.8592 50.4745 48.0936 50.4279 48.3302 50.4279H50.2917C50.7697 50.4279 51.2282 50.6178 51.5662 50.9558C51.9042 51.2938 52.0941 51.7522 52.0941 52.2303V53.1933C52.0906 53.6691 51.8992 54.1241 51.5615 54.4593C51.2239 54.7944 50.7674 54.9825 50.2917 54.9825ZM48.3302 51.2981C48.2085 51.2981 48.0879 51.3223 47.9755 51.3693C47.8632 51.4163 47.7613 51.4852 47.6758 51.5719C47.5903 51.6587 47.5229 51.7615 47.4775 51.8746C47.4321 51.9876 47.4096 52.1085 47.4114 52.2303V53.1933C47.4125 53.4367 47.5097 53.6697 47.6818 53.8418C47.8539 54.0139 48.0869 54.111 48.3302 54.1122H50.2917C50.535 54.111 50.7681 54.0139 50.9402 53.8418C51.1122 53.6697 51.2094 53.4367 51.2106 53.1933V52.2303C51.2106 51.9866 51.1138 51.7529 50.9414 51.5805C50.7691 51.4082 50.5354 51.3114 50.2917 51.3114L48.3302 51.2981Z" fill="#093F68"/>
<path d="M52.7305 65.2669L49.0373 76.3465L45.5605 65.0239L47.9682 54.5408H50.6497L52.7305 65.2669Z" fill="#F56132"/>
<path d="M49.0372 76.7883C48.9392 76.7924 48.8426 76.7639 48.7626 76.7071C48.6826 76.6503 48.6238 76.5685 48.5954 76.4746L45.1187 65.1521C45.0985 65.0768 45.0985 64.9976 45.1187 64.9224L47.544 54.4392C47.5665 54.3395 47.6227 54.2507 47.7033 54.1879C47.7838 54.1251 47.8837 54.0921 47.9858 54.0946H50.6364C50.7404 54.0927 50.8417 54.1276 50.9225 54.193C51.0033 54.2585 51.0584 54.3503 51.0782 54.4524L53.1589 65.1786C53.1809 65.2521 53.1809 65.3304 53.1589 65.4039L49.4657 76.4834C49.4364 76.5735 49.3789 76.6517 49.3018 76.7066C49.2246 76.7614 49.1319 76.7901 49.0372 76.7883ZM46.0155 65.0063L49.0549 74.8975L52.2754 65.236L50.2874 54.9826H48.3171L46.0155 65.0063Z" fill="#093F68"/>
<path d="M37.0301 83.2557C36.913 83.2557 36.8006 83.2092 36.7178 83.1263C36.6349 83.0435 36.5884 82.9311 36.5884 82.814V61.7107C36.5884 61.5935 36.6349 61.4812 36.7178 61.3983C36.8006 61.3155 36.913 61.2689 37.0301 61.2689C37.1473 61.2689 37.2597 61.3155 37.3425 61.3983C37.4254 61.4812 37.4719 61.5935 37.4719 61.7107V82.814C37.4719 82.9311 37.4254 83.0435 37.3425 83.1263C37.2597 83.2092 37.1473 83.2557 37.0301 83.2557Z" fill="#093F68"/>
<path d="M61.5922 83.2557C61.475 83.2557 61.3626 83.2092 61.2798 83.1263C61.1969 83.0435 61.1504 82.9311 61.1504 82.814V61.7107C61.1504 61.5935 61.1969 61.4812 61.2798 61.3983C61.3626 61.3155 61.475 61.2689 61.5922 61.2689C61.7093 61.2689 61.8217 61.3155 61.9045 61.3983C61.9874 61.4812 62.0339 61.5935 62.0339 61.7107V82.814C62.0339 82.9311 61.9874 83.0435 61.9045 83.1263C61.8217 83.2092 61.7093 83.2557 61.5922 83.2557Z" fill="#093F68"/>
<path d="M51.6482 39.5295C51.531 39.5295 51.4187 39.4829 51.3358 39.4001C51.253 39.3172 51.2064 39.2049 51.2064 39.0877C51.0765 34.7779 51.1812 30.4643 51.5201 26.166C50.8677 26.3152 50.2013 26.3952 49.5321 26.4045C48.7014 26.4148 47.8712 26.3586 47.0494 26.2366C47.1245 27.1202 47.1952 28.0921 47.2526 29.117C47.5353 34.215 47.4205 39.0568 47.4161 39.1054C47.4161 39.2225 47.3695 39.3349 47.2867 39.4177C47.2038 39.5006 47.0915 39.5471 46.9743 39.5471C46.8571 39.5471 46.7448 39.5006 46.6619 39.4177C46.5791 39.3349 46.5325 39.2225 46.5325 39.1054C46.6321 34.7633 46.5008 30.419 46.1393 26.0909C42.4241 25.2647 40.4803 22.9985 40.1931 20.7896C40.0379 19.8619 40.2433 18.9099 40.7673 18.1288C41.2914 17.3477 42.0943 16.7966 43.0116 16.5884C43.2583 16.521 43.5175 16.5131 43.7678 16.5653C44.0182 16.6176 44.2526 16.7284 44.4518 16.8888C45.6401 17.8342 46.4574 20.6085 46.9389 25.3266C47.7862 25.4617 48.6433 25.5253 49.5012 25.5166C50.2058 25.5076 50.9064 25.4096 51.5863 25.225C51.9795 21.4655 52.704 18.1037 53.9984 16.8976C54.19 16.7046 54.4223 16.5568 54.6783 16.465C54.9344 16.3733 55.2077 16.34 55.4783 16.3675C58.4691 16.69 58.7032 18.5764 58.6635 19.3716C58.5884 20.8603 57.5281 22.592 55.8229 23.9969C54.8112 24.837 53.6537 25.4839 52.408 25.9053C52.0462 30.2851 51.9341 34.6819 52.0723 39.0744C52.0723 39.1916 52.0258 39.304 51.9429 39.3868C51.8601 39.4697 51.7477 39.5162 51.6305 39.5162L51.6482 39.5295ZM43.4225 17.3836C43.3553 17.3837 43.2885 17.3926 43.2237 17.4101C42.5153 17.5635 41.8941 17.9859 41.4911 18.5883C41.0881 19.1908 40.9348 19.9261 41.0634 20.6394C41.302 22.4993 42.9277 24.3591 46.0422 25.1366C45.6534 21.4965 44.9952 18.4394 43.9172 17.578C43.7809 17.4561 43.6053 17.3871 43.4225 17.3836ZM55.3016 17.2378C55.0418 17.2478 54.7962 17.3587 54.6169 17.547C53.5522 18.5366 52.9072 21.4611 52.5273 24.9246C55.5093 23.7672 57.7048 21.1696 57.7976 19.3274C57.8727 17.8254 56.5342 17.3659 55.4032 17.2422L55.3016 17.2378Z" fill="#093F68"/>
<path d="M26.7456 82.8139L21.2323 61.3749L13.7974 63.6014L16.6247 82.8139H26.7456Z" fill="#68E1FD"/>
<path d="M26.7456 83.2557H16.6203C16.5138 83.2569 16.4104 83.2195 16.3292 83.1505C16.248 83.0815 16.1945 82.9855 16.1785 82.8802L13.3512 63.6633C13.3361 63.5587 13.359 63.4521 13.4157 63.3629C13.4725 63.2738 13.5593 63.2079 13.6605 63.1773L21.0954 60.9685C21.1526 60.9515 21.2126 60.9463 21.2718 60.9531C21.331 60.9599 21.3882 60.9787 21.44 61.0082C21.4912 61.0377 21.5359 61.0771 21.5715 61.1241C21.6072 61.1712 21.6331 61.2249 21.6476 61.2821L27.1742 82.7123C27.1913 82.7788 27.1928 82.8483 27.1785 82.9154C27.1641 82.9825 27.1343 83.0454 27.0914 83.0989C27.0486 83.1525 26.9938 83.1954 26.9315 83.2241C26.8691 83.2529 26.801 83.2667 26.7324 83.2645L26.7456 83.2557ZM17.0267 82.3721H26.1978L20.9187 61.9492L14.2922 63.9371L17.0267 82.3721Z" fill="#093F68"/>
<path d="M21.2326 61.3749C21.2326 61.3749 20.9145 57.5006 19.9647 55.5215C19.0149 53.5424 17.5924 51.0155 16.9607 51.9873C16.3289 52.9592 17.5924 55.7026 17.5924 55.7026C17.5924 55.7026 6.44217 53.4098 5.25823 54.8191C4.07429 56.2283 4.22891 57.9115 5.25823 58.7729C6.28755 59.6344 12.8301 61.8653 12.8301 61.8653C13.2556 62.3918 13.5832 62.9903 13.7976 63.6324L21.2326 61.3749Z" fill="white"/>
<path d="M13.7976 64.0432C13.6967 64.0461 13.5978 64.0144 13.5175 63.9533C13.4371 63.8922 13.3801 63.8055 13.3559 63.7074C13.1742 63.1697 12.9006 62.6675 12.5474 62.2231C11.4607 61.852 5.97392 59.9568 4.95785 59.0998C3.66789 58.0086 3.63255 56.0428 4.90484 54.5275C6.05344 53.1492 13.537 54.4347 16.8591 55.0841C16.488 54.099 16.0462 52.5219 16.5808 51.7179C16.6567 51.5873 16.7678 51.4808 16.9014 51.4105C17.035 51.3402 17.1857 51.3089 17.3362 51.3203C17.672 51.3424 18.4627 51.3954 20.3491 55.3315C21.3254 57.3592 21.6435 61.1761 21.6744 61.3396C21.6786 61.4376 21.65 61.5342 21.5932 61.6142C21.5364 61.6942 21.4546 61.753 21.3607 61.7813L13.9302 63.9902C13.8881 64.0127 13.8437 64.0305 13.7976 64.0432ZM7.36991 54.7661C6.42011 54.7661 5.77954 54.8588 5.60283 55.0797C4.51608 56.405 4.75464 57.7303 5.54541 58.4151C6.25223 59.0115 10.3784 60.5355 12.976 61.4147C13.0542 61.4422 13.1231 61.4912 13.1747 61.556C13.5403 62.0099 13.8461 62.5087 14.0848 63.0404L20.7555 61.0657C20.6539 60.0805 20.3137 57.2665 19.5671 55.7247C18.3479 53.1889 17.6013 52.3452 17.3318 52.2259C17.0093 52.7958 17.535 54.501 17.9944 55.5082C18.0249 55.5803 18.0356 55.6593 18.0255 55.7369C18.0154 55.8145 17.9849 55.888 17.937 55.95C17.8858 56.0153 17.8171 56.0649 17.739 56.0931C17.6609 56.1212 17.5764 56.1267 17.4952 56.109C13.7932 55.3492 9.67594 54.7793 7.36991 54.7793V54.7661Z" fill="#093F68"/>
<path d="M15.2198 58.574C15.1086 58.5744 15.0012 58.5327 14.9193 58.4574C14.8374 58.382 14.787 58.2785 14.7781 58.1676C14.6323 56.2901 16.501 55.433 17.5126 55.2475C17.6268 55.2267 17.7445 55.2517 17.8404 55.317C17.9362 55.3823 18.0026 55.4827 18.0251 55.5965C18.0471 55.7113 18.0228 55.8301 17.9574 55.927C17.8919 56.0239 17.7908 56.0909 17.6761 56.1134C17.5877 56.1134 15.5379 56.5551 15.6616 58.0969C15.6701 58.2134 15.6322 58.3286 15.556 58.4172C15.4798 58.5057 15.3717 58.5606 15.2552 58.5696L15.2198 58.574Z" fill="#093F68"/>
<path d="M72.1685 82.8139L77.6817 61.3749L85.1167 63.6014L82.2894 82.8139H72.1685Z" fill="#68E1FD"/>
<path d="M82.2892 83.2558H72.1683C72.0997 83.2579 72.0315 83.2441 71.9692 83.2154C71.9069 83.1866 71.8521 83.1438 71.8092 83.0902C71.7663 83.0366 71.7365 82.9737 71.7222 82.9066C71.7078 82.8395 71.7093 82.77 71.7265 82.7035L77.2398 61.2645C77.2545 61.2067 77.2808 61.1524 77.3171 61.105C77.3534 61.0575 77.399 61.018 77.451 60.9887C77.503 60.9593 77.5605 60.9409 77.6198 60.9344C77.6792 60.9279 77.7393 60.9335 77.7964 60.9509L85.2269 63.1597C85.3289 63.1895 85.4167 63.255 85.4743 63.3442C85.5319 63.4335 85.5555 63.5405 85.5406 63.6457L82.7133 82.8626C82.7016 82.9682 82.6524 83.066 82.5745 83.1382C82.4966 83.2104 82.3953 83.2521 82.2892 83.2558ZM72.7381 82.3722H81.9093L84.6217 63.9151L77.9952 61.9272L72.7381 82.3722Z" fill="#093F68"/>
<path d="M77.6816 61.3749C77.6816 61.3749 77.9997 57.5006 78.9495 55.5215C79.8993 53.5424 81.3218 51.0155 81.9535 51.9873C82.5853 52.9592 81.3218 55.7026 81.3218 55.7026C81.3218 55.7026 92.4676 53.4098 93.656 54.8191C94.8443 56.2283 94.6853 57.9115 93.656 58.7729C92.6267 59.6344 86.0841 61.8653 86.0841 61.8653C85.6586 62.3918 85.331 62.9903 85.1166 63.6324L77.6816 61.3749Z" fill="white"/>
<path d="M85.1164 64.0432C85.0738 64.0478 85.0309 64.0478 84.9883 64.0432L77.5533 61.8344C77.4594 61.806 77.3776 61.7472 77.3208 61.6672C77.264 61.5872 77.2355 61.4906 77.2397 61.3926C77.2397 61.2292 77.5754 57.4167 78.565 55.3846C80.4557 51.4484 81.2421 51.4087 81.5822 51.3733C81.7326 51.3635 81.8827 51.3955 82.016 51.4656C82.1493 51.5358 82.2606 51.6414 82.3377 51.7709C82.8722 52.5749 82.426 54.152 82.0594 55.1372C85.377 54.4878 92.8606 53.1978 94.0136 54.5806C95.2727 56.0958 95.2506 58.0617 93.9606 59.1529C92.9445 60.0099 87.4578 61.9051 86.371 62.2762C86.0119 62.7046 85.7295 63.1918 85.5361 63.7163C85.5119 63.8143 85.4549 63.9011 85.3745 63.9622C85.2941 64.0233 85.1952 64.055 85.0943 64.0521L85.1164 64.0432ZM78.1585 61.0657L84.8337 63.0669C85.0723 62.5353 85.3782 62.0364 85.7437 61.5826C85.7954 61.5177 85.8643 61.4687 85.9425 61.4412C88.5401 60.5577 92.6618 59.038 93.3686 58.4416C94.1638 57.7701 94.4024 56.4095 93.3156 55.1063C92.6883 54.3552 86.6449 55.0488 81.41 56.1267C81.3288 56.1444 81.2443 56.1389 81.1662 56.1108C81.0881 56.0826 81.0194 56.0331 80.9682 55.9677C80.9211 55.9053 80.8913 55.8316 80.882 55.754C80.8727 55.6764 80.8841 55.5977 80.9152 55.5259C81.3835 54.501 81.918 52.7516 81.5822 52.2436C81.3172 52.354 80.5662 53.1934 79.3425 55.7424C78.6091 57.2532 78.2601 60.0673 78.1585 61.0657Z" fill="#093F68"/>
<path d="M83.6939 58.5741H83.6586C83.5421 58.565 83.4339 58.5102 83.3578 58.4216C83.2816 58.3331 83.2436 58.2179 83.2521 58.1014C83.3758 56.5464 81.326 56.1355 81.2377 56.1178C81.1205 56.0962 81.0167 56.0288 80.9492 55.9307C80.8817 55.8325 80.8559 55.7115 80.8776 55.5943C80.8993 55.4772 80.9666 55.3734 81.0648 55.3059C81.163 55.2384 81.284 55.2126 81.4011 55.2343C82.4128 55.4198 84.2815 56.2769 84.1312 58.1544C84.1256 58.2669 84.0772 58.3731 83.9959 58.4511C83.9146 58.5291 83.8066 58.5731 83.6939 58.5741Z" fill="#093F68"/>
<path d="M26.781 35.4122C26.7695 35.0941 26.6533 34.7887 26.4504 34.5434C26.2475 34.2982 25.9692 34.1268 25.6589 34.0559C25.1155 33.9367 24.5633 33.8483 24.0155 33.7644C23.9397 33.7595 23.8673 33.7308 23.8086 33.6824C23.7499 33.634 23.7079 33.5684 23.6886 33.4949C23.5252 33.0531 23.344 32.6114 23.1541 32.2005C23.1233 32.1502 23.1093 32.0915 23.1141 32.0327C23.1188 31.974 23.1421 31.9183 23.1806 31.8736C23.5119 31.4318 23.8521 30.9636 24.1569 30.4909C24.3355 30.2242 24.4199 29.9055 24.3967 29.5853C24.3735 29.2652 24.244 28.9619 24.0288 28.7238C23.5252 28.176 22.9862 27.6547 22.4605 27.129C22.2013 26.8354 21.8398 26.6518 21.4499 26.6157C21.0599 26.5796 20.6708 26.6937 20.3621 26.9346C19.9513 27.2218 19.5404 27.5134 19.134 27.8182C19.0903 27.858 19.0351 27.8829 18.9763 27.8893C18.9175 27.8956 18.8583 27.8831 18.8071 27.8535C18.3653 27.6459 17.875 27.4515 17.3978 27.2704C17.3409 27.2552 17.2901 27.2229 17.2521 27.1779C17.2142 27.1328 17.1911 27.0772 17.1858 27.0186C17.1107 26.515 17.0268 26.0113 16.9384 25.5121C16.8925 25.1548 16.7212 24.8254 16.455 24.5826C16.1888 24.3399 15.845 24.1996 15.485 24.1868C14.7134 24.1692 13.9403 24.1692 13.1657 24.1868C12.8368 24.1937 12.5197 24.3105 12.2651 24.5187C12.0104 24.7269 11.8329 25.0145 11.7609 25.3354C11.6372 25.9009 11.5488 26.4708 11.4561 27.0362C11.4517 27.0957 11.4289 27.1523 11.3909 27.1982C11.3529 27.2441 11.3016 27.277 11.244 27.2925C10.8022 27.4736 10.3605 27.6636 9.9187 27.8624C9.87113 27.8917 9.81539 27.9049 9.75971 27.9001C9.70403 27.8954 9.65136 27.8728 9.60946 27.8358C9.16769 27.5089 8.72593 27.1732 8.25323 26.8684C7.98744 26.6895 7.66984 26.6037 7.35011 26.6245C7.03038 26.6452 6.72656 26.7714 6.48616 26.9832C5.89713 27.5222 5.32873 28.0847 4.78093 28.6708C4.52437 28.93 4.3722 29.2745 4.35346 29.6388C4.33472 30.003 4.45072 30.3613 4.67933 30.6455C4.98415 31.0873 5.2978 31.529 5.59379 31.9443C5.61441 31.9784 5.62746 32.0166 5.63203 32.0563C5.6366 32.0959 5.6326 32.1361 5.62029 32.174C5.43475 32.66 5.23595 33.1459 5.03274 33.623C5.01535 33.6598 4.99013 33.6922 4.95883 33.7182C4.92754 33.7441 4.89095 33.7629 4.85162 33.7732C4.35242 33.866 3.8488 33.9499 3.34519 34.0294C2.99395 34.0732 2.66911 34.2385 2.42703 34.4967C2.18495 34.755 2.0409 35.0898 2.01988 35.4431C1.99337 36.2471 1.99337 37.0556 2.01988 37.864C2.0342 38.1789 2.15054 38.4807 2.35135 38.7237C2.55216 38.9668 2.82655 39.1379 3.13314 39.2114C3.70744 39.3395 4.29057 39.4279 4.87371 39.525C4.92932 39.5305 4.98207 39.5522 5.02532 39.5876C5.06856 39.623 5.10035 39.6704 5.11668 39.7238C5.2978 40.1656 5.49218 40.6383 5.69098 41.0889C5.71816 41.134 5.73025 41.1866 5.72548 41.239C5.72072 41.2915 5.69934 41.341 5.66447 41.3805C5.35965 41.7957 5.05483 42.211 4.78093 42.6395C4.55281 42.9405 4.44458 43.3155 4.47723 43.6918C4.50988 44.0681 4.68108 44.4188 4.95764 44.6761C5.44064 45.1708 5.92953 45.6597 6.42431 46.1427C6.68679 46.4305 7.04921 46.6071 7.43755 46.6367C7.82589 46.6663 8.21088 46.5465 8.51388 46.3018C8.95565 46.0058 9.35324 45.7098 9.7685 45.4182C9.80905 45.3891 9.85773 45.3734 9.90766 45.3734C9.95759 45.3734 10.0063 45.3891 10.0468 45.4182C10.4886 45.6038 10.9038 45.7893 11.3412 45.9484C11.4082 45.9671 11.4675 46.0068 11.5104 46.0617C11.5533 46.1165 11.5776 46.1836 11.5798 46.2532C11.6549 46.748 11.7388 47.2427 11.8271 47.7375C11.8716 48.0814 12.0343 48.3991 12.2874 48.6361C12.5406 48.873 12.8682 49.0146 13.2143 49.0363C14.0271 49.0672 14.84 49.0628 15.6529 49.0363C15.9713 49.0209 16.276 48.9016 16.5201 48.6965C16.7643 48.4915 16.9345 48.212 17.0047 47.901C17.1239 47.3532 17.2079 46.7966 17.3007 46.2399C17.3045 46.1742 17.3287 46.1112 17.3698 46.0598C17.411 46.0084 17.4671 45.971 17.5304 45.9528C17.9721 45.7805 18.436 45.5905 18.8822 45.3917C18.9283 45.367 18.9807 45.3568 19.0327 45.3623C19.0847 45.3678 19.1339 45.3888 19.1737 45.4226C19.589 45.7275 20.0131 46.0235 20.4328 46.3062C20.7253 46.5204 21.0823 46.628 21.4444 46.611C21.7752 46.607 22.0916 46.4757 22.328 46.2443C22.8625 45.7407 23.375 45.2194 23.8963 44.7026C24.1963 44.4397 24.3835 44.0712 24.4189 43.6738C24.4543 43.2764 24.3351 42.8806 24.0862 42.5688C23.7991 42.158 23.5075 41.7516 23.2027 41.3451C23.1679 41.3048 23.1464 41.2549 23.1408 41.202C23.1353 41.1491 23.1461 41.0957 23.1718 41.0491C23.3691 40.5985 23.559 40.1435 23.7416 39.6841C23.7569 39.626 23.7905 39.5744 23.8375 39.5369C23.8844 39.4995 23.9423 39.4783 24.0023 39.4764L25.5043 39.2291C25.8602 39.1853 26.1889 39.0164 26.4317 38.7526C26.6745 38.4887 26.8155 38.1472 26.8296 37.7889C26.781 37.0025 26.781 36.2074 26.781 35.4122ZM14.3629 41.9724C13.3023 41.9742 12.265 41.6612 11.3825 41.073C10.4999 40.4849 9.81168 39.6481 9.40501 38.6685C8.99833 37.689 8.89146 36.6108 9.09795 35.5705C9.30443 34.5302 9.81497 33.5746 10.5649 32.8247C11.3149 32.0747 12.2705 31.5642 13.3108 31.3577C14.3511 31.1512 15.4293 31.2581 16.4088 31.6647C17.3883 32.0714 18.2252 32.7596 18.8133 33.6422C19.4014 34.5248 19.7145 35.562 19.7127 36.6226C19.7104 38.0431 19.1442 39.4045 18.1385 40.4076C17.1329 41.4108 15.7701 41.9736 14.3496 41.9724H14.3629Z" fill="#F56132" stroke="#093F68" stroke-width="2.48798" stroke-linecap="round" stroke-linejoin="round"/>
<path d="M96.6687 35.4122C96.6572 35.0941 96.541 34.7887 96.3381 34.5434C96.1352 34.2982 95.857 34.1268 95.5466 34.0559C95.0033 33.9367 94.451 33.8483 93.9033 33.7644C93.8276 33.7588 93.7555 33.7299 93.6969 33.6816C93.6384 33.6334 93.5963 33.5681 93.5763 33.4949C93.4129 33.0531 93.2318 32.6114 93.0418 32.2005C93.0116 32.1498 92.9984 32.0908 93.0039 32.032C93.0095 31.9733 93.0336 31.9178 93.0727 31.8736C93.4041 31.4318 93.7398 30.9636 94.0446 30.4909C94.2232 30.2242 94.3076 29.9055 94.2844 29.5853C94.2612 29.2652 94.1317 28.9619 93.9165 28.7238C93.4173 28.176 92.8783 27.6547 92.3526 27.129C92.0921 26.8361 91.73 26.653 91.3396 26.6169C90.9492 26.5808 90.5597 26.6944 90.2498 26.9346C89.839 27.2218 89.4281 27.5134 89.0261 27.8182C88.9814 27.8578 88.9255 27.8825 88.8661 27.8888C88.8067 27.8952 88.7468 27.8828 88.6948 27.8535C88.2324 27.6474 87.7641 27.453 87.29 27.2704C87.2321 27.2571 87.1801 27.2253 87.1419 27.1799C87.1036 27.1345 87.0812 27.0779 87.0779 27.0186C86.9984 26.515 86.9145 26.0113 86.8261 25.5121C86.7803 25.1548 86.6089 24.8254 86.3427 24.5826C86.0765 24.3399 85.7327 24.1996 85.3727 24.1868C84.6011 24.1692 83.828 24.1692 83.0534 24.1868C82.7248 24.1944 82.4081 24.3116 82.1536 24.5197C81.8991 24.7277 81.7213 25.0148 81.6486 25.3354C81.5249 25.9009 81.4366 26.4708 81.3438 27.0362C81.3394 27.0957 81.3166 27.1523 81.2786 27.1982C81.2406 27.2441 81.1893 27.277 81.1317 27.2925C80.69 27.4736 80.2482 27.6636 79.8064 27.8624C79.7582 27.892 79.7017 27.9055 79.6452 27.9007C79.5888 27.8959 79.5354 27.8732 79.4928 27.8358C79.051 27.5089 78.6092 27.1732 78.1365 26.8684C77.8707 26.6895 77.5531 26.6037 77.2334 26.6245C76.9137 26.6452 76.6099 26.7714 76.3695 26.9832C75.7819 27.5222 75.2076 28.0832 74.6642 28.6708C74.4077 28.93 74.2555 29.2745 74.2368 29.6388C74.218 30.003 74.334 30.3613 74.5626 30.6455C74.8674 31.0873 75.1811 31.529 75.4771 31.9443C75.4977 31.9784 75.5108 32.0166 75.5153 32.0563C75.5199 32.0959 75.5159 32.1361 75.5036 32.174C75.3181 32.66 75.1237 33.1459 74.916 33.623C74.8992 33.6601 74.8741 33.6929 74.8427 33.7189C74.8114 33.7449 74.7745 33.7635 74.7349 33.7732C74.2357 33.866 73.7321 33.9499 73.2285 34.0294C72.8772 34.0732 72.5524 34.2385 72.3103 34.4967C72.0682 34.755 71.9242 35.0898 71.9032 35.4431C71.8767 36.2471 71.8767 37.0556 71.9032 37.864C71.9175 38.1789 72.0338 38.4807 72.2346 38.7237C72.4355 38.9668 72.7098 39.1379 73.0164 39.2114C73.5907 39.3395 74.1783 39.4279 74.757 39.525C74.813 39.5293 74.8663 39.5506 74.9098 39.5862C74.9533 39.6217 74.9847 39.6698 75 39.7238C75.1811 40.1656 75.3755 40.6383 75.5787 41.0889C75.604 41.1346 75.615 41.1868 75.6103 41.2388C75.6055 41.2907 75.5853 41.3401 75.5522 41.3805C75.2429 41.7957 74.9381 42.211 74.6686 42.6395C74.439 42.9396 74.3294 43.3145 74.3613 43.6911C74.3931 44.0676 74.5642 44.4188 74.8409 44.6761C75.3269 45.1708 75.8128 45.6612 76.3076 46.1427C76.5701 46.4305 76.9325 46.6071 77.3209 46.6367C77.7092 46.6663 78.0942 46.5465 78.3972 46.3018C78.8169 46.0058 79.241 45.7098 79.6562 45.4182C79.6961 45.3895 79.744 45.374 79.7932 45.374C79.8423 45.374 79.8902 45.3895 79.9301 45.4182C80.3719 45.6038 80.7871 45.7893 81.2245 45.9484C81.2917 45.9676 81.3512 46.0073 81.3948 46.0619C81.4383 46.1165 81.4637 46.1834 81.4675 46.2532C81.5426 46.748 81.6221 47.2427 81.7104 47.7375C81.7549 48.0814 81.9176 48.3991 82.1707 48.6361C82.4239 48.873 82.7515 49.0146 83.0976 49.0363C83.9105 49.0672 84.7277 49.0628 85.5406 49.0363C85.8588 49.0202 86.1631 48.9006 86.4071 48.6957C86.6512 48.4907 86.8216 48.2117 86.8924 47.901C87.0117 47.3532 87.0912 46.7966 87.184 46.2399C87.189 46.1745 87.2136 46.1122 87.2546 46.061C87.2956 46.0098 87.351 45.9721 87.4137 45.9528C87.8554 45.7805 88.3193 45.5905 88.7655 45.3917C88.8116 45.367 88.864 45.3568 88.916 45.3623C88.968 45.3678 89.0172 45.3888 89.0571 45.4226C89.4767 45.7275 89.8964 46.0235 90.3161 46.3062C90.6086 46.5204 90.9656 46.628 91.3277 46.611C91.6584 46.607 91.9749 46.4757 92.2113 46.2443C92.7458 45.7407 93.2583 45.2194 93.7796 44.7026C94.0806 44.4403 94.2685 44.0716 94.3039 43.6739C94.3393 43.2762 94.2195 42.8802 93.9695 42.5688C93.6824 42.158 93.3908 41.7516 93.086 41.3451C93.0523 41.3043 93.0315 41.2544 93.026 41.2018C93.0205 41.1492 93.0306 41.0961 93.0551 41.0491C93.2553 40.5985 93.4453 40.1435 93.6249 39.6841C93.6408 39.6263 93.6746 39.5751 93.7214 39.5378C93.7683 39.5005 93.8257 39.479 93.8856 39.4764L95.392 39.2291C95.7479 39.1853 96.0766 39.0164 96.3194 38.7526C96.5622 38.4887 96.7032 38.1472 96.7173 37.7889C96.6908 37.0025 96.6908 36.2074 96.6687 35.4122ZM84.255 41.9724C83.1952 41.9707 82.1597 41.6547 81.2794 41.0644C80.3992 40.4742 79.7137 39.6361 79.3098 38.6563C78.9058 37.6765 78.8014 36.5988 79.0099 35.5597C79.2184 34.5206 79.7303 33.5666 80.481 32.8184C81.2316 32.0702 82.1873 31.5614 83.2271 31.3564C84.2669 31.1513 85.3442 31.2592 86.3227 31.6664C87.3012 32.0736 88.137 32.7618 88.7243 33.644C89.3117 34.5262 89.6243 35.5628 89.6225 36.6226C89.6214 37.3263 89.4816 38.0229 89.2112 38.6726C88.9409 39.3223 88.5452 39.9124 88.0468 40.4092C87.5483 40.906 86.957 41.2997 86.3064 41.5679C85.6558 41.8361 84.9587 41.9736 84.255 41.9724Z" fill="#70CC40" stroke="#093F68" stroke-width="2.48798" stroke-linecap="round" stroke-linejoin="round"/>
<path d="M30.6994 19.2832C30.6496 19.2826 30.6003 19.2737 30.5536 19.2567L27.8632 18.3246C27.7533 18.2855 27.6634 18.2046 27.6129 18.0996C27.5624 17.9945 27.5555 17.8737 27.5937 17.7635C27.6319 17.6528 27.7124 17.5618 27.8176 17.5105C27.9228 17.4591 28.0441 17.4516 28.1548 17.4896L30.8407 18.4217C30.9579 18.4405 31.0628 18.505 31.1324 18.6011C31.202 18.6972 31.2306 18.817 31.2118 18.9342C31.1931 19.0514 31.1285 19.1563 31.0324 19.2259C30.9363 19.2955 30.8165 19.324 30.6994 19.3053V19.2832Z" fill="#DFEAEF"/>
<path d="M49.4169 4.20564C49.2997 4.20564 49.1873 4.15909 49.1045 4.07625C49.0216 3.9934 48.9751 3.88103 48.9751 3.76387V0.441769C48.9751 0.324604 49.0216 0.212238 49.1045 0.129391C49.1873 0.046543 49.2997 0 49.4169 0C49.534 0 49.6464 0.046543 49.7292 0.129391C49.8121 0.212238 49.8586 0.324604 49.8586 0.441769V3.76387C49.8586 3.88103 49.8121 3.9934 49.7292 4.07625C49.6464 4.15909 49.534 4.20564 49.4169 4.20564Z" fill="#DFEAEF"/>
<path d="M37.0299 8.54825C36.9147 8.54894 36.8037 8.50455 36.7207 8.42455L34.8211 6.59121C34.7367 6.50978 34.6882 6.39818 34.6861 6.28095C34.684 6.16372 34.7286 6.05047 34.81 5.96611C34.8915 5.88175 35.0031 5.83319 35.1203 5.83112C35.2375 5.82905 35.3508 5.87364 35.4351 5.95506L37.3348 7.7884C37.417 7.87118 37.4632 7.98314 37.4632 8.09985C37.4632 8.21656 37.417 8.32853 37.3348 8.4113C37.255 8.4951 37.1456 8.54427 37.0299 8.54825Z" fill="#DFEAEF"/>
<path d="M68.3468 19.2833C68.2296 19.3026 68.1096 19.2746 68.0131 19.2054C67.9166 19.1362 67.8515 19.0315 67.8321 18.9144C67.8128 18.7972 67.8408 18.6772 67.91 18.5806C67.9792 18.4841 68.0839 18.419 68.201 18.3997L70.7589 17.5162C70.8137 17.497 70.8717 17.4889 70.9297 17.4922C70.9877 17.4955 71.0445 17.5101 71.0968 17.5354C71.1491 17.5606 71.1959 17.5959 71.2346 17.6392C71.2732 17.6825 71.303 17.733 71.3221 17.7879C71.3413 17.8427 71.3494 17.9007 71.3461 17.9587C71.3428 18.0167 71.3282 18.0735 71.3029 18.1258C71.2777 18.1781 71.2424 18.2249 71.1991 18.2636C71.1558 18.3022 71.1053 18.332 71.0504 18.3511L68.4926 19.2347C68.4472 19.2592 68.3979 19.2757 68.3468 19.2833Z" fill="#DFEAEF"/>
<path d="M62.0164 8.54822C61.9569 8.54799 61.898 8.53574 61.8433 8.51221C61.7887 8.48868 61.7393 8.45434 61.6983 8.41127C61.616 8.3285 61.5698 8.21653 61.5698 8.09983C61.5698 7.98312 61.616 7.87115 61.6983 7.78838L64.075 5.50002C64.1605 5.42867 64.2698 5.39226 64.381 5.39806C64.4922 5.40386 64.5972 5.45146 64.6748 5.53131C64.7524 5.61117 64.797 5.7174 64.7997 5.82873C64.8023 5.94007 64.7628 6.04829 64.6891 6.13175L62.3123 8.42452C62.2327 8.50138 62.127 8.54553 62.0164 8.54822Z" fill="#DFEAEF"/>
</svg>
