<svg width="127" height="77" viewBox="0 0 127 77" fill="none" xmlns="http://www.w3.org/2000/svg">
<path opacity="0.3" d="M38.4961 6.94723C20.0028 11.0137 5.38578 23.8512 1.09915 40.3598C-2.09064 52.6451 0.726078 65.3147 22.1629 69.9222C68.5473 79.8796 118.651 76.5965 124.654 56.6743C130.657 36.7522 119.517 2.57853 92.9949 0.46693C77.8928 -0.7381 55.2211 3.27245 38.4961 6.94723Z" fill="#E6E6E6"/>
<path d="M58.7727 43.8443C58.7727 43.8443 63.0257 41.0052 63.16 41.8857C63.2943 42.7661 61.7423 43.8443 61.9438 43.8443C62.1453 43.8443 65.5925 41.7812 65.7268 42.7773C65.8611 43.7734 62.2161 46.273 58.1646 46.273L58.7727 43.8443Z" fill="#F4A28C"/>
<path d="M88.7344 6.17871H117.349V74.1006H88.7344V6.17871Z" fill="#EFEFEF"/>
<path d="M55.1091 6.86148C54.9255 6.6349 54.69 6.45577 54.4227 6.33917C54.1247 6.2115 53.8029 6.14916 53.4788 6.15637C53.1371 6.15262 52.7986 6.22261 52.4864 6.36156C52.1861 6.4984 51.917 6.69518 51.6955 6.93982C51.4666 7.19855 51.2893 7.49867 51.1732 7.82401C50.915 8.54783 50.915 9.33864 51.1732 10.0625C51.29 10.3833 51.4659 10.6794 51.6918 10.9355C51.9056 11.1804 52.1688 11.3775 52.464 11.5137C52.7631 11.6529 53.0893 11.7242 53.4191 11.7226C53.7789 11.7298 54.1346 11.6451 54.4525 11.4764C54.7546 11.3168 55.0113 11.0832 55.1987 10.7974L56.7768 11.9614C56.426 12.4551 55.9457 12.8424 55.389 13.0806C54.8458 13.325 54.2572 13.4521 53.6616 13.4537C53.0262 13.4607 52.3945 13.3546 51.7962 13.1403C51.2491 12.9403 50.7478 12.632 50.3226 12.2338C49.9032 11.8296 49.5739 11.3414 49.3563 10.8011C48.8923 9.59442 48.8923 8.25847 49.3563 7.05175C49.5736 6.51238 49.9029 6.02533 50.3226 5.62287C50.7459 5.22213 51.2477 4.91346 51.7962 4.7163C52.3938 4.49896 53.0258 4.39152 53.6616 4.39919C53.9118 4.40111 54.1613 4.42357 54.4078 4.46634C54.6739 4.51179 54.9351 4.58301 55.1875 4.67899C55.4505 4.77234 55.7011 4.89764 55.9336 5.05207C56.1738 5.21665 56.3876 5.41665 56.5679 5.64526L55.1091 6.86148Z" fill="#FFD200"/>
<path d="M59.4815 6.30176H57.0229V4.62292H63.839V6.30176H61.3805V13.2409H59.4815V6.30176Z" fill="#FFD200"/>
<path d="M64.3351 8.93201C64.3275 8.2935 64.4454 7.65971 64.6821 7.06664C64.9004 6.52693 65.2311 6.03986 65.6521 5.63776C66.0803 5.23403 66.5888 4.92512 67.1444 4.73119C68.3517 4.30656 69.6678 4.30656 70.8751 4.73119C71.4237 4.92835 71.9255 5.23702 72.3488 5.63776C72.7685 6.04022 73.0978 6.52727 73.3151 7.06664C73.7791 8.27336 73.7791 9.60931 73.3151 10.816C73.0975 11.3563 72.7682 11.8445 72.3488 12.2486C71.9235 12.6469 71.4223 12.9552 70.8751 13.1552C69.667 13.5748 68.3526 13.5748 67.1444 13.1552C66.5901 12.9584 66.0822 12.6498 65.6521 12.2486C65.2316 11.8447 64.9011 11.3565 64.6821 10.816C64.4423 10.2173 64.3244 9.57684 64.3351 8.93201ZM66.3087 8.93201C66.3038 9.31321 66.367 9.69222 66.4953 10.0512C66.614 10.3803 66.7994 10.6813 67.0399 10.9354C67.2778 11.1846 67.5649 11.3816 67.8831 11.5137C68.5917 11.7921 69.3794 11.7921 70.088 11.5137C70.4139 11.3839 70.7088 11.1869 70.9535 10.9354C71.192 10.6833 71.3761 10.3849 71.4944 10.0587C71.7475 9.334 71.7475 8.54494 71.4944 7.82025C71.3757 7.49313 71.1916 7.19357 70.9535 6.93979C70.7143 6.6905 70.4259 6.49359 70.1066 6.36153C69.3971 6.08782 68.6112 6.08782 67.9017 6.36153C67.5836 6.49365 67.2964 6.69059 67.0586 6.93979C66.8188 7.19446 66.6335 7.49531 66.5139 7.82398C66.3811 8.17843 66.3116 8.55349 66.3087 8.93201Z" fill="#FFD200"/>
<path opacity="0.43" d="M94.5356 11.7748H104.799V12.4127H94.5356V11.7748Z" fill="#C1C1C1"/>
<path opacity="0.43" d="M94.5356 14.1588H101.482V14.7968H94.5356V14.1588Z" fill="#C1C1C1"/>
<path d="M19.1597 16.5315C19.1597 16.5315 31.4711 13.2485 37.5224 29.3877C43.5737 45.5269 59.4107 42.8183 59.4107 42.8183L59.3547 47.1236C59.3547 47.1236 47.5283 49.7687 36.7949 41.5499C26.0615 33.3311 19.1597 16.5315 19.1597 16.5315Z" fill="#68E1FD"/>
<path opacity="0.44" d="M19.1597 16.5315C19.1597 16.5315 31.4711 13.2485 37.5224 29.3877C43.5737 45.5269 59.4107 42.8183 59.4107 42.8183L59.3547 47.1236C59.3547 47.1236 47.5283 49.7687 36.7949 41.5499C26.0615 33.3311 19.1597 16.5315 19.1597 16.5315Z" fill="white"/>
<path d="M25.3565 4.03348C25.3565 4.03348 25.6027 6.8017 25.1438 8.64468C25.0982 8.82286 25.0178 8.99028 24.9074 9.13737C24.797 9.28446 24.6586 9.40833 24.5002 9.50189C24.3419 9.59545 24.1666 9.65686 23.9845 9.68262C23.8024 9.70837 23.617 9.69796 23.4389 9.65198C22.5137 9.40576 21.3385 8.80511 21.0251 7.33892L20.1894 4.91394C20.0722 4.41085 20.1145 3.88377 20.3103 3.40579C20.5062 2.92781 20.846 2.52263 21.2825 2.24646C22.8457 1.11231 25.2931 2.35465 25.3565 4.03348Z" fill="#F4A28C"/>
<path d="M20.3384 5.35425L18.9282 14.3528L23.9423 14.7744L22.9537 8.05531L20.3384 5.35425Z" fill="#F4A28C"/>
<path d="M24.6698 4.14918C23.811 4.18508 22.9509 4.12123 22.1068 3.95891C22.3547 4.33619 22.4869 4.77777 22.4869 5.22923C22.4869 5.68068 22.3547 6.12227 22.1068 6.49955C21.8723 6.86795 21.5174 7.14366 21.1024 7.27971C20.6874 7.41577 20.2381 7.40374 19.8311 7.24569L19.8684 3.67537C19.8563 3.16408 19.9827 2.65904 20.2342 2.21375C20.4858 1.76845 20.8531 1.39948 21.2972 1.14593C21.6814 0.926225 22.0789 0.730606 22.4873 0.5602C23.5133 0.146087 25.0205 0.828814 25.942 0.134895C26.0346 0.0649881 26.1438 0.0203986 26.2588 0.00551789C26.3738 -0.00936281 26.4908 0.00597897 26.5981 0.0500317C26.7054 0.0940844 26.7994 0.165328 26.8708 0.256748C26.9422 0.348168 26.9885 0.45661 27.0053 0.571393C27.1694 1.65704 26.9792 3.36572 25.513 3.96264C25.2442 4.07118 24.9593 4.13422 24.6698 4.14918Z" fill="#24285B"/>
<path d="M22.4094 6.41742C22.4094 6.41742 22.387 5.3467 21.5811 5.43251C20.7753 5.51831 20.8014 7.06284 21.8945 7.20461L22.4094 6.41742Z" fill="#F4A28C"/>
<path d="M25.4384 5.7832L26.1846 6.85392C26.2286 6.91444 26.2567 6.98512 26.2662 7.05939C26.2756 7.13367 26.2661 7.20913 26.2386 7.27875C26.211 7.34837 26.1663 7.40989 26.1086 7.4576C26.0509 7.5053 25.982 7.53762 25.9085 7.55158L24.8452 7.75304L25.4384 5.7832Z" fill="#F4A28C"/>
<path opacity="0.31" d="M23.2335 9.51778C22.6083 9.36228 22.0426 9.02624 21.6069 8.55151C21.6069 8.55151 21.6815 10.2192 23.5133 11.857L23.2335 9.51778Z" fill="#CE8172"/>
<path d="M18.1822 14.3528L24.4238 14.8788C24.4238 14.8788 36.7987 18.52 36.2987 30.1525C35.7988 41.7849 34.6796 56.0289 34.6796 56.0289L18.033 58.204C18.033 58.204 -9.63047 20.5496 18.1822 14.3528Z" fill="#68E1FD"/>
<path opacity="0.08" d="M18.0257 22.0791C18.0257 22.0791 21.4356 24.713 21.0103 31.779C20.585 38.8451 18.9174 46.8774 26.211 46.0603C33.5046 45.2433 35.5901 42.9228 35.5901 42.9228L34.6686 56.0252L18.0332 58.2039L16.5409 56.0289C16.5409 56.0289 5.66576 31.9208 18.0257 22.0791Z" fill="black"/>
<path d="M18.5667 24.3399C18.2757 18.6244 10.9709 16.4084 7.61319 21.0457C5.54263 23.8997 4.10629 27.9587 5.11359 33.5511C7.60946 47.381 9.06818 58.174 16.4513 57.4652C23.8345 56.7564 37.7501 40.5164 37.7501 40.5164L33.4859 37.7109C33.4859 37.7109 24.8567 47.0676 19.3464 47.1721C15.4515 47.2467 19.0666 34.066 18.5667 24.3399Z" fill="#68E1FD"/>
<path d="M40.166 38.0895L35.9281 36.7174L38.4011 29.0792L42.639 30.4513L40.166 38.0895Z" fill="#FFD200"/>
<path opacity="0.44" d="M18.5667 24.3399C18.2757 18.6244 10.9709 16.4084 7.61319 21.0457C5.54263 23.8997 4.10629 27.9587 5.11359 33.5511C7.60946 47.381 9.06818 58.174 16.4513 57.4652C23.8345 56.7564 37.7501 40.5164 37.7501 40.5164L33.4859 37.7109C33.4859 37.7109 24.8567 47.0676 19.3464 47.1721C15.4515 47.2467 19.0666 34.066 18.5667 24.3399Z" fill="white"/>
<path d="M36.7539 39.8486C36.7539 39.8486 39.8169 37.502 38.8431 35.7448C37.8694 33.9876 33.9932 38.0318 33.9932 38.0318L36.7539 39.8486Z" fill="#F4A28C"/>
<path d="M30.1018 38.7108C29.2475 35.4352 27.2552 30.8315 25.1884 26.5075C22.1404 20.1242 18.9282 14.3528 18.9282 14.3528L20.7563 14.5095L23.9423 14.7744C23.9647 14.8042 23.9871 14.8266 24.0058 14.8564C25.5801 16.9121 26.7591 19.9116 27.6395 23.0939C29.6653 30.4174 30.1018 38.7108 30.1018 38.7108Z" fill="white"/>
<path d="M24.1739 6.60033C24.7344 6.60033 25.1887 6.146 25.1887 5.58556C25.1887 5.02513 24.7344 4.5708 24.1739 4.5708C23.6135 4.5708 23.1592 5.02513 23.1592 5.58556C23.1592 6.146 23.6135 6.60033 24.1739 6.60033Z" fill="#FFD200"/>
<path d="M26.0206 6.60033C26.5811 6.60033 27.0354 6.146 27.0354 5.58556C27.0354 5.02513 26.5811 4.5708 26.0206 4.5708C25.4602 4.5708 25.0059 5.02513 25.0059 5.58556C25.0059 6.146 25.4602 6.60033 26.0206 6.60033Z" fill="#FFD200"/>
<path d="M18.033 58.204C18.033 58.204 17.7793 60.5916 17.4398 64.3709C17.1003 68.1501 17.104 76.257 17.104 76.257H26.8972L28.9902 69.5044L28.4492 76.257H33.1089L34.6795 56.0289L18.033 58.204Z" fill="#24285B"/>
<path d="M30.1019 38.7107C29.2475 35.4351 27.2553 30.8314 25.1885 26.5075C24.4871 21.5344 22.4016 15.748 22.4016 15.748L20.7563 14.5094L23.9424 14.7743C23.9648 14.8041 23.9872 14.8265 24.0058 14.8564L23.5134 15.6809C24.4684 16.7329 26.1547 20.0085 27.6396 23.0938C29.6654 30.4173 30.1019 38.7107 30.1019 38.7107Z" fill="#24285B"/>
<path d="M69.189 53.5778L68.7488 52.7197C68.5768 52.3836 68.3156 52.1013 67.9937 51.9039C67.6719 51.7065 67.302 51.6015 66.9244 51.6005H57.0603C56.5326 51.6009 56.0252 51.8046 55.6438 52.1694C55.2624 52.5342 55.0361 53.0319 55.0122 53.5591H53.6616V72.2128H77.7585V53.5591L69.189 53.5778Z" fill="#C9C9C9"/>
<path d="M77.7586 72.2502H53.6617L50.2183 57.6965H74.3189L77.7586 72.2502Z" fill="#EFEFEF"/>
<path d="M82.336 25.1682C82.4662 25.1192 82.5821 25.0381 82.6727 24.9325C82.7633 24.8268 82.8259 24.7 82.8546 24.5638V24.2542C82.8098 24.0565 82.7725 23.855 82.7203 23.661C82.6022 23.127 82.3831 22.6205 82.0748 22.1687C82.013 22.0918 81.947 22.0183 81.8771 21.9486C81.7625 21.8376 81.6161 21.765 81.4583 21.7409C81.3005 21.7168 81.1392 21.7425 80.9967 21.8143C80.3916 22.1133 79.6995 22.1861 79.0455 22.0195C78.6178 21.8923 78.2372 21.6418 77.9512 21.2994C77.6652 20.957 77.4865 20.5379 77.4375 20.0944C77.3892 19.6534 77.4561 19.2073 77.6315 18.7998C77.667 18.7047 77.6969 18.6075 77.7211 18.5088C77.7458 18.4277 77.7502 18.3417 77.7339 18.2585C77.7176 18.1752 77.6812 18.0972 77.6278 18.0313C77.4798 17.838 77.3123 17.6605 77.1279 17.5015C76.5355 17.0452 75.8157 16.7844 75.0685 16.7554C75.0009 16.7497 74.9329 16.758 74.8687 16.7799C74.8045 16.8017 74.7455 16.8366 74.6954 16.8822C74.5244 17.0308 74.3924 17.2192 74.3112 17.4307C74.0764 18.0119 73.6247 18.479 73.0516 18.7331C72.4786 18.9873 71.8292 19.0085 71.2408 18.7924C70.9189 18.6615 70.6278 18.4653 70.3857 18.2162C70.1436 17.967 69.9558 17.6703 69.8343 17.3449C69.8343 17.3113 69.8082 17.2777 69.7895 17.2441C69.733 17.0785 69.6169 16.9398 69.4639 16.855C69.3108 16.7702 69.1317 16.7453 68.9613 16.7852C68.2471 16.8583 67.5604 17.1 66.9579 17.4904C66.8424 17.5662 66.736 17.6551 66.6407 17.7552C66.5347 17.8586 66.4597 17.9895 66.4241 18.1332C66.3885 18.2769 66.3938 18.4277 66.4393 18.5685C66.6302 19.2789 66.6029 20.0303 66.3609 20.7249C66.254 21.0187 66.0766 21.2818 65.8444 21.4912C65.6123 21.7007 65.3323 21.85 65.0291 21.9262C64.4666 22.1019 63.8617 22.0862 63.3092 21.8814C63.2197 21.8479 63.1301 21.8255 63.0406 21.7956C62.9115 21.7486 62.7712 21.7416 62.6381 21.7755C62.505 21.8095 62.3852 21.8828 62.2944 21.9859C62.0943 22.1898 61.9314 22.4272 61.8132 22.6873C61.559 23.1704 61.4102 23.7019 61.3767 24.2467C61.3695 24.4513 61.4185 24.6538 61.5184 24.8325C61.5951 24.9898 61.7283 25.1124 61.8915 25.1757C62.3756 25.3757 62.8061 25.6861 63.1488 26.0823C63.4649 26.4394 63.6465 26.8958 63.6622 27.3726C63.6779 27.8493 63.5266 28.3166 63.2346 28.6938C62.8979 29.1574 62.4395 29.5189 61.9102 29.7384C61.7659 29.7917 61.6405 29.8862 61.5496 30.0103C61.4587 30.1344 61.4064 30.2824 61.3991 30.436C61.3768 30.7318 61.4097 31.029 61.496 31.3128C61.6238 31.7905 61.8238 32.246 62.0892 32.6633C62.17 32.8118 62.2876 32.9371 62.4306 33.0273C62.5737 33.1174 62.7374 33.1693 62.9063 33.1781C63.0442 33.1774 63.1813 33.1561 63.3129 33.1147C63.9045 32.9292 64.536 32.9111 65.1373 33.0625C65.392 33.1233 65.6254 33.2522 65.8125 33.4356C66.1268 33.7432 66.3411 34.1384 66.4276 34.5696C66.5141 35.0008 66.4688 35.448 66.2975 35.8531C66.2378 35.9986 66.1707 36.1403 66.1222 36.2896C66.0809 36.413 66.0726 36.5451 66.0981 36.6727C66.1236 36.8003 66.1821 36.919 66.2677 37.0171C66.4785 37.2553 66.7314 37.4526 67.0138 37.5991C67.5464 37.8988 68.1293 38.0986 68.7337 38.1885C68.8699 38.2072 69.0079 38.2072 69.1441 38.1885C69.2958 38.1696 69.4391 38.1086 69.5578 38.0123C69.6765 37.916 69.7658 37.7884 69.8156 37.6438C70.0094 37.1442 70.3453 36.7123 70.7819 36.4015L70.9274 36.3008C71.1707 36.1423 71.4435 36.0345 71.7295 35.9837C72.0812 35.9239 72.4421 35.9505 72.7813 36.0609C73.1205 36.1714 73.4278 36.3625 73.6769 36.6179C73.9673 36.9006 74.1971 37.2395 74.3522 37.614C74.426 37.7976 74.5454 37.9594 74.6992 38.0841C74.8489 38.1921 75.0354 38.2364 75.2177 38.2072C75.988 38.1262 76.7218 37.8373 77.3405 37.3715C77.528 37.2438 77.663 37.0526 77.7206 36.8332C77.7782 36.6138 77.7545 36.381 77.6539 36.1777C77.5046 35.8608 77.4272 35.515 77.4272 35.1648C77.4272 34.8145 77.5046 34.4687 77.6539 34.1519C77.7873 33.8249 78.0083 33.5411 78.2927 33.3317C78.5771 33.1224 78.9138 32.9957 79.2656 32.9655C79.7679 32.8998 80.2785 32.9509 80.7579 33.1147C80.9888 33.1984 81.2402 33.2075 81.4765 33.1405C81.7128 33.0736 81.9221 32.934 82.0748 32.7416C82.4449 32.2729 82.6912 31.7187 82.7911 31.13C82.8216 30.9612 82.839 30.7903 82.8434 30.6188C82.8441 30.4917 82.8151 30.3661 82.7588 30.2521C82.7024 30.1381 82.6203 30.0389 82.5188 29.9622C82.3882 29.8465 82.2411 29.751 82.0823 29.6787C81.7285 29.5342 81.4154 29.3052 81.1706 29.0117C80.9257 28.7183 80.7565 28.3693 80.6777 27.9952C80.5989 27.6212 80.613 27.2336 80.7187 26.8663C80.8243 26.499 81.0184 26.1632 81.2839 25.8883C81.5765 25.5728 81.936 25.3267 82.336 25.1682ZM73.856 33.6034C73.2765 33.7717 72.6761 33.8571 72.0727 33.8571C71.2195 33.8579 70.3752 33.684 69.5918 33.346C68.4455 32.8442 67.4701 32.0197 66.7845 30.973C66.0988 29.9263 65.7326 28.7027 65.7304 27.4514C65.7333 26.2653 66.0666 25.1034 66.6929 24.0961C67.3192 23.0888 68.2138 22.276 69.2763 21.7487C70.3388 21.2215 71.5273 21.0007 72.7082 21.1112C73.8892 21.2217 75.0161 21.659 75.9624 22.3742C76.9087 23.0893 77.637 24.054 78.0656 25.1599C78.4943 26.2659 78.6063 27.4695 78.3891 28.6355C78.1719 29.8016 77.6342 30.8841 76.8361 31.7616C76.038 32.6391 75.0112 33.2769 73.8709 33.6034H73.856Z" fill="#C9C9C9"/>
<path d="M60.5411 34.1295C60.6339 34.14 60.7278 34.1267 60.814 34.0908C60.9002 34.0549 60.9758 33.9976 61.0336 33.9243L61.1269 33.7415C61.1605 33.6109 61.2015 33.4804 61.2313 33.346C61.3225 32.9955 61.3453 32.6307 61.2985 32.2716C61.2863 32.206 61.2701 32.1412 61.25 32.0776C61.2151 31.9766 61.1497 31.8889 61.0628 31.8267C60.9759 31.7646 60.8718 31.731 60.765 31.7306C60.3122 31.7217 59.8773 31.5525 59.5376 31.2531C59.322 31.0465 59.1717 30.7813 59.1054 30.4902C59.0391 30.199 59.0596 29.8949 59.1645 29.6153C59.2692 29.3369 59.4455 29.0911 59.6756 28.9027C59.7266 28.8567 59.774 28.8068 59.8174 28.7535C59.8578 28.7131 59.8874 28.6633 59.9037 28.6086C59.92 28.5539 59.9224 28.496 59.9106 28.4401C59.88 28.2805 59.8338 28.1243 59.7726 27.9738C59.5606 27.5203 59.2107 27.1456 58.7728 26.903C58.7353 26.8797 58.6935 26.8644 58.6498 26.8579C58.6062 26.8515 58.5617 26.8542 58.5191 26.8657C58.372 26.8963 58.2348 26.963 58.1199 27.0597C57.802 27.331 57.3916 27.469 56.9744 27.4446C56.5572 27.4203 56.1656 27.2356 55.8814 26.9292C55.7339 26.7512 55.6247 26.5447 55.5605 26.3226C55.4963 26.1005 55.4785 25.8676 55.5084 25.6383C55.5102 25.6135 55.5102 25.5885 55.5084 25.5637C55.5256 25.4476 55.4988 25.3292 55.4333 25.2319C55.3677 25.1346 55.268 25.0653 55.1539 25.0377C54.7062 24.8609 54.2228 24.7932 53.7437 24.8399C53.651 24.8518 53.5598 24.873 53.4714 24.9034C53.3765 24.9326 53.2915 24.9874 53.2257 25.0618C53.1599 25.1362 53.1158 25.2272 53.0983 25.3249C52.9978 25.8075 52.7517 26.2476 52.3932 26.5859C52.2395 26.728 52.0536 26.8304 51.8514 26.8844C51.6492 26.9383 51.4369 26.9422 51.2329 26.8956C50.8432 26.8288 50.4871 26.633 50.2219 26.3397L50.0876 26.2054C50.0238 26.1383 49.9416 26.0915 49.8514 26.071C49.7611 26.0504 49.6668 26.0569 49.5802 26.0897C49.3985 26.1497 49.2292 26.242 49.0803 26.3621C48.7785 26.5715 48.5242 26.8423 48.3341 27.1567C48.271 27.2708 48.2388 27.3994 48.2409 27.5298C48.2377 27.6464 48.2791 27.7598 48.3565 27.8469C48.5825 28.1149 48.7434 28.4316 48.8266 28.7721C48.905 29.082 48.8735 29.4094 48.7374 29.6985C48.6013 29.9877 48.3691 30.2206 48.0805 30.3577C47.7347 30.5322 47.3472 30.6071 46.9612 30.5741C46.8587 30.5614 46.7546 30.5795 46.6623 30.626C46.57 30.6725 46.4936 30.7453 46.4427 30.8352C46.3399 31.005 46.2691 31.1922 46.2337 31.3874C46.1635 31.7107 46.1434 32.0429 46.174 32.3723C46.177 32.4853 46.2087 32.5956 46.2661 32.6928C46.3236 32.7901 46.4049 32.8711 46.5024 32.9282C46.5838 32.9717 46.6722 33.0007 46.7635 33.014C47.1781 33.0847 47.5653 33.2679 47.8827 33.5438C48.0161 33.66 48.1143 33.8112 48.1663 33.9803C48.2592 34.2593 48.2658 34.5599 48.1853 34.8427C48.1047 35.1256 47.9408 35.3776 47.7148 35.5658C47.6365 35.6367 47.5507 35.7001 47.4761 35.7748C47.4134 35.8354 47.368 35.9115 47.3444 35.9954C47.3208 36.0793 47.3199 36.1679 47.3418 36.2523C47.3937 36.4597 47.4835 36.6558 47.6067 36.8306C47.8342 37.1699 48.1196 37.4667 48.4498 37.7073C48.5277 37.7586 48.6116 37.7999 48.6998 37.8304C48.7961 37.8646 48.9 37.8715 49.0001 37.8504C49.1001 37.8294 49.1924 37.7811 49.2668 37.711C49.5336 37.4708 49.8663 37.3162 50.2219 37.2671H50.3413C50.5346 37.2456 50.7303 37.2646 50.9158 37.323C51.143 37.3962 51.3493 37.5228 51.5175 37.6923C51.6856 37.8617 51.8106 38.069 51.8821 38.2967C51.9671 38.5551 51.9988 38.8279 51.9754 39.0989C51.9678 39.2268 51.9908 39.3547 52.0425 39.4719C52.0694 39.5272 52.1075 39.5764 52.1544 39.6162C52.2013 39.656 52.2559 39.6856 52.3149 39.7032C52.7972 39.8932 53.3227 39.9461 53.8333 39.8562C53.9837 39.8382 54.1225 39.7663 54.224 39.6538C54.3256 39.5413 54.3829 39.3958 54.3854 39.2444C54.3917 39.0096 54.4499 38.7792 54.5557 38.5696C54.6614 38.36 54.8122 38.1764 54.9973 38.0319C55.1765 37.8769 55.3954 37.775 55.6293 37.7374C55.8632 37.6999 56.1029 37.7282 56.3217 37.8192C56.6381 37.9329 56.9241 38.118 57.1574 38.3602C57.2709 38.4797 57.4191 38.5606 57.5811 38.5914C57.7431 38.6222 57.9107 38.6013 58.0602 38.5318C58.4246 38.3635 58.7413 38.1071 58.9817 37.7856C59.0503 37.6942 59.1126 37.5982 59.1682 37.4984C59.209 37.4254 59.2325 37.3442 59.237 37.2607C59.2415 37.1773 59.2269 37.094 59.1943 37.0171C59.1515 36.907 59.0924 36.8038 59.019 36.7112C58.8523 36.517 58.7357 36.2848 58.6797 36.0351C58.6237 35.7853 58.6298 35.5257 58.6976 35.2788C58.7654 35.032 58.8927 34.8056 59.0684 34.6195C59.2442 34.4334 59.4629 34.2934 59.7055 34.2116C59.9742 34.1211 60.26 34.093 60.5411 34.1295ZM52.9006 36.5545C51.9371 36.3671 51.0683 35.8516 50.442 35.0958C49.9108 34.4457 49.5803 33.6551 49.4909 32.8203C49.4014 31.9856 49.5569 31.1429 49.9384 30.395C50.3037 29.6896 50.8584 29.0999 51.5401 28.6921C52.2219 28.2843 53.0038 28.0745 53.7981 28.0863C54.5925 28.098 55.3678 28.3309 56.0372 28.7587C56.7066 29.1865 57.2436 29.7923 57.5879 30.5082C57.9322 31.2242 58.0702 32.0219 57.9865 32.8119C57.9027 33.6019 57.6006 34.3529 57.1138 34.9808C56.6271 35.6086 55.9751 36.0884 55.2309 36.3664C54.4867 36.6444 53.6797 36.7095 52.9006 36.5545Z" fill="#C9C9C9"/>
<path opacity="0.43" d="M96.0763 42.8966C97.0838 42.8966 97.9006 42.0798 97.9006 41.0723C97.9006 40.0647 97.0838 39.2479 96.0763 39.2479C95.0687 39.2479 94.252 40.0647 94.252 41.0723C94.252 42.0798 95.0687 42.8966 96.0763 42.8966Z" fill="#C1C1C1"/>
<path opacity="0.43" d="M95.7217 19.5981H96.4305V68.4933H95.7217V19.5981Z" fill="#C1C1C1"/>
<path opacity="0.43" d="M103.042 54.2418C104.049 54.2418 104.866 53.425 104.866 52.4175C104.866 51.4099 104.049 50.5931 103.042 50.5931C102.034 50.5931 101.217 51.4099 101.217 52.4175C101.217 53.425 102.034 54.2418 103.042 54.2418Z" fill="#C1C1C1"/>
<path opacity="0.43" d="M102.687 19.5981H103.396V68.4933H102.687V19.5981Z" fill="#C1C1C1"/>
<path opacity="0.43" d="M110.007 31.1261C111.014 31.1261 111.831 30.3093 111.831 29.3018C111.831 28.2942 111.014 27.4774 110.007 27.4774C108.999 27.4774 108.183 28.2942 108.183 29.3018C108.183 30.3093 108.999 31.1261 110.007 31.1261Z" fill="#C1C1C1"/>
<path opacity="0.43" d="M109.652 19.5981H110.361V68.4933H109.652V19.5981Z" fill="#C1C1C1"/>
</svg>
