<svg width="2" height="23" viewBox="0 0 2 23" fill="none" xmlns="http://www.w3.org/2000/svg">
<path d="M0.564797 0.387V0H1.2878V2.187H0.855797V0.387H0.564797Z" fill="black"/>
<path d="M0.429926 11.713C0.621926 11.553 0.774926 11.42 0.888926 11.314C1.00293 11.206 1.09793 11.094 1.17393 10.978C1.24993 10.862 1.28793 10.748 1.28793 10.636C1.28793 10.534 1.26393 10.454 1.21593 10.396C1.16793 10.338 1.09393 10.309 0.993926 10.309C0.893926 10.309 0.816926 10.343 0.762926 10.411C0.708926 10.477 0.680926 10.568 0.678926 10.684H0.270926C0.278926 10.444 0.349926 10.262 0.483926 10.138C0.619926 10.014 0.791926 9.952 0.999926 9.952C1.22793 9.952 1.40293 10.013 1.52493 10.135C1.64693 10.255 1.70793 10.414 1.70793 10.612C1.70793 10.768 1.66593 10.917 1.58193 11.059C1.49793 11.201 1.40193 11.325 1.29393 11.431C1.18593 11.535 1.04493 11.661 0.870926 11.809H1.75593V12.157H0.273926V11.845L0.429926 11.713Z" fill="black"/>
<path d="M0.267305 20.576C0.277305 20.376 0.347305 20.222 0.477305 20.114C0.609305 20.004 0.782305 19.949 0.996305 19.949C1.1423 19.949 1.2673 19.975 1.3713 20.027C1.4753 20.077 1.5533 20.146 1.6053 20.234C1.6593 20.32 1.6863 20.418 1.6863 20.528C1.6863 20.654 1.6533 20.761 1.5873 20.849C1.5233 20.935 1.4463 20.993 1.3563 21.023V21.035C1.4723 21.071 1.5623 21.135 1.6263 21.227C1.6923 21.319 1.7253 21.437 1.7253 21.581C1.7253 21.701 1.6973 21.808 1.6413 21.902C1.5873 21.996 1.5063 22.07 1.3983 22.124C1.2923 22.176 1.1643 22.202 1.0143 22.202C0.788305 22.202 0.604305 22.145 0.462305 22.031C0.320305 21.917 0.245305 21.749 0.237305 21.527H0.645305C0.649305 21.625 0.682305 21.704 0.744305 21.764C0.808305 21.822 0.895305 21.851 1.0053 21.851C1.1073 21.851 1.1853 21.823 1.2393 21.767C1.2953 21.709 1.3233 21.635 1.3233 21.545C1.3233 21.425 1.2853 21.339 1.2093 21.287C1.1333 21.235 1.0153 21.209 0.855305 21.209H0.768305V20.864H0.855305C1.1393 20.864 1.2813 20.769 1.2813 20.579C1.2813 20.493 1.2553 20.426 1.2033 20.378C1.1533 20.33 1.0803 20.306 0.984305 20.306C0.890305 20.306 0.817305 20.332 0.765305 20.384C0.715305 20.434 0.686305 20.498 0.678305 20.576H0.267305Z" fill="black"/>
</svg>
