<svg width="4" height="17" viewBox="0 0 4 17" fill="none" xmlns="http://www.w3.org/2000/svg">
<path d="M4 1.97794C4 1.41797 3.80822 0.948325 3.42466 0.568995C3.0411 0.189665 2.56621 -1.12173e-07 2 -8.74228e-08C1.43379 -6.26729e-08 0.958904 0.189665 0.575342 0.568995C0.191781 0.948325 6.19815e-08 1.41797 8.64583e-08 1.97794C1.10146e-07 2.51984 0.191781 2.98045 0.575343 3.35978C0.958904 3.73911 1.43379 3.92878 2 3.92878C2.56621 3.92878 3.0411 3.73911 3.42466 3.35978C3.80822 2.98045 4 2.51984 4 1.97794Z" fill="#7D6004"/>
<path d="M4 8.51355C4 7.95358 3.80822 7.48394 3.42466 7.10461C3.0411 6.72528 2.56621 6.53561 2 6.53561C1.43379 6.53561 0.958904 6.72528 0.575343 7.10461C0.191781 7.48394 3.47662e-07 7.95358 3.72139e-07 8.51355C3.95826e-07 9.05545 0.191781 9.51606 0.575343 9.89539C0.958904 10.2747 1.43379 10.4644 2 10.4644C2.56621 10.4644 3.0411 10.2747 3.42466 9.89539C3.80822 9.51606 4 9.05545 4 8.51355Z" fill="#7D6004"/>
<path d="M4 15.0492C4 14.4892 3.80822 14.0196 3.42466 13.6402C3.0411 13.2609 2.56621 13.0712 2 13.0712C1.43379 13.0712 0.958905 13.2609 0.575343 13.6402C0.191781 14.0196 6.33343e-07 14.4892 6.5782e-07 15.0492C6.81507e-07 15.5911 0.191781 16.0517 0.575343 16.431C0.958905 16.8103 1.43379 17 2 17C2.56621 17 3.0411 16.8103 3.42466 16.431C3.80822 16.0517 4 15.5911 4 15.0492Z" fill="#7D6004"/>
</svg>
