<svg width="25" height="25" viewBox="0 0 25 25" fill="none" xmlns="http://www.w3.org/2000/svg">
<path d="M12.8787 13.8315V10.3158C13.4157 10.126 13.8683 9.75235 14.1566 9.26104C14.4448 8.76973 14.55 8.19235 14.4537 7.63095C14.3574 7.06955 14.0657 6.56028 13.6302 6.19314C13.1947 5.826 12.6434 5.62463 12.0738 5.62463C11.5042 5.62463 10.953 5.826 10.5175 6.19314C10.082 6.56028 9.79028 7.06955 9.69396 7.63095C9.59764 8.19235 9.70288 8.76973 9.99109 9.26104C10.2793 9.75235 10.7319 10.126 11.2689 10.3158V13.8323C10.7319 14.0222 10.2793 14.3958 9.99109 14.8871C9.70288 15.3784 9.59764 15.9558 9.69396 16.5172C9.79028 17.0786 10.082 17.5879 10.5175 17.955C10.953 18.3222 11.5042 18.5235 12.0738 18.5235C12.6434 18.5235 13.1947 18.3222 13.6302 17.955C14.0657 17.5879 14.3574 17.0786 14.4537 16.5172C14.55 15.9558 14.4448 15.3784 14.1566 14.8871C13.8683 14.3958 13.4157 14.0214 12.8787 13.8315ZM12.0738 7.2444C12.233 7.2444 12.3886 7.2916 12.521 7.38004C12.6534 7.46848 12.7565 7.59419 12.8174 7.74126C12.8784 7.88833 12.8943 8.05017 12.8632 8.2063C12.8322 8.36243 12.7555 8.50585 12.643 8.61841C12.5304 8.73098 12.387 8.80763 12.2309 8.83869C12.0747 8.86975 11.9129 8.85381 11.7658 8.79289C11.6187 8.73197 11.493 8.62881 11.4046 8.49644C11.3162 8.36408 11.2689 8.20847 11.2689 8.04928C11.2689 7.83581 11.3537 7.63108 11.5047 7.48014C11.6556 7.3292 11.8604 7.2444 12.0738 7.2444ZM12.0738 16.903C11.9146 16.903 11.759 16.8558 11.6267 16.7673C11.4943 16.6789 11.3911 16.5532 11.3302 16.4061C11.2693 16.259 11.2534 16.0972 11.2844 15.9411C11.3155 15.7849 11.3921 15.6415 11.5047 15.5289C11.6173 15.4164 11.7607 15.3397 11.9168 15.3087C12.0729 15.2776 12.2348 15.2935 12.3818 15.3545C12.5289 15.4154 12.6546 15.5185 12.7431 15.6509C12.8315 15.7833 12.8787 15.9389 12.8787 16.0981C12.8787 16.3115 12.7939 16.5163 12.643 16.6672C12.492 16.8182 12.2873 16.903 12.0738 16.903Z" fill="#7D6004"/>
<path d="M23.6752 13.2118C23.977 12.9099 24.1465 12.5005 24.1465 12.0737C24.1465 11.6468 23.977 11.2374 23.6752 10.9356L19.0174 6.27772L21.3515 3.97415C21.6958 4.05986 22.0588 4.02954 22.3841 3.8879C22.7094 3.74626 22.9788 3.50122 23.1506 3.1908C23.3224 2.88038 23.387 2.52193 23.3343 2.17107C23.2815 1.82021 23.1145 1.49656 22.859 1.25034C22.6036 1.00412 22.274 0.849085 21.9215 0.8093C21.5689 0.769514 21.2131 0.8472 20.9092 1.0303C20.6053 1.21341 20.3703 1.49169 20.2407 1.82197C20.1111 2.15226 20.0942 2.51608 20.1925 2.85698L17.8793 5.13962L13.2118 0.471316C12.9099 0.169533 12.5005 0 12.0737 0C11.6468 0 11.2374 0.169533 10.9356 0.471316L6.27772 5.13077L3.97415 2.79501C4.05942 2.45064 4.02865 2.08776 3.88663 1.76266C3.7446 1.43756 3.49927 1.16842 3.18867 0.996988C2.87807 0.825556 2.51958 0.761417 2.16881 0.81452C1.81804 0.867624 1.4946 1.035 1.24867 1.29069C1.00274 1.54637 0.848057 1.87608 0.808627 2.22864C0.769197 2.58121 0.847222 2.93694 1.0306 3.24064C1.21397 3.54433 1.49245 3.77903 1.82282 3.90831C2.15319 4.03759 2.51699 4.05423 2.85779 3.95564L5.13962 6.26806L0.471316 10.9356C0.169533 11.2374 0 11.6468 0 12.0737C0 12.5005 0.169533 12.9099 0.471316 13.2118L5.13962 17.8793L2.85779 20.1917C2.51771 20.0937 2.15483 20.1107 1.82537 20.2399C1.49592 20.3692 1.2183 20.6035 1.03555 20.9066C0.852802 21.2096 0.775123 21.5645 0.814558 21.9162C0.853993 22.2679 1.00834 22.5968 1.25367 22.8518C1.499 23.1069 1.82162 23.2739 2.17152 23.327C2.52141 23.3801 2.87904 23.3162 3.18898 23.1454C3.49891 22.9746 3.74384 22.7063 3.8858 22.3821C4.02776 22.0579 4.05881 21.6959 3.97415 21.3523L6.27772 19.0182L10.9356 23.6752C11.2374 23.977 11.6468 24.1465 12.0737 24.1465C12.5005 24.1465 12.9099 23.977 13.2118 23.6752L17.8801 19.0077L20.1917 21.2903C20.0937 21.6304 20.1107 21.9933 20.2399 22.3228C20.3692 22.6522 20.6035 22.9298 20.9066 23.1126C21.2096 23.2953 21.5645 23.373 21.9162 23.3336C22.2679 23.2941 22.5968 23.1398 22.8518 22.8945C23.1069 22.6491 23.2739 22.3265 23.327 21.9766C23.3801 21.6267 23.3162 21.2691 23.1454 20.9592C22.9746 20.6492 22.7063 20.4043 22.3821 20.2623C22.0579 20.1204 21.6959 20.0893 21.3523 20.174L19.0182 17.8696L23.6752 13.2118ZM12.0737 22.5371L1.61022 12.0737L12.0737 1.61022L22.5371 12.0737L12.0737 22.5371Z" fill="#7D6004"/>
</svg>
