<svg width="25" height="25" viewBox="0 0 25 25" fill="none" xmlns="http://www.w3.org/2000/svg">
<path d="M12.8787 13.8314V10.3157C13.4157 10.1258 13.8683 9.75223 14.1566 9.26092C14.4448 8.76961 14.55 8.19223 14.4537 7.63083C14.3574 7.06943 14.0657 6.56016 13.6302 6.19302C13.1947 5.82588 12.6434 5.62451 12.0738 5.62451C11.5042 5.62451 10.953 5.82588 10.5175 6.19302C10.082 6.56016 9.79028 7.06943 9.69396 7.63083C9.59764 8.19223 9.70288 8.76961 9.99109 9.26092C10.2793 9.75223 10.7319 10.1258 11.2689 10.3157V13.8322C10.7319 14.0221 10.2793 14.3957 9.99109 14.887C9.70288 15.3783 9.59764 15.9557 9.69396 16.5171C9.79028 17.0785 10.082 17.5878 10.5175 17.9549C10.953 18.322 11.5042 18.5234 12.0738 18.5234C12.6434 18.5234 13.1947 18.322 13.6302 17.9549C14.0657 17.5878 14.3574 17.0785 14.4537 16.5171C14.55 15.9557 14.4448 15.3783 14.1566 14.887C13.8683 14.3957 13.4157 14.0213 12.8787 13.8314ZM12.0738 7.24427C12.233 7.24427 12.3886 7.29148 12.521 7.37992C12.6534 7.46836 12.7565 7.59407 12.8174 7.74114C12.8784 7.88821 12.8943 8.05005 12.8632 8.20618C12.8322 8.36231 12.7555 8.50573 12.643 8.61829C12.5304 8.73086 12.387 8.80751 12.2309 8.83857C12.0747 8.86963 11.9129 8.85369 11.7658 8.79277C11.6187 8.73185 11.493 8.62868 11.4046 8.49632C11.3162 8.36396 11.2689 8.20834 11.2689 8.04915C11.2689 7.83569 11.3537 7.63096 11.5047 7.48002C11.6556 7.32907 11.8604 7.24427 12.0738 7.24427ZM12.0738 16.9028C11.9146 16.9028 11.759 16.8556 11.6267 16.7672C11.4943 16.6787 11.3911 16.553 11.3302 16.406C11.2693 16.2589 11.2534 16.0971 11.2844 15.9409C11.3155 15.7848 11.3921 15.6414 11.5047 15.5288C11.6173 15.4163 11.7607 15.3396 11.9168 15.3085C12.0729 15.2775 12.2348 15.2934 12.3818 15.3543C12.5289 15.4153 12.6546 15.5184 12.7431 15.6508C12.8315 15.7831 12.8787 15.9388 12.8787 16.098C12.8787 16.3114 12.7939 16.5161 12.643 16.6671C12.492 16.818 12.2873 16.9028 12.0738 16.9028Z" fill="#7D6004"/>
<path d="M23.6752 13.2118C23.977 12.9099 24.1465 12.5005 24.1465 12.0737C24.1465 11.6468 23.977 11.2374 23.6752 10.9356L19.0174 6.27772L21.3515 3.97415C21.6958 4.05986 22.0588 4.02954 22.3841 3.8879C22.7094 3.74626 22.9788 3.50122 23.1506 3.1908C23.3224 2.88038 23.387 2.52193 23.3343 2.17107C23.2815 1.82021 23.1145 1.49656 22.859 1.25034C22.6036 1.00412 22.274 0.849085 21.9215 0.8093C21.5689 0.769514 21.2131 0.8472 20.9092 1.0303C20.6053 1.21341 20.3703 1.49169 20.2407 1.82197C20.1111 2.15226 20.0942 2.51608 20.1925 2.85698L17.8793 5.13962L13.2118 0.471316C12.9099 0.169533 12.5005 0 12.0737 0C11.6468 0 11.2374 0.169533 10.9356 0.471316L6.27772 5.13077L3.97415 2.79501C4.05942 2.45064 4.02865 2.08776 3.88663 1.76266C3.7446 1.43756 3.49927 1.16842 3.18867 0.996988C2.87807 0.825556 2.51958 0.761417 2.16881 0.81452C1.81804 0.867624 1.4946 1.035 1.24867 1.29069C1.00274 1.54637 0.848057 1.87608 0.808627 2.22864C0.769197 2.58121 0.847222 2.93694 1.0306 3.24064C1.21397 3.54433 1.49245 3.77903 1.82282 3.90831C2.15319 4.03759 2.51699 4.05423 2.85779 3.95564L5.13962 6.26806L0.471316 10.9356C0.169533 11.2374 0 11.6468 0 12.0737C0 12.5005 0.169533 12.9099 0.471316 13.2118L5.13962 17.8793L2.85779 20.1917C2.51771 20.0937 2.15483 20.1107 1.82537 20.2399C1.49592 20.3692 1.2183 20.6035 1.03555 20.9066C0.852802 21.2096 0.775123 21.5645 0.814558 21.9162C0.853993 22.2679 1.00834 22.5968 1.25367 22.8518C1.499 23.1069 1.82162 23.2739 2.17152 23.327C2.52141 23.3801 2.87904 23.3162 3.18898 23.1454C3.49891 22.9746 3.74384 22.7063 3.8858 22.3821C4.02776 22.0579 4.05881 21.6959 3.97415 21.3523L6.27772 19.0182L10.9356 23.6752C11.2374 23.977 11.6468 24.1465 12.0737 24.1465C12.5005 24.1465 12.9099 23.977 13.2118 23.6752L17.8801 19.0077L20.1917 21.2903C20.0937 21.6304 20.1107 21.9933 20.2399 22.3228C20.3692 22.6522 20.6035 22.9298 20.9066 23.1126C21.2096 23.2953 21.5645 23.373 21.9162 23.3336C22.2679 23.2941 22.5968 23.1398 22.8518 22.8945C23.1069 22.6491 23.2739 22.3265 23.327 21.9766C23.3801 21.6267 23.3162 21.2691 23.1454 20.9592C22.9746 20.6492 22.7063 20.4043 22.3821 20.2623C22.0579 20.1204 21.6959 20.0893 21.3523 20.174L19.0182 17.8696L23.6752 13.2118ZM12.0737 22.5371L1.61022 12.0737L12.0737 1.61022L22.5371 12.0737L12.0737 22.5371Z" fill="#7D6004"/>
</svg>
