<svg width="140" height="126" viewBox="0 0 140 126" fill="none" xmlns="http://www.w3.org/2000/svg">
<path d="M10.584 107.204L16.7581 117.868C18.041 120.113 19.8851 121.877 22.0501 123.16C28.2515 115.289 32.5674 109.248 34.9998 105.039C37.4678 100.767 40.5013 94.0851 44.1002 84.9935C34.401 83.7166 27.0512 83.0784 22.0506 83.0784C17.2508 83.0784 9.90097 83.7166 0 84.9935C0 87.479 0.641471 89.9645 1.92441 92.2099L10.584 107.204Z" fill="#0066DA"/>
<path d="M117.948 123.16C120.114 121.877 121.958 120.113 123.24 117.868L125.806 113.458L138.074 92.2099C139.334 90.0132 139.997 87.5255 139.998 84.9935C130.04 83.7166 122.704 83.0784 117.989 83.0784C112.921 83.0784 105.585 83.7166 95.9785 84.9935C99.5348 94.1349 102.528 100.817 104.959 105.039C107.411 109.298 111.74 115.338 117.948 123.16Z" fill="#EA4335"/>
<path d="M69.9993 40.0911C77.1742 31.4261 82.1189 24.7439 84.833 20.0458C87.0188 16.2626 89.4245 10.222 92.0494 1.92441C89.8844 0.641471 87.3989 0 84.833 0H55.1656C52.5997 0 50.1148 0.72186 47.9492 1.92441C51.2884 11.4409 54.1222 18.2139 56.4497 22.2426C59.0221 26.6952 63.5387 32.6445 69.9993 40.0911Z" fill="#00832D"/>
<path d="M95.8982 84.9937H44.1003L22.0508 123.16C24.2153 124.443 26.7008 125.085 29.2667 125.085H110.732C113.298 125.085 115.784 124.363 117.948 123.16L95.8987 84.9937H95.8982Z" fill="#2684FC"/>
<path d="M69.9991 40.0912L47.9496 1.92505C45.784 3.20799 43.94 4.97163 42.657 7.21705L1.92441 77.7773C0.665055 79.9739 0.00166382 82.4616 0 84.9937H44.1002L69.9991 40.0912Z" fill="#00AC47"/>
<path d="M117.708 42.4967L97.3416 7.21632C96.0592 4.9709 94.2146 3.20726 92.0496 1.92432L70 40.091L95.8984 84.9935H139.919C139.919 82.5074 139.277 80.0225 137.994 77.7771L117.708 42.4967Z" fill="#FFBA00"/>
</svg>
