<svg width="18" height="18" viewBox="0 0 18 18" fill="none" xmlns="http://www.w3.org/2000/svg">
<path d="M14.2497 7.50012C14.8465 7.50012 15.4188 7.73717 15.8407 8.15913C16.2627 8.58109 16.4997 9.15338 16.4997 9.75012V12.0001C16.4997 12.5969 16.2627 13.1692 15.8407 13.5911C15.4188 14.0131 14.8465 14.2501 14.2497 14.2501V14.9746C14.2497 15.7696 13.3227 16.2039 12.7122 15.6946L10.9782 14.2501H8.99973C8.40299 14.2501 7.83069 14.0131 7.40874 13.5911C6.98678 13.1692 6.74973 12.5969 6.74973 12.0001V9.75012C6.74973 9.15338 6.98678 8.58109 7.40874 8.15913C7.83069 7.73717 8.40299 7.50012 8.99973 7.50012H14.2497ZM11.9997 3.00012C12.5965 3.00012 13.1688 3.23718 13.5907 3.65913C14.0127 4.08109 14.2497 4.65338 14.2497 5.25012V6.00012H8.24973C7.45408 6.00012 6.69101 6.31619 6.12841 6.8788C5.5658 7.44141 5.24973 8.20447 5.24973 9.00012V12.0001C5.24973 12.7831 5.54973 13.4971 6.04173 14.0311L5.24973 14.6251C4.63173 15.0886 3.74973 14.6476 3.74973 13.8751V12.7501C3.15299 12.7501 2.58069 12.5131 2.15874 12.0911C1.73678 11.6692 1.49973 11.0969 1.49973 10.5001V5.25012C1.49973 4.65338 1.73678 4.08109 2.15874 3.65913C2.58069 3.23718 3.15299 3.00012 3.74973 3.00012H11.9997Z" fill="#919191"/>
</svg>
