<svg width="18" height="18" viewBox="0 0 18 18" fill="none" xmlns="http://www.w3.org/2000/svg">
<path d="M14.25 7.5C14.8467 7.5 15.419 7.73705 15.841 8.15901C16.2629 8.58097 16.5 9.15326 16.5 9.75V12C16.5 12.5967 16.2629 13.169 15.841 13.591C15.419 14.0129 14.8467 14.25 14.25 14.25V14.9745C14.25 15.7695 13.323 16.2038 12.7125 15.6945L10.9785 14.25H9C8.40326 14.25 7.83097 14.0129 7.40901 13.591C6.98705 13.169 6.75 12.5967 6.75 12V9.75C6.75 9.15326 6.98705 8.58097 7.40901 8.15901C7.83097 7.73705 8.40326 7.5 9 7.5H14.25ZM12 3C12.5967 3 13.169 3.23705 13.591 3.65901C14.0129 4.08097 14.25 4.65326 14.25 5.25V6H8.25C7.45435 6 6.69129 6.31607 6.12868 6.87868C5.56607 7.44129 5.25 8.20435 5.25 9V12C5.25 12.783 5.55 13.497 6.042 14.031L5.25 14.625C4.632 15.0885 3.75 14.6475 3.75 13.875V12.75C3.15326 12.75 2.58097 12.5129 2.15901 12.091C1.73705 11.669 1.5 11.0967 1.5 10.5V5.25C1.5 4.65326 1.73705 4.08097 2.15901 3.65901C2.58097 3.23705 3.15326 3 3.75 3H12Z" fill="#919191"/>
</svg>
