<svg width="16" height="16" viewBox="0 0 16 16" fill="none" xmlns="http://www.w3.org/2000/svg">
<path d="M6.99935 13.3334C6.99935 13.5986 7.10471 13.8529 7.29224 14.0405C7.47978 14.228 7.73413 14.3334 7.99935 14.3334C8.26457 14.3334 8.51892 14.228 8.70646 14.0405C8.89399 13.8529 8.99935 13.5986 8.99935 13.3334V9.00002H13.3327C13.5979 9.00002 13.8523 8.89466 14.0398 8.70713C14.2273 8.51959 14.3327 8.26524 14.3327 8.00002C14.3327 7.7348 14.2273 7.48045 14.0398 7.29291C13.8523 7.10538 13.5979 7.00002 13.3327 7.00002H8.99935V2.66669C8.99935 2.40147 8.89399 2.14712 8.70646 1.95958C8.51892 1.77204 8.26457 1.66669 7.99935 1.66669C7.73413 1.66669 7.47978 1.77204 7.29224 1.95958C7.10471 2.14712 6.99935 2.40147 6.99935 2.66669V7.00002H2.66602C2.4008 7.00002 2.14645 7.10538 1.95891 7.29291C1.77137 7.48045 1.66602 7.7348 1.66602 8.00002C1.66602 8.26524 1.77137 8.51959 1.95891 8.70713C2.14645 8.89466 2.4008 9.00002 2.66602 9.00002H6.99935V13.3334Z" fill="black"/>
</svg>
