<svg width="18" height="18" viewBox="0 0 18 18" fill="none" xmlns="http://www.w3.org/2000/svg">
<path d="M14.2497 7.50007C14.8465 7.50007 15.4188 7.73712 15.8407 8.15908C16.2627 8.58103 16.4997 9.15333 16.4997 9.75007V12.0001C16.4997 12.5968 16.2627 13.1691 15.8407 13.5911C15.4188 14.013 14.8465 14.2501 14.2497 14.2501V14.9746C14.2497 15.7696 13.3227 16.2038 12.7122 15.6946L10.9782 14.2501H8.99973C8.40299 14.2501 7.83069 14.013 7.40874 13.5911C6.98678 13.1691 6.74973 12.5968 6.74973 12.0001V9.75007C6.74973 9.15333 6.98678 8.58103 7.40874 8.15908C7.83069 7.73712 8.40299 7.50007 8.99973 7.50007H14.2497ZM11.9997 3.00007C12.5965 3.00007 13.1688 3.23712 13.5907 3.65908C14.0127 4.08104 14.2497 4.65333 14.2497 5.25007V6.00007H8.24973C7.45408 6.00007 6.69101 6.31614 6.12841 6.87875C5.5658 7.44136 5.24973 8.20442 5.24973 9.00007V12.0001C5.24973 12.7831 5.54973 13.4971 6.04173 14.0311L5.24973 14.6251C4.63173 15.0886 3.74973 14.6476 3.74973 13.8751V12.7501C3.15299 12.7501 2.58069 12.513 2.15874 12.0911C1.73678 11.6691 1.49973 11.0968 1.49973 10.5001V5.25007C1.49973 4.65333 1.73678 4.08104 2.15874 3.65908C2.58069 3.23712 3.15299 3.00007 3.74973 3.00007H11.9997Z" fill="#919191"/>
</svg>
