<svg width="34" height="34" viewBox="0 0 34 34" fill="none" xmlns="http://www.w3.org/2000/svg">
<path d="M31.4918 -0.000115386H2.5082C1.85058 -0.00680804 1.21716 0.247651 0.746938 0.707427C0.276712 1.1672 0.00808511 1.79474 0 2.45234V31.553C0.00954727 32.2096 0.278817 32.8357 0.748883 33.2943C1.21895 33.7529 1.85153 34.0066 2.5082 33.9999H31.4918C32.1495 34.0051 32.7824 33.7498 33.2524 33.2897C33.7224 32.8297 33.9912 32.2023 34 31.5446V2.44398C33.9883 1.78831 33.7182 1.16376 33.2486 0.706097C32.7789 0.248432 32.1476 -0.00536076 31.4918 -0.000115386Z" fill="#0076B2"/>
<path d="M5.03315 12.7443H10.0802V28.9835H5.03315V12.7443ZM7.55807 4.66235C8.13694 4.66235 8.70281 4.83404 9.18408 5.15571C9.66536 5.47737 10.0404 5.93455 10.2618 6.46941C10.4832 7.00427 10.541 7.59278 10.4279 8.16049C10.3147 8.7282 10.0358 9.2496 9.62624 9.65873C9.21672 10.0679 8.69505 10.3463 8.12724 10.4589C7.55942 10.5715 6.97096 10.5132 6.43631 10.2913C5.90166 10.0694 5.44484 9.69386 5.12364 9.21228C4.80244 8.7307 4.63129 8.16467 4.63184 7.5858C4.63258 6.81019 4.9412 6.06661 5.48989 5.51844C6.03859 4.97027 6.78246 4.66235 7.55807 4.66235ZM13.2461 12.7443H18.0841V14.9738H18.151C18.8254 13.6974 20.4697 12.3514 22.925 12.3514C28.0361 12.3402 28.9836 15.704 28.9836 20.0655V28.9835H23.9366V21.0827C23.9366 19.2015 23.9031 16.7797 21.3141 16.7797C18.7251 16.7797 18.2848 18.8309 18.2848 20.9601V28.9835H13.2461V12.7443Z" fill="white"/>
</svg>
