<svg width="16" height="16" viewBox="0 0 16 16" fill="none" xmlns="http://www.w3.org/2000/svg">
<path d="M6.99935 13.3333C6.99935 13.5986 7.10471 13.8529 7.29224 14.0404C7.47978 14.228 7.73413 14.3333 7.99935 14.3333C8.26457 14.3333 8.51892 14.228 8.70646 14.0404C8.89399 13.8529 8.99935 13.5986 8.99935 13.3333V9H13.3327C13.5979 9 13.8523 8.89464 14.0398 8.70711C14.2273 8.51957 14.3327 8.26522 14.3327 8C14.3327 7.73479 14.2273 7.48043 14.0398 7.29289C13.8523 7.10536 13.5979 7 13.3327 7H8.99935V2.66667C8.99935 2.40145 8.89399 2.1471 8.70646 1.95956C8.51892 1.77202 8.26457 1.66667 7.99935 1.66667C7.73413 1.66667 7.47978 1.77202 7.29224 1.95956C7.10471 2.1471 6.99935 2.40145 6.99935 2.66667V7H2.66602C2.4008 7 2.14645 7.10536 1.95891 7.29289C1.77137 7.48043 1.66602 7.73479 1.66602 8C1.66602 8.26522 1.77137 8.51957 1.95891 8.70711C2.14645 8.89464 2.4008 9 2.66602 9H6.99935V13.3333Z" fill="black"/>
</svg>
