<svg width="34" height="26" viewBox="0 0 34 26" fill="none" xmlns="http://www.w3.org/2000/svg">
<path d="M31.8154 1.98532C31.1883 1.35604 30.4432 0.856744 29.6227 0.516058C28.8022 0.175371 27.9225 0 27.0342 0C26.1458 0 25.2661 0.175371 24.4456 0.516058C23.6252 0.856744 22.88 1.35604 22.2529 1.98532L23.8504 3.58282C24.2692 3.16399 24.7665 2.83175 25.3137 2.60508C25.8609 2.37841 26.4475 2.26174 27.0398 2.26174C27.6321 2.26174 28.2186 2.37841 28.7659 2.60508C29.3131 2.83175 29.8103 3.16399 30.2292 3.58282C30.648 4.00166 30.9802 4.49889 31.2069 5.04612C31.4336 5.59335 31.5502 6.17988 31.5502 6.7722C31.5502 7.36452 31.4336 7.95104 31.2069 8.49827C30.9802 9.04551 30.648 9.54274 30.2292 9.96157L21.2292 18.9616C20.3848 19.8074 19.2389 20.2832 18.0438 20.2843C16.8486 20.2854 15.7019 19.8116 14.856 18.9672C14.0102 18.1228 13.5344 16.977 13.5333 15.7818C13.5322 14.5866 14.006 13.4399 14.8504 12.5941L16.4367 10.9966L14.8504 9.39907L13.2529 10.9966C12.6236 11.6237 12.1243 12.3688 11.7836 13.1893C11.4429 14.0098 11.2676 14.8894 11.2676 15.7778C11.2676 16.6662 11.4429 17.5459 11.7836 18.3663C12.1243 19.1868 12.6236 19.932 13.2529 20.5591C14.5258 21.8157 16.2455 22.5157 18.0342 22.5053C18.926 22.509 19.8097 22.3359 20.6342 21.996C21.4587 21.6562 22.2077 21.1563 22.8379 20.5253L31.8379 11.5253C33.099 10.2567 33.8049 8.53942 33.8007 6.75067C33.7965 4.96191 33.0824 3.24797 31.8154 1.98532Z" fill="#026E87"/>
<path d="M3.62222 22.3027C3.20214 21.8845 2.8688 21.3875 2.64134 20.8402C2.41388 20.2929 2.29679 19.706 2.29679 19.1133C2.29679 18.5206 2.41388 17.9337 2.64134 17.3864C2.8688 16.8391 3.20214 16.3421 3.62222 15.9239L12.6222 6.92392C13.0404 6.50384 13.5374 6.1705 14.0847 5.94304C14.632 5.71558 15.2189 5.59849 15.8116 5.59849C16.4043 5.59849 16.9912 5.71558 17.5385 5.94304C18.0858 6.1705 18.5828 6.50384 19.001 6.92392C19.4184 7.34535 19.747 7.84627 19.9673 8.39702C20.1876 8.94776 20.2951 9.53712 20.2835 10.1302C20.2869 10.7251 20.1723 11.3148 19.9464 11.8651C19.7205 12.4154 19.3877 12.9155 18.9672 13.3364L16.5822 15.7552L18.1797 17.3527L20.5647 14.9677C21.8343 13.6981 22.5475 11.9762 22.5475 10.1808C22.5475 8.38537 21.8343 6.66348 20.5647 5.39392C19.2952 4.12436 17.5733 3.41113 15.7778 3.41113C13.9824 3.41113 12.2605 4.12436 10.991 5.39392L1.99097 14.3939C1.36 15.0212 0.859274 15.7671 0.517588 16.5886C0.175902 17.4101 0 18.2911 0 19.1808C0 20.0705 0.175902 20.9515 0.517588 21.773C0.859274 22.5945 1.36 23.3404 1.99097 23.9677C3.27215 25.2147 4.99573 25.9025 6.78347 25.8802C8.58696 25.8819 10.3179 25.1701 11.5985 23.9002L10.001 22.3027C9.58284 22.7228 9.08584 23.0561 8.53851 23.2836C7.99118 23.511 7.40431 23.6281 6.8116 23.6281C6.21889 23.6281 5.63202 23.511 5.08469 23.2836C4.53736 23.0561 4.04036 22.7228 3.62222 22.3027Z" fill="#026E87"/>
</svg>
