<svg width="34" height="35" viewBox="0 0 34 35" fill="none" xmlns="http://www.w3.org/2000/svg">
<path d="M11.6748 0.950931C8.16731 2.1677 5.14248 4.47717 3.04459 7.54011C0.94669 10.6031 -0.113696 14.258 0.0191812 17.9682C0.152059 21.6783 1.4712 25.2481 3.78284 28.1531C6.09447 31.0581 9.27676 33.1453 12.8623 34.108C15.7691 34.8581 18.8147 34.891 21.7371 34.204C24.3845 33.6093 26.8321 32.3373 28.8402 30.5125C30.9302 28.5553 32.4473 26.0655 33.2282 23.3107C34.0768 20.3149 34.2279 17.1645 33.6698 14.1013H17.3463V20.8726H26.7998C26.6108 21.9526 26.206 22.9833 25.6094 23.9032C25.0128 24.823 24.2368 25.613 23.3277 26.226C22.1735 26.9899 20.8722 27.5037 19.5074 27.7344C18.1387 27.9889 16.7349 27.9889 15.3662 27.7344C13.9789 27.4479 12.6666 26.8753 11.513 26.0532C9.65943 24.7412 8.26767 22.8772 7.53631 20.7272C6.79278 18.537 6.79278 16.1626 7.53631 13.9724C8.05691 12.4372 8.91753 11.0394 10.0539 9.88332C11.3544 8.53604 13.0009 7.57301 14.8126 7.09987C16.6244 6.62673 18.5315 6.66176 20.3247 7.20113C21.7256 7.63095 23.0066 8.38227 24.0655 9.39515C25.1314 8.33471 26.1955 7.27152 27.2578 6.2056C27.8063 5.63241 28.4041 5.08665 28.9444 4.49975C27.3278 2.99553 25.4303 1.82498 23.3606 1.05515C19.5916 -0.313399 15.4676 -0.350177 11.6748 0.950931Z" fill="white"/>
<path d="M11.6748 0.951043C15.4674 -0.350949 19.5914 -0.315139 23.3607 1.05252C25.4307 1.82758 27.3274 3.00376 28.9417 4.51358C28.3932 5.10047 27.8146 5.64898 27.2551 6.21942C26.191 7.28169 25.1278 8.3403 24.0655 9.39526C23.0066 8.38239 21.7256 7.63106 20.3247 7.20124C18.5322 6.65998 16.6251 6.62292 14.8129 7.09413C13.0006 7.56533 11.3532 8.5266 10.0513 9.87246C8.91485 11.0285 8.05423 12.4263 7.53363 13.9616L1.84839 9.55981C3.88336 5.52436 7.40679 2.43755 11.6748 0.951043Z" fill="#E33629"/>
<path d="M0.340065 13.9204C0.645416 12.4059 1.15274 10.9393 1.84845 9.55981L7.53369 13.9725C6.79017 16.1628 6.79017 18.5371 7.53369 20.7274C5.63953 22.19 3.74444 23.66 1.84845 25.1373C0.107364 21.6716 -0.423637 17.7229 0.340065 13.9204Z" fill="#F8BD00"/>
<path d="M17.3464 14.0986H33.6699C34.228 17.1619 34.0769 20.3122 33.2284 23.308C32.4474 26.0628 30.9304 28.5527 28.8403 30.5099C27.0056 29.0783 25.1626 27.6576 23.3279 26.2261C24.2375 25.6125 25.0139 24.8216 25.6105 23.9008C26.2071 22.9799 26.6117 21.9481 26.7999 20.8672H17.3464C17.3437 18.6128 17.3464 16.3557 17.3464 14.0986Z" fill="#587DBD"/>
<path d="M1.8457 25.1373C3.7417 23.6746 5.63678 22.2046 7.53094 20.7273C8.26377 22.878 9.65751 24.7421 11.5131 26.0533C12.6703 26.8715 13.9855 27.4395 15.3745 27.7207C16.7432 27.9753 18.1471 27.9753 19.5158 27.7207C20.8805 27.49 22.1819 26.9762 23.3361 26.2123C25.1708 27.6439 27.0138 29.0646 28.8485 30.4961C26.8407 32.3219 24.3931 33.5949 21.7454 34.1903C18.823 34.8773 15.7775 34.8444 12.8706 34.0943C10.5716 33.4805 8.42412 32.3983 6.56284 30.9158C4.59296 29.3515 2.98394 27.3804 1.8457 25.1373Z" fill="#319F43"/>
</svg>
