<svg width="21" height="25" viewBox="0 0 21 25" fill="none" xmlns="http://www.w3.org/2000/svg">
<path d="M15.3903 7.14679C14.9375 6.69412 14.3234 6.43982 13.6832 6.43982C13.0429 6.43982 12.4288 6.69412 11.976 7.14679L11.6017 7.52026L12.7398 8.65836L13.1141 8.28489C13.2659 8.13828 13.4692 8.05715 13.6803 8.05898C13.8913 8.06082 14.0932 8.14547 14.2424 8.2947C14.3916 8.44393 14.4763 8.6458 14.4781 8.85684C14.48 9.06788 14.3988 9.27119 14.2522 9.42299L11.6017 12.0735L12.7398 13.2116L15.3903 10.5611C15.843 10.1083 16.0973 9.49422 16.0973 8.85394C16.0973 8.21367 15.843 7.5996 15.3903 7.14679ZM7.81317 15.862C7.66137 16.0087 7.45805 16.0898 7.24701 16.0879C7.03598 16.0861 6.8341 16.0015 6.68487 15.8522C6.53564 15.703 6.45099 15.5011 6.44916 15.2901C6.44732 15.0791 6.52845 14.8757 6.67507 14.7239L9.32554 12.0735L8.18744 10.9354L5.53697 13.5858C5.30634 13.8086 5.12239 14.075 4.99584 14.3696C4.86929 14.6642 4.80268 14.9811 4.7999 15.3017C4.79711 15.6223 4.8582 15.9402 4.97961 16.237C5.10103 16.5337 5.28032 16.8033 5.50704 17.0301C5.73375 17.2568 6.00335 17.4361 6.3001 17.5575C6.59685 17.6789 6.91481 17.74 7.23543 17.7372C7.55604 17.7344 7.87289 17.6678 8.16749 17.5413C8.46208 17.4147 8.72853 17.2308 8.95127 17.0001L9.32554 16.6267L8.18744 15.4886L7.81317 15.862ZM8.95127 7.1476C8.49402 6.71841 7.88772 6.48395 7.26068 6.49384C6.63363 6.50373 6.03503 6.75718 5.59154 7.20057C5.14804 7.64396 4.89445 8.2425 4.88441 8.86955C4.87438 9.49659 5.10869 10.1029 5.53777 10.5603L5.91124 10.9346L7.04934 9.79646L6.67587 9.42219C6.52926 9.27039 6.44813 9.06707 6.44996 8.85604C6.4518 8.645 6.53644 8.44312 6.68568 8.29389C6.83491 8.14466 7.03678 8.06001 7.24782 8.05818C7.45886 8.05635 7.66217 8.13747 7.81397 8.28409L10.4636 10.9354L11.6017 9.79726L8.95127 7.1476Z" fill="#7D6004"/>
<path d="M15.39 13.5858L15.0165 13.2115L13.8784 14.3496L14.2519 14.7239C14.3985 14.8757 14.4796 15.079 14.4778 15.2901C14.4759 15.5011 14.3913 15.703 14.2421 15.8522C14.0928 16.0014 13.891 16.0861 13.6799 16.0879C13.4689 16.0898 13.2656 16.0086 13.1138 15.862L10.4633 13.2115L9.3252 14.3496L11.9757 17.0001C12.4311 17.44 13.041 17.6833 13.6741 17.6778C14.3072 17.6723 14.9129 17.4184 15.3606 16.9707C15.8082 16.523 16.0622 15.9174 16.0677 15.2843C16.0732 14.6512 15.8298 14.0412 15.39 13.5858Z" fill="#7D6004"/>
<path d="M10.4634 24.1466C10.3209 24.1468 10.1809 24.109 10.0578 24.0372L0.399221 18.403C0.277702 18.3321 0.176893 18.2306 0.106845 18.1086C0.0367978 17.9865 -4.16557e-05 17.8483 3.53468e-08 17.7076V6.43928C-4.16557e-05 6.29858 0.0367978 6.16034 0.106845 6.03832C0.176893 5.9163 0.277702 5.81477 0.399221 5.74386L10.0578 0.109702C10.1809 0.0378578 10.3209 0 10.4634 0C10.606 0 10.746 0.0378578 10.8691 0.109702L20.5277 5.74386L19.7163 7.1347L10.4634 1.73717L1.60976 6.90128V17.2456L10.4634 22.4105L19.3171 17.2456V11.2686H20.9269V17.7076C20.9269 17.8483 20.8901 17.9865 20.82 18.1086C20.75 18.2306 20.6492 18.3321 20.5277 18.403L10.8691 24.0372C10.746 24.109 10.606 24.1468 10.4634 24.1466Z" fill="#7D6004"/>
</svg>
