<svg width="61" height="71" viewBox="0 0 61 71" fill="none" xmlns="http://www.w3.org/2000/svg">
<path d="M39.8738 25.2961L20.4369 44.733M44.733 1H5.85922C4.57047 1 3.33451 1.51195 2.42323 2.42323C1.51195 3.33451 1 4.57047 1 5.85922V64.1698C1 65.4586 1.51195 66.6946 2.42323 67.6058C3.33451 68.5171 4.57047 69.0291 5.85922 69.0291H54.4514C55.7402 69.0291 56.9761 68.5171 57.8874 67.6058C58.7987 66.6946 59.3106 65.4586 59.3106 64.1698V15.5777L44.733 1ZM30.1553 49.5922C26.2891 49.5922 22.5812 48.0563 19.8474 45.3225C17.1135 42.5887 15.5777 38.8808 15.5777 35.0145C15.5777 31.1483 17.1135 27.4404 19.8474 24.7066C22.5812 21.9727 26.2891 20.4369 30.1553 20.4369C34.0215 20.4369 37.7294 21.9727 40.4633 24.7066C43.1971 27.4404 44.733 31.1483 44.733 35.0145C44.733 38.8808 43.1971 42.5887 40.4633 45.3225C37.7294 48.0563 34.0215 49.5922 30.1553 49.5922Z" stroke="black" stroke-width="2"/>
</svg>
