<svg width="18" height="18" viewBox="0 0 18 18" fill="none" xmlns="http://www.w3.org/2000/svg">
<path d="M9 8C11.5 8 13.625 7.60833 15.375 6.825C17.125 6.04167 18 5.1 18 4C18 2.9 17.125 1.95833 15.375 1.175C13.625 0.391667 11.5 0 9 0C6.5 0 4.375 0.391667 2.625 1.175C0.875 1.95833 0 2.9 0 4C0 5.1 0.875 6.04167 2.625 6.825C4.375 7.60833 6.5 8 9 8ZM9 10.5C9.68333 10.5 10.5377 10.429 11.563 10.287C12.5883 10.145 13.5757 9.916 14.525 9.6C15.475 9.28333 16.2917 8.871 16.975 8.363C17.6583 7.855 18 7.234 18 6.5V9C18 9.73333 17.6583 10.3543 16.975 10.863C16.2917 11.3717 15.475 11.784 14.525 12.1C13.575 12.4167 12.5877 12.646 11.563 12.788C10.5383 12.93 9.684 13.0007 9 13C8.31667 13 7.46233 12.929 6.437 12.787C5.41167 12.645 4.42467 12.416 3.476 12.1C2.526 11.7833 1.70933 11.371 1.026 10.863C0.342667 10.355 0.000666667 9.734 0 9V6.5C0 7.23333 0.341667 7.85433 1.025 8.363C1.70833 8.87167 2.525 9.284 3.475 9.6C4.425 9.91667 5.41267 10.146 6.438 10.288C7.46333 10.43 8.31733 10.5007 9 10.5ZM9 15.5C9.68333 15.5 10.5377 15.429 11.563 15.287C12.5883 15.145 13.5757 14.916 14.525 14.6C15.475 14.2833 16.2917 13.8707 16.975 13.362C17.6583 12.8533 18 12.2327 18 11.5V14C18 14.7333 17.6583 15.3543 16.975 15.863C16.2917 16.3717 15.475 16.784 14.525 17.1C13.575 17.4167 12.5877 17.646 11.563 17.788C10.5383 17.93 9.684 18.0007 9 18C8.31667 18 7.46233 17.929 6.437 17.787C5.41167 17.645 4.42467 17.416 3.476 17.1C2.526 16.7833 1.70933 16.3707 1.026 15.862C0.342667 15.3533 0.000666667 14.7327 0 14V11.5C0 12.2333 0.341667 12.8543 1.025 13.363C1.70833 13.8717 2.525 14.284 3.475 14.6C4.425 14.9167 5.41267 15.146 6.438 15.288C7.46333 15.43 8.31733 15.5007 9 15.5Z" fill="white"/>
</svg>
