<svg width="28" height="28" viewBox="0 0 28 28" fill="none" xmlns="http://www.w3.org/2000/svg">
<path d="M14.2076 2.59564C14.7123 2.39397 15.2623 2.33323 15.7989 2.41988C16.3355 2.50654 16.8385 2.73734 17.2541 3.08764L17.4431 3.26014L24.5291 10.3461C24.9139 10.7305 25.187 11.2123 25.3191 11.74C25.4512 12.2676 25.4373 12.8212 25.2791 13.3416L25.1936 13.5816L21.6461 22.4511C21.4472 22.9477 21.119 23.3821 20.6957 23.7091C20.2724 24.0362 19.7693 24.244 19.2386 24.3111L11.6201 25.2636C11.4251 25.2861 11.2181 25.3146 11.0051 25.3476L10.3391 25.4556L9.99106 25.5186L8.90656 25.7286L8.16406 25.8876L7.04656 26.1381L5.61406 26.4801L3.28606 27.0741L2.31706 27.3351C2.07252 27.4024 1.81501 27.4072 1.56815 27.349C1.32129 27.2909 1.09297 27.1717 0.904128 27.0024C0.715285 26.8332 0.571962 26.6192 0.487299 26.3801C0.402637 26.141 0.379344 25.8845 0.419556 25.6341L0.470556 25.4151L0.913056 23.7471L1.30906 22.1751L1.65106 20.7426L1.90156 19.6251L2.05906 18.8811L2.27056 17.7981L2.39056 17.1126L2.48656 16.4706L3.47656 8.55064C3.53879 8.06182 3.72053 7.59587 4.0057 7.19401C4.29088 6.79215 4.67069 6.46676 5.11156 6.24664L5.33806 6.14314L14.2076 2.59564ZM15.3206 5.38114L6.45256 8.92864L5.57656 15.9366L5.50456 16.5306C5.35752 17.6341 5.16486 18.7311 4.92706 19.8186L4.67056 20.9976L9.60256 16.0656C9.43157 15.4277 9.47586 14.7512 9.72855 14.1411C9.98125 13.5309 10.4282 13.0212 11.0002 12.6909C11.5721 12.3607 12.237 12.2284 12.8918 12.3146C13.5466 12.4008 14.1546 12.7006 14.6216 13.1676C15.0886 13.6346 15.3884 14.2426 15.4746 14.8974C15.5608 15.5522 15.4285 16.2171 15.0983 16.789C14.768 17.361 14.2583 17.8079 13.6481 18.0606C13.038 18.3133 12.3615 18.3576 11.7236 18.1866L6.79156 23.1186L7.37956 22.9881L8.55556 22.7406C9.28838 22.5906 10.0252 22.4605 10.7651 22.3506L18.8606 21.3366L22.4081 12.4686L15.3206 5.38114ZM18.8651 0.440137C19.1232 0.181651 19.4667 0.026228 19.8312 0.0030298C20.1958 -0.0201684 20.5563 0.0904525 20.8451 0.314137L20.9861 0.440137L27.3491 6.80314C27.6209 7.07245 27.7796 7.43549 27.7926 7.81796C27.8056 8.20042 27.6719 8.57339 27.4189 8.86051C27.1659 9.14763 26.8127 9.32719 26.4316 9.36244C26.0506 9.3977 25.6704 9.28597 25.3691 9.05014L25.2281 8.92414L18.8651 2.56114C18.5839 2.27985 18.4259 1.89838 18.4259 1.50064C18.4259 1.10289 18.5839 0.721429 18.8651 0.440137Z" fill="#745904"/>
</svg>
