<svg width="24" height="30" viewBox="0 0 24 30" fill="none" xmlns="http://www.w3.org/2000/svg">
<path d="M7 28.0794V25.8979C7 23.005 7.52678 20.2306 8.46447 18.185C9.40215 16.1395 10.6739 14.9903 12 14.9903M12 14.9903C13.3261 14.9903 14.5979 16.1395 15.5355 18.185C16.4732 20.2306 17 23.005 17 25.8979V28.0794M12 14.9903C12.7956 14.9903 13.5587 14.3008 14.1213 13.0734C14.6839 11.8461 15 10.1814 15 8.4457C15 6.70997 14.6839 5.04533 14.1213 3.81799C13.5587 2.59064 12.7956 1.90112 12 1.90112C11.2044 1.90112 10.4413 2.59064 9.87868 3.81799C9.31607 5.04533 9 6.70997 9 8.4457C9 10.1814 9.31607 11.8461 9.87868 13.0734C10.4413 14.3008 11.2044 14.9903 12 14.9903ZM1 28.0794V25.8979C1 24.1622 1.31607 22.4975 1.87868 21.2702C2.44129 20.0428 3.20435 19.3533 4 19.3533M4 19.3533C4.53043 19.3533 5.03914 18.8936 5.41421 18.0754C5.78929 17.2572 6 16.1474 6 14.9903C6 13.8331 5.78929 12.7234 5.41421 11.9051C5.03914 11.0869 4.53043 10.6272 4 10.6272C3.46957 10.6272 2.96086 11.0869 2.58579 11.9051C2.21071 12.7234 2 13.8331 2 14.9903C2 16.1474 2.21071 17.2572 2.58579 18.0754C2.96086 18.8936 3.46957 19.3533 4 19.3533ZM23 28.0794V25.8979C23 24.1622 22.6839 22.4975 22.1213 21.2702C21.5587 20.0428 20.7956 19.3533 20 19.3533M20 19.3533C20.5304 19.3533 21.0391 18.8936 21.4142 18.0754C21.7893 17.2572 22 16.1474 22 14.9903C22 13.8331 21.7893 12.7234 21.4142 11.9051C21.0391 11.0869 20.5304 10.6272 20 10.6272C19.4696 10.6272 18.9609 11.0869 18.5858 11.9051C18.2107 12.7234 18 13.8331 18 14.9903C18 16.1474 18.2107 17.2572 18.5858 18.0754C18.9609 18.8936 19.4696 19.3533 20 19.3533Z" stroke="white" stroke-width="2" stroke-linecap="round" stroke-linejoin="round"/>
</svg>
