<svg width="16" height="16" viewBox="0 0 16 16" fill="none" xmlns="http://www.w3.org/2000/svg">
<path d="M14.8571 6.85714H9.14286V1.14286C9.14286 0.839753 9.02245 0.549062 8.80812 0.334735C8.59379 0.120407 8.30311 0 8 0C7.6969 0 7.40621 0.120407 7.19188 0.334735C6.97755 0.549062 6.85714 0.839753 6.85714 1.14286V6.85714H1.14286C0.839753 6.85714 0.549063 6.97755 0.334735 7.19188C0.120408 7.40621 0 7.69689 0 8C0 8.3031 0.120408 8.59379 0.334735 8.80812C0.549063 9.02245 0.839753 9.14286 1.14286 9.14286H6.85714V14.8571C6.85714 15.1602 6.97755 15.4509 7.19188 15.6653C7.40621 15.8796 7.6969 16 8 16C8.30311 16 8.59379 15.8796 8.80812 15.6653C9.02245 15.4509 9.14286 15.1602 9.14286 14.8571V9.14286H14.8571C15.1602 9.14286 15.4509 9.02245 15.6653 8.80812C15.8796 8.59379 16 8.3031 16 8C16 7.69689 15.8796 7.40621 15.6653 7.19188C15.4509 6.97755 15.1602 6.85714 14.8571 6.85714Z" fill="white"/>
</svg>
