<svg width="16" height="16" viewBox="0 0 16 16" fill="none" xmlns="http://www.w3.org/2000/svg">
<path d="M14.8571 6.90676H9.14286V1.44092C9.14286 1.15099 9.02245 0.872941 8.80812 0.667933C8.59379 0.462924 8.30311 0.347752 8 0.347752C7.6969 0.347752 7.40621 0.462924 7.19188 0.667933C6.97755 0.872941 6.85714 1.15099 6.85714 1.44092V6.90676H1.14286C0.839753 6.90676 0.549063 7.02193 0.334735 7.22694C0.120408 7.43195 0 7.71 0 7.99993C0 8.28985 0.120408 8.5679 0.334735 8.77291C0.549063 8.97792 0.839753 9.09309 1.14286 9.09309H6.85714V14.5589C6.85714 14.8489 6.97755 15.1269 7.19188 15.3319C7.40621 15.5369 7.6969 15.6521 8 15.6521C8.30311 15.6521 8.59379 15.5369 8.80812 15.3319C9.02245 15.1269 9.14286 14.8489 9.14286 14.5589V9.09309H14.8571C15.1602 9.09309 15.4509 8.97792 15.6653 8.77291C15.8796 8.5679 16 8.28985 16 7.99993C16 7.71 15.8796 7.43195 15.6653 7.22694C15.4509 7.02193 15.1602 6.90676 14.8571 6.90676Z" fill="white"/>
</svg>
