<svg width="21" height="45" viewBox="0 0 21 45" fill="none" xmlns="http://www.w3.org/2000/svg">
<path d="M19 20.4026V13.9125C19 12.7554 18.7893 11.6456 18.4142 10.8274C18.0391 10.0092 17.5304 9.54947 17 9.54947H11V6.68731C11.305 6.08957 11.5 5.23005 11.5 4.26582C11.5 3.39795 11.342 2.56563 11.0607 1.95196C10.7794 1.33829 10.3978 0.99353 10 0.99353C9.60218 0.99353 9.22064 1.33829 8.93934 1.95196C8.65804 2.56563 8.5 3.39795 8.5 4.26582C8.5 5.23005 8.695 6.08957 9 6.68731V9.54947H3C2.46957 9.54947 1.96086 10.0092 1.58579 10.8274C1.21071 11.6456 1 12.7554 1 13.9125V20.4527L0.928 20.4636C0.675888 20.5028 0.439955 20.749 0.26775 21.1526C0.095544 21.5562 -0.000132994 22.0872 1.38752e-07 22.6386V27.0017C1.38752e-07 27.5803 0.105357 28.1351 0.292893 28.5442C0.48043 28.9534 0.734784 29.1832 1 29.1832V40.0908C1 41.248 1.21071 42.3577 1.58579 43.176C1.96086 43.9942 2.46957 44.4539 3 44.4539H17C17.5304 44.4539 18.0391 43.9942 18.4142 43.176C18.7893 42.3577 19 41.248 19 40.0908V29.1832C19.2652 29.1832 19.5196 28.9534 19.7071 28.5442C19.8946 28.1351 20 27.5803 20 27.0017V22.7739C20.0116 22.4353 19.9869 22.0955 19.928 21.7813C19.726 20.7167 19.293 20.4615 19 20.4026ZM5 22.6386C5 20.2302 5.672 18.2756 6.5 18.2756C7.328 18.2756 8 20.2302 8 22.6386C8 25.047 7.328 27.0017 6.5 27.0017C5.672 27.0017 5 25.047 5 22.6386ZM13.998 35.7278C12.997 35.7212 6 35.7278 6 35.7278V31.3647C6 31.3647 13.001 31.3604 14.002 31.3647L13.998 35.7278ZM13.5 27.0017C12.672 27.0017 12 25.047 12 22.6386C12 20.2302 12.672 18.2756 13.5 18.2756C14.328 18.2756 15 20.2302 15 22.6386C15 25.047 14.328 27.0017 13.5 27.0017Z" fill="white"/>
</svg>
