<svg width="16" height="14" viewBox="0 0 16 14" fill="none" xmlns="http://www.w3.org/2000/svg">
<path d="M8 5.0665e-06C9.05076 -0.00117901 10.0914 0.205192 11.0622 0.60727C12.033 1.00935 12.9148 1.59921 13.657 2.343L16 5.0665e-06V6.00001H10L12.243 3.757C11.6746 3.18888 10.9979 2.74074 10.2529 2.43916C9.50802 2.13759 8.71011 1.98874 7.90656 2.00144C7.10302 2.01415 6.31021 2.18814 5.5752 2.51311C4.84019 2.83808 4.17795 3.3074 3.62779 3.8932C3.07763 4.47901 2.65076 5.16937 2.37251 5.92331C2.09426 6.67725 1.97031 7.47941 2.00801 8.28217C2.04571 9.08493 2.2443 9.87194 2.59198 10.5965C2.93966 11.321 3.42936 11.9683 4.032 12.5L2.709 14C1.4903 12.9252 0.627794 11.5048 0.236238 9.92775C-0.155317 8.3507 -0.0573521 6.69181 0.517099 5.17181C1.09155 3.65181 2.11525 2.34278 3.45197 1.4189C4.7887 0.495026 6.37507 0.000107153 8 5.0665e-06Z" fill="black"/>
</svg>
