<svg width="28" height="15" viewBox="0 0 28 15" fill="none" xmlns="http://www.w3.org/2000/svg">
<path d="M20.59 0.224257L27.73 6.72426C28.09 7.04426 28.09 7.61426 27.73 7.93426L20.59 14.4343C20.06 14.9143 19.21 14.5343 19.21 13.8243V10.9743C19.21 10.5243 18.84 10.1543 18.39 10.1543H9.61004C9.16004 10.1543 8.79004 10.5243 8.79004 10.9743V13.8243C8.79004 14.5443 7.94004 14.9143 7.41004 14.4343L0.270036 7.93426C0.184989 7.85702 0.117031 7.76286 0.0705272 7.65781C0.0240231 7.55276 0 7.43914 0 7.32426C0 7.20937 0.0240231 7.09576 0.0705272 6.99071C0.117031 6.88566 0.184989 6.79149 0.270036 6.71426L7.41004 0.214257C7.94004 -0.265743 8.79004 0.114257 8.79004 0.824257V3.68426C8.79004 4.13426 9.16004 4.50426 9.61004 4.50426H18.39C18.84 4.50426 19.21 4.13426 19.21 3.68426V0.834257C19.21 0.114257 20.06 -0.255743 20.59 0.224257Z" fill="#C1C1C1"/>
</svg>
