<svg width="18" height="40" viewBox="0 0 18 40" fill="none" xmlns="http://www.w3.org/2000/svg">
<path d="M9 17.8088C11.5 17.8088 13.625 16.9543 15.375 15.2455C17.125 13.5366 18 11.4823 18 9.08267C18 6.68299 17.125 4.62872 15.375 2.91986C13.625 1.211 11.5 0.356567 9 0.356567C6.5 0.356567 4.375 1.211 2.625 2.91986C0.875 4.62872 0 6.68299 0 9.08267C0 11.4823 0.875 13.5366 2.625 15.2455C4.375 16.9543 6.5 17.8088 9 17.8088ZM9 23.2626C9.68333 23.2626 10.5377 23.1077 11.563 22.7979C12.5883 22.4881 13.5757 21.9886 14.525 21.2992C15.475 20.6084 16.2917 19.7089 16.975 18.6007C17.6583 17.4924 18 16.1377 18 14.5365V19.9903C18 21.5901 17.6583 22.9448 16.975 24.0545C16.2917 25.1641 15.475 26.0637 14.525 26.753C13.575 27.4438 12.5877 27.9441 11.563 28.2539C10.5383 28.5637 9.684 28.7178 9 28.7164C8.31667 28.7164 7.46233 28.5615 6.437 28.2517C5.41167 27.942 4.42467 27.4424 3.476 26.753C2.526 26.0622 1.70933 25.1627 1.026 24.0545C0.342667 22.9463 0.000666667 21.5915 0 19.9903V14.5365C0 16.1363 0.341667 17.491 1.025 18.6007C1.70833 19.7103 2.525 20.6098 3.475 21.2992C4.425 21.99 5.41267 22.4903 6.438 22.8001C7.46333 23.1099 8.31733 23.264 9 23.2626ZM9 34.1702C9.68333 34.1702 10.5377 34.0153 11.563 33.7055C12.5883 33.3958 13.5757 32.8962 14.525 32.2068C15.475 31.516 16.2917 30.6158 16.975 29.5061C17.6583 28.3964 18 27.0424 18 25.4441V30.8979C18 32.4977 17.6583 33.8524 16.975 34.9621C16.2917 36.0718 15.475 36.9713 14.525 37.6606C13.575 38.3515 12.5877 38.8518 11.563 39.1615C10.5383 39.4713 9.684 39.6255 9 39.624C8.31667 39.624 7.46233 39.4691 6.437 39.1594C5.41167 38.8496 4.42467 38.35 3.476 37.6606C2.526 36.9698 1.70933 36.0696 1.026 34.9599C0.342667 33.8503 0.000666667 32.4963 0 30.8979V25.4441C0 27.0439 0.341667 28.3986 1.025 29.5083C1.70833 30.618 2.525 31.5175 3.475 32.2068C4.425 32.8977 5.41267 33.3979 6.438 33.7077C7.46333 34.0175 8.31733 34.1717 9 34.1702Z" fill="white"/>
</svg>
