<svg width="93" height="64" viewBox="0 0 93 64" fill="none" xmlns="http://www.w3.org/2000/svg">
<path d="M75.4731 0C72.3695 2.97092 68.6371 5.30728 64.5009 6.79562C60.1858 7.5571 48.2445 2.01907 42.3603 7.67247C41.3796 8.65317 40.1682 9.63386 38.8991 10.6146C36.13 9.40311 31.8612 7.5571 28.746 5.76878C25.6309 3.98046 17.7853 0 17.7853 0L0.479004 20.1907C0.479004 20.1907 4.7479 25.9595 7.40154 29.7669C9.13217 32.3052 11.2666 36.1702 12.6511 38.7662L10.6897 41.0737C10.3552 41.7371 10.1532 42.5159 10.1532 43.3408C10.1532 44.6965 10.684 45.931 11.5551 46.8425C12.3511 47.4367 13.3491 47.7943 14.4394 47.7943C15.5297 47.7943 16.5277 47.4367 17.3354 46.8309C16.7931 47.4597 16.4758 48.2674 16.4758 49.15C16.4758 50.2634 16.9835 51.2556 17.7796 51.9132C18.6103 52.4036 19.6083 52.692 20.6697 52.692C21.7312 52.692 22.7292 52.4036 23.583 51.9017C22.9369 52.7036 22.5619 53.7073 22.5619 54.8034C22.5619 55.8995 22.9369 56.9032 23.5657 57.6993C24.1368 57.9012 24.8002 58.0224 25.4924 58.0224C26.6866 58.0224 27.7942 57.6589 28.7114 57.0417C28.4633 57.5897 28.3364 58.2127 28.3364 58.8704C28.3364 60.2203 28.8902 61.4375 29.7902 62.3028C30.5401 62.6432 31.4227 62.8393 32.3457 62.8393C33.6495 62.8393 34.8667 62.447 35.8705 61.7721L38.8471 59.0781C41.57 61.7894 45.3255 63.4681 49.4732 63.4681C49.5886 63.4681 49.7098 63.4681 49.8251 63.4623C52.6749 63.22 55.0632 61.4086 56.1362 58.8992C56.9784 59.2223 57.936 59.4415 58.9513 59.4415C60.3128 59.4415 61.5761 59.0492 62.6433 58.3743C66.0181 56.1418 65.2105 54.4111 65.2105 54.4111C65.9315 54.7284 66.768 54.913 67.6507 54.913C69.5024 54.913 71.1696 54.0938 72.3003 52.8016C73.3156 51.7575 73.9328 50.3384 73.9328 48.7808C73.9328 47.6847 73.6271 46.6636 73.0964 45.7926C73.1425 45.8214 73.1829 45.8214 73.2175 45.8214C75.6462 45.8214 77.7575 44.483 78.8594 42.5101C79.2517 41.5237 79.4651 40.4161 79.4651 39.2623C79.4651 37.2894 78.8305 35.4607 77.7575 33.9723L77.7749 34.0012C82.5052 33.0782 82.3322 30.713 84.6397 27.2517C86.8549 24.4019 89.5547 22.0483 92.641 20.283L75.4731 0ZM75.1847 40.7276C72.6464 43.2658 70.685 42.1698 66.3584 38.8816C62.0319 35.5934 53.4364 29.4208 53.4364 29.4208C53.7883 31.1802 54.6017 32.709 55.7497 33.9262C57.5899 35.9972 63.0702 40.7276 65.6662 43.1505C67.2814 44.6503 71.435 47.6501 69.0121 49.9576C66.5892 52.2651 64.6855 49.9576 60.705 46.7271C56.7246 43.4966 47.8407 35.5357 47.8407 35.5357C47.8349 35.6395 47.8291 35.7549 47.8291 35.876C47.8291 37.3644 48.4291 38.7085 49.3982 39.6892C50.3789 40.8429 55.8593 46.1502 58.1668 48.5731C60.4743 50.996 62.4934 52.4382 60.532 54.3419C58.5706 56.2456 54.5901 53.2458 52.398 50.996C48.9944 47.7078 42.2449 41.5929 42.2449 41.5929C42.2392 41.6852 42.2392 41.789 42.2392 41.8986C42.2392 43.537 42.8045 45.0368 43.7564 46.2252C45.4178 48.4058 48.6483 51.2325 50.6097 53.4246C52.5711 55.6168 53.7248 57.4628 50.6097 59.1934C47.4945 60.9241 42.8795 56.6552 40.8604 54.5784V54.5669C40.8604 53.9727 40.6412 53.4304 40.2836 53.0151C39.3663 52.1671 38.126 51.6421 36.7704 51.6421C36.1704 51.6421 35.5936 51.7459 35.0571 51.9305C35.7955 51.2729 36.2339 50.3499 36.2339 49.3231C36.2339 48.2962 35.7955 47.3732 35.0917 46.7271C34.3648 46.1791 33.4533 45.8502 32.4669 45.8502C31.4804 45.8502 30.5632 46.1791 29.8305 46.7329C30.5055 46.081 30.9208 45.1868 30.9208 44.1888C30.9208 42.9601 30.292 41.8813 29.3402 41.2525C28.4576 40.693 27.4019 40.3699 26.2712 40.3699C24.8636 40.3699 23.5714 40.8776 22.5677 41.714C23.1157 41.0564 23.4387 40.2141 23.4387 39.2911C23.4387 38.1662 22.9484 37.1567 22.1754 36.4587C21.1485 35.5068 19.7698 34.9242 18.2584 34.9242C17.1912 34.9242 16.1932 35.2126 15.3336 35.7203L11.4974 29.2419C8.84373 25.0307 5.72859 20.6465 5.72859 20.6465L18.8814 4.66694C18.8814 4.66694 23.5541 7.55133 27.4192 9.74347C29.3229 10.8395 32.6111 12.2817 35.0917 13.4355C31.1689 16.3776 27.8807 19.2043 28.8614 21.1656C30.5747 22.4002 32.7149 23.1443 35.0282 23.1443C37.1973 23.1443 39.2163 22.4925 40.9008 21.3733C43.0526 19.9254 45.7466 19.0485 48.6483 19.0485C50.6501 19.0485 52.5538 19.4639 54.2786 20.2196C57.4745 22.3771 63.3587 27.6844 68.7236 31.0303C75.4731 35.9337 76.7999 39.1065 75.1847 40.7218V40.7276Z" fill="#444444"/>
</svg>
