<svg width="86" height="69" viewBox="0 0 86 69" fill="none" xmlns="http://www.w3.org/2000/svg">
<path d="M66.3555 34.248C67.5328 34.248 68.496 33.2848 68.496 32.1075C68.496 30.9302 67.5328 29.967 66.3555 29.967C65.1782 29.967 64.215 30.9302 64.215 32.1075C64.215 33.2848 65.1782 34.248 66.3555 34.248ZM42.81 23.5455C49.2984 23.5455 54.5828 18.2611 54.5828 11.7728C54.5828 5.28436 49.2984 0 42.81 0C36.3216 0 31.0373 5.28436 31.0373 11.7728C31.0373 18.2611 36.3216 23.5455 42.81 23.5455ZM8.00012 48.6964C9.36469 50.7432 11.9199 51.0777 13.7393 50.0074C15.9066 48.7231 21.2578 45.7666 27.8265 43.5057V55.653H57.7935V43.519C64.3622 45.7666 69.7134 48.7365 71.8807 50.0208C73.7001 51.0911 76.2553 50.7299 77.6199 48.7098L80.0012 45.1378C81.1785 43.3719 81.0179 40.509 78.6634 39.1043C77.0714 38.1544 74.6901 36.83 71.8272 35.4387C68.0679 41.606 58.5293 37.82 60.0945 30.7429C54.7567 29.0573 48.8435 27.8265 42.81 27.8265C35.1845 27.8265 27.7061 29.7663 21.405 32.1343C21.3782 37.5123 15.037 40.6026 10.8095 36.9504C9.31118 37.7531 7.95998 38.5022 6.97 39.0909C4.61545 40.4956 4.45492 43.3451 5.63219 45.1244L8.00012 48.6964ZM49.2315 46.0208C51.0108 46.0208 52.4423 47.4522 52.4423 49.2315C52.4423 51.0108 51.0108 52.4423 49.2315 52.4423C47.4522 52.4423 46.0208 51.0108 46.0208 49.2315C46.0208 47.4522 47.4522 46.0208 49.2315 46.0208ZM36.3885 33.1777C38.1678 33.1777 39.5993 34.6092 39.5993 36.3885C39.5993 38.1678 38.1678 39.5993 36.3885 39.5993C34.6092 39.5993 33.1777 38.1678 33.1777 36.3885C33.1777 34.6092 34.6092 33.1777 36.3885 33.1777ZM14.9835 34.248C16.1608 34.248 17.124 33.2848 17.124 32.1075C17.124 30.9302 16.1608 29.967 14.9835 29.967C13.8062 29.967 12.843 30.9302 12.843 32.1075C12.843 33.2848 13.8062 34.248 14.9835 34.248ZM83.4795 59.934H2.1405C0.963225 59.934 0 60.8972 0 62.0745V66.3555C0 67.5328 0.963225 68.496 2.1405 68.496H83.4795C84.6568 68.496 85.62 67.5328 85.62 66.3555V62.0745C85.62 60.8972 84.6568 59.934 83.4795 59.934Z" fill="black"/>
</svg>
