<svg width="127" height="105" viewBox="0 0 127 105" fill="none" xmlns="http://www.w3.org/2000/svg">
<path opacity="0.18" d="M10.2424 82.8383C10.2424 82.8383 -3.30238 68.9649 0.76014 54.2809C4.82266 39.5969 15.7697 39.5846 33.595 25.8248C51.4204 12.0651 56.1093 -1.70391 83.9359 0.172283C111.763 2.04847 130.214 49.2634 125.839 62.0835C121.463 74.9037 117.707 84.5978 117.707 84.5978L10.2424 82.8383Z" fill="#68E1FD"/>
<path d="M50.2351 16.0693H3.55756C2.43657 16.0693 1.52783 16.9781 1.52783 18.0991V49.979C1.52783 51.0999 2.43657 52.0087 3.55756 52.0087H50.2351C51.3561 52.0087 52.2648 51.0999 52.2648 49.979V18.0991C52.2648 16.9781 51.3561 16.0693 50.2351 16.0693Z" fill="white"/>
<path opacity="0.52" d="M50.2351 16.0693H3.55756C2.43657 16.0693 1.52783 16.9781 1.52783 18.0991V49.979C1.52783 51.0999 2.43657 52.0087 3.55756 52.0087H50.2351C51.3561 52.0087 52.2648 51.0999 52.2648 49.979V18.0991C52.2648 16.9781 51.3561 16.0693 50.2351 16.0693Z" fill="#68E1FD"/>
<path d="M7.875 80.3389H125.04V82.8415H7.875V80.3389Z" fill="#68E1FD"/>
<path d="M10.2456 82.8413H121.877V104.416H10.2456V82.8413Z" fill="#68E1FD"/>
<path opacity="0.23" d="M10.2456 82.8413H121.877V88.0001H10.2456V82.8413Z" fill="url(#paint0_linear_2_819)"/>
<path d="M46.4152 80.3233H19.6787L20.9316 74.0684H45.6322L46.4152 80.3233Z" fill="#68E1FD"/>
<path opacity="0.52" d="M46.363 80.3233H21.1895L22.3686 74.0684H45.626L46.363 80.3233Z" fill="url(#paint1_linear_2_819)"/>
<path d="M46.0225 72.481C46.0225 72.481 46.5721 56.8481 49.7073 55.2851C52.8425 53.7221 65.7332 54.3455 68.546 55.1285C71.3587 55.9116 73.6095 67.0674 74.3312 68.8084C75.6608 72.0112 80.6629 73.8106 80.6629 73.8106L80.1931 80.3757L50.4903 80.2222C50.4903 80.2222 46.9621 79.5159 46.0225 72.481Z" fill="#68E1FD"/>
<path d="M55.0871 54.6862C54.8914 54.9819 54.8147 55.3405 54.8721 55.6903C54.9767 56.671 55.3797 57.596 56.0267 58.3403C56.674 59.0784 57.4555 59.6869 58.3297 60.1336C58.6061 59.4519 58.8272 58.2605 59.4014 58.0517C60.0166 57.9108 60.6388 57.8022 61.2653 57.7262C61.3021 57.6771 59.5641 57.4191 59.5058 57.3946C58.4188 57.1274 57.648 56.4519 56.908 55.6105C56.7214 55.4154 56.5614 55.1965 56.432 54.9595C56.2816 54.6525 56.4105 54.2379 55.9806 54.2778C55.8122 54.2839 55.6466 54.3231 55.4932 54.3931C55.3399 54.4632 55.2019 54.5628 55.0871 54.6862Z" fill="url(#paint2_linear_2_819)"/>
<path d="M63.8509 58.7797C63.9399 58.8841 64.0719 59.0008 64.1948 58.9424C64.2374 58.9161 64.2723 58.879 64.2961 58.8349C64.5756 58.3683 64.6677 57.8131 64.554 57.2812C64.4408 56.7528 64.2439 56.2458 63.9706 55.7796C63.7411 55.3278 63.4553 54.9068 63.12 54.5268C62.9603 54.3579 62.6901 54.1951 62.5059 54.3456C62.4343 54.4185 62.3871 54.5119 62.3708 54.6127C62.2326 55.1563 60.9337 57.2351 61.2592 57.7264C61.3851 57.9199 62.7393 57.7971 62.9665 57.9506C63.2973 58.1858 63.5948 58.4647 63.8509 58.7797Z" fill="url(#paint3_linear_2_819)"/>
<path d="M65.5581 43.4322C65.4966 42.5877 63.7801 42.2192 63.5068 41.5898L66.1139 41.4854C66.1139 41.4854 66.4209 44.9153 65.1926 46.5919L64.9255 45.9409C65.2479 44.3442 65.6962 45.3974 65.5581 43.4322Z" fill="#984E45"/>
<path d="M57.2549 49.1377L56.2969 54.9904C56.2969 54.9904 58.4464 58.141 61.167 57.6711C63.8876 57.2013 62.8866 55.8717 62.8866 55.8717L62.5549 50.9064C62.5549 50.9064 60.4024 51.4192 57.2549 49.1377Z" fill="#F7AD7E"/>
<path opacity="0.52" d="M56.9175 51.192L57.2553 49.1377C60.4027 51.4192 62.0302 50.4489 62.0302 50.4489L62.7917 53.105C62.3311 53.5564 62.893 55.187 61.069 55.0027C59.5644 54.8553 58.1427 52.8102 56.9175 51.192Z" fill="url(#paint4_linear_2_819)"/>
<path d="M54.7952 44.8879C55.0255 48.1367 58.3542 53.8727 61.603 53.6393C64.8517 53.406 65.7883 46.6934 65.558 43.4446C65.3277 40.1959 63.5037 38.3473 60.2457 38.5776C59.4733 38.6336 58.7196 38.8413 58.0275 39.1889C57.3355 39.5364 56.7187 40.0169 56.2125 40.603C55.7063 41.189 55.3206 41.8691 55.0774 42.6044C54.8342 43.3396 54.7383 44.1156 54.7952 44.8879Z" fill="#F7AD7E"/>
<path d="M57.482 38.6604C57.6816 38.6082 57.743 38.4516 57.9917 38.2397C58.959 37.4106 60.3224 37.251 61.5445 37.383C64.5968 37.7177 65.3 39.8703 66.1045 39.5325C66.909 39.1947 68.3737 40.4721 67.3758 41.9215C66.3778 43.3708 64.7534 43.7639 62.7697 42.7997C61.4985 42.1856 59.739 41.6973 58.3264 42.0535C58.2143 42.0663 58.1061 42.1023 58.0088 42.1595C57.9115 42.2166 57.8272 42.2935 57.7614 42.3851C57.5649 42.7721 57.6601 43.5305 57.6724 43.9543C57.7246 44.9896 57.8508 46.0199 58.0501 47.0372C57.8873 47.0526 57.7676 46.8929 57.6939 46.7455C57.5127 46.3955 57.3868 46.0178 57.221 45.6646C57.0245 45.2655 56.6591 44.6329 56.1555 44.9584C56.0294 45.0552 55.924 45.1762 55.8454 45.3144C55.7668 45.4526 55.7167 45.6051 55.6979 45.7629C55.5536 46.4569 55.6642 47.4549 56.2415 47.9431C56.7051 48.3331 56.8402 49.0731 56.9508 49.635C56.9876 49.8131 57.1688 50.2799 57.1012 50.4426C56.9784 50.7313 56.5547 50.7006 56.3366 50.5255C56.0924 50.274 55.9344 49.9515 55.8853 49.6043C55.4668 47.958 54.8632 46.3644 54.0858 44.854C53.8909 44.5121 53.7295 44.1522 53.6037 43.7792C53.4085 42.9454 53.4695 42.0721 53.7788 41.2736C54.0084 40.4451 54.4697 39.6994 55.1084 39.1241C55.8269 38.5437 56.438 38.6297 57.2578 38.6696C57.3326 38.6782 57.4082 38.6751 57.482 38.6604Z" fill="#984E45"/>
<path opacity="0.23" d="M58.7659 79.9089L59.2357 73.8105L54.2335 73.1073L52.6675 64.5862C52.6675 64.5862 58.4527 69.9015 63.3166 69.7603C68.1806 69.619 68.7886 67.7275 68.7886 67.7275L69.7098 79.7677L58.7659 79.9089Z" fill="url(#paint5_linear_2_819)"/>
<path d="M59.7144 57.9474L60.3653 59.0436L61.3295 59.9034L63.0491 78.6653L66.3839 78.5609L62.2415 59.6946L62.7359 57.8522C62.7359 57.8522 60.6509 57.585 59.7144 57.9474Z" fill="url(#paint6_linear_2_819)"/>
<path d="M58.1917 76.0521C58.1917 76.0521 62.3617 72.7173 63.8203 73.1319C65.2788 73.5464 66.8449 75.1125 66.9493 75.6345C67.0537 76.1565 66.3352 76.9887 65.4876 77.0931C64.6401 77.1975 63.7159 77.9283 63.1969 77.7072C62.678 77.4861 61.4251 77.7072 60.9031 78.3213C60.3811 78.9355 57.9829 79.7799 57.9829 79.7799C57.9829 79.7799 56.4199 77.6151 58.1917 76.0521Z" fill="#F7AD7E"/>
<path d="M60.4449 80.4001H90.8632C91.7162 80.4001 92.4077 79.7086 92.4077 78.8556C92.4077 78.0026 91.7162 77.311 90.8632 77.311H60.4449C59.5919 77.311 58.9003 78.0026 58.9003 78.8556C58.9003 79.7086 59.5919 80.4001 60.4449 80.4001Z" fill="#68E1FD"/>
<path d="M60.4449 80.4001H90.8632C91.7162 80.4001 92.4077 79.7086 92.4077 78.8556C92.4077 78.0026 91.7162 77.311 90.8632 77.311H60.4449C59.5919 77.311 58.9003 78.0026 58.9003 78.8556C58.9003 79.7086 59.5919 80.4001 60.4449 80.4001Z" fill="url(#paint7_linear_2_819)"/>
<path d="M72.2212 77.4371L72.7279 79.0768L94.3302 80.4003L100.487 64.7859C100.569 64.5779 100.599 64.3531 100.574 64.1309C100.55 63.9087 100.471 63.696 100.345 63.511C100.22 63.3261 100.051 63.1747 99.8536 63.0699C99.6561 62.9651 99.4361 62.9101 99.2126 62.9097H80.8959C80.0087 62.9101 79.1421 63.1774 78.4089 63.6768C77.6756 64.1763 77.1095 64.8847 76.7842 65.7101L72.2212 77.4371Z" fill="#68E1FD"/>
<path d="M72.2212 77.4371L72.7279 79.0768L94.3302 80.4003L100.487 64.7859C100.569 64.5779 100.599 64.3531 100.574 64.1309C100.55 63.9087 100.471 63.696 100.345 63.511C100.22 63.3261 100.051 63.1747 99.8536 63.0699C99.6561 62.9651 99.4361 62.9101 99.2126 62.9097H80.8959C80.0087 62.9101 79.1421 63.1774 78.4089 63.6768C77.6756 64.1763 77.1095 64.8847 76.7842 65.7101L72.2212 77.4371Z" fill="url(#paint8_linear_2_819)"/>
<path d="M72.1753 80.4186H94.3487L100.183 65.5872C100.261 65.3898 100.29 65.1762 100.267 64.9652C100.243 64.7542 100.169 64.5521 100.049 64.3765C99.9301 64.2009 99.7697 64.0571 99.5821 63.9577C99.3945 63.8583 99.1855 63.8063 98.9732 63.8062H81.5839C80.7411 63.8061 79.9179 64.0597 79.2212 64.534C78.5246 65.0083 77.9868 65.6812 77.678 66.4654L72.1753 80.4186Z" fill="#68E1FD"/>
<path d="M72.1753 80.4186H94.3487L100.183 65.5872C100.261 65.3898 100.29 65.1762 100.267 64.9652C100.243 64.7542 100.169 64.5521 100.049 64.3765C99.9301 64.2009 99.7697 64.0571 99.5821 63.9577C99.3945 63.8583 99.1855 63.8063 98.9732 63.8062H81.5839C80.7411 63.8061 79.9179 64.0597 79.2212 64.534C78.5246 65.0083 77.9868 65.6812 77.678 66.4654L72.1753 80.4186Z" fill="url(#paint9_linear_2_819)"/>
<path d="M116.028 51.3915C116.477 50.6491 116.818 49.8468 117.041 49.0086L118.831 48.6647L118.85 46.6841L118.868 44.7035L117.084 44.3289C116.876 43.4871 116.55 42.6787 116.117 41.9276L117.139 40.4199L115.751 39.0074L114.367 37.5918L112.831 38.5867C112.089 38.1403 111.288 37.8002 110.451 37.5765L110.108 35.7863L108.127 35.7648L106.146 35.7463L105.775 37.5181C104.934 37.7297 104.126 38.0551 103.374 38.4854L101.866 37.4629L100.453 38.8508L99.0408 40.2388L100.036 41.7741C99.587 42.5165 99.2458 43.3188 99.0224 44.157L97.2322 44.5009L97.2137 46.4815L97.1953 48.4621L98.9794 48.8367C99.1876 49.6785 99.5132 50.4869 99.9467 51.238L98.9364 52.7487L100.324 54.1613L101.712 55.5769L103.248 54.5819C103.99 55.0279 104.791 55.3679 105.627 55.5922L105.971 57.3824L107.952 57.4039L109.933 57.4223L110.298 55.6352C111.139 55.4267 111.947 55.1022 112.699 54.671L114.207 55.6935L115.619 54.3056L117.032 52.9176L116.028 51.3915ZM104.565 49.9851C103.892 49.2994 103.437 48.4295 103.259 47.4855C103.08 46.5414 103.185 45.5656 103.561 44.6814C103.937 43.7971 104.567 43.0443 105.371 42.518C106.175 41.9917 107.117 41.7156 108.077 41.7246C109.038 41.7336 109.975 42.0274 110.769 42.5687C111.562 43.11 112.178 43.8745 112.537 44.7656C112.896 45.6567 112.983 46.6344 112.787 47.5749C112.591 48.5155 112.12 49.3767 111.434 50.0496C110.979 50.4967 110.44 50.8498 109.849 51.0885C109.257 51.3273 108.624 51.4471 107.986 51.4411C107.348 51.4351 106.718 51.3035 106.131 51.0536C105.544 50.8038 105.012 50.4407 104.565 49.9851Z" fill="#68E1FD"/>
<path d="M98.1532 40.8497C98.4509 40.3548 98.6773 39.8203 98.8257 39.2622L100.017 39.0349V37.7145V36.3972L98.8318 36.1454C98.6919 35.5859 98.4749 35.0485 98.187 34.5487L98.8687 33.5445L97.9475 32.6018L97.0263 31.6622L96.0099 32.3224C95.5157 32.0254 94.9823 31.7991 94.4254 31.6499L94.1951 30.4585H92.8778H91.5574L91.3086 31.6469C90.7476 31.7838 90.2089 31.9998 89.7088 32.2886L88.7047 31.61L87.7651 32.5312L86.8224 33.4524L87.4856 34.4688C87.1884 34.9644 86.9611 35.4986 86.8101 36.0564L85.6187 36.2836V37.604V38.9213L86.807 39.1731C86.9469 39.7327 87.164 40.2701 87.4519 40.7699L86.7702 41.774L87.6914 42.7167L88.6126 43.6563L89.629 42.9931C90.1224 43.2922 90.6559 43.5197 91.2134 43.6686L91.4438 44.86H92.7611H94.0784L94.3302 43.6717C94.8906 43.5329 95.429 43.3169 95.93 43.0299L96.9311 43.7085L97.8738 42.7873L98.8134 41.8661L98.1532 40.8497ZM90.5195 39.9285C90.0715 39.4721 89.7689 38.8931 89.65 38.2647C89.5311 37.6363 89.6013 36.9868 89.8515 36.3982C90.1018 35.8097 90.5209 35.3086 91.056 34.9583C91.5911 34.608 92.218 34.4243 92.8575 34.4303C93.497 34.4363 94.1204 34.6318 94.6487 34.9921C95.1771 35.3524 95.5868 35.8613 95.8259 36.4544C96.0651 37.0476 96.123 37.6983 95.9923 38.3243C95.8616 38.9504 95.5482 39.5236 95.0917 39.9715C94.4777 40.5701 93.651 40.9002 92.7935 40.8892C91.9361 40.8783 91.1181 40.5272 90.5195 39.9131V39.9285Z" fill="#68E1FD"/>
<path d="M3.20734 46.9266L2.86035 46.4875L13.5801 38.0216L23.4033 41.0739L33.9296 31.0082L42.2327 32.2149L49.5195 23.8228L49.9402 24.1912L42.4538 32.8107L34.12 31.6008L23.5507 41.7065L13.6937 38.645L3.20734 46.9266Z" fill="white"/>
<path d="M24.9572 41.2027C24.9944 41.4956 24.9438 41.7929 24.812 42.057C24.6802 42.3211 24.473 42.5402 24.2166 42.6866C23.9603 42.8329 23.6663 42.9 23.3718 42.8792C23.0773 42.8585 22.7956 42.7508 22.5623 42.57C22.329 42.3891 22.1546 42.1431 22.0611 41.8631C21.9677 41.583 21.9594 41.2816 22.0372 40.9969C22.1151 40.7121 22.2757 40.4569 22.4987 40.2634C22.7216 40.0699 22.997 39.9469 23.2898 39.9099C23.6823 39.8604 24.0785 39.9687 24.3911 40.2112C24.7038 40.4536 24.9074 40.8102 24.9572 41.2027Z" fill="#68E1FD"/>
<path d="M15.088 38.2764C15.1245 38.5692 15.0734 38.8663 14.9412 39.1301C14.8089 39.3939 14.6014 39.6126 14.3449 39.7584C14.0884 39.9043 13.7944 39.9709 13.5001 39.9498C13.2058 39.9286 12.9243 39.8207 12.6913 39.6396C12.4583 39.4585 12.2843 39.2124 12.1911 38.9324C12.0979 38.6524 12.0898 38.3511 12.1679 38.0665C12.2459 37.7819 12.4066 37.5269 12.6296 37.3336C12.8525 37.1403 13.1278 37.0175 13.4206 36.9806C13.8134 36.9319 14.2095 37.041 14.5221 37.2839C14.8346 37.5268 15.0381 37.8837 15.088 38.2764Z" fill="#68E1FD"/>
<path d="M23.7043 43.1496C23.3559 43.1942 23.002 43.1345 22.6875 42.978C22.3731 42.8215 22.1121 42.5751 21.9377 42.2702C21.7634 41.9653 21.6834 41.6154 21.708 41.265C21.7325 40.9146 21.8605 40.5793 22.0757 40.3017C22.2909 40.0241 22.5837 39.8166 22.9169 39.7054C23.2502 39.5943 23.6089 39.5845 23.9477 39.6774C24.2864 39.7703 24.59 39.9616 24.82 40.2271C25.05 40.4926 25.1961 40.8204 25.2396 41.169C25.2971 41.6349 25.1679 42.1047 24.8802 42.4757C24.5926 42.8468 24.1698 43.089 23.7043 43.1496ZM23.3297 40.1863C23.087 40.2136 22.8579 40.3127 22.6718 40.4708C22.4857 40.6289 22.3509 40.8389 22.2847 41.074C22.2185 41.309 22.2239 41.5585 22.3002 41.7905C22.3764 42.0225 22.5201 42.2265 22.7129 42.3765C22.9057 42.5264 23.1388 42.6154 23.3824 42.6323C23.6261 42.6491 23.8692 42.5929 24.0807 42.4709C24.2923 42.3488 24.4626 42.1665 24.5701 41.9472C24.6775 41.7279 24.7171 41.4815 24.6838 41.2396C24.6402 40.9209 24.4732 40.632 24.2189 40.435C23.9645 40.2381 23.643 40.1488 23.3235 40.1863H23.3297Z" fill="white"/>
<path d="M35.4924 31.2109C35.5295 31.5037 35.479 31.801 35.3472 32.0652C35.2153 32.3293 35.0081 32.5484 34.7518 32.6947C34.4954 32.8411 34.2014 32.9081 33.9069 32.8874C33.6125 32.8666 33.3308 32.759 33.0975 32.5781C32.8642 32.3972 32.6898 32.1512 32.5963 31.8712C32.5028 31.5912 32.4945 31.2898 32.5724 31.005C32.6503 30.7203 32.8109 30.465 33.0338 30.2716C33.2568 30.0781 33.5321 29.9551 33.825 29.9181C34.0194 29.8932 34.2168 29.9068 34.406 29.9584C34.5951 30.0099 34.7722 30.0982 34.9271 30.2183C35.082 30.3384 35.2117 30.4879 35.3087 30.6583C35.4057 30.8286 35.4681 31.0164 35.4924 31.2109Z" fill="#68E1FD"/>
<path d="M34.2336 33.1576C33.8852 33.2023 33.5313 33.1426 33.2168 32.9861C32.9024 32.8295 32.6414 32.5832 32.467 32.2782C32.2927 31.9733 32.2127 31.6235 32.2373 31.2731C32.2618 30.9227 32.3898 30.5874 32.605 30.3098C32.8202 30.0321 33.113 29.8246 33.4462 29.7135C33.7795 29.6023 34.1382 29.5926 34.477 29.6855C34.8157 29.7783 35.1193 29.9696 35.3493 30.2351C35.5793 30.5007 35.7253 30.8285 35.7689 31.177C35.8264 31.643 35.6972 32.1127 35.4095 32.4838C35.1219 32.8549 34.6991 33.0971 34.2336 33.1576ZM33.862 30.1944C33.6193 30.2217 33.3903 30.3207 33.2042 30.4788C33.018 30.637 32.8833 30.847 32.8171 31.082C32.7509 31.3171 32.7563 31.5666 32.8325 31.7986C32.9088 32.0306 33.0525 32.2346 33.2453 32.3845C33.4381 32.5344 33.6711 32.6235 33.9148 32.6403C34.1584 32.6571 34.4015 32.601 34.6131 32.4789C34.8246 32.3569 34.995 32.1746 35.1024 31.9553C35.2099 31.7359 35.2495 31.4896 35.2162 31.2476C35.1965 31.0896 35.1458 30.9369 35.067 30.7984C34.9883 30.6599 34.883 30.5383 34.7573 30.4405C34.6315 30.3427 34.4877 30.2706 34.3341 30.2284C34.1805 30.1862 34.0201 30.1746 33.862 30.1944Z" fill="white"/>
<path d="M43.7467 32.2734C43.7832 32.5662 43.7321 32.8633 43.5999 33.1271C43.4676 33.3909 43.2601 33.6095 43.0036 33.7554C42.7471 33.9013 42.4531 33.9679 42.1588 33.9467C41.8645 33.9256 41.583 33.8176 41.35 33.6366C41.117 33.4555 40.9429 33.2094 40.8498 32.9294C40.7566 32.6494 40.7485 32.3481 40.8266 32.0635C40.9046 31.7789 41.0653 31.5239 41.2883 31.3306C41.5112 31.1373 41.7865 31.0144 42.0793 30.9776C42.472 30.9297 42.8676 31.0391 43.18 31.2819C43.4924 31.5246 43.6961 31.881 43.7467 32.2734Z" fill="#68E1FD"/>
<path d="M42.4878 34.2171C42.1402 34.261 41.7873 34.201 41.4738 34.0444C41.1603 33.8878 40.9003 33.6418 40.7266 33.3375C40.5529 33.0332 40.4734 32.6842 40.498 32.3346C40.5227 31.9851 40.6504 31.6507 40.8651 31.3738C41.0798 31.0968 41.3718 30.8898 41.7041 30.7788C42.0365 30.6678 42.3943 30.6578 42.7323 30.7501C43.0704 30.8425 43.3734 31.033 43.6032 31.2975C43.8329 31.5621 43.9791 31.8888 44.0232 32.2365C44.0814 32.7026 43.9525 33.1728 43.6648 33.544C43.377 33.9153 42.9537 34.1573 42.4878 34.2171ZM42.1285 31.2569C41.8904 31.2868 41.6665 31.3866 41.4851 31.5438C41.3038 31.701 41.1731 31.9084 41.1097 32.1399C41.0463 32.3714 41.053 32.6164 41.1289 32.8441C41.2048 33.0718 41.3466 33.2718 41.5362 33.4189C41.7259 33.566 41.9549 33.6535 42.1943 33.6703C42.4337 33.6872 42.6727 33.6327 42.8811 33.5136C43.0895 33.3946 43.2579 33.2164 43.365 33.0017C43.4721 32.7869 43.5131 32.5452 43.4827 32.3071C43.463 32.1491 43.4123 31.9966 43.3335 31.8583C43.2547 31.7199 43.1494 31.5985 43.0236 31.5009C42.8978 31.4034 42.754 31.3316 42.6004 31.2897C42.4468 31.2478 42.2865 31.2367 42.1285 31.2569Z" fill="white"/>
<path d="M13.8381 40.2294C13.4896 40.2741 13.1358 40.2144 12.8213 40.0578C12.5069 39.9013 12.2459 39.655 12.0715 39.35C11.8972 39.0451 11.8172 38.6953 11.8417 38.3448C11.8663 37.9944 11.9943 37.6592 12.2095 37.3816C12.4247 37.1039 12.7175 36.8964 13.0507 36.7853C13.384 36.6741 13.7427 36.6644 14.0815 36.7572C14.4202 36.8501 14.7238 37.0414 14.9538 37.3069C15.1838 37.5724 15.3298 37.9002 15.3734 38.2488C15.4308 38.7148 15.3016 39.1845 15.014 39.5556C14.7264 39.9266 14.3036 40.1689 13.8381 40.2294ZM13.4634 37.2662C13.2208 37.2935 12.9917 37.3925 12.8056 37.5506C12.6195 37.7087 12.4847 37.9187 12.4185 38.1538C12.3523 38.3889 12.3577 38.6384 12.434 38.8704C12.5102 39.1024 12.6539 39.3064 12.8467 39.4563C13.0395 39.6062 13.2726 39.6953 13.5162 39.7121C13.7598 39.7289 14.003 39.6727 14.2145 39.5507C14.4261 39.4287 14.5964 39.2464 14.7039 39.027C14.8113 38.8077 14.8509 38.5614 14.8176 38.3194C14.7979 38.1613 14.7472 38.0087 14.6685 37.8702C14.5897 37.7317 14.4845 37.6101 14.3587 37.5123C14.233 37.4145 14.0892 37.3424 13.9356 37.3002C13.7819 37.2579 13.6215 37.2464 13.4634 37.2662Z" fill="white"/>
<defs>
<linearGradient id="paint0_linear_2_819" x1="65.6316" y1="74.357" x2="66.8353" y2="105.426" gradientUnits="userSpaceOnUse">
<stop offset="0.01"/>
<stop offset="0.83" stop-opacity="0.07"/>
<stop offset="1" stop-opacity="0"/>
</linearGradient>
<linearGradient id="paint1_linear_2_819" x1="35.9656" y1="66.2811" x2="31.9799" y2="91.8415" gradientUnits="userSpaceOnUse">
<stop offset="0.01"/>
<stop offset="0.83" stop-opacity="0.07"/>
<stop offset="1" stop-opacity="0"/>
</linearGradient>
<linearGradient id="paint2_linear_2_819" x1="55.1423" y1="62.8113" x2="59.3123" y2="53.6913" gradientUnits="userSpaceOnUse">
<stop offset="0.01"/>
<stop offset="0.12" stop-opacity="0.75"/>
<stop offset="1" stop-opacity="0"/>
</linearGradient>
<linearGradient id="paint3_linear_2_819" x1="66.8325" y1="57.5115" x2="61.4127" y2="56.102" gradientUnits="userSpaceOnUse">
<stop offset="0.01"/>
<stop offset="0.12" stop-opacity="0.75"/>
<stop offset="1" stop-opacity="0"/>
</linearGradient>
<linearGradient id="paint4_linear_2_819" x1="57.7588" y1="44.6115" x2="62.2144" y2="60.6374" gradientUnits="userSpaceOnUse">
<stop offset="0.01"/>
<stop offset="0.83" stop-opacity="0.07"/>
<stop offset="1" stop-opacity="0"/>
</linearGradient>
<linearGradient id="paint5_linear_2_819" x1="61.4589" y1="94.2552" x2="60.9921" y2="55.9483" gradientUnits="userSpaceOnUse">
<stop offset="0.01"/>
<stop offset="0.83" stop-opacity="0.07"/>
<stop offset="1" stop-opacity="0"/>
</linearGradient>
<linearGradient id="paint6_linear_2_819" x1="58.3878" y1="68.5105" x2="72.381" y2="67.5709" gradientUnits="userSpaceOnUse">
<stop offset="0.01"/>
<stop offset="0.12" stop-opacity="0.75"/>
<stop offset="1" stop-opacity="0"/>
</linearGradient>
<linearGradient id="paint7_linear_2_819" x1="75.5895" y1="81.8526" x2="75.7308" y2="75.4072" gradientUnits="userSpaceOnUse">
<stop offset="0.01"/>
<stop offset="0.12" stop-opacity="0.75"/>
<stop offset="1" stop-opacity="0"/>
</linearGradient>
<linearGradient id="paint8_linear_2_819" x1="83.03" y1="59.4244" x2="90.068" y2="83.1117" gradientUnits="userSpaceOnUse">
<stop offset="0.01"/>
<stop offset="0.12" stop-opacity="0.75"/>
<stop offset="1" stop-opacity="0"/>
</linearGradient>
<linearGradient id="paint9_linear_2_819" x1="85.717" y1="85.8322" x2="86.672" y2="61.6075" gradientUnits="userSpaceOnUse">
<stop offset="0.01"/>
<stop offset="0.12" stop-opacity="0.75"/>
<stop offset="1" stop-opacity="0"/>
</linearGradient>
</defs>
</svg>
