<svg width="127" height="77" viewBox="0 0 127 77" fill="none" xmlns="http://www.w3.org/2000/svg">
<path opacity="0.3" d="M38.4961 6.94711C20.0028 11.0136 5.38578 23.8511 1.09915 40.3597C-2.09064 52.645 0.726078 65.3146 22.1629 69.9221C68.5473 79.8794 118.651 76.5964 124.654 56.6742C130.657 36.752 119.517 2.57841 92.9949 0.466808C77.8928 -0.738222 55.2211 3.27233 38.4961 6.94711Z" fill="#E6E6E6"/>
<path d="M58.7727 43.8443C58.7727 43.8443 63.0257 41.0052 63.16 41.8857C63.2943 42.7661 61.7423 43.8443 61.9438 43.8443C62.1453 43.8443 65.5925 41.7812 65.7268 42.7773C65.8611 43.7734 62.2161 46.273 58.1646 46.273L58.7727 43.8443Z" fill="#F4A28C"/>
<path d="M88.7344 6.17871H117.349V74.1006H88.7344V6.17871Z" fill="#EFEFEF"/>
<path d="M55.1091 6.86136C54.9255 6.63478 54.69 6.45565 54.4227 6.33905C54.1247 6.21137 53.8029 6.14904 53.4788 6.15625C53.1371 6.1525 52.7986 6.22249 52.4864 6.36144C52.1861 6.49828 51.917 6.69506 51.6955 6.9397C51.4666 7.19843 51.2893 7.49855 51.1732 7.82389C50.915 8.54771 50.915 9.33852 51.1732 10.0623C51.29 10.3832 51.4659 10.6793 51.6918 10.9353C51.9056 11.1803 52.1688 11.3774 52.464 11.5136C52.7631 11.6528 53.0893 11.7241 53.4191 11.7225C53.7789 11.7297 54.1346 11.6449 54.4525 11.4763C54.7546 11.3166 55.0113 11.083 55.1987 10.7973L56.7768 11.9613C56.426 12.455 55.9457 12.8423 55.389 13.0805C54.8458 13.3249 54.2572 13.452 53.6616 13.4536C53.0262 13.4606 52.3945 13.3545 51.7962 13.1402C51.2491 12.9402 50.7478 12.6319 50.3226 12.2336C49.9032 11.8295 49.5739 11.3413 49.3563 10.801C48.8923 9.5943 48.8923 8.25835 49.3563 7.05162C49.5736 6.51226 49.9029 6.02521 50.3226 5.62275C50.7459 5.22201 51.2477 4.91333 51.7962 4.71618C52.3938 4.49884 53.0258 4.3914 53.6616 4.39906C53.9118 4.40099 54.1613 4.42345 54.4078 4.46622C54.6739 4.51167 54.9351 4.58289 55.1875 4.67887C55.4505 4.77222 55.7011 4.89752 55.9336 5.05195C56.1738 5.21653 56.3876 5.41653 56.5679 5.64513L55.1091 6.86136Z" fill="#FFD200"/>
<path d="M59.4815 6.30188H57.0229V4.62305H63.839V6.30188H61.3805V13.2411H59.4815V6.30188Z" fill="#FFD200"/>
<path d="M64.3351 8.93189C64.3275 8.29338 64.4454 7.65959 64.6821 7.06651C64.9004 6.52681 65.2311 6.03974 65.6521 5.63764C66.0803 5.23391 66.5888 4.925 67.1444 4.73107C68.3517 4.30644 69.6678 4.30644 70.8751 4.73107C71.4237 4.92822 71.9255 5.2369 72.3488 5.63764C72.7685 6.0401 73.0978 6.52715 73.3151 7.06651C73.7791 8.27324 73.7791 9.60919 73.3151 10.8159C73.0975 11.3562 72.7682 11.8444 72.3488 12.2485C71.9235 12.6467 71.4223 12.9551 70.8751 13.1551C69.667 13.5747 68.3526 13.5747 67.1444 13.1551C66.5901 12.9583 66.0822 12.6497 65.6521 12.2485C65.2316 11.8445 64.9011 11.3564 64.6821 10.8159C64.4423 10.2172 64.3244 9.57672 64.3351 8.93189ZM66.3087 8.93189C66.3038 9.31309 66.367 9.6921 66.4953 10.0511C66.614 10.3802 66.7994 10.6812 67.0399 10.9353C67.2778 11.1845 67.5649 11.3814 67.8831 11.5136C68.5917 11.792 69.3794 11.792 70.088 11.5136C70.4139 11.3838 70.7088 11.1867 70.9535 10.9353C71.192 10.6832 71.3761 10.3848 71.4944 10.0586C71.7475 9.33388 71.7475 8.54482 71.4944 7.82013C71.3757 7.493 71.1916 7.19345 70.9535 6.93967C70.7143 6.69038 70.4259 6.49346 70.1066 6.3614C69.3971 6.0877 68.6112 6.0877 67.9017 6.3614C67.5836 6.49353 67.2964 6.69047 67.0586 6.93967C66.8188 7.19434 66.6335 7.49519 66.5139 7.82386C66.3811 8.17831 66.3116 8.55337 66.3087 8.93189Z" fill="#FFD200"/>
<path opacity="0.43" d="M94.5356 11.7749H104.799V12.4129H94.5356V11.7749Z" fill="#C1C1C1"/>
<path opacity="0.43" d="M94.5356 14.1587H101.482V14.7966H94.5356V14.1587Z" fill="#C1C1C1"/>
<path d="M19.1597 16.5314C19.1597 16.5314 31.4711 13.2483 37.5224 29.3875C43.5737 45.5267 59.4107 42.8182 59.4107 42.8182L59.3547 47.1235C59.3547 47.1235 47.5283 49.7686 36.7949 41.5498C26.0615 33.3309 19.1597 16.5314 19.1597 16.5314Z" fill="#68E1FD"/>
<path opacity="0.44" d="M19.1597 16.5314C19.1597 16.5314 31.4711 13.2483 37.5224 29.3875C43.5737 45.5267 59.4107 42.8182 59.4107 42.8182L59.3547 47.1235C59.3547 47.1235 47.5283 49.7686 36.7949 41.5498C26.0615 33.3309 19.1597 16.5314 19.1597 16.5314Z" fill="white"/>
<path d="M25.3565 4.03348C25.3565 4.03348 25.6027 6.8017 25.1438 8.64468C25.0982 8.82286 25.0178 8.99028 24.9074 9.13737C24.797 9.28446 24.6586 9.40833 24.5002 9.50189C24.3419 9.59545 24.1666 9.65686 23.9845 9.68262C23.8024 9.70837 23.617 9.69796 23.4389 9.65198C22.5137 9.40576 21.3385 8.80511 21.0251 7.33892L20.1894 4.91394C20.0722 4.41085 20.1145 3.88377 20.3103 3.40579C20.5062 2.92781 20.846 2.52263 21.2825 2.24646C22.8457 1.11231 25.2931 2.35465 25.3565 4.03348Z" fill="#F4A28C"/>
<path d="M20.3384 5.35425L18.9282 14.3528L23.9423 14.7744L22.9537 8.05531L20.3384 5.35425Z" fill="#F4A28C"/>
<path d="M24.6698 4.14918C23.811 4.18508 22.9509 4.12123 22.1068 3.95891C22.3547 4.33619 22.4869 4.77777 22.4869 5.22923C22.4869 5.68068 22.3547 6.12227 22.1068 6.49955C21.8723 6.86795 21.5174 7.14366 21.1024 7.27971C20.6874 7.41577 20.2381 7.40374 19.8311 7.24569L19.8684 3.67537C19.8563 3.16408 19.9827 2.65904 20.2342 2.21375C20.4858 1.76845 20.8531 1.39948 21.2972 1.14593C21.6814 0.926225 22.0789 0.730606 22.4873 0.5602C23.5133 0.146087 25.0205 0.828814 25.942 0.134895C26.0346 0.0649881 26.1438 0.0203986 26.2588 0.00551789C26.3738 -0.00936281 26.4908 0.00597897 26.5981 0.0500317C26.7054 0.0940844 26.7994 0.165328 26.8708 0.256748C26.9422 0.348168 26.9885 0.45661 27.0053 0.571393C27.1694 1.65704 26.9792 3.36572 25.513 3.96264C25.2442 4.07118 24.9593 4.13422 24.6698 4.14918Z" fill="#24285B"/>
<path d="M22.4094 6.41755C22.4094 6.41755 22.387 5.34682 21.5811 5.43263C20.7753 5.51844 20.8014 7.06296 21.8945 7.20473L22.4094 6.41755Z" fill="#F4A28C"/>
<path d="M25.4384 5.7832L26.1846 6.85392C26.2286 6.91444 26.2567 6.98512 26.2662 7.05939C26.2756 7.13367 26.2661 7.20913 26.2386 7.27875C26.211 7.34837 26.1663 7.40989 26.1086 7.4576C26.0509 7.5053 25.982 7.53762 25.9085 7.55158L24.8452 7.75304L25.4384 5.7832Z" fill="#F4A28C"/>
<path opacity="0.31" d="M23.2335 9.51778C22.6083 9.36228 22.0426 9.02624 21.6069 8.55151C21.6069 8.55151 21.6815 10.2192 23.5133 11.857L23.2335 9.51778Z" fill="#CE8172"/>
<path d="M18.1822 14.3528L24.4238 14.8788C24.4238 14.8788 36.7987 18.52 36.2987 30.1525C35.7988 41.7849 34.6796 56.0289 34.6796 56.0289L18.033 58.204C18.033 58.204 -9.63047 20.5496 18.1822 14.3528Z" fill="#68E1FD"/>
<path opacity="0.08" d="M18.0257 22.0791C18.0257 22.0791 21.4356 24.713 21.0103 31.779C20.585 38.8451 18.9174 46.8774 26.211 46.0603C33.5046 45.2433 35.5901 42.9228 35.5901 42.9228L34.6686 56.0252L18.0332 58.2039L16.5409 56.0289C16.5409 56.0289 5.66576 31.9208 18.0257 22.0791Z" fill="black"/>
<path d="M18.5667 24.3399C18.2757 18.6244 10.9709 16.4084 7.61319 21.0457C5.54263 23.8997 4.10629 27.9587 5.11359 33.5511C7.60946 47.381 9.06818 58.174 16.4513 57.4652C23.8345 56.7564 37.7501 40.5164 37.7501 40.5164L33.4859 37.7109C33.4859 37.7109 24.8567 47.0676 19.3464 47.1721C15.4515 47.2467 19.0666 34.066 18.5667 24.3399Z" fill="#68E1FD"/>
<path d="M40.166 38.0896L35.9281 36.7175L38.4011 29.0793L42.639 30.4514L40.166 38.0896Z" fill="#FFD200"/>
<path opacity="0.44" d="M18.5667 24.3399C18.2757 18.6244 10.9709 16.4084 7.61319 21.0457C5.54263 23.8997 4.10629 27.9587 5.11359 33.5511C7.60946 47.381 9.06818 58.174 16.4513 57.4652C23.8345 56.7564 37.7501 40.5164 37.7501 40.5164L33.4859 37.7109C33.4859 37.7109 24.8567 47.0676 19.3464 47.1721C15.4515 47.2467 19.0666 34.066 18.5667 24.3399Z" fill="white"/>
<path d="M36.7539 39.8487C36.7539 39.8487 39.8169 37.5021 38.8431 35.7449C37.8694 33.9877 33.9932 38.0319 33.9932 38.0319L36.7539 39.8487Z" fill="#F4A28C"/>
<path d="M30.1018 38.7108C29.2475 35.4352 27.2552 30.8315 25.1884 26.5075C22.1404 20.1242 18.9282 14.3528 18.9282 14.3528L20.7563 14.5095L23.9423 14.7744C23.9647 14.8042 23.9871 14.8266 24.0058 14.8564C25.5801 16.9121 26.7591 19.9116 27.6395 23.0939C29.6653 30.4174 30.1018 38.7108 30.1018 38.7108Z" fill="white"/>
<path d="M24.1739 6.60033C24.7344 6.60033 25.1887 6.146 25.1887 5.58556C25.1887 5.02513 24.7344 4.5708 24.1739 4.5708C23.6135 4.5708 23.1592 5.02513 23.1592 5.58556C23.1592 6.146 23.6135 6.60033 24.1739 6.60033Z" fill="#FFD200"/>
<path d="M26.0206 6.60033C26.5811 6.60033 27.0354 6.146 27.0354 5.58556C27.0354 5.02513 26.5811 4.5708 26.0206 4.5708C25.4602 4.5708 25.0059 5.02513 25.0059 5.58556C25.0059 6.146 25.4602 6.60033 26.0206 6.60033Z" fill="#FFD200"/>
<path d="M18.033 58.2038C18.033 58.2038 17.7793 60.5915 17.4398 64.3708C17.1003 68.15 17.104 76.2569 17.104 76.2569H26.8972L28.9902 69.5043L28.4492 76.2569H33.1089L34.6795 56.0288L18.033 58.2038Z" fill="#24285B"/>
<path d="M30.1019 38.7109C29.2475 35.4353 27.2553 30.8315 25.1885 26.5076C24.4871 21.5345 22.4016 15.7481 22.4016 15.7481L20.7563 14.5095L23.9424 14.7744C23.9648 14.8042 23.9872 14.8266 24.0058 14.8565L23.5134 15.681C24.4684 16.733 26.1547 20.0086 27.6396 23.094C29.6654 30.4174 30.1019 38.7109 30.1019 38.7109Z" fill="#24285B"/>
<path d="M69.189 53.5779L68.7488 52.7198C68.5768 52.3837 68.3156 52.1015 67.9937 51.904C67.6719 51.7066 67.302 51.6016 66.9244 51.6006H57.0603C56.5326 51.601 56.0252 51.8048 55.6438 52.1695C55.2624 52.5343 55.0361 53.032 55.0122 53.5592H53.6616V72.213H77.7585V53.5592L69.189 53.5779Z" fill="#C9C9C9"/>
<path d="M77.7586 72.2502H53.6617L50.2183 57.6965H74.3189L77.7586 72.2502Z" fill="#EFEFEF"/>
<path d="M82.336 25.1682C82.4662 25.1192 82.5821 25.0381 82.6727 24.9325C82.7633 24.8268 82.8259 24.7 82.8546 24.5638V24.2542C82.8098 24.0565 82.7725 23.855 82.7203 23.661C82.6022 23.127 82.3831 22.6205 82.0748 22.1687C82.013 22.0918 81.947 22.0183 81.8771 21.9486C81.7625 21.8376 81.6161 21.765 81.4583 21.7409C81.3005 21.7168 81.1392 21.7425 80.9967 21.8143C80.3916 22.1133 79.6995 22.1861 79.0455 22.0195C78.6178 21.8923 78.2372 21.6418 77.9512 21.2994C77.6652 20.957 77.4865 20.5379 77.4375 20.0944C77.3892 19.6534 77.4561 19.2073 77.6315 18.7998C77.667 18.7047 77.6969 18.6075 77.7211 18.5088C77.7458 18.4277 77.7502 18.3417 77.7339 18.2585C77.7176 18.1752 77.6812 18.0972 77.6278 18.0313C77.4798 17.838 77.3123 17.6605 77.1279 17.5015C76.5355 17.0452 75.8157 16.7844 75.0685 16.7554C75.0009 16.7497 74.9329 16.758 74.8687 16.7799C74.8045 16.8017 74.7455 16.8366 74.6954 16.8822C74.5244 17.0308 74.3924 17.2192 74.3112 17.4307C74.0764 18.0119 73.6247 18.479 73.0516 18.7331C72.4786 18.9873 71.8292 19.0085 71.2408 18.7924C70.9189 18.6615 70.6278 18.4653 70.3857 18.2162C70.1436 17.967 69.9558 17.6703 69.8343 17.3449C69.8343 17.3113 69.8082 17.2777 69.7895 17.2441C69.733 17.0785 69.6169 16.9398 69.4639 16.855C69.3108 16.7702 69.1317 16.7453 68.9613 16.7852C68.2471 16.8583 67.5604 17.1 66.9579 17.4904C66.8424 17.5662 66.736 17.6551 66.6407 17.7552C66.5347 17.8586 66.4597 17.9895 66.4241 18.1332C66.3885 18.2769 66.3938 18.4277 66.4393 18.5685C66.6302 19.2789 66.6029 20.0303 66.3609 20.7249C66.254 21.0187 66.0766 21.2818 65.8444 21.4912C65.6123 21.7007 65.3323 21.85 65.0291 21.9262C64.4666 22.1019 63.8617 22.0862 63.3092 21.8814C63.2197 21.8479 63.1301 21.8255 63.0406 21.7956C62.9115 21.7486 62.7712 21.7416 62.6381 21.7755C62.505 21.8095 62.3852 21.8828 62.2944 21.9859C62.0943 22.1898 61.9314 22.4272 61.8132 22.6873C61.559 23.1704 61.4102 23.7019 61.3767 24.2467C61.3695 24.4513 61.4185 24.6538 61.5184 24.8325C61.5951 24.9898 61.7283 25.1124 61.8915 25.1757C62.3756 25.3757 62.8061 25.6861 63.1488 26.0823C63.4649 26.4394 63.6465 26.8958 63.6622 27.3726C63.6779 27.8493 63.5266 28.3166 63.2346 28.6938C62.8979 29.1574 62.4395 29.5189 61.9102 29.7384C61.7659 29.7917 61.6405 29.8862 61.5496 30.0103C61.4587 30.1344 61.4064 30.2824 61.3991 30.436C61.3768 30.7318 61.4097 31.029 61.496 31.3128C61.6238 31.7905 61.8238 32.246 62.0892 32.6633C62.17 32.8118 62.2876 32.9371 62.4306 33.0273C62.5737 33.1174 62.7374 33.1693 62.9063 33.1781C63.0442 33.1774 63.1813 33.1561 63.3129 33.1147C63.9045 32.9292 64.536 32.9111 65.1373 33.0625C65.392 33.1233 65.6254 33.2522 65.8125 33.4356C66.1268 33.7432 66.3411 34.1384 66.4276 34.5696C66.5141 35.0008 66.4688 35.448 66.2975 35.8531C66.2378 35.9986 66.1707 36.1403 66.1222 36.2896C66.0809 36.413 66.0726 36.5451 66.0981 36.6727C66.1236 36.8003 66.1821 36.919 66.2677 37.0171C66.4785 37.2553 66.7314 37.4526 67.0138 37.5991C67.5464 37.8988 68.1293 38.0986 68.7337 38.1885C68.8699 38.2072 69.0079 38.2072 69.1441 38.1885C69.2958 38.1696 69.4391 38.1086 69.5578 38.0123C69.6765 37.916 69.7658 37.7884 69.8156 37.6438C70.0094 37.1442 70.3453 36.7123 70.7819 36.4015L70.9274 36.3008C71.1707 36.1423 71.4435 36.0345 71.7295 35.9837C72.0812 35.9239 72.4421 35.9505 72.7813 36.0609C73.1205 36.1714 73.4278 36.3625 73.6769 36.6179C73.9673 36.9006 74.1971 37.2395 74.3522 37.614C74.426 37.7976 74.5454 37.9594 74.6992 38.0841C74.8489 38.1921 75.0354 38.2364 75.2177 38.2072C75.988 38.1262 76.7218 37.8373 77.3405 37.3715C77.528 37.2438 77.663 37.0526 77.7206 36.8332C77.7782 36.6138 77.7545 36.381 77.6539 36.1777C77.5046 35.8608 77.4272 35.515 77.4272 35.1648C77.4272 34.8145 77.5046 34.4687 77.6539 34.1519C77.7873 33.8249 78.0083 33.5411 78.2927 33.3317C78.5771 33.1224 78.9138 32.9957 79.2656 32.9655C79.7679 32.8998 80.2785 32.9509 80.7579 33.1147C80.9888 33.1984 81.2402 33.2075 81.4765 33.1405C81.7128 33.0736 81.9221 32.934 82.0748 32.7416C82.4449 32.2729 82.6912 31.7187 82.7911 31.13C82.8216 30.9612 82.839 30.7903 82.8434 30.6188C82.8441 30.4917 82.8151 30.3661 82.7588 30.2521C82.7024 30.1381 82.6203 30.0389 82.5188 29.9622C82.3882 29.8465 82.2411 29.751 82.0823 29.6787C81.7285 29.5342 81.4154 29.3052 81.1706 29.0117C80.9257 28.7183 80.7565 28.3693 80.6777 27.9952C80.5989 27.6212 80.613 27.2336 80.7187 26.8663C80.8243 26.499 81.0184 26.1632 81.2839 25.8883C81.5765 25.5728 81.936 25.3267 82.336 25.1682ZM73.856 33.6034C73.2765 33.7717 72.6761 33.8571 72.0727 33.8571C71.2195 33.8579 70.3752 33.684 69.5918 33.346C68.4455 32.8442 67.4701 32.0197 66.7845 30.973C66.0988 29.9263 65.7326 28.7027 65.7304 27.4514C65.7333 26.2653 66.0666 25.1034 66.6929 24.0961C67.3192 23.0888 68.2138 22.276 69.2763 21.7487C70.3388 21.2215 71.5273 21.0007 72.7082 21.1112C73.8892 21.2217 75.0161 21.659 75.9624 22.3742C76.9087 23.0893 77.637 24.054 78.0656 25.1599C78.4943 26.2659 78.6063 27.4695 78.3891 28.6355C78.1719 29.8016 77.6342 30.8841 76.8361 31.7616C76.038 32.6391 75.0112 33.2769 73.8709 33.6034H73.856Z" fill="#C9C9C9"/>
<path d="M60.5411 34.1294C60.6339 34.1399 60.7278 34.1266 60.814 34.0907C60.9002 34.0548 60.9758 33.9975 61.0336 33.9242L61.1269 33.7414C61.1605 33.6108 61.2015 33.4802 61.2313 33.3459C61.3225 32.9954 61.3453 32.6306 61.2985 32.2715C61.2863 32.2059 61.2701 32.1411 61.25 32.0775C61.2151 31.9765 61.1497 31.8888 61.0628 31.8266C60.9759 31.7644 60.8718 31.7309 60.765 31.7305C60.3122 31.7216 59.8773 31.5523 59.5376 31.253C59.322 31.0464 59.1717 30.7812 59.1054 30.49C59.0391 30.1989 59.0596 29.8947 59.1645 29.6152C59.2692 29.3368 59.4455 29.091 59.6756 28.9026C59.7266 28.8566 59.774 28.8067 59.8174 28.7534C59.8578 28.713 59.8874 28.6632 59.9037 28.6085C59.92 28.5538 59.9224 28.4959 59.9106 28.44C59.88 28.2804 59.8338 28.1242 59.7726 27.9736C59.5606 27.5202 59.2107 27.1454 58.7728 26.9029C58.7353 26.8796 58.6935 26.8642 58.6498 26.8578C58.6062 26.8514 58.5617 26.8541 58.5191 26.8656C58.372 26.8962 58.2348 26.9629 58.1199 27.0596C57.802 27.3309 57.3916 27.4688 56.9744 27.4445C56.5572 27.4202 56.1656 27.2355 55.8814 26.929C55.7339 26.7511 55.6247 26.5446 55.5605 26.3225C55.4963 26.1004 55.4785 25.8675 55.5084 25.6382C55.5102 25.6134 55.5102 25.5884 55.5084 25.5636C55.5256 25.4475 55.4988 25.3291 55.4333 25.2318C55.3677 25.1344 55.268 25.0652 55.1539 25.0376C54.7062 24.8608 54.2228 24.793 53.7437 24.8398C53.651 24.8516 53.5598 24.8729 53.4714 24.9032C53.3765 24.9325 53.2915 24.9873 53.2257 25.0617C53.1599 25.136 53.1158 25.2271 53.0983 25.3248C52.9978 25.8074 52.7517 26.2475 52.3932 26.5858C52.2395 26.7279 52.0536 26.8303 51.8514 26.8842C51.6492 26.9382 51.4369 26.9421 51.2329 26.8955C50.8432 26.8287 50.4871 26.6329 50.2219 26.3396L50.0876 26.2053C50.0238 26.1382 49.9416 26.0914 49.8514 26.0708C49.7611 26.0503 49.6668 26.0568 49.5802 26.0896C49.3985 26.1496 49.2292 26.2418 49.0803 26.362C48.7785 26.5714 48.5242 26.8422 48.3341 27.1566C48.271 27.2707 48.2388 27.3993 48.2409 27.5297C48.2377 27.6462 48.2791 27.7596 48.3565 27.8468C48.5825 28.1148 48.7434 28.4315 48.8266 28.772C48.905 29.0818 48.8735 29.4092 48.7374 29.6984C48.6013 29.9875 48.3691 30.2205 48.0805 30.3576C47.7347 30.5321 47.3472 30.607 46.9612 30.574C46.8587 30.5613 46.7546 30.5794 46.6623 30.6259C46.57 30.6723 46.4936 30.7452 46.4427 30.8351C46.3399 31.0049 46.2691 31.192 46.2337 31.3873C46.1635 31.7106 46.1434 32.0428 46.174 32.3722C46.177 32.4851 46.2087 32.5954 46.2661 32.6927C46.3236 32.79 46.4049 32.871 46.5024 32.9281C46.5838 32.9716 46.6722 33.0006 46.7635 33.0139C47.1781 33.0846 47.5653 33.2678 47.8827 33.5437C48.0161 33.6598 48.1143 33.811 48.1663 33.9801C48.2592 34.2592 48.2658 34.5597 48.1853 34.8426C48.1047 35.1255 47.9408 35.3775 47.7148 35.5657C47.6365 35.6366 47.5507 35.7 47.4761 35.7746C47.4134 35.8352 47.368 35.9114 47.3444 35.9953C47.3208 36.0792 47.3199 36.1678 47.3418 36.2522C47.3937 36.4596 47.4835 36.6557 47.6067 36.8304C47.8342 37.1698 48.1196 37.4666 48.4498 37.7072C48.5277 37.7584 48.6116 37.7998 48.6998 37.8303C48.7961 37.8644 48.9 37.8714 49.0001 37.8503C49.1001 37.8293 49.1924 37.781 49.2668 37.7109C49.5336 37.4707 49.8663 37.3161 50.2219 37.2669H50.3413C50.5346 37.2454 50.7303 37.2645 50.9158 37.3229C51.143 37.3961 51.3493 37.5227 51.5175 37.6921C51.6856 37.8616 51.8106 38.0689 51.8821 38.2966C51.9671 38.5549 51.9988 38.8278 51.9754 39.0987C51.9678 39.2267 51.9908 39.3546 52.0425 39.4718C52.0694 39.5271 52.1075 39.5762 52.1544 39.6161C52.2013 39.6559 52.2559 39.6855 52.3149 39.7031C52.7972 39.893 53.3227 39.946 53.8333 39.8561C53.9837 39.8381 54.1225 39.7661 54.224 39.6537C54.3256 39.5412 54.3829 39.3957 54.3854 39.2442C54.3917 39.0095 54.4499 38.7791 54.5557 38.5695C54.6614 38.3599 54.8122 38.1763 54.9973 38.0317C55.1765 37.8768 55.3954 37.7749 55.6293 37.7373C55.8632 37.6998 56.1029 37.7281 56.3217 37.8191C56.6381 37.9327 56.9241 38.1179 57.1574 38.36C57.2709 38.4796 57.4191 38.5605 57.5811 38.5913C57.7431 38.6221 57.9107 38.6012 58.0602 38.5317C58.4246 38.3634 58.7413 38.107 58.9817 37.7855C59.0503 37.6941 59.1126 37.5981 59.1682 37.4982C59.209 37.4253 59.2325 37.344 59.237 37.2606C59.2415 37.1772 59.2269 37.0939 59.1943 37.017C59.1515 36.9068 59.0924 36.8037 59.019 36.7111C58.8523 36.5169 58.7357 36.2847 58.6797 36.035C58.6237 35.7852 58.6298 35.5255 58.6976 35.2787C58.7654 35.0319 58.8927 34.8055 59.0684 34.6194C59.2442 34.4333 59.4629 34.2932 59.7055 34.2115C59.9742 34.1209 60.26 34.0929 60.5411 34.1294ZM52.9006 36.5544C51.9371 36.3669 51.0683 35.8515 50.442 35.0956C49.9108 34.4456 49.5803 33.6549 49.4909 32.8202C49.4014 31.9855 49.5569 31.1427 49.9384 30.3949C50.3037 29.6895 50.8584 29.0998 51.5401 28.692C52.2219 28.2842 53.0038 28.0744 53.7981 28.0861C54.5925 28.0979 55.3678 28.3307 56.0372 28.7585C56.7066 29.1863 57.2436 29.7922 57.5879 30.5081C57.9322 31.224 58.0702 32.0218 57.9865 32.8117C57.9027 33.6017 57.6006 34.3528 57.1138 34.9806C56.6271 35.6085 55.9751 36.0883 55.2309 36.3663C54.4867 36.6442 53.6797 36.7094 52.9006 36.5544Z" fill="#C9C9C9"/>
<path opacity="0.43" d="M96.0763 42.8967C97.0838 42.8967 97.9006 42.0799 97.9006 41.0724C97.9006 40.0648 97.0838 39.248 96.0763 39.248C95.0687 39.248 94.252 40.0648 94.252 41.0724C94.252 42.0799 95.0687 42.8967 96.0763 42.8967Z" fill="#C1C1C1"/>
<path opacity="0.43" d="M95.7217 19.5981H96.4305V68.4933H95.7217V19.5981Z" fill="#C1C1C1"/>
<path opacity="0.43" d="M103.042 54.2419C104.049 54.2419 104.866 53.4251 104.866 52.4176C104.866 51.41 104.049 50.5933 103.042 50.5933C102.034 50.5933 101.217 51.41 101.217 52.4176C101.217 53.4251 102.034 54.2419 103.042 54.2419Z" fill="#C1C1C1"/>
<path opacity="0.43" d="M102.687 19.5981H103.396V68.4933H102.687V19.5981Z" fill="#C1C1C1"/>
<path opacity="0.43" d="M110.007 31.1262C111.014 31.1262 111.831 30.3094 111.831 29.3019C111.831 28.2943 111.014 27.4775 110.007 27.4775C108.999 27.4775 108.183 28.2943 108.183 29.3019C108.183 30.3094 108.999 31.1262 110.007 31.1262Z" fill="#C1C1C1"/>
<path opacity="0.43" d="M109.652 19.5981H110.361V68.4933H109.652V19.5981Z" fill="#C1C1C1"/>
</svg>
