<svg width="98" height="96" viewBox="0 0 98 96" fill="none" xmlns="http://www.w3.org/2000/svg">
<path d="M69.7334 93.7965L68.2853 76.9846L36.9081 81.4172L34.6416 93.7965H69.7334Z" fill="#231F20"/>
<path d="M69.7294 93.9973H34.6617C34.632 93.9968 34.6027 93.9902 34.5758 93.9777C34.5488 93.9653 34.5248 93.9474 34.5052 93.9251C34.4867 93.9024 34.4735 93.8758 34.4665 93.8474C34.4596 93.8189 34.4591 93.7893 34.4651 93.7606L36.7315 81.3814C36.7393 81.34 36.7596 81.3019 36.7898 81.2725C36.8199 81.2431 36.8584 81.2237 36.9 81.2169L68.2773 76.8044C68.3314 76.7973 68.3861 76.8117 68.4297 76.8445C68.451 76.8615 68.4684 76.8827 68.4809 76.9069C68.4933 76.9311 68.5005 76.9577 68.5019 76.9849L69.9501 93.7967C69.9526 93.8244 69.9493 93.8522 69.9403 93.8785C69.9313 93.9048 69.9169 93.9289 69.8979 93.9492C69.8751 93.9692 69.8482 93.9839 69.8191 93.9922C69.7899 94.0005 69.7593 94.0022 69.7294 93.9973ZM34.8783 93.5962H69.5128L68.1048 77.2135L37.0685 81.594L34.8783 93.5962Z" fill="#231F20"/>
<path d="M71.4904 54.1799L70.0904 89.4001C70.0904 89.4001 44.6179 87.7955 33.3218 86.8368L36.0174 59.9603L25.3952 65.0347L17.5649 50.5134C17.5649 50.5134 40.2334 31.2185 60.2945 35.7113" fill="#68E1FD"/>
<path d="M59.5605 15.1329C57.6671 13.3398 55.513 12.9146 53.0901 12.3249C52.1474 12.0883 51.4334 11.5467 50.4305 11.4504C49.4277 11.3542 48.2082 11.3702 47.3738 11.9679C46.3077 12.8108 45.4257 13.8635 44.7824 15.0607C44.152 16.3093 43.6829 17.633 43.3865 18.9999L42.5842 21.9964C42.3222 22.9197 42.1133 23.8573 41.9584 24.8044C41.7578 26.1884 41.6295 27.9815 42.1149 29.3333C42.5641 30.5849 43.8237 30.6932 45.0031 30.8697C48.477 31.3992 52.1233 31.4393 55.513 30.4164C61.5301 28.5912 64.4905 20.9214 60.2264 15.855C60.0178 15.6023 59.7955 15.3612 59.5605 15.1329Z" fill="white"/>
<path d="M49.5563 31.4352C48.0263 31.4274 46.4991 31.3054 44.9873 31.0701L44.7747 31.038C43.6635 30.8736 42.4039 30.689 41.9426 29.4014C41.5415 28.2822 41.4853 26.7699 41.7741 24.7762C41.9314 23.8173 42.1417 22.8678 42.4039 21.9321L43.2062 18.9316C43.5082 17.5475 43.9854 16.2076 44.6262 14.9442C45.2822 13.721 46.1835 12.6463 47.2738 11.7873C47.9918 11.2738 49.0348 11.0933 50.4628 11.2337C51.0279 11.3111 51.5774 11.4762 52.0915 11.7231C52.4343 11.8855 52.7898 12.0197 53.1545 12.1242L53.7041 12.2606C55.8742 12.7981 57.9281 13.3036 59.7212 15.0004C59.9668 15.2326 60.1985 15.4791 60.4152 15.7385C61.3699 16.8678 62.0235 18.2201 62.3153 19.6698C62.607 21.1195 62.5275 22.6194 62.0839 24.0301C61.6263 25.5747 60.7962 26.9833 59.6665 28.1318C58.5369 29.2803 57.1423 30.1337 55.6055 30.6168C53.6405 31.1864 51.602 31.4621 49.5563 31.4352ZM49.5563 11.5867C48.8326 11.5465 48.1142 11.7299 47.4984 12.1122C46.4571 12.9386 45.5957 13.9693 44.9672 15.1408C44.3446 16.3757 43.881 17.6845 43.5873 19.0359L42.785 22.0324C42.5249 22.9559 42.3174 23.8934 42.1632 24.8404C41.8905 26.7418 41.9386 28.2341 42.3117 29.253C42.6847 30.2719 43.7277 30.4564 44.8228 30.6289L45.0394 30.661C48.9786 31.2587 52.4846 31.1102 55.4691 30.2117C56.9421 29.747 58.2785 28.928 59.3612 27.8264C60.4438 26.7249 61.2396 25.3745 61.6788 23.8937C62.1007 22.5449 62.1749 21.1114 61.8944 19.7263C61.6138 18.3412 60.9877 17.0495 60.0742 15.9712C59.8662 15.7243 59.6453 15.4886 59.4123 15.2652C57.6994 13.6606 55.802 13.1712 53.5797 12.6256L53.0302 12.4893C52.6452 12.3871 52.2695 12.2529 51.907 12.0881C51.4354 11.8587 50.9303 11.7057 50.4107 11.6348C50.1296 11.6039 49.8471 11.5878 49.5643 11.5867H49.5563Z" fill="#231F20"/>
<path d="M45.1314 36.0726L45.0913 43.4737C45.0913 43.4737 47.4982 47.9223 52.1915 46.5825C56.8849 45.2427 57.5267 41.488 57.5267 41.488C57.6149 36.8949 57.4745 32.2096 57.8075 27.6486C57.8075 27.5965 56.243 26.2206 56.0826 25.9759C55.7078 25.4591 55.4742 24.8535 55.4047 24.2189C55.0597 22.1771 54.9153 20.0711 54.7388 18.0052L53.8121 17.921C53.7227 17.7685 53.6968 17.587 53.7399 17.4155C52.6363 18.7968 51.1954 19.8703 49.556 20.5324C48.6414 20.9014 47.6025 21.1341 46.6718 20.8012C47.2559 19.8093 47.6632 18.7234 47.8752 17.592C46.6162 19.0391 45.1669 20.3089 43.567 21.3668C41.8862 22.4819 41.7177 20.5645 41.453 22.5702C41.1641 24.7484 41.1521 30.2801 41.5813 32.4623C42.3234 36.1047 45.1314 36.0726 45.1314 36.0726Z" fill="white"/>
<path d="M50.4825 47.0354C46.8402 47.0354 44.9387 43.6096 44.9147 43.5695C44.8987 43.5399 44.8904 43.5068 44.8906 43.4732L44.9267 36.2527C44.2448 36.1725 42.0345 35.6791 41.4047 32.49C40.9594 30.2276 41.0036 24.6236 41.2763 22.5297C41.3686 21.8196 41.4528 21.5709 41.6333 21.4546C41.7076 21.4181 41.7893 21.3992 41.872 21.3992C41.9548 21.3992 42.0364 21.4181 42.1107 21.4546C42.3835 21.5428 42.7646 21.6592 43.4746 21.1858C45.0607 20.1395 46.4966 18.8817 47.7427 17.4472C47.7712 17.414 47.8099 17.3912 47.8528 17.3825C47.8957 17.3738 47.9402 17.3796 47.9794 17.3991C48.0193 17.4178 48.052 17.4492 48.0723 17.4883C48.0926 17.5275 48.0994 17.5722 48.0917 17.6157C47.8922 18.6882 47.5182 19.7208 46.9846 20.6724C47.8362 20.8283 48.7153 20.7103 49.4957 20.3354C51.1035 19.6879 52.5169 18.6364 53.5994 17.2827C53.6278 17.247 53.6677 17.2222 53.7124 17.2127C53.757 17.2032 53.8036 17.2095 53.8441 17.2306C53.886 17.2499 53.9195 17.2836 53.9387 17.3255C53.9578 17.3675 53.9613 17.4149 53.9484 17.4592C53.9245 17.5459 53.9245 17.6373 53.9484 17.724L54.7507 17.7962C54.7974 17.8015 54.8408 17.8228 54.8737 17.8564C54.9066 17.89 54.9269 17.9339 54.9312 17.9807L55.0114 18.8993C55.1558 20.6443 55.3083 22.4454 55.6011 24.1783C55.6634 24.786 55.8863 25.3661 56.2469 25.8591C56.3231 25.9755 56.9088 26.517 57.2979 26.878C58.0119 27.5359 58.0119 27.5359 58.0039 27.6562C57.7793 30.7089 57.7713 33.8739 57.7592 36.9346C57.7592 38.4269 57.7592 39.9673 57.7231 41.4756C57.729 41.502 57.729 41.5294 57.7231 41.5558C57.5907 42.1455 56.628 45.511 52.2475 46.7706C51.6746 46.9414 51.0804 47.0305 50.4825 47.0354ZM45.2918 43.4251C45.5645 43.9025 47.847 47.613 52.1392 46.3935C56.5077 45.15 57.2899 41.7122 57.3541 41.4715C57.3822 39.9673 57.3862 38.4309 57.3902 36.9467C57.3902 33.906 57.4102 30.7651 57.6309 27.7204C57.5306 27.6201 57.2819 27.3875 57.0572 27.1829C56.657 26.8369 56.2779 26.4671 55.922 26.0757C55.5321 25.536 55.2889 24.9044 55.216 24.2425C54.9191 22.4895 54.7707 20.6804 54.6223 18.9314L54.5581 18.1773L53.804 18.1091C53.7727 18.1064 53.7426 18.0962 53.7161 18.0794C53.6895 18.0627 53.6674 18.0398 53.6515 18.0128C53.6291 17.9767 53.609 17.9392 53.5914 17.9005C52.5131 19.1338 51.1595 20.0958 49.6401 20.7085C48.4367 21.1898 47.4499 21.2821 46.6115 20.9812C46.5838 20.9712 46.5587 20.9553 46.5379 20.9345C46.5171 20.9137 46.5012 20.8886 46.4912 20.8609C46.4784 20.8347 46.4718 20.8059 46.4718 20.7767C46.4718 20.7475 46.4784 20.7187 46.4912 20.6924C46.9354 19.9395 47.2754 19.1299 47.502 18.2856C46.3562 19.5094 45.072 20.5957 43.6752 21.5228C42.8007 22.1004 42.2792 21.9239 41.9663 21.8357C41.9165 21.8152 41.8636 21.803 41.8098 21.7996C41.7166 22.0575 41.6625 22.3279 41.6494 22.6019C41.3766 24.6717 41.3365 30.1995 41.7737 32.4338C42.4517 35.8636 44.9829 35.8957 45.1032 35.8836C45.1301 35.8833 45.1568 35.8884 45.1817 35.8987C45.2065 35.9091 45.229 35.9244 45.2476 35.9438C45.2851 35.9811 45.3066 36.0314 45.3078 36.0842L45.2918 43.4251Z" fill="#231F20"/>
<path d="M55.4209 31.0381C56.3571 31.4033 57.3998 31.3831 58.3211 30.9819C58.9494 30.6803 59.4896 30.2224 59.89 29.652C60.2903 29.0817 60.5375 28.418 60.6077 27.7247C60.6984 27.2163 60.6738 26.6939 60.5354 26.1963C60.466 25.9474 60.3432 25.7165 60.1756 25.5198C60.0079 25.3231 59.7995 25.1652 59.5647 25.0571C58.9951 24.8164 58.3613 24.9688 57.7435 25.1253C56.849 25.3539 56.7407 25.8112 56.1389 26.3849C56.2031 26.3367 56.2793 26.1682 56.3435 26.1201" fill="white"/>
<path d="M56.8008 31.4993C56.3036 31.4995 55.8109 31.4056 55.3487 31.2225C55.321 31.2154 55.2952 31.2024 55.273 31.1845C55.2508 31.1666 55.2327 31.1442 55.2198 31.1187C55.2069 31.0933 55.1996 31.0654 55.1984 31.0369C55.1972 31.0084 55.2021 30.9799 55.2127 30.9535C55.2234 30.927 55.2395 30.9031 55.2602 30.8834C55.2808 30.8637 55.3053 30.8486 55.3323 30.8391C55.3592 30.8296 55.3878 30.826 55.4162 30.8285C55.4446 30.831 55.4722 30.8395 55.4971 30.8534C56.3817 31.1986 57.3671 31.1784 58.2369 30.7973C58.8371 30.5096 59.3526 30.0713 59.7329 29.525C60.1133 28.9787 60.3455 28.3432 60.407 27.6804C60.4964 27.202 60.4759 26.7096 60.3469 26.2403C60.2846 26.0196 60.1758 25.8149 60.0277 25.6398C59.8796 25.4647 59.6957 25.3234 59.4884 25.2254C58.995 25.0168 58.4294 25.1372 57.7956 25.3016C57.3591 25.4105 56.9779 25.6761 56.7246 26.0478C56.6042 26.1842 56.4718 26.3406 56.2953 26.5091L56.2552 26.5452C56.2148 26.5798 56.1623 26.5969 56.1093 26.5927C56.0562 26.5886 56.007 26.5635 55.9724 26.5231C55.9378 26.4827 55.9207 26.4302 55.9249 26.3771C55.929 26.3241 55.9541 26.2749 55.9945 26.2403C55.9945 26.2403 55.9945 26.2403 56.0145 26.2403L56.0667 26.1641C56.1061 26.0951 56.1562 26.0328 56.2151 25.9796C56.2412 25.9598 56.2713 25.9461 56.3034 25.9395L56.4197 25.8071C56.7287 25.3759 57.1832 25.071 57.6993 24.9486C58.2409 24.8082 58.987 24.6157 59.6489 24.8925C59.9093 25.0133 60.1408 25.1886 60.3277 25.4066C60.5145 25.6246 60.6524 25.8802 60.732 26.1561C60.8776 26.6784 60.9036 27.2268 60.8082 27.7606C60.7346 28.4887 60.4744 29.1854 60.0528 29.7834C59.6312 30.3814 59.0623 30.8605 58.4013 31.1744C57.8957 31.3913 57.3509 31.5019 56.8008 31.4993Z" fill="#231F20"/>
<path d="M45.0913 40.2122C45.0913 40.2122 48.148 40.6134 50.1577 38.5034C52.1674 36.3934 51.9308 34.7246 51.9308 34.7246C51.9308 34.7246 48.2443 36.5699 45.1114 36.0724L45.0913 40.2122Z" fill="#231F20"/>
<path d="M45.721 40.4449C45.508 40.4462 45.295 40.4355 45.0832 40.4128C45.0347 40.4068 44.9901 40.3829 44.9582 40.3459C44.9263 40.3088 44.9094 40.2611 44.9107 40.2122V36.0724C44.9105 36.0436 44.9164 36.0151 44.9282 35.9888C44.94 35.9625 44.9573 35.939 44.9789 35.92C45.0008 35.9014 45.0265 35.8877 45.0542 35.8801C45.082 35.8725 45.111 35.871 45.1394 35.8759C48.172 36.3572 51.8023 34.5641 51.8384 34.5441C51.8669 34.5293 51.8986 34.5216 51.9307 34.5216C51.9628 34.5216 51.9944 34.5293 52.023 34.5441C52.0512 34.5584 52.0755 34.5794 52.0937 34.6052C52.1119 34.6311 52.1234 34.6611 52.1272 34.6925C52.1272 34.7647 52.3439 36.4936 50.294 38.6397C48.8018 40.2242 46.7479 40.4449 45.721 40.4449ZM45.3199 40.0437C45.9858 40.0798 48.3966 40.0959 50.0413 38.379C51.4734 36.8827 51.7261 35.5991 51.7622 35.0495C50.8516 35.4507 47.9674 36.6541 45.344 36.3131L45.3199 40.0437Z" fill="#231F20"/>
<path d="M46.8644 25.1654C46.8644 25.1654 44.618 29.0244 45.2599 29.6301C45.9017 30.2358 47.5143 29.7063 47.5143 29.7063" fill="white"/>
<path d="M46.215 30.1236C45.8149 30.1536 45.4185 30.0286 45.1079 29.7746C44.4179 29.1128 46.1468 25.9999 46.7124 25.0652C46.724 25.0397 46.7408 25.0168 46.7617 24.9981C46.7827 24.9794 46.8073 24.9654 46.834 24.9568C46.8608 24.9483 46.889 24.9454 46.9169 24.9484C46.9448 24.9515 46.9717 24.9603 46.996 24.9744C47.0203 24.9885 47.0413 25.0076 47.0577 25.0303C47.0742 25.0531 47.0857 25.079 47.0915 25.1065C47.0972 25.1339 47.0972 25.1623 47.0913 25.1898C47.0855 25.2172 47.0739 25.2431 47.0574 25.2658C46.0104 27.0629 45.0998 29.189 45.4047 29.4858C45.85 29.915 47.0374 29.6543 47.4586 29.5179C47.5117 29.5014 47.5693 29.5067 47.6186 29.5327C47.6679 29.5586 47.7048 29.6031 47.7213 29.6563C47.7378 29.7095 47.7325 29.7671 47.7065 29.8163C47.6806 29.8656 47.6361 29.9026 47.5829 29.919C47.1392 30.0531 46.6785 30.122 46.215 30.1236Z" fill="#231F20"/>
<path d="M51.0428 25.2067C51.0488 24.7282 50.7788 24.3369 50.4399 24.3327C50.1009 24.3285 49.8214 24.713 49.8154 25.1915C49.8095 25.67 50.0794 26.0613 50.4184 26.0655C50.7573 26.0697 51.0369 25.6852 51.0428 25.2067Z" fill="#231F20"/>
<path d="M44.4198 25.4444C44.4283 24.9659 44.1604 24.5732 43.8214 24.5672C43.4825 24.5612 43.201 24.9443 43.1925 25.4227C43.1841 25.9012 43.452 26.2939 43.7909 26.2999C44.1298 26.3059 44.4114 25.9228 44.4198 25.4444Z" fill="#231F20"/>
<path d="M49.5563 30.7174C48.5455 31.5478 46.5357 31.8286 43.82 31.5197C43.82 31.5197 43.7478 35.13 46.3633 34.9575C48.9787 34.785 49.5563 30.7174 49.5563 30.7174Z" fill="#231F20"/>
<path d="M46.175 35.1581C45.8963 35.1663 45.6188 35.1191 45.3585 35.0193C45.0982 34.9194 44.8603 34.7689 44.6587 34.5764C43.5916 33.5615 43.6197 31.5919 43.6197 31.5117C43.623 31.4554 43.6473 31.4024 43.6879 31.3633C43.7091 31.3447 43.734 31.3308 43.761 31.3225C43.7879 31.3142 43.8163 31.3117 43.8443 31.3151C46.4838 31.62 48.4655 31.3552 49.4322 30.561C49.4636 30.5355 49.5019 30.5201 49.5421 30.5168C49.5823 30.5135 49.6226 30.5223 49.6577 30.5423C49.6928 30.5622 49.7211 30.5923 49.7388 30.6285C49.7566 30.6648 49.763 30.7056 49.7572 30.7455C49.7331 30.918 49.1234 34.9615 46.3796 35.1581H46.175ZM44.0248 31.7363C44.0529 32.2578 44.1893 33.5816 44.9354 34.2876C45.1235 34.4621 45.347 34.5939 45.5907 34.6742C45.8344 34.7545 46.0925 34.7814 46.3475 34.7529C48.2569 34.6205 49.0271 32.1976 49.2678 31.1426C48.1646 31.7845 46.3715 31.985 44.0248 31.7363Z" fill="#231F20"/>
<path d="M49.0107 24.7083L52.0073 23.5972L49.0107 24.7083Z" fill="#231F20"/>
<path d="M49.0109 24.9087C48.9577 24.9183 48.9029 24.9063 48.8585 24.8755C48.8141 24.8447 48.7838 24.7974 48.7742 24.7443C48.7646 24.6911 48.7766 24.6362 48.8074 24.5919C48.8383 24.5475 48.8855 24.5172 48.9387 24.5076L51.9352 23.3924C51.96 23.3832 51.9863 23.3789 52.0127 23.3799C52.0391 23.3809 52.0651 23.387 52.0891 23.398C52.1131 23.409 52.1347 23.4246 52.1527 23.4439C52.1707 23.4633 52.1847 23.486 52.194 23.5107C52.2032 23.5355 52.2074 23.5618 52.2065 23.5882C52.2055 23.6146 52.1994 23.6406 52.1884 23.6646C52.1774 23.6886 52.1618 23.7103 52.1424 23.7283C52.1231 23.7463 52.1004 23.7603 52.0756 23.7695L49.0791 24.8806L49.0109 24.9087Z" fill="#231F20"/>
<path d="M44.7628 24.5437L42.8975 23.9941L44.7628 24.5437Z" fill="#231F20"/>
<path d="M44.7626 24.7444H44.7064L42.8411 24.1949C42.8148 24.1875 42.7901 24.175 42.7686 24.1581C42.7471 24.1412 42.7291 24.1202 42.7157 24.0964C42.7023 24.0726 42.6937 24.0463 42.6905 24.0192C42.6872 23.992 42.6893 23.9645 42.6967 23.9381C42.7041 23.9118 42.7165 23.8872 42.7334 23.8657C42.7503 23.8441 42.7713 23.8262 42.7951 23.8128C42.819 23.7993 42.8452 23.7908 42.8724 23.7875C42.8995 23.7842 42.9271 23.7863 42.9534 23.7937L44.8187 24.3433C44.8719 24.3507 44.92 24.379 44.9523 24.4219C44.9847 24.4648 44.9987 24.5187 44.9912 24.5719C44.9838 24.6251 44.9555 24.6732 44.9126 24.7055C44.8697 24.7379 44.8157 24.7519 44.7626 24.7444Z" fill="#231F20"/>
<path d="M62.3082 20.6607C62.2039 20.432 41.152 19.4934 41.152 19.4934C41.152 19.4934 40.5704 14.3026 43.6311 11.0493C46.6918 7.79607 55.3845 8.90322 59.1833 11.9118C62.9821 14.9203 62.3082 20.6607 62.3082 20.6607Z" fill="white"/>
<path d="M62.3082 20.8611C62.2745 20.8617 62.2413 20.8534 62.2119 20.8371C61.4778 20.6566 49.247 20.0348 41.144 19.6938C41.0959 19.692 41.0502 19.6726 41.0154 19.6394C40.9807 19.6061 40.9593 19.5612 40.9554 19.5133C40.9314 19.3007 40.3978 14.1942 43.4826 10.9128C44.9267 9.37646 47.7187 8.65441 51.1444 8.93119C54.3054 9.18792 57.4343 10.271 59.3076 11.7392C63.1506 14.7838 62.5168 20.6084 62.5168 20.6686C62.5152 20.7165 62.4965 20.7622 62.4642 20.7975C62.4318 20.8329 62.3878 20.8554 62.3403 20.8611H62.3082ZM41.3405 19.3007C57.1615 20.0067 61.1128 20.2875 62.1237 20.448C62.1959 19.4451 62.3443 14.6715 59.0589 12.0681C55.2441 9.04753 46.6958 8.08078 43.7755 11.1856C41.1239 14.0056 41.2763 18.3861 41.3405 19.3007Z" fill="#231F20"/>
<path d="M41.1517 19.4932C41.1517 19.4932 34.9219 20.4599 34.9661 22.4656C35.0102 24.4713 50.2094 25.3298 56.7881 20.2754L41.1517 19.4932Z" fill="white"/>
<path d="M42.1349 24.2228C39.1745 24.2228 36.6955 23.8577 35.5482 23.3082C35.0347 23.0635 34.774 22.7747 34.7459 22.4497C34.6978 20.3397 40.4461 19.393 41.104 19.2927C41.1173 19.2908 41.1308 19.2908 41.1441 19.2927L56.7886 20.0589C56.8294 20.0591 56.8691 20.0724 56.9016 20.097C56.9342 20.1216 56.9578 20.1561 56.9691 20.1953C56.9808 20.2347 56.9805 20.2767 56.9683 20.3159C56.9562 20.3552 56.9328 20.39 56.9009 20.4159C53.2586 23.2199 47.0409 24.2228 42.1349 24.2228ZM41.1642 19.6939C39.4633 19.9586 35.147 20.9535 35.147 22.4417C35.147 22.5941 35.3516 22.7787 35.7006 22.9431C38.6169 24.3431 50.2741 24.5036 56.1909 20.428L41.1642 19.6939Z" fill="#231F20"/>
<path d="M50.3662 63.9919C49.9936 63.9882 49.6299 63.8768 49.3192 63.6709C45.8734 61.4687 44.8706 48.0946 44.9067 43.4735C44.9067 43.4203 44.9278 43.3693 44.9654 43.3317C45.0031 43.294 45.0541 43.2729 45.1073 43.2729C45.1336 43.2734 45.1596 43.2791 45.1837 43.2897C45.2079 43.3003 45.2297 43.3155 45.2479 43.3345C45.2662 43.3535 45.2805 43.3759 45.2901 43.4004C45.2997 43.425 45.3044 43.4512 45.3038 43.4775C45.2757 49.2499 46.5273 61.4045 49.5439 63.334C49.775 63.4885 50.0439 63.5773 50.3216 63.5907C50.5993 63.6041 50.8754 63.5417 51.1204 63.4102C55.5971 61.3082 57.3381 41.6683 57.3541 41.4718C57.3562 41.4455 57.3635 41.4198 57.3755 41.3963C57.3875 41.3727 57.4041 41.3518 57.4242 41.3347C57.4443 41.3175 57.4676 41.3045 57.4928 41.2964C57.5179 41.2883 57.5444 41.2852 57.5707 41.2873C57.5971 41.2894 57.6227 41.2966 57.6463 41.3087C57.6698 41.3207 57.6907 41.3372 57.7079 41.3574C57.725 41.3775 57.738 41.4008 57.7461 41.4259C57.7543 41.451 57.7574 41.4775 57.7553 41.5039C57.6831 42.3062 55.9742 61.5609 51.2929 63.7752C51.0038 63.915 50.6873 63.989 50.3662 63.9919Z" fill="#231F20"/>
<path d="M48.6496 70.8995L47.2175 70.4583C47.2175 70.4583 46.8163 67.7546 47.061 65.8692C47.3057 63.9839 48.1923 63.0332 48.6134 62.7122C49.0346 62.3913 51.1687 62.8567 51.1687 62.8567C51.1687 62.8567 49.5642 65.0469 49.4157 66.5833C49.2673 68.1196 48.6496 70.8995 48.6496 70.8995Z" fill="white"/>
<path d="M48.6497 71.1083C48.6298 71.1121 48.6094 71.1121 48.5896 71.1083L47.1535 70.667C47.1163 70.6561 47.083 70.6348 47.0574 70.6057C47.0319 70.5766 47.0151 70.5408 47.0091 70.5026C46.7806 68.9651 46.7295 67.4065 46.8566 65.8573C47.1374 63.7313 48.1764 62.7966 48.4853 62.56C48.9506 62.211 50.6875 62.56 51.213 62.6643C51.2464 62.6718 51.2774 62.6875 51.3033 62.7099C51.3292 62.7323 51.3491 62.7607 51.3614 62.7926C51.3738 62.8251 51.3778 62.8601 51.3728 62.8945C51.3679 62.9289 51.3543 62.9615 51.3334 62.9892C51.3334 62.9892 49.7569 65.1553 49.6205 66.5994C49.4761 68.1358 48.8784 70.8275 48.8503 70.9398C48.8373 70.9961 48.8027 71.0451 48.754 71.0762C48.7222 71.0949 48.6865 71.1058 48.6497 71.1083ZM47.4022 70.306L48.4973 70.6389C48.6417 69.957 49.091 67.8309 49.2073 66.5714C49.3236 65.3118 50.3827 63.635 50.8119 62.9972C49.9053 62.8247 48.9265 62.7365 48.734 62.8809C48.5414 63.0253 47.5305 63.8877 47.2618 65.9015C47.1432 67.3689 47.1903 68.8451 47.4022 70.302V70.306Z" fill="#231F20"/>
<path d="M52.6891 64.373C52.5327 63.5306 51.4657 62.0905 49.7648 63.338C48.064 64.5856 48.6497 70.8995 48.6497 70.8995L49.7568 70.5706L49.9293 67.4898C49.9293 67.4898 53.2708 67.53 52.6891 64.373Z" fill="white"/>
<path d="M48.6495 71.108C48.608 71.1078 48.5675 71.0953 48.5332 71.0719C48.5079 71.0549 48.4867 71.0323 48.4714 71.0059C48.4562 70.9795 48.4471 70.9499 48.445 70.9195C48.4209 70.6547 47.8713 64.4731 49.6484 63.1694C50.5269 62.5236 51.2168 62.5878 51.6541 62.7683C51.9729 62.9133 52.2525 63.1324 52.4695 63.4073C52.6865 63.6822 52.8346 64.005 52.9016 64.3488C53.0077 64.7489 53.021 65.168 52.9403 65.574C52.8597 65.98 52.6873 66.3623 52.4363 66.6914C51.7423 67.5138 50.5991 67.6702 50.1378 67.7023L49.9773 70.5946C49.9739 70.6371 49.958 70.6777 49.9316 70.7112C49.9052 70.7448 49.8695 70.7698 49.8289 70.7831L48.7217 71.112L48.6495 71.108ZM51.0363 63.0571C50.6219 63.0831 50.2261 63.2389 49.9051 63.5024C48.6495 64.425 48.7017 68.7413 48.8501 70.6307L49.5762 70.414L49.7366 67.4777C49.7397 67.4245 49.763 67.3745 49.8018 67.3379C49.8406 67.3014 49.8919 67.281 49.9452 67.2811C49.9452 67.2811 51.3853 67.2811 52.1234 66.4107C52.3346 66.127 52.4783 65.7989 52.5436 65.4513C52.6089 65.1038 52.5942 64.7459 52.5005 64.4049C52.444 64.1322 52.3252 63.8761 52.1533 63.6569C51.9814 63.4377 51.7611 63.2612 51.5097 63.1413C51.3588 63.0831 51.1981 63.0545 51.0363 63.0571Z" fill="#231F20"/>
<path d="M47.0609 65.8691L48.0798 65.9253L48.0156 67.0605L46.9727 67.0044L47.0609 65.8691Z" fill="#231F20"/>
<path d="M48.0154 67.2692L46.9765 67.209C46.9489 67.208 46.9218 67.2014 46.8968 67.1897C46.8718 67.1779 46.8495 67.1613 46.8311 67.1406C46.8128 67.12 46.7988 67.0959 46.79 67.0697C46.7812 67.0436 46.7778 67.0159 46.7799 66.9884L46.8682 65.8532C46.8691 65.8262 46.8756 65.7998 46.8872 65.7755C46.8988 65.7512 46.9153 65.7295 46.9356 65.7119C46.9559 65.6942 46.9796 65.6809 47.0053 65.6727C47.031 65.6646 47.058 65.6618 47.0848 65.6646L48.1037 65.7208C48.1306 65.7223 48.1569 65.7291 48.1811 65.7409C48.2054 65.7526 48.2271 65.769 48.2449 65.7891C48.2628 65.8092 48.2766 65.8327 48.2854 65.8581C48.2942 65.8836 48.2979 65.9105 48.2963 65.9374L48.2361 67.0726C48.2345 67.1 48.2276 67.1269 48.2157 67.1516C48.2038 67.1763 48.1871 67.1984 48.1666 67.2167C48.1461 67.235 48.1222 67.249 48.0962 67.258C48.0703 67.267 48.0429 67.2708 48.0154 67.2692ZM47.2132 66.8079L47.839 66.844L47.8791 66.1219L47.2693 66.0898L47.2132 66.8079Z" fill="#231F20"/>
<path d="M18.9733 34.3836C19.7756 36.9389 24.6776 49.1858 26.0776 52.8763C27.4775 56.5668 28.7331 61.9581 25.3956 65.0349C23.8994 66.4148 21.5166 66.8962 19.7556 65.8732C19.0001 65.3918 18.3549 64.7561 17.8622 64.0079C13.3774 57.7662 12.4949 36.1045 11.6646 32.5304C11.6646 32.5304 17.0278 28.0256 17.8782 27.9534C18.7287 27.8812 18.9733 34.3836 18.9733 34.3836Z" fill="white"/>
<path d="M21.8812 66.6233C21.1011 66.6309 20.3329 66.4316 19.6549 66.0456C18.8755 65.5487 18.2087 64.8942 17.6973 64.1242C14.3438 59.4388 12.992 46.2493 12.1817 38.3709C11.9009 35.6391 11.6802 33.485 11.4676 32.5784C11.4591 32.5419 11.461 32.5038 11.4731 32.4684C11.4851 32.4329 11.5069 32.4016 11.5358 32.3778C12.4384 31.6157 16.9913 27.8249 17.8578 27.7527C17.9127 27.7491 17.9677 27.7569 18.0195 27.7755C18.0712 27.7942 18.1186 27.8233 18.1587 27.861C18.9048 28.5229 19.1334 33.3165 19.1735 34.3474C19.7271 36.0964 22.1139 42.1777 24.0314 47.0676C24.9821 49.4985 25.8084 51.5965 26.2657 52.8039C28.4199 58.4761 28.1631 62.7563 25.5316 65.1832C24.5358 66.0997 23.2346 66.613 21.8812 66.6233ZM11.8848 32.6065C12.0974 33.5973 12.31 35.6993 12.5828 38.3308C13.3851 46.1691 14.7329 59.2904 18.0223 63.8915C18.5033 64.6135 19.1272 65.2292 19.8555 65.7006C21.46 66.6353 23.7345 66.2903 25.2589 64.8983C28.4199 61.9861 27.3488 56.7993 25.8887 52.9604C25.4314 51.757 24.609 49.655 23.6583 47.2241C21.7288 42.3061 19.326 36.1806 18.7844 34.4557C18.7808 34.4385 18.7808 34.4208 18.7844 34.4036C18.6761 31.5434 18.3031 28.3464 17.8899 28.1618C17.3283 28.1979 13.9507 30.8896 11.8848 32.6065Z" fill="#231F20"/>
<path d="M25.4356 27.6806C25.4356 27.6806 24.6333 29.6863 23.3858 30.0874C22.1382 30.4886 19.2941 29.225 18.9732 29.4135C18.6523 29.602 11.6083 35.4106 10.9504 35.6071C10.2925 35.8037 8.8444 34.0988 8.18652 32.0931C8.18652 32.0931 15.0701 26.9224 15.5114 26.3849C15.9526 25.8473 16.3618 22.7746 16.9996 21.6033L25.4356 27.6806Z" fill="white"/>
<path d="M10.83 35.7956C9.97159 35.7956 8.62776 34.0988 8.02204 32.1532C8.0103 32.1135 8.01093 32.0711 8.02382 32.0317C8.03672 31.9923 8.06127 31.9577 8.09425 31.9326C10.8541 29.8587 15.0741 26.6375 15.383 26.2564C15.5675 26.0358 15.7841 25.1453 15.9887 24.2868C16.1756 23.3319 16.4648 22.3999 16.8512 21.5069C16.8646 21.4816 16.8834 21.4594 16.9062 21.4421C16.9291 21.4248 16.9555 21.4127 16.9835 21.4066C17.0111 21.4007 17.0395 21.4004 17.0671 21.406C17.0947 21.4115 17.1209 21.4226 17.144 21.4387L25.568 27.504C25.603 27.5311 25.6285 27.5686 25.6407 27.6112C25.653 27.6537 25.6514 27.6991 25.6362 27.7407C25.6001 27.8289 24.7897 29.8346 23.458 30.2558C22.6196 30.5166 21.1955 30.1154 20.1566 29.8226C19.805 29.7027 19.4421 29.6194 19.0735 29.5739C19.0093 29.618 18.2712 30.2077 17.4248 30.8896C14.3159 33.3847 11.4839 35.6391 11.0065 35.7755C10.9491 35.7915 10.8896 35.7983 10.83 35.7956ZM8.42318 32.1853C9.08506 34.1389 10.3808 35.5469 10.8742 35.3944C11.3676 35.242 15.2586 32.1011 17.156 30.5807C18.2431 29.7063 18.7606 29.2851 18.8689 29.2249C19.0534 29.1126 19.4024 29.2008 20.2448 29.4415C21.2356 29.7183 22.5915 30.1034 23.3176 29.8747C24.2803 29.5739 24.9783 28.1899 25.1789 27.7407L17.0838 21.9041C16.7756 22.7096 16.5328 23.5386 16.3578 24.3831C16.081 25.5224 15.9005 26.2324 15.6718 26.5132C15.2506 27.0306 9.52632 31.3429 8.43121 32.1653L8.42318 32.1853Z" fill="#231F20"/>
<path d="M17.4565 23.4284C17.5397 23.9463 17.4656 24.4773 17.2439 24.9527C16.8789 25.6828 15.15 26.7218 15.15 26.7218L13.8062 24.3149L16.1408 22.4576L17.4565 23.4284Z" fill="#231F20"/>
<path d="M15.1499 26.9223H15.0977C15.0452 26.9056 15.0009 26.8698 14.9734 26.822L13.6296 24.4151C13.6071 24.3736 13.6001 24.3255 13.6096 24.2793C13.6191 24.2331 13.6447 24.1917 13.6817 24.1624L16.0164 22.3051C16.0517 22.2788 16.0946 22.2645 16.1387 22.2645C16.1828 22.2645 16.2257 22.2788 16.2611 22.3051L17.5768 23.2679C17.5968 23.2819 17.6139 23.2997 17.627 23.3204C17.6401 23.3411 17.6489 23.3641 17.653 23.3882C17.746 23.9496 17.6663 24.5259 17.4244 25.0409C17.0232 25.8191 15.3264 26.8501 15.2542 26.8942C15.2228 26.9133 15.1866 26.9231 15.1499 26.9223ZM14.0628 24.347L15.2221 26.4409C15.7757 26.0919 16.8267 25.3618 17.0674 24.8644C17.2575 24.4494 17.3283 23.9896 17.2719 23.5366L16.1447 22.6942L14.0628 24.347Z" fill="#231F20"/>
<path d="M10.0395 30.6971C10.0395 30.6971 9.29743 28.6914 10.4407 28.4948C10.4407 28.4948 10.5811 27.0347 11.9851 27.5802C11.9851 27.5802 12.2779 26.0479 13.4894 26.3006C14.7008 26.5533 15.7718 29.3653 15.6475 30.0914C15.5231 30.8175 14.5644 30.4283 14.067 29.7705C14.067 29.7705 14.7249 30.8696 14.3358 31.1825C13.7581 31.6438 13.1083 30.9017 12.5748 30.3802C12.5748 30.3802 13.377 31.6599 12.2899 31.8323C11.4475 31.9647 10.5851 30.296 10.5851 30.296L10.0395 30.6971Z" fill="white"/>
<path d="M12.1975 32.0249C11.4594 32.0249 10.7935 31.0341 10.5287 30.5808L10.1597 30.8576C10.1354 30.8775 10.1065 30.8909 10.0756 30.8965C10.0447 30.9021 10.0129 30.8998 9.98319 30.8897C9.95318 30.8815 9.92553 30.8664 9.90251 30.8454C9.8795 30.8245 9.86178 30.7984 9.85081 30.7693C9.80267 30.633 9.37345 29.4175 9.77058 28.7315C9.87922 28.5393 10.0571 28.3959 10.268 28.3304C10.333 27.9604 10.5404 27.6307 10.8456 27.4118C10.9965 27.3255 11.1643 27.273 11.3374 27.2578C11.5105 27.2425 11.6849 27.265 11.8485 27.3235C11.966 26.9071 12.2151 26.5398 12.5585 26.2766C12.6998 26.181 12.8597 26.1166 13.0278 26.0875C13.1958 26.0585 13.3681 26.0655 13.5333 26.1081C14.8611 26.3849 15.9883 29.3172 15.8479 30.1195C15.8374 30.2456 15.7876 30.3653 15.7056 30.4617C15.6236 30.5581 15.5134 30.6264 15.3906 30.657C15.1166 30.7022 14.8357 30.642 14.6043 30.4885C14.6613 30.6278 14.6779 30.7802 14.6524 30.9285C14.6269 31.0767 14.5602 31.2148 14.4599 31.3269C13.9826 31.708 13.4892 31.4633 13.0559 31.0983C13.0751 31.2537 13.053 31.4114 12.9917 31.5556C12.9292 31.6822 12.8343 31.79 12.7166 31.8682C12.599 31.9464 12.4628 31.9922 12.3218 32.0008L12.1975 32.0249ZM10.5929 30.0874H10.637C10.6658 30.0943 10.6928 30.1072 10.7162 30.1252C10.7397 30.1431 10.7592 30.1658 10.7734 30.1917C10.978 30.5928 11.7041 31.72 12.2657 31.6238C12.5585 31.5756 12.6147 31.4473 12.6347 31.4072C12.7591 31.1344 12.5104 30.6289 12.4101 30.4765C12.3851 30.4342 12.3758 30.3845 12.3839 30.3361C12.392 30.2877 12.4169 30.2436 12.4542 30.2118C12.4911 30.1785 12.539 30.1601 12.5886 30.1601C12.6382 30.1601 12.6861 30.1785 12.723 30.2118L12.8353 30.3241C13.4129 30.9137 13.8502 31.3069 14.2152 31.014C14.3596 30.8977 14.1711 30.308 13.9023 29.8587C13.8787 29.8147 13.8724 29.7634 13.8846 29.715C13.8968 29.6665 13.9266 29.6244 13.9683 29.5967C14.01 29.5691 14.0604 29.5581 14.1098 29.5657C14.1592 29.5734 14.2039 29.5992 14.2353 29.6381C14.3511 29.8184 14.5076 29.9689 14.6923 30.0776C14.8769 30.1863 15.0845 30.2501 15.2983 30.2639C15.3585 30.2639 15.4307 30.2118 15.4588 30.0473C15.5671 29.4175 14.5361 26.7138 13.4531 26.4851C13.3403 26.4567 13.2229 26.452 13.1083 26.4713C12.9937 26.4906 12.8843 26.5336 12.7872 26.5975C12.48 26.8615 12.272 27.2223 12.1975 27.6204C12.1915 27.649 12.1794 27.6759 12.1621 27.6994C12.1448 27.723 12.1227 27.7425 12.0972 27.7568C12.0707 27.7685 12.042 27.7745 12.013 27.7745C11.984 27.7745 11.9553 27.7685 11.9287 27.7568C11.7955 27.6901 11.6485 27.6553 11.4995 27.6553C11.3505 27.6553 11.2035 27.6901 11.0703 27.7568C10.8419 27.9468 10.6977 28.2192 10.6691 28.5149C10.6654 28.5589 10.6473 28.6005 10.6175 28.6331C10.5878 28.6657 10.5481 28.6876 10.5047 28.6954C10.4291 28.7036 10.3565 28.7297 10.293 28.7715C10.2295 28.8134 10.1769 28.8698 10.1396 28.9361C9.93505 29.2891 10.0514 29.955 10.1677 30.3722L10.4926 30.1235C10.5225 30.1033 10.557 30.0909 10.5929 30.0874Z" fill="#231F20"/>
<path d="M15.0337 24.3429C15.0337 24.3429 15.6555 23.1395 16.4137 24.1343C17.1718 25.1292 18.1145 27.0306 16.9392 27.2873C15.7638 27.544 14.773 25.3779 15.0337 24.3429Z" fill="white"/>
<path d="M16.7426 27.508C16.5469 27.4988 16.3551 27.4496 16.1792 27.3634C16.0032 27.2771 15.8468 27.1557 15.7197 27.0065C15.0578 26.3246 14.6487 25.057 14.8412 24.2948C14.8396 24.2802 14.8396 24.2654 14.8412 24.2507C14.8733 24.1825 15.1942 23.5888 15.7157 23.5447C15.8847 23.5436 16.0511 23.5862 16.1987 23.6684C16.3463 23.7507 16.4701 23.8697 16.5581 24.014C17.0555 24.6679 17.918 26.124 17.6131 26.9504C17.5613 27.0887 17.474 27.2108 17.3599 27.3045C17.2458 27.3982 17.1089 27.4601 16.9632 27.4839C16.8906 27.499 16.8168 27.5071 16.7426 27.508ZM15.2223 24.4152C15.1868 24.835 15.2398 25.2576 15.378 25.6557C15.5162 26.0537 15.7365 26.4183 16.0246 26.7258C16.1289 26.8572 16.2651 26.9598 16.4203 27.0237C16.5755 27.0876 16.7445 27.1107 16.9111 27.0908C16.9908 27.0816 17.0663 27.0505 17.1294 27.0009C17.1924 26.9513 17.2404 26.8853 17.2681 26.81C17.4687 26.2684 16.9031 25.0891 16.2693 24.2587C16.2197 24.1709 16.1497 24.0963 16.0652 24.0411C15.9807 23.986 15.8843 23.9519 15.7839 23.9418C15.5232 23.9659 15.2985 24.2788 15.2223 24.4152Z" fill="#231F20"/>
<path d="M19.017 35.0294C19.017 35.0294 19.6267 31.2667 19.6709 30.6169C19.7431 29.4817 19.3981 27.7287 18.3912 27.5C17.3844 27.2714 15.1099 27.0989 15.5271 28.0857C15.9282 28.9802 17.9018 29.0605 17.9018 29.0605C17.9018 29.0605 16.5941 30.5046 16.8669 31.8685" fill="white"/>
<path d="M19.0172 35.2301H18.9851C18.9331 35.2212 18.8867 35.1922 18.856 35.1495C18.8252 35.1067 18.8125 35.0535 18.8206 35.0014C18.8206 34.9653 19.4303 31.2387 19.4705 30.5889C19.5386 29.4897 19.1897 27.8691 18.3473 27.6766C17.3484 27.4479 15.9805 27.4319 15.7118 27.7488C15.7118 27.7769 15.6436 27.833 15.7118 27.9935C15.9805 28.6273 17.3925 28.8238 17.91 28.8439C17.9487 28.8458 17.986 28.8585 18.0179 28.8804C18.0498 28.9024 18.0749 28.9328 18.0905 28.9682C18.1046 29.0029 18.1086 29.0408 18.1022 29.0777C18.0959 29.1146 18.0793 29.1489 18.0544 29.1768C18.0544 29.1768 16.8149 30.5648 17.0636 31.8163C17.0689 31.8422 17.069 31.8688 17.064 31.8946C17.059 31.9205 17.0489 31.9451 17.0344 31.9671C17.0199 31.9891 17.0012 32.008 16.9793 32.0227C16.9575 32.0375 16.933 32.0478 16.9072 32.053C16.8551 32.0626 16.8014 32.0517 16.7573 32.0225C16.7132 31.9933 16.6821 31.9482 16.6705 31.8966C16.4579 30.8175 17.1278 29.7304 17.5089 29.2129C16.8711 29.1407 15.6636 28.9041 15.3427 28.1499C15.287 28.0462 15.2634 27.9284 15.2748 27.8112C15.2862 27.6941 15.3322 27.583 15.4069 27.492C15.9284 26.8663 17.9301 27.1711 18.4395 27.2875C19.6189 27.5562 19.9438 29.4697 19.8716 30.6129C19.8275 31.2868 19.2418 34.9132 19.2177 35.0656C19.2092 35.1123 19.1843 35.1545 19.1476 35.1846C19.1109 35.2147 19.0647 35.2308 19.0172 35.2301Z" fill="#231F20"/>
<path d="M3.79395 21.5672C3.79395 21.5672 11.9772 20.3638 15.427 22.1769C16.2933 22.6427 17.1269 23.1667 17.9221 23.7454C19.8075 25.0892 21.5926 26.6256 22.9685 27.4559C25.6922 29.1006 28.2676 29.3614 29.8762 26.4611C31.2561 23.978 30.3335 22.8709 28.2315 20.817C27.1925 19.8022 25.0223 18.1495 23.133 16.2882C22.02 15.2591 21.0657 14.0708 20.3009 12.7621C18.6161 9.62921 18.8327 4.69116 18.8327 4.69116L3.79395 21.5672Z" fill="white"/>
<path d="M26.5386 28.8839C25.4635 28.8839 24.228 28.4828 22.8561 27.6404C21.8852 27.0135 20.9479 26.3359 20.0481 25.6106C19.318 25.053 18.5679 24.4714 17.7977 23.9218C17.0109 23.3467 16.1852 22.8266 15.3267 22.3654C11.9812 20.6164 3.90218 21.7677 3.82195 21.7797C3.78127 21.7854 3.73984 21.7784 3.70326 21.7597C3.66667 21.7411 3.63669 21.7117 3.61737 21.6754C3.59745 21.6394 3.58908 21.5982 3.59339 21.5573C3.59769 21.5164 3.61446 21.4778 3.64143 21.4468L18.6842 4.57076C18.7118 4.54042 18.7479 4.51925 18.7879 4.51009C18.8278 4.50092 18.8696 4.50421 18.9076 4.5195C18.9456 4.53479 18.978 4.56135 19.0005 4.59562C19.0229 4.62988 19.0344 4.6702 19.0332 4.71116C19.0332 4.75929 18.8527 9.62915 20.4693 12.6778C21.2249 13.973 22.1716 15.1468 23.2773 16.1597C24.3644 17.2268 25.5277 18.2136 26.5546 19.084C27.2927 19.7098 27.9346 20.2514 28.3758 20.6886C30.4818 22.7505 31.5127 23.9459 30.0566 26.5734C29.3987 27.7768 28.5443 28.4948 27.5133 28.7676C27.1949 28.8487 26.8672 28.8878 26.5386 28.8839ZM9.3577 20.9774C11.5921 20.9774 13.9869 21.2021 15.5112 22.0003C16.3878 22.4749 17.2297 23.0111 18.0304 23.6049C18.8086 24.1585 19.5627 24.7401 20.2928 25.3017C21.181 26.0166 22.1048 26.686 23.0607 27.3074C24.7655 28.3384 26.2257 28.7034 27.401 28.3865C28.3196 28.1418 29.0938 27.4679 29.6915 26.3808C31.0153 24.002 30.1569 23.0072 28.087 20.9814C27.6538 20.5562 27.0199 20.0187 26.2859 19.3769C25.2549 18.5024 24.0876 17.5116 22.9885 16.4325C21.8533 15.3869 20.8835 14.175 20.1123 12.8383C18.7564 10.291 18.616 6.60855 18.616 5.21659L4.29931 21.2983C5.97787 21.0943 7.6668 20.9872 9.3577 20.9774Z" fill="#231F20"/>
<path d="M17.4565 23.4285C19.3419 24.7683 21.6324 26.5574 22.9602 27.4399C25.9888 29.4977 27.8541 29.6421 29.6432 26.8462C31.4845 23.974 30.3252 22.8548 28.2232 20.801C27.1842 19.7861 25.014 18.1334 23.1247 16.2721C23.1247 16.2721 23.1006 18.2979 21.2072 20.8491C20.2788 22.1023 18.9589 23.01 17.4565 23.4285Z" fill="#231F20"/>
<path d="M26.6389 29.1848C25.624 29.1848 24.4286 28.6834 22.8602 27.6204C22.1421 27.135 21.1473 26.3889 20.0883 25.6146C19.1737 24.9327 18.227 24.2267 17.3565 23.6089C17.325 23.586 17.3008 23.5546 17.2866 23.5183C17.2724 23.4821 17.2688 23.4426 17.2763 23.4044C17.2836 23.3656 17.3025 23.3299 17.3304 23.302C17.3583 23.2741 17.3939 23.2553 17.4327 23.2479C18.8759 22.8364 20.1442 21.9627 21.043 20.7608C22.8682 18.3018 22.9203 16.3242 22.9203 16.3042C22.9205 16.2646 22.9324 16.2259 22.9546 16.1931C22.9767 16.1602 23.008 16.1347 23.0447 16.1196C23.0813 16.106 23.121 16.1028 23.1593 16.1106C23.1976 16.1184 23.233 16.1368 23.2613 16.1638C24.3484 17.2308 25.5117 18.2176 26.5386 19.0881C27.2767 19.7139 27.9185 20.2554 28.3598 20.6926C30.4698 22.7585 31.7334 23.99 29.8119 26.9906C29.0097 28.2622 28.1673 28.9481 27.2045 29.1447C27.0178 29.1769 26.8283 29.1903 26.6389 29.1848ZM17.9101 23.5046C18.6883 24.0662 19.5146 24.68 20.3169 25.2777C21.3679 26.08 22.3627 26.8101 23.0768 27.2834C24.8538 28.4868 26.1054 28.9361 27.1283 28.7235C27.9827 28.551 28.7329 27.9212 29.479 26.7459C31.228 24.0221 30.185 23.0032 28.1111 20.9775C27.6538 20.5282 27.02 19.9906 26.2859 19.3729C25.3472 18.5706 24.2802 17.6881 23.2854 16.7213C23.0075 18.2759 22.3502 19.7378 21.3719 20.9775C20.4972 22.1476 19.2911 23.028 17.9101 23.5046Z" fill="#231F20"/>
<path d="M1.47885 20.9734C3.39631 22.5459 7.39167 20.9734 11.2306 17.4433C13.1709 15.6377 14.8589 13.5787 16.2489 11.3219C18.9847 6.82112 19.7388 2.58106 17.8133 1.00457C15.4065 -0.948986 9.83061 1.93923 5.31777 7.45091C0.804932 12.9626 -0.911953 19.0198 1.47885 20.9734Z" fill="#68E1FD"/>
<path d="M15.9003 0.402907C16.589 0.372661 17.2663 0.585667 17.8137 1.00462C19.7432 2.5811 18.9891 6.83721 16.2533 11.322C14.8633 13.5787 13.1753 15.6378 11.235 17.4434C8.40297 20.0588 5.49069 21.5872 3.37266 21.5872C2.68364 21.6148 2.00713 21.3973 1.46323 20.9734C-0.94362 19.0199 0.793321 12.9506 5.30215 7.45096C8.87231 3.1066 13.1003 0.402907 15.9003 0.402907ZM15.9003 0.00176577C12.9118 0.00176577 8.53535 2.89399 5.00932 7.22231C2.79502 9.90594 1.16638 12.8383 0.424273 15.4377C-0.345918 18.1574 -0.0611081 20.2514 1.22656 21.2863C1.83832 21.7632 2.59736 22.0114 3.37266 21.9883C5.60301 21.9883 8.55942 20.4359 11.4878 17.7362C12.4804 16.8162 13.4079 15.8284 14.2636 14.7798C15.1075 13.751 15.8795 12.6654 16.5742 11.5306C19.5066 6.71687 20.1003 2.37251 18.0464 0.699752C17.4346 0.22344 16.6753 -0.0235206 15.9003 0.00176577Z" fill="#231F20"/>
<path d="M7.76123 13.4841L11.2311 17.4434C13.1714 15.6378 14.8594 13.5788 16.2494 11.322L11.3675 8.62231L7.76123 13.4841Z" fill="white"/>
<path d="M10.7042 11.9066C11.7046 10.5688 12.0108 9.10684 11.3881 8.64114C10.7653 8.17544 9.44948 8.88237 8.44908 10.2201C7.44868 11.5579 7.14253 13.0199 7.76528 13.4856C8.38802 13.9513 9.70385 13.2443 10.7042 11.9066Z" fill="#231F20"/>
<path d="M8.22628 13.8251C8.01716 13.8307 7.81226 13.7657 7.64462 13.6406C7.27557 13.3678 7.15523 12.8383 7.29964 12.1323C7.48211 11.3914 7.81832 10.6971 8.28645 10.0945C9.36953 8.6464 10.7815 7.93638 11.4956 8.48995C11.8646 8.76273 11.985 9.29223 11.8406 9.99423C11.6615 10.7361 11.328 11.4318 10.8618 12.036C10.0234 13.1472 8.98844 13.8251 8.22628 13.8251ZM8.62742 10.3392C8.19459 10.8956 7.88304 11.5365 7.71282 12.2206C7.6005 12.7501 7.6727 13.1512 7.90537 13.3237C8.35865 13.6647 9.56609 13.1191 10.5609 11.7873C10.9937 11.2309 11.3053 10.5901 11.4755 9.90598C11.5878 9.37647 11.5156 8.97533 11.283 8.80284C10.8297 8.45786 9.62225 9.00742 8.62742 10.3392Z" fill="#231F20"/>
<path d="M12.5992 30.5648C12.5655 30.5655 12.5322 30.5574 12.5027 30.5412C12.4731 30.525 12.4483 30.5013 12.4308 30.4725C12.1326 30.031 11.7749 29.6327 11.3677 29.2892C11.3258 29.2567 11.2984 29.2089 11.2917 29.1562C11.2849 29.1036 11.2993 29.0504 11.3316 29.0084C11.3642 28.9667 11.4116 28.9392 11.4639 28.9317C11.5163 28.9243 11.5695 28.9374 11.6124 28.9683C12.058 29.3379 12.446 29.7719 12.7637 30.2559C12.7786 30.2776 12.789 30.3021 12.7942 30.328C12.7995 30.3538 12.7995 30.3804 12.7943 30.4062C12.789 30.432 12.7786 30.4565 12.7637 30.4783C12.7488 30.5 12.7297 30.5185 12.7075 30.5327C12.675 30.553 12.6376 30.5641 12.5992 30.5648Z" fill="#231F20"/>
<path d="M14.0714 29.9711C14.0268 29.9713 13.9834 29.9563 13.9484 29.9286C13.9134 29.9009 13.8889 29.8621 13.8789 29.8186C13.6872 29.2353 13.3096 28.7308 12.8038 28.3826C12.782 28.3678 12.7632 28.3489 12.7487 28.3269C12.7341 28.3049 12.724 28.2803 12.719 28.2544C12.714 28.2285 12.7141 28.2019 12.7194 28.176C12.7246 28.1502 12.7349 28.1256 12.7497 28.1038C12.7644 28.0819 12.7833 28.0632 12.8053 28.0486C12.8273 28.0341 12.852 28.024 12.8779 28.0189C12.9037 28.0139 12.9304 28.014 12.9562 28.0193C12.9821 28.0246 13.0066 28.0349 13.0285 28.0496C13.6191 28.4508 14.0561 29.0405 14.268 29.7224C14.279 29.7739 14.2697 29.8276 14.2421 29.8725C14.2144 29.9173 14.1705 29.9498 14.1196 29.9631L14.0714 29.9711Z" fill="#231F20"/>
<path d="M10.5932 30.4886C10.563 30.4891 10.5331 30.4825 10.5059 30.4692C10.4787 30.456 10.4551 30.4365 10.4368 30.4124L10.0758 29.9511C10.0434 29.909 10.0291 29.8559 10.0358 29.8033C10.0426 29.7506 10.0699 29.7028 10.1119 29.6703C10.1534 29.6375 10.2063 29.6225 10.2589 29.6285C10.3115 29.6345 10.3596 29.6611 10.3927 29.7024L10.7537 30.1637C10.7863 30.2064 10.8007 30.2602 10.794 30.3135C10.7872 30.3668 10.7598 30.4153 10.7176 30.4485C10.6818 30.4754 10.638 30.4895 10.5932 30.4886Z" fill="#231F20"/>
<path d="M26.9718 20.7769C26.9246 20.7767 26.879 20.7596 26.8434 20.7287L24.0796 18.4061C24.0386 18.3715 24.013 18.3221 24.0085 18.2687C24.004 18.2153 24.0209 18.1623 24.0555 18.1213C24.0901 18.0803 24.1395 18.0548 24.1929 18.0503C24.2463 18.0458 24.2993 18.0627 24.3403 18.0972L27.1001 20.4239C27.121 20.4402 27.1382 20.4606 27.1508 20.4838C27.1634 20.5071 27.171 20.5327 27.1733 20.559C27.1755 20.5854 27.1724 20.6119 27.1639 20.6369C27.1555 20.662 27.142 20.685 27.1242 20.7047C27.106 20.7275 27.0827 20.7458 27.0563 20.7583C27.0299 20.7708 27.001 20.7772 26.9718 20.7769Z" fill="white"/>
<path d="M26.6388 21.3866C26.5916 21.3865 26.546 21.3694 26.5104 21.3385L23.7465 19.0159C23.7263 18.9987 23.7095 18.9778 23.6974 18.9542C23.6852 18.9306 23.6778 18.9049 23.6755 18.8784C23.6733 18.852 23.6763 18.8254 23.6843 18.8001C23.6924 18.7748 23.7053 18.7513 23.7225 18.731C23.7396 18.7108 23.7605 18.694 23.7841 18.6819C23.8077 18.6697 23.8334 18.6623 23.8599 18.66C23.8863 18.6578 23.913 18.6608 23.9383 18.6688C23.9635 18.6769 23.987 18.6898 24.0073 18.707L26.7671 21.0336C26.7982 21.0601 26.8204 21.0955 26.8308 21.135C26.8411 21.1745 26.8392 21.2162 26.8253 21.2546C26.8113 21.293 26.786 21.3262 26.7527 21.3497C26.7193 21.3733 26.6796 21.3862 26.6388 21.3866Z" fill="white"/>
<path d="M26.2379 22.0885C26.1907 22.0884 26.1451 22.0713 26.1095 22.0404L23.3457 19.7178C23.3047 19.6832 23.2792 19.6337 23.2746 19.5803C23.2701 19.5269 23.287 19.4739 23.3216 19.4329C23.3562 19.392 23.4056 19.3664 23.459 19.3619C23.5124 19.3574 23.5654 19.3743 23.6064 19.4089L26.3663 21.7355C26.3973 21.762 26.4195 21.7974 26.4299 21.8369C26.4403 21.8764 26.4384 21.9181 26.4244 21.9565C26.4105 21.9949 26.3851 22.0281 26.3518 22.0517C26.3185 22.0752 26.2787 22.0881 26.2379 22.0885Z" fill="white"/>
<path d="M34.2607 81.951C34.2345 81.949 34.2089 81.9417 34.1856 81.9297C34.1622 81.9176 34.1415 81.901 34.1247 81.8808C34.1078 81.8606 34.0952 81.8372 34.0876 81.8121C34.0799 81.7869 34.0774 81.7605 34.0802 81.7344L37.4097 45.7319C37.4123 45.7056 37.4201 45.68 37.4326 45.6567C37.4451 45.6334 37.4621 45.6127 37.4826 45.596C37.5031 45.5792 37.5267 45.5667 37.552 45.559C37.5773 45.5514 37.6039 45.5488 37.6303 45.5514C37.6566 45.554 37.6822 45.5618 37.7055 45.5744C37.7288 45.5869 37.7495 45.6039 37.7662 45.6243C37.783 45.6448 37.7956 45.6684 37.8032 45.6938C37.8109 45.7191 37.8134 45.7457 37.8108 45.772L34.4573 81.7624C34.4552 81.8132 34.4336 81.8611 34.3969 81.8963C34.3603 81.9314 34.3115 81.951 34.2607 81.951Z" fill="#231F20"/>
<path d="M86.7137 95.349L97.003 72.5081L65.5294 58.6927L55.2441 81.5337L86.7137 95.349Z" fill="white"/>
<path d="M86.7134 95.5537C86.6856 95.5594 86.657 95.5594 86.6292 95.5537L55.1596 81.7223C55.1344 81.712 55.1114 81.6968 55.0921 81.6775C55.0729 81.6582 55.0576 81.6353 55.0473 81.61C55.0272 81.5584 55.0272 81.5011 55.0473 81.4496L65.3366 58.6086C65.3602 58.5596 65.4015 58.5216 65.4523 58.5022C65.503 58.4828 65.5592 58.4835 65.6094 58.5043L97.0789 72.3196C97.1042 72.3301 97.1271 72.3455 97.1463 72.365C97.1655 72.3845 97.1806 72.4076 97.1907 72.4331C97.2008 72.4585 97.2057 72.4857 97.2051 72.5131C97.2045 72.5404 97.1984 72.5674 97.1872 72.5924L86.902 95.4333C86.886 95.4699 86.8596 95.5008 86.826 95.5222C86.7924 95.5437 86.7533 95.5546 86.7134 95.5537ZM55.5207 81.4335L86.6131 95.0723L96.7299 72.6084L65.6375 58.9696L55.5207 81.4335Z" fill="#231F20"/>
<path d="M61.7584 74.4215L64.5423 68.2359C64.6843 67.889 64.756 67.5174 64.7532 67.1426C64.7505 66.7678 64.6734 66.3973 64.5264 66.0525C64.3793 65.7077 64.1654 65.3955 63.8968 65.1341C63.6282 64.8726 63.3104 64.6671 62.9618 64.5294L62.2037 64.1964L57.1533 75.4163L57.9115 75.7493C58.5986 76.0772 59.3872 76.1218 60.1069 75.8734C60.8267 75.625 61.4198 75.1035 61.7584 74.4215Z" fill="white"/>
<path d="M59.1798 76.2186C58.7144 76.2177 58.2542 76.1207 57.828 75.9338L57.0698 75.6008C57.0185 75.5783 56.9781 75.5365 56.9575 75.4845C56.9373 75.4329 56.9373 75.3756 56.9575 75.324L62.0038 64.0921C62.0266 64.0424 62.0679 64.0037 62.1189 63.9842C62.1699 63.9647 62.2265 63.966 62.2766 63.9878L63.0388 64.3207C63.8314 64.6642 64.4558 65.3074 64.7757 66.1098C64.9143 66.4597 64.981 66.834 64.9721 67.2102C64.9631 67.5865 64.8786 67.9571 64.7236 68.3L61.9397 74.5057C61.6934 75.0266 61.3019 75.4653 60.8124 75.7692C60.3228 76.073 59.7559 76.2291 59.1798 76.2186ZM57.4268 75.304L57.9964 75.5527C58.6312 75.8593 59.3609 75.905 60.029 75.68C60.6971 75.4551 61.2505 74.9774 61.5706 74.3492L64.3465 68.1516C64.4781 67.8579 64.5495 67.5408 64.5564 67.219C64.5632 66.8972 64.5055 66.5774 64.3866 66.2783C64.25 65.9311 64.0455 65.6147 63.7851 65.3474C63.5248 65.0802 63.2138 64.8675 62.8703 64.7219L62.3007 64.4691L57.4268 75.304Z" fill="#231F20"/>
<path d="M85.1453 92.0999C85.1189 92.1059 85.0915 92.1059 85.0651 92.0999L61.3616 81.8026C61.337 81.792 61.3147 81.7766 61.2961 81.7574C61.2775 81.7381 61.263 81.7152 61.2533 81.6902C61.2333 81.6414 61.2333 81.5866 61.2533 81.5378L69.4166 63.4223C69.4392 63.3746 69.4794 63.3376 69.5288 63.3189C69.5781 63.3002 69.6328 63.3013 69.6813 63.322L92.9475 73.6474C92.9713 73.6578 92.9928 73.6728 93.0107 73.6916C93.0287 73.7104 93.0427 73.7326 93.052 73.7568C93.0614 73.7811 93.0658 73.8069 93.0651 73.8329C93.0643 73.8588 93.0585 73.8844 93.0478 73.9081L85.3178 91.9956C85.2954 92.0446 85.2553 92.0833 85.2055 92.1039L85.1453 92.0999ZM61.7106 81.5017L85.041 91.6345L92.6146 73.9161L69.7094 63.7552L61.7106 81.5017Z" fill="#D1D3D4"/>
<path d="M64.4946 83.1302C64.468 83.134 64.441 83.134 64.4144 83.1302C64.366 83.1083 64.3281 83.0684 64.3087 83.019C64.2892 82.9696 64.2897 82.9145 64.3101 82.8655L72.2366 64.6737C72.2472 64.6495 72.2624 64.6276 72.2814 64.6092C72.3004 64.5909 72.3228 64.5764 72.3474 64.5667C72.372 64.5571 72.3983 64.5523 72.4247 64.5528C72.4511 64.5532 72.4772 64.5589 72.5014 64.5694C72.5256 64.58 72.5475 64.5952 72.5659 64.6142C72.5843 64.6332 72.5987 64.6556 72.6084 64.6802C72.6181 64.7048 72.6228 64.731 72.6224 64.7575C72.6219 64.7839 72.6162 64.8099 72.6057 64.8342L64.6791 83.0259C64.6612 83.0588 64.6344 83.086 64.6018 83.1044C64.5692 83.1229 64.532 83.1318 64.4946 83.1302Z" fill="#D1D3D4"/>
<path d="M86.6735 88.6781C86.6456 88.6775 86.6182 88.6707 86.5933 88.658L62.9621 78.2283C62.9131 78.2065 62.8749 78.1662 62.8557 78.1161C62.8365 78.0661 62.838 78.0105 62.8598 77.9616C62.8816 77.9126 62.9219 77.8744 62.972 77.8552C63.022 77.836 63.0776 77.8375 63.1265 77.8593L86.7538 88.289C86.8021 88.3109 86.84 88.3508 86.8595 88.4002C86.8789 88.4496 86.8784 88.5047 86.8581 88.5537C86.843 88.5903 86.8175 88.6217 86.7846 88.6438C86.7518 88.666 86.7131 88.6779 86.6735 88.6781Z" fill="#D1D3D4"/>
<path d="M84.3149 78.8903C83.1114 83.022 80.0387 91.109 78.5224 91.7549C77.0061 92.4007 72.0399 90.4632 70.9769 89.5646C69.9139 88.6661 75.1287 85.0077 75.1287 85.0077C75.1287 85.0077 72.6738 85.0077 72.2566 83.7441C71.8394 82.4805 76.7092 82.292 76.7092 82.292C77.3912 81.8908 77.1906 77.9035 77.2307 77.2336C77.4473 73.8439 77.6038 70.4503 77.7522 67.0566C77.9247 63.1455 78.025 59.0338 78.723 55.1748C79.1241 52.8763 79.9264 50.4494 81.8198 49.0855C82.3313 48.6951 82.9407 48.4535 83.5808 48.3875C85.7349 48.2351 87.6764 50.1405 88.4827 51.9617C89.265 53.7227 89.3733 55.7003 89.3452 57.6258C89.2168 65.2675 86.3647 71.7299 84.3149 78.8903Z" fill="white"/>
<path d="M77.708 92.0838C75.598 92.0838 71.7751 90.5033 70.8485 89.717C70.7748 89.6561 70.7167 89.5784 70.679 89.4905C70.6414 89.4026 70.6252 89.307 70.6318 89.2116C70.684 88.1205 73.4037 86.0025 74.551 85.1721C73.7487 85.0919 72.3928 84.8031 72.0679 83.8042C72.0336 83.7077 72.0233 83.6043 72.038 83.503C72.0527 83.4016 72.0919 83.3054 72.1522 83.2226C72.786 82.316 76.0312 82.1234 76.6369 82.0954C77.0381 81.6942 77.0381 78.9424 77.0381 78.0157C77.0381 77.6387 77.0381 77.3659 77.0381 77.2135C77.2547 73.8278 77.4071 70.4663 77.5595 67.0405L77.6197 65.6646C77.7641 62.1667 77.9166 58.5484 78.5343 55.1306C78.8833 53.1931 79.5973 50.4373 81.7114 48.9129C82.2502 48.4978 82.8954 48.2433 83.5726 48.1789C85.7869 48.0304 87.8087 49.9198 88.6752 51.8694C89.4975 53.7266 89.5817 55.8206 89.5537 57.6217C89.4614 63.3901 87.8488 68.3964 86.1399 73.6955C85.5904 75.3963 85.0248 77.1573 84.5153 78.9344C83.5406 82.332 80.3555 91.1892 78.6105 91.9314C78.3227 92.0412 78.0159 92.093 77.708 92.0838ZM75.1286 84.8071C75.1709 84.8071 75.2121 84.8203 75.2465 84.8447C75.281 84.8691 75.3071 84.9036 75.3212 84.9435C75.3337 84.9848 75.3331 85.029 75.3194 85.0699C75.3058 85.1109 75.2798 85.1466 75.245 85.1721C73.6404 86.2953 71.0731 88.3812 71.033 89.2317C71.029 89.2648 71.0336 89.2984 71.0462 89.3293C71.0589 89.3601 71.0792 89.3873 71.1052 89.4082C72.2163 90.3508 77.0661 92.156 78.4461 91.5703C79.7618 91.0087 82.7944 83.4552 84.1182 78.8341C84.6317 77.049 85.2013 75.284 85.7508 73.5831C87.4477 68.3121 89.0563 63.334 89.1445 57.6217C89.1686 55.8647 89.0924 53.8269 88.3021 52.0418C87.5119 50.2568 85.6145 48.4316 83.5927 48.588C82.9904 48.6484 82.4175 48.8778 81.94 49.2499C79.9343 50.686 79.2604 53.3375 78.9194 55.2109C78.3057 58.6005 78.1572 62.2068 78.0128 65.6887L77.9527 67.0646C77.8002 70.4943 77.6478 73.8559 77.4312 77.2456V78.0117C77.4312 80.5911 77.3509 82.1475 76.8134 82.4644C76.7855 82.4814 76.7538 82.4911 76.7212 82.4925C75.3011 82.5527 72.8943 82.8615 72.4851 83.4512C72.4607 83.4834 72.4449 83.5213 72.4393 83.5614C72.4337 83.6014 72.4384 83.6422 72.453 83.6799C72.818 84.795 75.0765 84.8071 75.1326 84.8071H75.1286Z" fill="#231F20"/>
<path d="M59.8691 35.7034C75.5538 39.8632 84.6597 46.5342 86.9221 48.941L77.6638 60.8469L63.5436 54.4527L59.8691 35.7034Z" fill="#68E1FD"/>
<path d="M77.6643 61.0314C77.6365 61.0369 77.6079 61.0369 77.58 61.0314L65.9831 55.291C65.9582 55.2827 65.9354 55.2691 65.9162 55.2512C65.897 55.2333 65.8818 55.2116 65.8717 55.1873C65.8616 55.1631 65.8567 55.1371 65.8575 55.1108C65.8583 55.0846 65.8646 55.0588 65.8761 55.0353C65.8876 55.0117 65.904 54.9908 65.9242 54.9741C65.9444 54.9573 65.9679 54.9451 65.9933 54.9382C66.0186 54.9313 66.0451 54.9298 66.071 54.9339C66.0969 54.9381 66.1216 54.9477 66.1435 54.9621L77.7445 60.7024C77.7878 60.724 77.821 60.7618 77.8367 60.8075C77.8525 60.8533 77.8496 60.9034 77.8287 60.9471C77.8109 60.9741 77.7864 60.996 77.7575 61.0108C77.7287 61.0255 77.6966 61.0326 77.6643 61.0314Z" fill="#231F20"/>
</svg>
