<svg width="98" height="96" viewBox="0 0 98 96" fill="none" xmlns="http://www.w3.org/2000/svg">
<path d="M69.7334 94.0677L68.2853 77.2559L36.9081 81.6885L34.6416 94.0677H69.7334Z" fill="#231F20"/>
<path d="M69.7294 94.2684H34.6617C34.632 94.268 34.6027 94.2613 34.5758 94.2489C34.5488 94.2364 34.5248 94.2185 34.5052 94.1962C34.4867 94.1735 34.4735 94.147 34.4665 94.1185C34.4596 94.0901 34.4591 94.0604 34.4651 94.0317L36.7315 81.6525C36.7393 81.6111 36.7596 81.5731 36.7898 81.5436C36.8199 81.5142 36.8584 81.4948 36.9 81.488L68.2773 77.0755C68.3314 77.0684 68.3861 77.0828 68.4297 77.1156C68.451 77.1326 68.4684 77.1539 68.4809 77.1781C68.4933 77.2023 68.5005 77.2288 68.5019 77.256L69.9501 94.0678C69.9526 94.0955 69.9493 94.1234 69.9403 94.1496C69.9313 94.1759 69.9169 94.2 69.8979 94.2203C69.8751 94.2403 69.8482 94.255 69.8191 94.2633C69.7899 94.2716 69.7593 94.2734 69.7294 94.2684ZM34.8783 93.8673H69.5128L68.1048 77.4847L37.0685 81.8651L34.8783 93.8673Z" fill="#231F20"/>
<path d="M71.4904 54.4511L70.0904 89.6713C70.0904 89.6713 44.6179 88.0667 33.3218 87.108L36.0174 60.2315L25.3952 65.306L17.5649 50.7847C17.5649 50.7847 40.2334 31.4898 60.2945 35.9826" fill="#68E1FD"/>
<path d="M59.5605 15.4042C57.6671 13.6111 55.513 13.1858 53.0901 12.5962C52.1474 12.3595 51.4334 11.8179 50.4305 11.7217C49.4277 11.6254 48.2082 11.6414 47.3738 12.2391C46.3077 13.0821 45.4257 14.1347 44.7824 15.3319C44.152 16.5805 43.6829 17.9042 43.3865 19.2712L42.5842 22.2677C42.3222 23.191 42.1133 24.1285 41.9584 25.0757C41.7578 26.4596 41.6295 28.2527 42.1149 29.6046C42.5641 30.8561 43.8237 30.9644 45.0031 31.1409C48.477 31.6704 52.1233 31.7105 55.513 30.6876C61.5301 28.8624 64.4905 21.1926 60.2264 16.1262C60.0178 15.8735 59.7955 15.6325 59.5605 15.4042Z" fill="white"/>
<path d="M49.5563 31.7064C48.0263 31.6987 46.4991 31.5767 44.9873 31.3414L44.7747 31.3093C43.6635 31.1448 42.4039 30.9603 41.9426 29.6726C41.5415 28.5534 41.4853 27.0411 41.7741 25.0475C41.9314 24.0885 42.1417 23.1391 42.4039 22.2034L43.2062 19.2028C43.5082 17.8188 43.9854 16.4789 44.6262 15.2155C45.2822 13.9922 46.1835 12.9175 47.2738 12.0585C47.9918 11.545 49.0348 11.3645 50.4628 11.5049C51.0279 11.5823 51.5774 11.7474 52.0915 11.9943C52.4343 12.1567 52.7898 12.2909 53.1545 12.3955L53.7041 12.5318C55.8742 13.0694 57.9281 13.5748 59.7212 15.2716C59.9668 15.5039 60.1985 15.7503 60.4152 16.0097C61.3699 17.139 62.0235 18.4914 62.3153 19.9411C62.607 21.3907 62.5275 22.8907 62.0839 24.3013C61.6263 25.846 60.7962 27.2545 59.6665 28.403C58.5369 29.5516 57.1423 30.4049 55.6055 30.8881C53.6405 31.4576 51.602 31.7334 49.5563 31.7064ZM49.5563 11.8579C48.8326 11.8177 48.1142 12.0012 47.4984 12.3834C46.4571 13.2099 45.5957 14.2405 44.9672 15.412C44.3446 16.6469 43.881 17.9557 43.5873 19.3071L42.785 22.3036C42.5249 23.2272 42.3174 24.1647 42.1632 25.1116C41.8905 27.013 41.9386 28.5053 42.3117 29.5242C42.6847 30.5431 43.7277 30.7276 44.8228 30.9001L45.0394 30.9322C48.9786 31.5299 52.4846 31.3815 55.4691 30.4829C56.9421 30.0183 58.2785 29.1992 59.3612 28.0977C60.4438 26.9961 61.2396 25.6457 61.6788 24.1649C62.1007 22.8162 62.1749 21.3826 61.8944 19.9975C61.6138 18.6124 60.9877 17.3207 60.0742 16.2424C59.8662 15.9955 59.6453 15.7599 59.4123 15.5364C57.6994 13.9318 55.802 13.4424 53.5797 12.8969L53.0302 12.7605C52.6452 12.6584 52.2695 12.5242 51.907 12.3594C51.4354 12.13 50.9303 11.977 50.4107 11.9061C50.1296 11.8752 49.8471 11.8591 49.5643 11.8579H49.5563Z" fill="#231F20"/>
<path d="M45.1314 36.3438L45.0913 43.7449C45.0913 43.7449 47.4982 48.1936 52.1915 46.8537C56.8849 45.5139 57.5267 41.7593 57.5267 41.7593C57.6149 37.1662 57.4745 32.4809 57.8075 27.9199C57.8075 27.8677 56.243 26.4918 56.0826 26.2471C55.7078 25.7303 55.4742 25.1247 55.4047 24.4901C55.0597 22.4483 54.9153 20.3423 54.7388 18.2764L53.8121 18.1922C53.7227 18.0397 53.6968 17.8582 53.7399 17.6868C52.6363 19.0681 51.1954 20.1415 49.556 20.8036C48.6414 21.1727 47.6025 21.4053 46.6718 21.0724C47.2559 20.0805 47.6632 18.9947 47.8752 17.8633C46.6162 19.3103 45.1669 20.5801 43.567 21.638C41.8862 22.7532 41.7177 20.8357 41.453 22.8414C41.1641 25.0196 41.1521 30.5514 41.5813 32.7336C42.3234 36.3759 45.1314 36.3438 45.1314 36.3438Z" fill="white"/>
<path d="M50.4825 47.3067C46.8402 47.3067 44.9387 43.881 44.9147 43.8409C44.8987 43.8113 44.8904 43.7782 44.8906 43.7446L44.9267 36.5241C44.2448 36.4438 42.0345 35.9504 41.4047 32.7614C40.9594 30.4989 41.0036 24.895 41.2763 22.801C41.3686 22.091 41.4528 21.8423 41.6333 21.726C41.7076 21.6895 41.7893 21.6705 41.872 21.6705C41.9548 21.6705 42.0364 21.6895 42.1107 21.726C42.3835 21.8142 42.7646 21.9305 43.4746 21.4572C45.0607 20.4108 46.4966 19.153 47.7427 17.7186C47.7712 17.6853 47.8099 17.6626 47.8528 17.6538C47.8957 17.6451 47.9402 17.651 47.9794 17.6704C48.0193 17.6891 48.052 17.7205 48.0723 17.7597C48.0926 17.7988 48.0994 17.8436 48.0917 17.887C47.8922 18.9596 47.5182 19.9922 46.9846 20.9437C47.8362 21.0996 48.7153 20.9817 49.4957 20.6068C51.1035 19.9592 52.5169 18.9078 53.5994 17.5541C53.6278 17.5183 53.6677 17.4936 53.7124 17.4841C53.757 17.4745 53.8036 17.4809 53.8441 17.5019C53.886 17.5212 53.9195 17.5549 53.9387 17.5969C53.9578 17.6389 53.9613 17.6863 53.9484 17.7306C53.9245 17.8172 53.9245 17.9087 53.9484 17.9953L54.7507 18.0675C54.7974 18.0729 54.8408 18.0941 54.8737 18.1277C54.9066 18.1614 54.9269 18.2053 54.9312 18.2521L55.0114 19.1707C55.1558 20.9157 55.3083 22.7168 55.6011 24.4497C55.6634 25.0573 55.8863 25.6375 56.2469 26.1305C56.3231 26.2468 56.9088 26.7884 57.2979 27.1494C58.0119 27.8073 58.0119 27.8073 58.0039 27.9276C57.7793 30.9803 57.7713 34.1453 57.7592 37.206C57.7592 38.6982 57.7592 40.2386 57.7231 41.7469C57.729 41.7733 57.729 41.8007 57.7231 41.8271C57.5907 42.4168 56.628 45.7824 52.2475 47.042C51.6746 47.2128 51.0804 47.3019 50.4825 47.3067ZM45.2918 43.6965C45.5645 44.1738 47.847 47.8844 52.1392 46.6649C56.5077 45.4214 57.2899 41.9836 57.3541 41.7429C57.3822 40.2386 57.3862 38.7023 57.3902 37.218C57.3902 34.1774 57.4102 31.0364 57.6309 27.9918C57.5306 27.8915 57.2819 27.6588 57.0572 27.4543C56.657 27.1082 56.2779 26.7385 55.922 26.3471C55.5321 25.8073 55.2889 25.1757 55.216 24.5139C54.9191 22.7609 54.7707 20.9518 54.6223 19.2028L54.5581 18.4486L53.804 18.3804C53.7727 18.3777 53.7426 18.3676 53.7161 18.3508C53.6895 18.3341 53.6674 18.3112 53.6515 18.2842C53.6291 18.248 53.609 18.2105 53.5914 18.1718C52.5131 19.4052 51.1595 20.3671 49.6401 20.9798C48.4367 21.4612 47.4499 21.5535 46.6115 21.2526C46.5838 21.2426 46.5587 21.2266 46.5379 21.2058C46.5171 21.185 46.5012 21.1599 46.4912 21.1323C46.4784 21.106 46.4718 21.0772 46.4718 21.048C46.4718 21.0188 46.4784 20.99 46.4912 20.9638C46.9354 20.2109 47.2754 19.4012 47.502 18.5569C46.3562 19.7807 45.072 20.8671 43.6752 21.7941C42.8007 22.3718 42.2792 22.1953 41.9663 22.107C41.9165 22.0865 41.8636 22.0743 41.8098 22.0709C41.7166 22.3288 41.6625 22.5993 41.6494 22.8732C41.3766 24.9431 41.3365 30.4708 41.7737 32.7052C42.4517 36.1349 44.9829 36.167 45.1032 36.155C45.1301 36.1546 45.1568 36.1598 45.1817 36.1701C45.2065 36.1805 45.229 36.1958 45.2476 36.2152C45.2851 36.2525 45.3066 36.3028 45.3078 36.3556L45.2918 43.6965Z" fill="#231F20"/>
<path d="M55.4209 31.3093C56.3571 31.6746 57.3998 31.6544 58.3211 31.2532C58.9494 30.9516 59.4896 30.4936 59.89 29.9233C60.2903 29.3529 60.5375 28.6892 60.6077 27.9959C60.6984 27.4875 60.6738 26.9652 60.5354 26.4676C60.466 26.2186 60.3432 25.9878 60.1756 25.791C60.0079 25.5943 59.7995 25.4364 59.5647 25.3283C58.9951 25.0876 58.3613 25.2401 57.7435 25.3965C56.849 25.6252 56.7407 26.0825 56.1389 26.6561C56.2031 26.608 56.2793 26.4395 56.3435 26.3913" fill="white"/>
<path d="M56.8008 31.7706C56.3036 31.7708 55.8109 31.6769 55.3487 31.4939C55.321 31.4867 55.2952 31.4738 55.273 31.4559C55.2508 31.438 55.2327 31.4156 55.2198 31.3901C55.2069 31.3646 55.1996 31.3367 55.1984 31.3082C55.1972 31.2797 55.2021 31.2513 55.2127 31.2248C55.2234 31.1983 55.2395 31.1745 55.2602 31.1547C55.2808 31.135 55.3053 31.1199 55.3323 31.1104C55.3592 31.101 55.3878 31.0974 55.4162 31.0998C55.4446 31.1023 55.4722 31.1108 55.4971 31.1248C56.3817 31.47 57.3671 31.4498 58.2369 31.0686C58.8371 30.781 59.3526 30.3426 59.7329 29.7964C60.1133 29.2501 60.3455 28.6146 60.407 27.9518C60.4964 27.4734 60.4759 26.9809 60.3469 26.5117C60.2846 26.291 60.1758 26.0862 60.0277 25.9112C59.8796 25.7361 59.6957 25.5948 59.4884 25.4968C58.995 25.2882 58.4294 25.4085 57.7956 25.573C57.3591 25.6819 56.9779 25.9474 56.7246 26.3191C56.6042 26.4555 56.4718 26.612 56.2953 26.7804L56.2552 26.8165C56.2148 26.8511 56.1623 26.8682 56.1093 26.8641C56.0562 26.8599 56.007 26.8349 55.9724 26.7945C55.9378 26.7541 55.9207 26.7015 55.9249 26.6485C55.929 26.5955 55.9541 26.5463 55.9945 26.5117C55.9945 26.5117 55.9945 26.5117 56.0145 26.5117L56.0667 26.4355C56.1061 26.3665 56.1562 26.3042 56.2151 26.2509C56.2412 26.2312 56.2713 26.2175 56.3034 26.2108L56.4197 26.0784C56.7287 25.6473 57.1832 25.3424 57.6993 25.22C58.2409 25.0796 58.987 24.8871 59.6489 25.1638C59.9093 25.2847 60.1408 25.46 60.3277 25.678C60.5145 25.896 60.6524 26.1516 60.732 26.4274C60.8776 26.9498 60.9036 27.4982 60.8082 28.032C60.7346 28.76 60.4744 29.4567 60.0528 30.0548C59.6312 30.6528 59.0623 31.1319 58.4013 31.4457C57.8957 31.6626 57.3509 31.7732 56.8008 31.7706Z" fill="#231F20"/>
<path d="M45.0913 40.4835C45.0913 40.4835 48.148 40.8846 50.1577 38.7746C52.1674 36.6646 51.9308 34.9958 51.9308 34.9958C51.9308 34.9958 48.2443 36.8411 45.1114 36.3437L45.0913 40.4835Z" fill="#231F20"/>
<path d="M45.721 40.716C45.508 40.7174 45.295 40.7066 45.0832 40.6839C45.0347 40.6779 44.9901 40.6541 44.9582 40.617C44.9263 40.5799 44.9094 40.5322 44.9107 40.4833V36.3436C44.9105 36.3147 44.9164 36.2862 44.9282 36.2599C44.94 36.2336 44.9573 36.2101 44.9789 36.1911C45.0008 36.1725 45.0265 36.1589 45.0542 36.1512C45.082 36.1436 45.111 36.1422 45.1394 36.147C48.172 36.6284 51.8023 34.8353 51.8384 34.8152C51.8669 34.8004 51.8986 34.7927 51.9307 34.7927C51.9628 34.7927 51.9944 34.8004 52.023 34.8152C52.0512 34.8295 52.0755 34.8505 52.0937 34.8764C52.1119 34.9023 52.1234 34.9322 52.1272 34.9636C52.1272 35.0358 52.3439 36.7648 50.294 38.9109C48.8018 40.4954 46.7479 40.716 45.721 40.716ZM45.3199 40.3149C45.9858 40.351 48.3966 40.367 50.0413 38.6501C51.4734 37.1539 51.7261 35.8702 51.7622 35.3206C50.8516 35.7218 47.9674 36.9252 45.344 36.5842L45.3199 40.3149Z" fill="#231F20"/>
<path d="M46.8644 25.4365C46.8644 25.4365 44.618 29.2955 45.2599 29.9012C45.9017 30.5069 47.5143 29.9774 47.5143 29.9774" fill="white"/>
<path d="M46.215 30.3949C45.8149 30.4248 45.4185 30.2999 45.1079 30.0459C44.4179 29.384 46.1468 26.2711 46.7124 25.3365C46.724 25.3109 46.7408 25.288 46.7617 25.2694C46.7827 25.2507 46.8073 25.2366 46.834 25.2281C46.8608 25.2195 46.889 25.2166 46.9169 25.2197C46.9448 25.2227 46.9717 25.2316 46.996 25.2457C47.0203 25.2598 47.0413 25.2788 47.0577 25.3016C47.0742 25.3243 47.0857 25.3503 47.0915 25.3777C47.0972 25.4052 47.0972 25.4335 47.0913 25.461C47.0855 25.4884 47.0739 25.5143 47.0574 25.537C46.0104 27.3342 45.0998 29.4602 45.4047 29.7571C45.85 30.1863 47.0374 29.9255 47.4586 29.7891C47.5117 29.7727 47.5693 29.778 47.6186 29.8039C47.6679 29.8299 47.7048 29.8743 47.7213 29.9275C47.7378 29.9807 47.7325 30.0383 47.7065 30.0876C47.6806 30.1368 47.6361 30.1738 47.5829 30.1903C47.1392 30.3243 46.6785 30.3932 46.215 30.3949Z" fill="#231F20"/>
<path d="M51.0428 25.4777C51.0488 24.9992 50.7788 24.6079 50.4399 24.6037C50.1009 24.5995 49.8214 24.984 49.8154 25.4625C49.8095 25.941 50.0794 26.3323 50.4184 26.3365C50.7573 26.3407 51.0369 25.9562 51.0428 25.4777Z" fill="#231F20"/>
<path d="M44.4198 25.7154C44.4283 25.2369 44.1604 24.8442 43.8214 24.8382C43.4825 24.8322 43.201 25.2153 43.1925 25.6937C43.1841 26.1722 43.452 26.5649 43.7909 26.5709C44.1298 26.5769 44.4114 26.1938 44.4198 25.7154Z" fill="#231F20"/>
<path d="M49.5563 30.9885C48.5455 31.8189 46.5357 32.0997 43.82 31.7908C43.82 31.7908 43.7478 35.4011 46.3633 35.2286C48.9787 35.0561 49.5563 30.9885 49.5563 30.9885Z" fill="#231F20"/>
<path d="M46.175 35.4291C45.8963 35.4373 45.6188 35.3901 45.3585 35.2903C45.0982 35.1904 44.8603 35.0399 44.6587 34.8474C43.5916 33.8325 43.6197 31.8629 43.6197 31.7827C43.623 31.7264 43.6473 31.6734 43.6879 31.6343C43.7091 31.6157 43.734 31.6018 43.761 31.5935C43.7879 31.5852 43.8163 31.5827 43.8443 31.5861C46.4838 31.891 48.4655 31.6262 49.4322 30.832C49.4636 30.8065 49.5019 30.7911 49.5421 30.7878C49.5823 30.7845 49.6226 30.7933 49.6577 30.8133C49.6928 30.8332 49.7211 30.8633 49.7388 30.8995C49.7566 30.9358 49.763 30.9766 49.7572 31.0165C49.7331 31.189 49.1234 35.2325 46.3796 35.4291H46.175ZM44.0248 32.0073C44.0529 32.5288 44.1893 33.8526 44.9354 34.5586C45.1235 34.7331 45.347 34.8649 45.5907 34.9452C45.8344 35.0255 46.0925 35.0524 46.3475 35.0239C48.2569 34.8915 49.0271 32.4686 49.2678 31.4136C48.1646 32.0555 46.3715 32.256 44.0248 32.0073Z" fill="#231F20"/>
<path d="M49.0107 24.9796L52.0073 23.8684L49.0107 24.9796Z" fill="#231F20"/>
<path d="M49.0109 25.1798C48.9577 25.1894 48.9029 25.1775 48.8585 25.1466C48.8141 25.1158 48.7838 25.0686 48.7742 25.0154C48.7646 24.9622 48.7766 24.9074 48.8074 24.863C48.8383 24.8186 48.8855 24.7883 48.9387 24.7787L51.9352 23.6635C51.96 23.6543 51.9863 23.6501 52.0127 23.651C52.0391 23.652 52.0651 23.6581 52.0891 23.6691C52.1131 23.6801 52.1347 23.6957 52.1527 23.7151C52.1707 23.7344 52.1847 23.7571 52.194 23.7819C52.2032 23.8066 52.2074 23.833 52.2065 23.8594C52.2055 23.8858 52.1994 23.9117 52.1884 23.9357C52.1774 23.9598 52.1618 23.9814 52.1424 23.9994C52.1231 24.0174 52.1004 24.0314 52.0756 24.0406L49.0791 25.1518L49.0109 25.1798Z" fill="#231F20"/>
<path d="M44.7628 24.8149L42.8975 24.2654L44.7628 24.8149Z" fill="#231F20"/>
<path d="M44.7626 25.0155H44.7064L42.8411 24.466C42.8148 24.4586 42.7901 24.4461 42.7686 24.4292C42.7471 24.4123 42.7291 24.3914 42.7157 24.3675C42.7023 24.3437 42.6937 24.3174 42.6905 24.2903C42.6872 24.2631 42.6893 24.2356 42.6967 24.2093C42.7041 24.1829 42.7165 24.1583 42.7334 24.1368C42.7503 24.1153 42.7713 24.0973 42.7951 24.0839C42.819 24.0705 42.8452 24.0619 42.8724 24.0586C42.8995 24.0554 42.9271 24.0575 42.9534 24.0648L44.8187 24.6144C44.8719 24.6219 44.92 24.6501 44.9523 24.693C44.9847 24.7359 44.9987 24.7899 44.9912 24.8431C44.9838 24.8963 44.9555 24.9443 44.9126 24.9767C44.8697 25.009 44.8157 25.023 44.7626 25.0155Z" fill="#231F20"/>
<path d="M62.3082 20.9319C62.2039 20.7033 41.152 19.7646 41.152 19.7646C41.152 19.7646 40.5704 14.5738 43.6311 11.3206C46.6918 8.06732 55.3845 9.17446 59.1833 12.183C62.9821 15.1916 62.3082 20.9319 62.3082 20.9319Z" fill="white"/>
<path d="M62.3082 21.1325C62.2745 21.133 62.2413 21.1247 62.2119 21.1084C61.4778 20.9279 49.247 20.3061 41.144 19.9652C41.0959 19.9634 41.0502 19.944 41.0154 19.9107C40.9807 19.8775 40.9593 19.8326 40.9554 19.7847C40.9314 19.5721 40.3978 14.4655 43.4826 11.1842C44.9267 9.64782 47.7187 8.92577 51.1444 9.20256C54.3054 9.45929 57.4343 10.5424 59.3076 12.0105C63.1506 15.0552 62.5168 20.8798 62.5168 20.9399C62.5152 20.9878 62.4965 21.0336 62.4642 21.0689C62.4318 21.1042 62.3878 21.1268 62.3403 21.1325H62.3082ZM41.3405 19.5721C57.1615 20.2781 61.1128 20.5589 62.1237 20.7193C62.1959 19.7165 62.3443 14.9429 59.0589 12.3395C55.2441 9.31889 46.6958 8.35214 43.7755 11.457C41.1239 14.277 41.2763 18.6575 41.3405 19.5721Z" fill="#231F20"/>
<path d="M41.1517 19.7644C41.1517 19.7644 34.9219 20.7312 34.9661 22.7369C35.0102 24.7426 50.2094 25.601 56.7881 20.5466L41.1517 19.7644Z" fill="white"/>
<path d="M42.1349 24.494C39.1745 24.494 36.6955 24.129 35.5482 23.5794C35.0347 23.3347 34.774 23.0459 34.7459 22.721C34.6978 20.611 40.4461 19.6643 41.104 19.564C41.1173 19.562 41.1308 19.562 41.1441 19.564L56.7886 20.3302C56.8294 20.3303 56.8691 20.3437 56.9016 20.3683C56.9342 20.3929 56.9578 20.4273 56.9691 20.4666C56.9808 20.506 56.9805 20.5479 56.9683 20.5872C56.9562 20.6264 56.9328 20.6612 56.9009 20.6872C53.2586 23.4912 47.0409 24.494 42.1349 24.494ZM41.1642 19.9651C39.4633 20.2299 35.147 21.2247 35.147 22.7129C35.147 22.8654 35.3516 23.0499 35.7006 23.2144C38.6169 24.6144 50.2741 24.7748 56.1909 20.6992L41.1642 19.9651Z" fill="#231F20"/>
<path d="M50.3662 64.2631C49.9936 64.2595 49.6299 64.148 49.3192 63.9422C45.8734 61.7399 44.8706 48.3659 44.9067 43.7447C44.9067 43.6915 44.9278 43.6405 44.9654 43.6029C45.0031 43.5653 45.0541 43.5442 45.1073 43.5442C45.1336 43.5447 45.1596 43.5504 45.1837 43.5609C45.2079 43.5715 45.2297 43.5867 45.2479 43.6057C45.2662 43.6247 45.2805 43.6471 45.2901 43.6717C45.2997 43.6962 45.3044 43.7224 45.3038 43.7487C45.2757 49.5212 46.5273 61.6757 49.5439 63.6052C49.775 63.7598 50.0439 63.8485 50.3216 63.8619C50.5993 63.8753 50.8754 63.813 51.1204 63.6814C55.5971 61.5795 57.3381 41.9396 57.3541 41.743C57.3562 41.7167 57.3635 41.691 57.3755 41.6675C57.3875 41.644 57.4041 41.623 57.4242 41.6059C57.4443 41.5888 57.4676 41.5758 57.4928 41.5676C57.5179 41.5595 57.5444 41.5564 57.5707 41.5585C57.5971 41.5606 57.6227 41.5679 57.6463 41.5799C57.6698 41.5919 57.6907 41.6085 57.7079 41.6286C57.725 41.6487 57.738 41.672 57.7461 41.6971C57.7543 41.7223 57.7574 41.7488 57.7553 41.7751C57.6831 42.5774 55.9742 61.8322 51.2929 64.0465C51.0038 64.1862 50.6873 64.2602 50.3662 64.2631Z" fill="#231F20"/>
<path d="M48.6496 71.1708L47.2175 70.7295C47.2175 70.7295 46.8163 68.0258 47.061 66.1405C47.3057 64.2551 48.1923 63.3044 48.6134 62.9835C49.0346 62.6626 51.1687 63.1279 51.1687 63.1279C51.1687 63.1279 49.5642 65.3181 49.4157 66.8545C49.2673 68.3909 48.6496 71.1708 48.6496 71.1708Z" fill="white"/>
<path d="M48.6497 71.3795C48.6298 71.3833 48.6094 71.3833 48.5896 71.3795L47.1535 70.9383C47.1163 70.9273 47.083 70.9061 47.0574 70.877C47.0319 70.8478 47.0151 70.8121 47.0091 70.7738C46.7806 69.2363 46.7295 67.6777 46.8566 66.1286C47.1374 64.0025 48.1764 63.0679 48.4853 62.8312C48.9506 62.4822 50.6875 62.8312 51.213 62.9355C51.2464 62.9431 51.2774 62.9587 51.3033 62.9811C51.3292 63.0035 51.3491 63.0319 51.3614 63.0639C51.3738 63.0963 51.3778 63.1314 51.3728 63.1658C51.3679 63.2002 51.3543 63.2327 51.3334 63.2604C51.3334 63.2604 49.7569 65.4266 49.6205 66.8707C49.4761 68.4071 48.8784 71.0987 48.8503 71.211C48.8373 71.2674 48.8027 71.3163 48.754 71.3474C48.7222 71.3661 48.6865 71.3771 48.6497 71.3795ZM47.4022 70.5772L48.4973 70.9102C48.6417 70.2282 49.091 68.1022 49.2073 66.8426C49.3236 65.583 50.3827 63.9062 50.8119 63.2684C49.9053 63.0959 48.9265 63.0077 48.734 63.1521C48.5414 63.2965 47.5305 64.159 47.2618 66.1727C47.1432 67.6402 47.1903 69.1163 47.4022 70.5732V70.5772Z" fill="#231F20"/>
<path d="M52.6891 64.6442C52.5327 63.8018 51.4657 62.3617 49.7648 63.6093C48.064 64.8568 48.6497 71.1708 48.6497 71.1708L49.7568 70.8418L49.9293 67.7611C49.9293 67.7611 53.2708 67.8012 52.6891 64.6442Z" fill="white"/>
<path d="M48.6495 71.3794C48.608 71.3792 48.5675 71.3666 48.5332 71.3433C48.5079 71.3263 48.4867 71.3037 48.4714 71.2773C48.4562 71.2509 48.4471 71.2213 48.445 71.1908C48.4209 70.9261 47.8713 64.7445 49.6484 63.4408C50.5269 62.795 51.2168 62.8591 51.6541 63.0397C51.9729 63.1847 52.2525 63.4037 52.4695 63.6787C52.6865 63.9536 52.8346 64.2764 52.9016 64.6201C53.0077 65.0203 53.021 65.4394 52.9403 65.8454C52.8597 66.2514 52.6873 66.6336 52.4363 66.9628C51.7423 67.7852 50.5991 67.9416 50.1378 67.9737L49.9773 70.8659C49.9739 70.9085 49.958 70.9491 49.9316 70.9826C49.9052 71.0162 49.8695 71.0411 49.8289 71.0545L48.7217 71.3834L48.6495 71.3794ZM51.0363 63.3285C50.6219 63.3544 50.2261 63.5102 49.9051 63.7737C48.6495 64.6964 48.7017 69.0126 48.8501 70.902L49.5762 70.6854L49.7366 67.7491C49.7397 67.6958 49.763 67.6458 49.8018 67.6093C49.8406 67.5727 49.8919 67.5524 49.9452 67.5525C49.9452 67.5525 51.3853 67.5525 52.1234 66.682C52.3346 66.3983 52.4783 66.0703 52.5436 65.7227C52.6089 65.3752 52.5942 65.0173 52.5005 64.6763C52.444 64.4035 52.3252 64.1475 52.1533 63.9283C51.9814 63.7091 51.7611 63.5326 51.5097 63.4127C51.3588 63.3545 51.1981 63.3259 51.0363 63.3285Z" fill="#231F20"/>
<path d="M47.0609 66.1404L48.0798 66.1965L48.0156 67.3318L46.9727 67.2756L47.0609 66.1404Z" fill="#231F20"/>
<path d="M48.0154 67.5404L46.9765 67.4802C46.9489 67.4792 46.9218 67.4727 46.8968 67.4609C46.8718 67.4492 46.8495 67.4325 46.8311 67.4119C46.8128 67.3913 46.7988 67.3672 46.79 67.341C46.7812 67.3148 46.7778 67.2871 46.7799 67.2596L46.8682 66.1244C46.8691 66.0975 46.8756 66.0711 46.8872 66.0468C46.8988 66.0224 46.9153 66.0008 46.9356 65.9831C46.9559 65.9654 46.9796 65.9521 47.0053 65.944C47.031 65.9359 47.058 65.9331 47.0848 65.9359L48.1037 65.992C48.1306 65.9935 48.1569 66.0004 48.1811 66.0121C48.2054 66.0238 48.2271 66.0402 48.2449 66.0603C48.2628 66.0805 48.2766 66.1039 48.2854 66.1294C48.2942 66.1548 48.2979 66.1818 48.2963 66.2086L48.2361 67.3439C48.2345 67.3713 48.2276 67.3981 48.2157 67.4228C48.2038 67.4476 48.1871 67.4697 48.1666 67.4879C48.1461 67.5062 48.1222 67.5202 48.0962 67.5292C48.0703 67.5382 48.0429 67.542 48.0154 67.5404ZM47.2132 67.0791L47.839 67.1152L47.8791 66.3932L47.2693 66.3611L47.2132 67.0791Z" fill="#231F20"/>
<path d="M18.9733 34.655C19.7756 37.2103 24.6776 49.4571 26.0776 53.1476C27.4775 56.8381 28.7331 62.2295 25.3956 65.3062C23.8994 66.6861 21.5166 67.1675 19.7556 66.1446C19.0001 65.6632 18.3549 65.0275 17.8622 64.2793C13.3774 58.0375 12.4949 36.3759 11.6646 32.8017C11.6646 32.8017 17.0278 28.2969 17.8782 28.2247C18.7287 28.1525 18.9733 34.655 18.9733 34.655Z" fill="white"/>
<path d="M21.8812 66.8946C21.1011 66.9023 20.3329 66.703 19.6549 66.317C18.8755 65.82 18.2087 65.1655 17.6973 64.3955C14.3438 59.7102 12.992 46.5207 12.1817 38.6422C11.9009 35.9105 11.6802 33.7563 11.4676 32.8498C11.4591 32.8133 11.461 32.7752 11.4731 32.7397C11.4851 32.7043 11.5069 32.6729 11.5358 32.6492C12.4384 31.887 16.9913 28.0962 17.8578 28.024C17.9127 28.0205 17.9677 28.0283 18.0195 28.0469C18.0712 28.0655 18.1186 28.0946 18.1587 28.1323C18.9048 28.7942 19.1334 33.5879 19.1735 34.6188C19.7271 36.3678 22.1139 42.4491 24.0314 47.339C24.9821 49.7699 25.8084 51.8679 26.2657 53.0753C28.4199 58.7474 28.1631 63.0276 25.5316 65.4545C24.5358 66.371 23.2346 66.8844 21.8812 66.8946ZM11.8848 32.8778C12.0974 33.8687 12.31 35.9706 12.5828 38.6021C13.3851 46.4404 14.7329 59.5618 18.0223 64.1628C18.5033 64.8849 19.1272 65.5006 19.8555 65.972C21.46 66.9067 23.7345 66.5617 25.2589 65.1697C28.4199 62.2574 27.3488 57.0707 25.8887 53.2317C25.4314 52.0283 24.609 49.9263 23.6583 47.4954C21.7288 42.5774 19.326 36.452 18.7844 34.7271C18.7808 34.7099 18.7808 34.6921 18.7844 34.6749C18.6761 31.8148 18.3031 28.6177 17.8899 28.4332C17.3283 28.4693 13.9507 31.1609 11.8848 32.8778Z" fill="#231F20"/>
<path d="M25.4356 27.9518C25.4356 27.9518 24.6333 29.9575 23.3858 30.3587C22.1382 30.7598 19.2941 29.4962 18.9732 29.6847C18.6523 29.8733 11.6083 35.6818 10.9504 35.8784C10.2925 36.0749 8.8444 34.3701 8.18652 32.3644C8.18652 32.3644 15.0701 27.1936 15.5114 26.6561C15.9526 26.1186 16.3618 23.0458 16.9996 21.8745L25.4356 27.9518Z" fill="white"/>
<path d="M10.8295 36.0667C9.9711 36.0667 8.62727 34.3699 8.02155 32.4243C8.00982 32.3846 8.01044 32.3422 8.02333 32.3028C8.03623 32.2634 8.06078 32.2288 8.09376 32.2037C10.8536 30.1298 15.0736 26.9086 15.3825 26.5276C15.567 26.3069 15.7836 25.4164 15.9882 24.558C16.1751 23.6031 16.4643 22.6711 16.8507 21.778C16.8641 21.7527 16.8829 21.7306 16.9057 21.7132C16.9286 21.6959 16.955 21.6838 16.983 21.6778C17.0106 21.6718 17.039 21.6715 17.0666 21.6771C17.0942 21.6826 17.1204 21.6938 17.1435 21.7099L25.5675 27.7751C25.6025 27.8022 25.628 27.8398 25.6402 27.8823C25.6525 27.9249 25.6509 27.9702 25.6357 28.0118C25.5996 28.1 24.7893 30.1057 23.4575 30.5269C22.6191 30.7877 21.195 30.3865 20.1561 30.0937C19.8045 29.9739 19.4416 29.8905 19.073 29.845C19.0088 29.8891 18.2707 30.4788 17.4243 31.1607C14.3155 33.6558 11.4834 35.9103 11.006 36.0466C10.9486 36.0627 10.8891 36.0694 10.8295 36.0667ZM8.42269 32.4564C9.08458 34.41 10.3803 35.818 10.8737 35.6656C11.3671 35.5131 15.2581 32.3722 17.1555 30.8519C18.2426 29.9774 18.7601 29.5562 18.8684 29.496C19.0529 29.3837 19.4019 29.4719 20.2443 29.7126C21.2351 29.9894 22.591 30.3745 23.3171 30.1459C24.2798 29.845 24.9778 28.4611 25.1784 28.0118L17.0833 22.1752C16.7751 22.9807 16.5323 23.8097 16.3573 24.6542C16.0805 25.7935 15.9 26.5035 15.6713 26.7843C15.2501 27.3018 9.52583 31.614 8.43072 32.4364L8.42269 32.4564Z" fill="#231F20"/>
<path d="M17.4565 23.6998C17.5397 24.2177 17.4656 24.7487 17.2439 25.2241C16.8789 25.9542 15.15 26.9931 15.15 26.9931L13.8062 24.5863L16.1408 22.729L17.4565 23.6998Z" fill="#231F20"/>
<path d="M15.1499 27.1936H15.0977C15.0452 27.1769 15.0009 27.1411 14.9734 27.0934L13.6296 24.6865C13.6071 24.645 13.6001 24.5969 13.6096 24.5506C13.6191 24.5044 13.6447 24.463 13.6817 24.4338L16.0164 22.5765C16.0517 22.5501 16.0946 22.5359 16.1387 22.5359C16.1828 22.5359 16.2257 22.5501 16.2611 22.5765L17.5768 23.5392C17.5968 23.5533 17.6139 23.5711 17.627 23.5918C17.6401 23.6124 17.6489 23.6355 17.653 23.6596C17.746 24.2209 17.6663 24.7973 17.4244 25.3123C17.0232 26.0905 15.3264 27.1214 15.2542 27.1656C15.2228 27.1847 15.1866 27.1944 15.1499 27.1936ZM14.0628 24.6183L15.2221 26.7123C15.7757 26.3633 16.8267 25.6332 17.0674 25.1358C17.2575 24.7208 17.3283 24.261 17.2719 23.808L16.1447 22.9656L14.0628 24.6183Z" fill="#231F20"/>
<path d="M10.0395 30.9684C10.0395 30.9684 9.29743 28.9626 10.4407 28.7661C10.4407 28.7661 10.5811 27.3059 11.9851 27.8515C11.9851 27.8515 12.2779 26.3191 13.4894 26.5718C14.7008 26.8246 15.7718 29.6366 15.6475 30.3626C15.5231 31.0887 14.5644 30.6996 14.067 30.0417C14.067 30.0417 14.7249 31.1408 14.3358 31.4537C13.7581 31.9151 13.1083 31.1729 12.5748 30.6515C12.5748 30.6515 13.377 31.9311 12.2899 32.1036C11.4475 32.236 10.5851 30.5672 10.5851 30.5672L10.0395 30.9684Z" fill="white"/>
<path d="M12.1975 32.296C11.4594 32.296 10.7935 31.3052 10.5287 30.8519L10.1597 31.1287C10.1354 31.1486 10.1065 31.162 10.0756 31.1676C10.0447 31.1733 10.0129 31.1709 9.98319 31.1608C9.95318 31.1526 9.92553 31.1375 9.90251 31.1166C9.8795 31.0956 9.86178 31.0696 9.85081 31.0405C9.80267 30.9041 9.37345 29.6886 9.77058 29.0027C9.87922 28.8105 10.0571 28.667 10.268 28.6015C10.333 28.2316 10.5404 27.9018 10.8456 27.6829C10.9965 27.5967 11.1643 27.5441 11.3374 27.5289C11.5105 27.5136 11.6849 27.5361 11.8485 27.5947C11.966 27.1782 12.2151 26.8109 12.5585 26.5477C12.6998 26.4521 12.8597 26.3877 13.0278 26.3586C13.1958 26.3296 13.3681 26.3366 13.5333 26.3792C14.8611 26.656 15.9883 29.5883 15.8479 30.3906C15.8374 30.5168 15.7876 30.6364 15.7056 30.7329C15.6236 30.8293 15.5134 30.8976 15.3906 30.9281C15.1166 30.9733 14.8357 30.9131 14.6043 30.7597C14.6613 30.8989 14.6779 31.0513 14.6524 31.1996C14.6269 31.3478 14.5602 31.4859 14.4599 31.598C13.9826 31.9791 13.4892 31.7344 13.0559 31.3694C13.0751 31.5248 13.053 31.6826 12.9917 31.8267C12.9292 31.9533 12.8343 32.0612 12.7166 32.1394C12.599 32.2175 12.4628 32.2633 12.3218 32.272L12.1975 32.296ZM10.5929 30.3585H10.637C10.6658 30.3655 10.6928 30.3783 10.7162 30.3963C10.7397 30.4142 10.7592 30.4369 10.7734 30.4628C10.978 30.864 11.7041 31.9912 12.2657 31.8949C12.5585 31.8468 12.6147 31.7184 12.6347 31.6783C12.7591 31.4055 12.5104 30.9001 12.4101 30.7476C12.3851 30.7054 12.3758 30.6556 12.3839 30.6072C12.392 30.5588 12.4169 30.5148 12.4542 30.4829C12.4911 30.4496 12.539 30.4312 12.5886 30.4312C12.6382 30.4312 12.6861 30.4496 12.723 30.4829L12.8353 30.5952C13.4129 31.1849 13.8502 31.578 14.2152 31.2852C14.3596 31.1688 14.1711 30.5791 13.9023 30.1299C13.8787 30.0858 13.8724 30.0346 13.8846 29.9861C13.8968 29.9376 13.9266 29.8955 13.9683 29.8679C14.01 29.8403 14.0604 29.8292 14.1098 29.8369C14.1592 29.8445 14.2039 29.8703 14.2353 29.9092C14.3511 30.0895 14.5076 30.2401 14.6923 30.3488C14.8769 30.4575 15.0845 30.5213 15.2983 30.535C15.3585 30.535 15.4307 30.4829 15.4588 30.3184C15.5671 29.6886 14.5361 26.9849 13.4531 26.7563C13.3403 26.7278 13.2229 26.7231 13.1083 26.7424C12.9937 26.7618 12.8843 26.8047 12.7872 26.8686C12.48 27.1326 12.272 27.4934 12.1975 27.8915C12.1915 27.9201 12.1794 27.947 12.1621 27.9706C12.1448 27.9941 12.1227 28.0136 12.0972 28.0279C12.0707 28.0396 12.042 28.0457 12.013 28.0457C11.984 28.0457 11.9553 28.0396 11.9287 28.0279C11.7955 27.9612 11.6485 27.9264 11.4995 27.9264C11.3505 27.9264 11.2035 27.9612 11.0703 28.0279C10.8419 28.2179 10.6977 28.4903 10.6691 28.786C10.6654 28.83 10.6473 28.8716 10.6175 28.9042C10.5878 28.9369 10.5481 28.9588 10.5047 28.9666C10.4291 28.9747 10.3565 29.0008 10.293 29.0426C10.2295 29.0845 10.1769 29.1409 10.1396 29.2072C9.93505 29.5602 10.0514 30.2261 10.1677 30.6433L10.4926 30.3946C10.5225 30.3744 10.557 30.362 10.5929 30.3585Z" fill="#231F20"/>
<path d="M15.0337 24.6142C15.0337 24.6142 15.6555 23.4108 16.4137 24.4056C17.1718 25.4004 18.1145 27.3018 16.9392 27.5586C15.7638 27.8153 14.773 25.6491 15.0337 24.6142Z" fill="white"/>
<path d="M16.7426 27.7792C16.5469 27.7701 16.3551 27.7208 16.1792 27.6346C16.0032 27.5483 15.8468 27.4269 15.7197 27.2778C15.0578 26.5958 14.6487 25.3282 14.8412 24.5661C14.8396 24.5514 14.8396 24.5366 14.8412 24.5219C14.8733 24.4538 15.1942 23.8601 15.7157 23.8159C15.8847 23.8148 16.0511 23.8574 16.1987 23.9397C16.3463 24.0219 16.4701 24.141 16.5581 24.2853C17.0555 24.9391 17.918 26.3953 17.6131 27.2216C17.5613 27.3599 17.474 27.4821 17.3599 27.5757C17.2458 27.6694 17.1089 27.7313 16.9632 27.7551C16.8906 27.7702 16.8168 27.7783 16.7426 27.7792ZM15.2223 24.6864C15.1868 25.1063 15.2398 25.5289 15.378 25.9269C15.5162 26.3249 15.7365 26.6895 16.0246 26.997C16.1289 27.1285 16.2651 27.231 16.4203 27.2949C16.5755 27.3588 16.7445 27.3819 16.9111 27.362C16.9908 27.3529 17.0663 27.3217 17.1294 27.2722C17.1924 27.2226 17.2404 27.1565 17.2681 27.0812C17.4687 26.5397 16.9031 25.3603 16.2693 24.53C16.2197 24.4421 16.1497 24.3675 16.0652 24.3124C15.9807 24.2572 15.8843 24.2232 15.7839 24.2131C15.5232 24.2371 15.2985 24.55 15.2223 24.6864Z" fill="#231F20"/>
<path d="M19.017 35.3006C19.017 35.3006 19.6267 31.5379 19.6709 30.888C19.7431 29.7528 19.3981 27.9998 18.3912 27.7711C17.3844 27.5425 15.1099 27.37 15.5271 28.3568C15.9282 29.2514 17.9018 29.3316 17.9018 29.3316C17.9018 29.3316 16.5941 30.7757 16.8669 32.1396" fill="white"/>
<path d="M19.0172 35.5012H18.9851C18.9331 35.4923 18.8867 35.4634 18.856 35.4206C18.8252 35.3778 18.8125 35.3246 18.8206 35.2725C18.8206 35.2364 19.4303 31.5098 19.4705 30.86C19.5386 29.7608 19.1897 28.1402 18.3473 27.9477C17.3484 27.719 15.9805 27.703 15.7118 28.0199C15.7118 28.048 15.6436 28.1041 15.7118 28.2646C15.9805 28.8984 17.3925 29.095 17.91 29.115C17.9487 29.1169 17.986 29.1296 18.0179 29.1516C18.0498 29.1735 18.0749 29.2039 18.0905 29.2394C18.1046 29.274 18.1086 29.3119 18.1022 29.3488C18.0959 29.3857 18.0793 29.42 18.0544 29.448C18.0544 29.448 16.8149 30.8359 17.0636 32.0875C17.0689 32.1133 17.069 32.1399 17.064 32.1657C17.059 32.1916 17.0489 32.2162 17.0344 32.2382C17.0199 32.2602 17.0012 32.2791 16.9793 32.2938C16.9575 32.3086 16.933 32.3189 16.9072 32.3241C16.8551 32.3337 16.8014 32.3228 16.7573 32.2936C16.7132 32.2644 16.6821 32.2193 16.6705 32.1677C16.4579 31.0886 17.1278 30.0015 17.5089 29.4841C16.8711 29.4119 15.6636 29.1752 15.3427 28.421C15.287 28.3174 15.2634 28.1995 15.2748 28.0823C15.2862 27.9652 15.3322 27.8541 15.4069 27.7632C15.9284 27.1374 17.9301 27.4422 18.4395 27.5586C19.6189 27.8273 19.9438 29.7408 19.8716 30.884C19.8275 31.558 19.2418 35.1843 19.2177 35.3367C19.2092 35.3834 19.1843 35.4256 19.1476 35.4557C19.1109 35.4858 19.0647 35.502 19.0172 35.5012Z" fill="#231F20"/>
<path d="M3.79395 21.8384C3.79395 21.8384 11.9772 20.635 15.427 22.4482C16.2933 22.9139 17.1269 23.4379 17.9221 24.0166C19.8075 25.3604 21.5926 26.8968 22.9685 27.7272C25.6922 29.3719 28.2676 29.6326 29.8762 26.7323C31.2561 24.2493 30.3335 23.1421 28.2315 21.0883C27.1925 20.0734 25.0223 18.4207 23.133 16.5594C22.02 15.5303 21.0657 14.3421 20.3009 13.0334C18.6161 9.90045 18.8327 4.9624 18.8327 4.9624L3.79395 21.8384Z" fill="white"/>
<path d="M26.5386 29.1551C25.4635 29.1551 24.228 28.7539 22.8561 27.9115C21.8852 27.2846 20.9479 26.607 20.0481 25.8817C19.318 25.3241 18.5679 24.7425 17.7977 24.1929C17.0109 23.6178 16.1852 23.0978 15.3267 22.6365C11.9812 20.8875 3.90218 22.0388 3.82195 22.0508C3.78127 22.0565 3.73984 22.0495 3.70326 22.0309C3.66667 22.0122 3.63669 21.9828 3.61737 21.9465C3.59745 21.9106 3.58908 21.8693 3.59339 21.8284C3.59769 21.7875 3.61446 21.7489 3.64143 21.7179L18.6842 4.84187C18.7118 4.81154 18.7479 4.79037 18.7879 4.7812C18.8278 4.77204 18.8696 4.77533 18.9076 4.79062C18.9456 4.80591 18.978 4.83247 19.0005 4.86674C19.0229 4.901 19.0344 4.94132 19.0332 4.98227C19.0332 5.03041 18.8527 9.90027 20.4693 12.9489C21.2249 14.2441 22.1716 15.418 23.2773 16.4308C24.3644 17.4979 25.5277 18.4847 26.5546 19.3552C27.2927 19.9809 27.9346 20.5225 28.3758 20.9597C30.4818 23.0216 31.5127 24.217 30.0566 26.8445C29.3987 28.0479 28.5443 28.7659 27.5133 29.0387C27.1949 29.1199 26.8672 29.159 26.5386 29.1551ZM9.3577 21.2486C11.5921 21.2486 13.9869 21.4732 15.5112 22.2715C16.3878 22.7461 17.2297 23.2823 18.0304 23.876C18.8086 24.4296 19.5627 25.0113 20.2928 25.5729C21.181 26.2877 22.1048 26.9571 23.0607 27.5786C24.7655 28.6095 26.2257 28.9745 27.401 28.6576C28.3196 28.4129 29.0938 27.739 29.6915 26.6519C31.0153 24.2732 30.1569 23.2783 28.087 21.2526C27.6538 20.8274 27.0199 20.2898 26.2859 19.648C25.2549 18.7735 24.0876 17.7827 22.9885 16.7036C21.8533 15.6581 20.8835 14.4462 20.1123 13.1094C18.7564 10.5621 18.616 6.87967 18.616 5.48771L4.29931 21.5695C5.97787 21.3655 7.6668 21.2583 9.3577 21.2486Z" fill="#231F20"/>
<path d="M17.4565 23.6998C19.3419 25.0396 21.6324 26.8287 22.9602 27.7112C25.9888 29.7691 27.8541 29.9135 29.6432 27.1175C31.4845 24.2454 30.3252 23.1262 28.2232 21.0723C27.1842 20.0575 25.014 18.4048 23.1247 16.5435C23.1247 16.5435 23.1006 18.5692 21.2072 21.1205C20.2788 22.3737 18.9589 23.2813 17.4565 23.6998Z" fill="#231F20"/>
<path d="M26.6389 29.456C25.624 29.456 24.4286 28.9546 22.8602 27.8916C22.1421 27.4062 21.1473 26.6601 20.0883 25.8859C19.1737 25.2039 18.227 24.4979 17.3565 23.8802C17.325 23.8572 17.3008 23.8258 17.2866 23.7896C17.2724 23.7533 17.2688 23.7138 17.2763 23.6756C17.2836 23.6368 17.3025 23.6012 17.3304 23.5733C17.3583 23.5454 17.3939 23.5265 17.4327 23.5192C18.8759 23.1076 20.1442 22.2339 21.043 21.0321C22.8682 18.5731 22.9203 16.5955 22.9203 16.5754C22.9205 16.5358 22.9324 16.4971 22.9546 16.4643C22.9767 16.4315 23.008 16.4059 23.0447 16.3909C23.0813 16.3772 23.121 16.3741 23.1593 16.3819C23.1976 16.3897 23.233 16.4081 23.2613 16.435C24.3484 17.502 25.5117 18.4888 26.5386 19.3593C27.2767 19.9851 27.9185 20.5266 28.3598 20.9639C30.4698 23.0298 31.7334 24.2613 29.8119 27.2618C29.0097 28.5334 28.1673 29.2194 27.2045 29.4159C27.0178 29.4481 26.8283 29.4616 26.6389 29.456ZM17.9101 23.7759C18.6883 24.3375 19.5146 24.9512 20.3169 25.5489C21.3679 26.3512 22.3627 27.0813 23.0768 27.5546C24.8538 28.7581 26.1054 29.2073 27.1283 28.9947C27.9827 28.8222 28.7329 28.1925 29.479 27.0171C31.228 24.2934 30.185 23.2745 28.1111 21.2487C27.6538 20.7994 27.02 20.2619 26.2859 19.6441C25.3472 18.8418 24.2802 17.9593 23.2854 16.9926C23.0075 18.5471 22.3502 20.0091 21.3719 21.2487C20.4972 22.4188 19.2911 23.2993 17.9101 23.7759Z" fill="#231F20"/>
<path d="M1.47885 21.2446C3.39631 22.8171 7.39167 21.2446 11.2306 17.7146C13.1709 15.9089 14.8589 13.8499 16.2489 11.5932C18.9847 7.09236 19.7388 2.8523 17.8133 1.27581C15.4065 -0.677746 9.83061 2.21047 5.31777 7.72215C0.804932 13.2338 -0.911953 19.2911 1.47885 21.2446Z" fill="#68E1FD"/>
<path d="M15.9003 0.674147C16.589 0.643901 17.2663 0.856908 17.8137 1.27586C19.7432 2.85234 18.9891 7.10845 16.2533 11.5932C14.8633 13.85 13.1753 15.909 11.235 17.7146C8.40297 20.3301 5.49069 21.8584 3.37266 21.8584C2.68364 21.886 2.00713 21.6686 1.46323 21.2447C-0.94362 19.2911 0.793321 13.2218 5.30215 7.7222C8.87231 3.37784 13.1003 0.674147 15.9003 0.674147ZM15.9003 0.273006C12.9118 0.273006 8.53535 3.16524 5.00932 7.49355C2.79502 10.1772 1.16638 13.1095 0.424273 15.7089C-0.345918 18.4287 -0.0611081 20.5226 1.22656 21.5576C1.83832 22.0344 2.59736 22.2827 3.37266 22.2596C5.60301 22.2596 8.55942 20.7071 11.4878 18.0075C12.4804 17.0874 13.4079 16.0996 14.2636 15.0511C15.1075 14.0223 15.8795 12.9366 16.5742 11.8018C19.5066 6.98811 20.1003 2.64375 18.0464 0.970992C17.4346 0.49468 16.6753 0.24772 15.9003 0.273006Z" fill="#231F20"/>
<path d="M7.76123 13.7554L11.2311 17.7147C13.1714 15.909 14.8594 13.85 16.2494 11.5932L11.3675 8.89355L7.76123 13.7554Z" fill="white"/>
<path d="M10.7042 12.1778C11.7046 10.8401 12.0108 9.37808 11.3881 8.91238C10.7653 8.44668 9.44948 9.15361 8.44908 10.4914C7.44868 11.8291 7.14253 13.2911 7.76528 13.7568C8.38802 14.2225 9.70385 13.5156 10.7042 12.1778Z" fill="#231F20"/>
<path d="M8.22628 14.0962C8.01716 14.1019 7.81226 14.0369 7.64462 13.9117C7.27557 13.6389 7.15523 13.1094 7.29964 12.4034C7.48211 11.6625 7.81832 10.9682 8.28645 10.3656C9.36953 8.91752 10.7815 8.2075 11.4956 8.76107C11.8646 9.03385 11.985 9.56335 11.8406 10.2653C11.6615 11.0072 11.328 11.7029 10.8618 12.3072C10.0234 13.4183 8.98844 14.0962 8.22628 14.0962ZM8.62742 10.6103C8.19459 11.1667 7.88304 11.8076 7.71282 12.4917C7.6005 13.0212 7.6727 13.4223 7.90537 13.5948C8.35865 13.9358 9.56609 13.3902 10.5609 12.0585C10.9937 11.502 11.3053 10.8612 11.4755 10.1771C11.5878 9.64759 11.5156 9.24645 11.283 9.07396C10.8297 8.72898 9.62225 9.27854 8.62742 10.6103Z" fill="#231F20"/>
<path d="M12.5992 30.836C12.5655 30.8368 12.5322 30.8286 12.5027 30.8124C12.4731 30.7962 12.4483 30.7726 12.4308 30.7438C12.1326 30.3022 11.7749 29.904 11.3677 29.5604C11.3258 29.5279 11.2984 29.4801 11.2917 29.4275C11.2849 29.3748 11.2993 29.3217 11.3316 29.2796C11.3642 29.2379 11.4116 29.2105 11.4639 29.203C11.5163 29.1955 11.5695 29.2086 11.6124 29.2395C12.058 29.6092 12.446 30.0431 12.7637 30.5272C12.7786 30.5489 12.789 30.5734 12.7942 30.5992C12.7995 30.625 12.7995 30.6516 12.7943 30.6774C12.789 30.7033 12.7786 30.7278 12.7637 30.7495C12.7488 30.7712 12.7297 30.7897 12.7075 30.8039C12.675 30.8242 12.6376 30.8353 12.5992 30.836Z" fill="#231F20"/>
<path d="M14.0714 30.2422C14.0268 30.2424 13.9834 30.2275 13.9484 30.1997C13.9134 30.172 13.8889 30.1333 13.8789 30.0898C13.6872 29.5064 13.3096 29.0019 12.8038 28.6537C12.782 28.6389 12.7632 28.62 12.7487 28.598C12.7341 28.576 12.724 28.5514 12.719 28.5255C12.714 28.4996 12.7141 28.473 12.7194 28.4471C12.7246 28.4213 12.7349 28.3967 12.7497 28.3749C12.7644 28.353 12.7833 28.3343 12.8053 28.3197C12.8273 28.3052 12.852 28.2951 12.8779 28.2901C12.9037 28.285 12.9304 28.2852 12.9562 28.2904C12.9821 28.2957 13.0066 28.306 13.0285 28.3207C13.6191 28.7219 14.0561 29.3116 14.268 29.9935C14.279 30.045 14.2697 30.0988 14.2421 30.1436C14.2144 30.1884 14.1705 30.2209 14.1196 30.2342L14.0714 30.2422Z" fill="#231F20"/>
<path d="M10.5932 30.7599C10.563 30.7603 10.5331 30.7537 10.5059 30.7405C10.4787 30.7272 10.4551 30.7078 10.4368 30.6837L10.0758 30.2223C10.0434 30.1803 10.0291 30.1271 10.0358 30.0745C10.0426 30.0219 10.0699 29.9741 10.1119 29.9415C10.1534 29.9088 10.2063 29.8937 10.2589 29.8997C10.3115 29.9057 10.3596 29.9323 10.3927 29.9736L10.7537 30.435C10.7863 30.4777 10.8007 30.5315 10.794 30.5848C10.7872 30.638 10.7598 30.6865 10.7176 30.7198C10.6818 30.7466 10.638 30.7608 10.5932 30.7599Z" fill="#231F20"/>
<path d="M26.9718 21.0481C26.9246 21.048 26.879 21.0309 26.8434 21L24.0796 18.6774C24.0386 18.6428 24.013 18.5933 24.0085 18.5399C24.004 18.4865 24.0209 18.4335 24.0555 18.3925C24.0901 18.3516 24.1395 18.326 24.1929 18.3215C24.2463 18.317 24.2993 18.3339 24.3403 18.3685L27.1001 20.6951C27.121 20.7114 27.1382 20.7318 27.1508 20.7551C27.1634 20.7783 27.171 20.8039 27.1733 20.8303C27.1755 20.8566 27.1724 20.8831 27.1639 20.9082C27.1555 20.9332 27.142 20.9563 27.1242 20.9759C27.106 20.9987 27.0827 21.0171 27.0563 21.0296C27.0299 21.0421 27.001 21.0484 26.9718 21.0481Z" fill="white"/>
<path d="M26.6388 21.658C26.5916 21.6578 26.546 21.6408 26.5104 21.6098L23.7465 19.2872C23.7263 19.2701 23.7095 19.2491 23.6974 19.2256C23.6852 19.202 23.6778 19.1762 23.6755 19.1498C23.6733 19.1233 23.6763 19.0967 23.6843 19.0714C23.6924 19.0461 23.7053 19.0227 23.7225 19.0024C23.7396 18.9821 23.7605 18.9654 23.7841 18.9532C23.8077 18.941 23.8334 18.9336 23.8599 18.9314C23.8863 18.9291 23.913 18.9321 23.9383 18.9402C23.9635 18.9483 23.987 18.9612 24.0073 18.9783L26.7671 21.305C26.7982 21.3315 26.8204 21.3669 26.8308 21.4064C26.8411 21.4458 26.8392 21.4876 26.8253 21.5259C26.8113 21.5643 26.786 21.5975 26.7527 21.6211C26.7193 21.6447 26.6796 21.6576 26.6388 21.658Z" fill="white"/>
<path d="M26.2379 22.3599C26.1907 22.3597 26.1451 22.3427 26.1095 22.3117L23.3457 19.9891C23.3047 19.9545 23.2792 19.9051 23.2746 19.8517C23.2701 19.7983 23.287 19.7453 23.3216 19.7043C23.3562 19.6633 23.4056 19.6378 23.459 19.6333C23.5124 19.6288 23.5654 19.6457 23.6064 19.6802L26.3663 22.0069C26.3973 22.0334 26.4195 22.0688 26.4299 22.1083C26.4403 22.1477 26.4384 22.1895 26.4244 22.2278C26.4105 22.2662 26.3851 22.2994 26.3518 22.323C26.3185 22.3466 26.2787 22.3595 26.2379 22.3599Z" fill="white"/>
<path d="M34.2607 82.2221C34.2345 82.2201 34.2089 82.2128 34.1856 82.2008C34.1622 82.1887 34.1415 82.1721 34.1247 82.1519C34.1078 82.1317 34.0952 82.1084 34.0876 82.0832C34.0799 82.0581 34.0774 82.0316 34.0802 82.0055L37.4097 46.003C37.4123 45.9767 37.4201 45.9511 37.4326 45.9278C37.4451 45.9045 37.4621 45.8839 37.4826 45.8671C37.5031 45.8503 37.5267 45.8378 37.552 45.8301C37.5773 45.8225 37.6039 45.8199 37.6303 45.8225C37.6566 45.8252 37.6822 45.833 37.7055 45.8455C37.7288 45.858 37.7495 45.875 37.7662 45.8955C37.783 45.9159 37.7956 45.9395 37.8032 45.9649C37.8109 45.9902 37.8134 46.0168 37.8108 46.0432L34.4573 82.0336C34.4552 82.0843 34.4336 82.1322 34.3969 82.1674C34.3603 82.2025 34.3115 82.2221 34.2607 82.2221Z" fill="#231F20"/>
<path d="M86.7137 95.6204L97.003 72.7794L65.5294 58.9641L55.2441 81.8051L86.7137 95.6204Z" fill="white"/>
<path d="M86.7134 95.8248C86.6856 95.8305 86.657 95.8305 86.6292 95.8248L55.1596 81.9935C55.1344 81.9832 55.1114 81.9679 55.0921 81.9486C55.0729 81.9294 55.0576 81.9064 55.0473 81.8811C55.0272 81.8295 55.0272 81.7723 55.0473 81.7207L65.3366 58.8797C65.3602 58.8308 65.4015 58.7927 65.4523 58.7733C65.503 58.7539 65.5592 58.7547 65.6094 58.7754L97.0789 72.5907C97.1042 72.6012 97.1271 72.6166 97.1463 72.6361C97.1655 72.6556 97.1806 72.6788 97.1907 72.7042C97.2008 72.7296 97.2057 72.7568 97.2051 72.7842C97.2045 72.8115 97.1984 72.8385 97.1872 72.8635L86.902 95.7045C86.886 95.741 86.8596 95.7719 86.826 95.7934C86.7924 95.8148 86.7533 95.8257 86.7134 95.8248ZM55.5207 81.7046L86.6131 95.3434L96.7299 72.8795L65.6375 59.2407L55.5207 81.7046Z" fill="#231F20"/>
<path d="M61.7584 74.6926L64.5423 68.507C64.6843 68.1601 64.756 67.7885 64.7532 67.4137C64.7505 67.0389 64.6734 66.6684 64.5264 66.3236C64.3793 65.9788 64.1654 65.6667 63.8968 65.4052C63.6282 65.1437 63.3104 64.9382 62.9618 64.8005L62.2037 64.4675L57.1533 75.6875L57.9115 76.0204C58.5986 76.3484 59.3872 76.3929 60.1069 76.1445C60.8267 75.8961 61.4198 75.3746 61.7584 74.6926Z" fill="white"/>
<path d="M59.1798 76.4898C58.7144 76.4889 58.2542 76.3919 57.828 76.205L57.0698 75.872C57.0185 75.8496 56.9781 75.8078 56.9575 75.7557C56.9373 75.7041 56.9373 75.6468 56.9575 75.5953L62.0038 64.3633C62.0266 64.3137 62.0679 64.275 62.1189 64.2555C62.1699 64.236 62.2265 64.2372 62.2766 64.259L63.0388 64.592C63.8314 64.9354 64.4558 65.5786 64.7757 66.381C64.9143 66.731 64.981 67.1052 64.9721 67.4815C64.9631 67.8577 64.8786 68.2283 64.7236 68.5713L61.9397 74.7769C61.6934 75.2978 61.3019 75.7366 60.8124 76.0404C60.3228 76.3443 59.7559 76.5003 59.1798 76.4898ZM57.4268 75.5752L57.9964 75.8239C58.6312 76.1305 59.3609 76.1762 60.029 75.9513C60.6971 75.7263 61.2505 75.2486 61.5706 74.6205L64.3465 68.4229C64.4781 68.1291 64.5495 67.812 64.5564 67.4902C64.5632 67.1685 64.5055 66.8486 64.3866 66.5495C64.25 66.2024 64.0455 65.8859 63.7851 65.6187C63.5248 65.3515 63.2138 65.1388 62.8703 64.9931L62.3007 64.7404L57.4268 75.5752Z" fill="#231F20"/>
<path d="M85.1453 92.3711C85.1189 92.3771 85.0915 92.3771 85.0651 92.3711L61.3616 82.0738C61.337 82.0633 61.3147 82.0479 61.2961 82.0286C61.2775 82.0093 61.263 81.9865 61.2533 81.9615C61.2333 81.9126 61.2333 81.8579 61.2533 81.809L69.4166 63.6935C69.4392 63.6459 69.4794 63.6089 69.5288 63.5902C69.5781 63.5715 69.6328 63.5726 69.6813 63.5932L92.9475 73.9186C92.9713 73.929 92.9928 73.9441 93.0107 73.9629C93.0287 73.9816 93.0427 74.0038 93.052 74.028C93.0614 74.0523 93.0658 74.0782 93.0651 74.1041C93.0643 74.1301 93.0585 74.1557 93.0478 74.1793L85.3178 92.2668C85.2954 92.3158 85.2553 92.3545 85.2055 92.3751L85.1453 92.3711ZM61.7106 81.7729L85.041 91.9058L92.6146 74.1874L69.7094 64.0264L61.7106 81.7729Z" fill="#D1D3D4"/>
<path d="M64.4946 83.4015C64.468 83.4053 64.441 83.4053 64.4144 83.4015C64.366 83.3795 64.3281 83.3396 64.3087 83.2902C64.2892 83.2408 64.2897 83.1858 64.3101 83.1367L72.2366 64.945C72.2472 64.9207 72.2624 64.8988 72.2814 64.8805C72.3004 64.8621 72.3228 64.8477 72.3474 64.838C72.372 64.8283 72.3983 64.8235 72.4247 64.824C72.4511 64.8245 72.4772 64.8301 72.5014 64.8407C72.5256 64.8512 72.5475 64.8664 72.5659 64.8854C72.5843 64.9044 72.5987 64.9269 72.6084 64.9514C72.6181 64.976 72.6228 65.0023 72.6224 65.0287C72.6219 65.0551 72.6162 65.0812 72.6057 65.1054L64.6791 83.2972C64.6612 83.3301 64.6344 83.3573 64.6018 83.3757C64.5692 83.3941 64.532 83.4031 64.4946 83.4015Z" fill="#D1D3D4"/>
<path d="M86.6735 88.9493C86.6456 88.9488 86.6182 88.9419 86.5933 88.9293L62.9621 78.4996C62.9131 78.4778 62.8749 78.4374 62.8557 78.3874C62.8365 78.3374 62.838 78.2818 62.8598 78.2328C62.8816 78.1839 62.9219 78.1456 62.972 78.1264C63.022 78.1072 63.0776 78.1087 63.1265 78.1305L86.7538 88.5602C86.8021 88.5822 86.84 88.6221 86.8595 88.6715C86.8789 88.7209 86.8784 88.7759 86.8581 88.825C86.843 88.8616 86.8175 88.8929 86.7846 88.9151C86.7518 88.9372 86.7131 88.9491 86.6735 88.9493Z" fill="#D1D3D4"/>
<path d="M84.3149 79.1615C83.1114 83.2933 80.0387 91.3803 78.5224 92.0261C77.0061 92.672 72.0399 90.7344 70.9769 89.8359C69.9139 88.9373 75.1287 85.2789 75.1287 85.2789C75.1287 85.2789 72.6738 85.2789 72.2566 84.0153C71.8394 82.7517 76.7092 82.5632 76.7092 82.5632C77.3912 82.162 77.1906 78.1747 77.2307 77.5048C77.4473 74.1152 77.6038 70.7215 77.7522 67.3278C77.9247 63.4167 78.025 59.305 78.723 55.446C79.1241 53.1475 79.9264 50.7206 81.8198 49.3567C82.3313 48.9663 82.9407 48.7248 83.5808 48.6587C85.7349 48.5063 87.6764 50.4117 88.4827 52.2329C89.265 53.9939 89.3733 55.9715 89.3452 57.897C89.2168 65.5388 86.3647 72.0011 84.3149 79.1615Z" fill="white"/>
<path d="M77.708 92.355C75.598 92.355 71.7751 90.7745 70.8485 89.9883C70.7748 89.9273 70.7167 89.8497 70.679 89.7618C70.6414 89.6739 70.6252 89.5782 70.6318 89.4828C70.684 88.3917 73.4037 86.2737 74.551 85.4434C73.7487 85.3631 72.3928 85.0743 72.0679 84.0755C72.0336 83.979 72.0233 83.8756 72.038 83.7742C72.0527 83.6728 72.0919 83.5766 72.1522 83.4938C72.786 82.5872 76.0312 82.3947 76.6369 82.3666C77.0381 81.9655 77.0381 79.2136 77.0381 78.287C77.0381 77.9099 77.0381 77.6371 77.0381 77.4847C77.2547 74.0991 77.4071 70.7375 77.5595 67.3118L77.6197 65.9359C77.7641 62.4379 77.9166 58.8196 78.5343 55.4019C78.8833 53.4644 79.5973 50.7085 81.7114 49.1842C82.2502 48.769 82.8954 48.5146 83.5726 48.4501C85.7869 48.3017 87.8087 50.1911 88.6752 52.1406C89.4975 53.9979 89.5817 56.0918 89.5537 57.893C89.4614 63.6614 87.8488 68.6676 86.1399 73.9667C85.5904 75.6675 85.0248 77.4286 84.5153 79.2056C83.5406 82.6033 80.3555 91.4605 78.6105 92.2026C78.3227 92.3125 78.0159 92.3643 77.708 92.355ZM75.1286 85.0783C75.1709 85.0784 75.2121 85.0915 75.2465 85.116C75.281 85.1404 75.3071 85.1749 75.3212 85.2147C75.3337 85.256 75.3331 85.3002 75.3194 85.3411C75.3058 85.3821 75.2798 85.4178 75.245 85.4434C73.6404 86.5666 71.0731 88.6525 71.033 89.5029C71.029 89.536 71.0336 89.5696 71.0462 89.6005C71.0589 89.6314 71.0792 89.6585 71.1052 89.6794C72.2163 90.6221 77.0661 92.4272 78.4461 91.8416C79.7618 91.28 82.7944 83.7265 84.1182 79.1053C84.6317 77.3202 85.2013 75.5552 85.7508 73.8544C87.4477 68.5834 89.0563 63.6052 89.1445 57.893C89.1686 56.136 89.0924 54.0982 88.3021 52.3131C87.5119 50.528 85.6145 48.7028 83.5927 48.8593C82.9904 48.9196 82.4175 49.1491 81.94 49.5211C79.9343 50.9572 79.2604 53.6088 78.9194 55.4821C78.3057 58.8718 78.1572 62.478 78.0128 65.9599L77.9527 67.3358C77.8002 70.7656 77.6478 74.1272 77.4312 77.5168V78.283C77.4312 80.8623 77.3509 82.4188 76.8134 82.7356C76.7855 82.7527 76.7538 82.7623 76.7212 82.7637C75.3011 82.8239 72.8943 83.1328 72.4851 83.7225C72.4607 83.7547 72.4449 83.7926 72.4393 83.8326C72.4337 83.8726 72.4384 83.9134 72.453 83.9511C72.818 85.0663 75.0765 85.0783 75.1326 85.0783H75.1286Z" fill="#231F20"/>
<path d="M59.8691 35.9746C75.5538 40.1344 84.6597 46.8054 86.9221 49.2123L77.6638 61.1181L63.5436 54.724L59.8691 35.9746Z" fill="#68E1FD"/>
<path d="M77.6643 61.3026C77.6365 61.3081 77.6079 61.3081 77.58 61.3026L65.9831 55.5623C65.9582 55.5539 65.9354 55.5403 65.9162 55.5224C65.897 55.5046 65.8818 55.4828 65.8717 55.4586C65.8616 55.4344 65.8567 55.4083 65.8575 55.3821C65.8583 55.3558 65.8646 55.3301 65.8761 55.3065C65.8876 55.2829 65.904 55.2621 65.9242 55.2453C65.9444 55.2286 65.9679 55.2163 65.9933 55.2094C66.0186 55.2025 66.0451 55.2011 66.071 55.2052C66.0969 55.2093 66.1216 55.2189 66.1435 55.2333L77.7445 60.9737C77.7878 60.9953 77.821 61.033 77.8367 61.0788C77.8525 61.1246 77.8496 61.1747 77.8287 61.2184C77.8109 61.2453 77.7864 61.2673 77.7575 61.282C77.7287 61.2968 77.6966 61.3039 77.6643 61.3026Z" fill="#231F20"/>
</svg>
