<svg width="113" height="89" viewBox="0 0 113 89" fill="none" xmlns="http://www.w3.org/2000/svg">
<path d="M2.92871 29.9258H28.3484V43.437C28.3484 43.5862 28.319 43.734 28.2619 43.8719C28.2048 44.0098 28.1211 44.135 28.0155 44.2406C27.91 44.3461 27.7847 44.4298 27.6469 44.4869C27.509 44.544 27.3612 44.5734 27.212 44.5734H4.06516C3.91592 44.5734 3.76814 44.544 3.63026 44.4869C3.49238 44.4298 3.3671 44.3461 3.26157 44.2406C3.15604 44.135 3.07233 44.0098 3.01522 43.8719C2.95811 43.734 2.92871 43.5862 2.92871 43.437V29.9258Z" fill="white"/>
<path d="M27.2069 45.0737H4.06502C3.85095 45.0731 3.63911 45.0302 3.44165 44.9475C3.24418 44.8649 3.06496 44.7441 2.91427 44.592C2.76358 44.44 2.64437 44.2597 2.56349 44.0615C2.4826 43.8633 2.44162 43.6511 2.4429 43.437V29.921C2.4429 29.7922 2.49407 29.6686 2.58515 29.5776C2.67623 29.4865 2.79976 29.4353 2.92856 29.4353H28.3483C28.4771 29.4353 28.6006 29.4865 28.6917 29.5776C28.7828 29.6686 28.8339 29.7922 28.8339 29.921V43.437C28.8352 43.6515 28.7941 43.8641 28.7129 44.0626C28.6317 44.2611 28.512 44.4416 28.3608 44.5937C28.2096 44.7459 28.0298 44.8666 27.8318 44.9489C27.6338 45.0313 27.4214 45.0737 27.2069 45.0737ZM3.40937 30.4066V43.437C3.40937 43.6101 3.47778 43.7761 3.59969 43.8989C3.7216 44.0217 3.88712 44.0914 4.06016 44.0927H27.2021C27.376 44.0927 27.5427 44.0236 27.6657 43.9006C27.7887 43.7777 27.8577 43.6109 27.8577 43.437V30.4066H3.40937Z" fill="#093F68"/>
<path d="M4.06516 27.2595H27.2071C27.5085 27.2595 27.7976 27.3793 28.0107 27.5924C28.2238 27.8055 28.3435 28.0946 28.3435 28.396V29.921H2.92871V28.3814C2.93254 28.0825 3.05396 27.7972 3.26668 27.5872C3.47939 27.3772 3.76627 27.2595 4.06516 27.2595Z" fill="#68E1FD"/>
<path d="M28.3482 30.4066H2.92854C2.79973 30.4066 2.6762 30.3554 2.58512 30.2644C2.49404 30.1733 2.44287 30.0498 2.44287 29.921V28.3814C2.44415 27.9516 2.61547 27.5397 2.91939 27.2358C3.22332 26.9319 3.63517 26.7606 4.06499 26.7593H27.2069C27.6376 26.7593 28.0507 26.93 28.3557 27.2341C28.6606 27.5382 28.8326 27.9507 28.8339 28.3814V29.9064C28.8358 29.9714 28.8247 30.0361 28.8012 30.0967C28.7777 30.1573 28.7422 30.2126 28.6969 30.2593C28.6516 30.3059 28.5974 30.343 28.5375 30.3683C28.4776 30.3936 28.4133 30.4066 28.3482 30.4066ZM3.4142 29.4353H27.8626V28.3814C27.8626 28.2955 27.8456 28.2105 27.8126 28.1312C27.7796 28.0519 27.7312 27.98 27.6702 27.9195C27.6093 27.859 27.537 27.8112 27.4575 27.7787C27.3779 27.7463 27.2928 27.73 27.2069 27.7306H4.06499C3.89239 27.7306 3.72686 27.7992 3.60481 27.9212C3.48277 28.0433 3.4142 28.2088 3.4142 28.3814V29.4353Z" fill="#093F68"/>
<path d="M52.9863 44.9182H60.0819V51.8729H52.9863V44.9182Z" fill="#FFC9B0"/>
<path d="M60.0817 52.3587H52.9862C52.8573 52.3587 52.7338 52.3075 52.6427 52.2164C52.5517 52.1253 52.5005 52.0018 52.5005 51.873V44.9183C52.5005 44.7895 52.5517 44.6659 52.6427 44.5749C52.7338 44.4838 52.8573 44.4326 52.9862 44.4326H60.0817C60.2105 44.4326 60.334 44.4838 60.4251 44.5749C60.5162 44.6659 60.5674 44.7895 60.5674 44.9183V51.873C60.5674 52.0018 60.5162 52.1253 60.4251 52.2164C60.334 52.3075 60.2105 52.3587 60.0817 52.3587ZM53.4718 51.3873H59.596V45.4039H53.4718V51.3873Z" fill="#093F68"/>
<path d="M54.4967 53.8157H58.5714C63.8048 53.8157 68.8239 55.8946 72.5245 59.5952C76.225 63.2958 78.304 68.3148 78.304 73.5482V87.5402H34.7642V73.5482C34.7642 68.3148 36.8431 63.2958 40.5437 59.5952C44.2443 55.8946 49.2633 53.8157 54.4967 53.8157Z" fill="#68E1FD"/>
<path d="M78.3038 88.026H34.764C34.6352 88.026 34.5116 87.9748 34.4206 87.8837C34.3295 87.7926 34.2783 87.6691 34.2783 87.5403V73.5483C34.2847 68.1881 36.4169 63.0492 40.2072 59.259C43.9975 55.4687 49.1363 53.3365 54.4965 53.3301H58.5713C63.9315 53.3365 69.0704 55.4687 72.8606 59.259C76.6509 63.0492 78.7831 68.1881 78.7895 73.5483V87.5403C78.7895 87.6691 78.7383 87.7926 78.6472 87.8837C78.5562 87.9748 78.4326 88.026 78.3038 88.026ZM35.2496 87.0546H77.8182V73.5483C77.8117 68.4457 75.7819 63.5539 72.1738 59.9458C68.5657 56.3377 63.6739 54.3078 58.5713 54.3014H54.4965C49.3939 54.3078 44.5021 56.3377 40.894 59.9458C37.2859 63.5539 35.2561 68.4457 35.2496 73.5483V87.0546Z" fill="#093F68"/>
<path d="M68.2698 88.026C68.141 88.026 68.0175 87.9748 67.9264 87.8837C67.8353 87.7926 67.7842 87.6691 67.7842 87.5403V62.7423C67.7842 62.6135 67.8353 62.4899 67.9264 62.3988C68.0175 62.3078 68.141 62.2566 68.2698 62.2566C68.3987 62.2566 68.5222 62.3078 68.6133 62.3988C68.7043 62.4899 68.7555 62.6135 68.7555 62.7423V87.5403C68.7555 87.6691 68.7043 87.7926 68.6133 87.8837C68.5222 87.9748 68.3987 88.026 68.2698 88.026Z" fill="#093F68"/>
<path d="M44.7977 88.026C44.6689 88.026 44.5453 87.9748 44.4543 87.8837C44.3632 87.7926 44.312 87.6691 44.312 87.5403V62.7423C44.312 62.6135 44.3632 62.4899 44.4543 62.3988C44.5453 62.3078 44.6689 62.2566 44.7977 62.2566C44.9265 62.2566 45.05 62.3078 45.1411 62.3988C45.2322 62.4899 45.2833 62.6135 45.2833 62.7423V87.5403C45.2833 87.6691 45.2322 87.7926 45.1411 87.8837C45.05 87.9748 44.9265 88.026 44.7977 88.026Z" fill="#093F68"/>
<path d="M54.001 0.698486H59.2267C63.5327 0.698486 67.6623 2.40904 70.7071 5.45383C73.7519 8.49863 75.4625 12.6283 75.4625 16.9343V25.9531H37.7749V16.9343C37.7749 12.6299 39.4841 8.50179 42.5268 5.45727C45.5695 2.41275 49.6967 0.701061 54.001 0.698486Z" fill="#725858"/>
<path d="M75.4628 26.4388H37.7752C37.6464 26.4388 37.5229 26.3876 37.4318 26.2965C37.3407 26.2055 37.2896 26.0819 37.2896 25.9531V16.9343C37.2947 12.5028 39.0567 8.25408 42.1894 5.11959C45.3221 1.9851 49.5697 0.220601 54.0013 0.212891H59.227C63.6603 0.218032 67.9104 1.9814 71.0452 5.11616C74.18 8.25093 75.9433 12.5011 75.9485 16.9343V25.9531C75.9485 26.0819 75.8973 26.2055 75.8062 26.2965C75.7151 26.3876 75.5916 26.4388 75.4628 26.4388ZM38.2609 25.4675H74.9771V16.9343C74.972 12.7587 73.311 8.7556 70.3584 5.803C67.4058 2.85039 63.4026 1.18936 59.227 1.18422H54.0013C49.8274 1.19193 45.8267 2.8541 42.8762 5.80642C39.9257 8.75875 38.266 12.7604 38.2609 16.9343V25.4675Z" fill="#093F68"/>
<path d="M41.2281 32.1648C44.1276 32.1648 46.4781 29.9012 46.4781 27.109C46.4781 24.3168 44.1276 22.0532 41.2281 22.0532C38.3285 22.0532 35.978 24.3168 35.978 27.109C35.978 29.9012 38.3285 32.1648 41.2281 32.1648Z" fill="#FFC9B0"/>
<path d="M41.228 32.6504C40.1397 32.6132 39.0864 32.2565 38.1994 31.6246C37.3125 30.9928 36.6312 30.1139 36.2405 29.0975C35.8497 28.081 35.7668 26.9721 36.0021 25.9088C36.2374 24.8456 36.7805 23.8752 37.5637 23.1185C38.3469 22.3619 39.3354 21.8526 40.4061 21.654C41.4768 21.4555 42.5823 21.5765 43.5847 22.002C44.587 22.4275 45.442 23.1387 46.0429 24.0469C46.6437 24.955 46.964 26.02 46.9637 27.1089C46.9356 28.6036 46.3161 30.0262 45.241 31.0649C44.1658 32.1037 42.7227 32.6738 41.228 32.6504ZM41.228 22.5388C40.3319 22.576 39.4666 22.8756 38.7394 23.4006C38.0123 23.9255 37.4555 24.6526 37.1383 25.4914C36.821 26.3303 36.7573 27.2438 36.955 28.1186C37.1527 28.9933 37.6032 29.7907 38.2504 30.4115C38.8976 31.0323 39.713 31.4492 40.5952 31.6104C41.4774 31.7715 42.3876 31.6699 43.2125 31.318C44.0374 30.9661 44.7406 30.3795 45.2349 29.6312C45.7291 28.8829 45.9925 28.0058 45.9924 27.1089C45.9605 25.8744 45.4417 24.7026 44.5491 23.8492C43.6566 22.9957 42.4627 22.5299 41.228 22.5534V22.5388Z" fill="#093F68"/>
<path d="M71.8394 32.1648C74.7389 32.1648 77.0894 29.9012 77.0894 27.109C77.0894 24.3168 74.7389 22.0532 71.8394 22.0532C68.9399 22.0532 66.5894 24.3168 66.5894 27.109C66.5894 29.9012 68.9399 32.1648 71.8394 32.1648Z" fill="#FFC9B0"/>
<path d="M71.8394 32.6505C70.7524 32.6086 69.7016 32.2479 68.818 31.6133C67.9343 30.9788 67.2568 30.0983 66.8698 29.0816C66.4827 28.0649 66.4032 26.9569 66.6411 25.8953C66.879 24.8338 67.4239 23.8656 68.2079 23.1114C68.9918 22.3572 69.9803 21.8501 71.0503 21.6534C72.1202 21.4567 73.2244 21.579 74.2254 22.0051C75.2264 22.4312 76.0799 23.1422 76.6798 24.0497C77.2798 24.9573 77.5996 26.0212 77.5994 27.109C77.5855 27.8512 77.4255 28.5834 77.1284 29.2637C76.8313 29.944 76.4031 30.5591 75.8681 31.0737C75.3331 31.5884 74.702 31.9926 74.0107 32.2631C73.3194 32.5337 72.5816 32.6653 71.8394 32.6505ZM71.8394 22.5389C70.9436 22.577 70.0788 22.8775 69.3523 23.403C68.6259 23.9285 68.0698 24.6558 67.7533 25.4947C67.4368 26.3336 67.3737 27.247 67.572 28.1214C67.7702 28.9958 68.221 29.7927 68.8684 30.413C69.5158 31.0333 70.3311 31.4498 71.2132 31.6106C72.0953 31.7714 73.0051 31.6694 73.8298 31.3174C74.6544 30.9655 75.3574 30.3789 75.8514 29.6307C76.3455 28.8825 76.6088 28.0056 76.6087 27.109C76.5768 25.8737 76.0574 24.7011 75.1637 23.8475C74.2701 22.9939 73.075 22.5287 71.8394 22.5535V22.5389Z" fill="#093F68"/>
<path d="M72.8351 21.7764V33.3741C72.8351 35.5149 72.4134 37.6347 71.594 39.6125C70.7746 41.5903 69.5735 43.3873 68.0595 44.9009C66.5455 46.4144 64.7482 47.6149 62.7701 48.4337C60.7921 49.2525 58.6721 49.6736 56.5313 49.673C52.2086 49.673 48.0629 47.9558 45.0063 44.8991C41.9496 41.8425 40.2324 37.6968 40.2324 33.3741V21.7764C40.2324 3.59797 46.9977 16.3321 56.5313 16.3321C66.0649 16.3321 72.8351 3.61254 72.8351 21.7764Z" fill="#FFC9B0"/>
<path d="M56.5312 50.1588C52.0812 50.1536 47.815 48.3836 44.6683 45.237C41.5217 42.0904 39.7517 37.8242 39.7466 33.3742V21.7765C39.7466 15.8466 40.4362 12.8889 42.0584 11.8884C43.6805 10.8879 45.6231 11.9321 48.1583 13.2045C50.6206 14.443 53.4132 15.8466 56.5312 15.8466C59.6491 15.8466 62.4466 14.443 64.9089 13.2045C67.444 11.9321 69.445 10.9268 71.0088 11.8884C72.5727 12.85 73.3206 15.8466 73.3206 21.7765V33.3742C73.3154 37.825 71.5448 42.092 68.3971 45.2387C65.2494 48.3855 60.982 50.1549 56.5312 50.1588ZM43.4765 12.4809C43.1579 12.4724 42.8434 12.5532 42.5683 12.714C41.325 13.4814 40.7179 16.4488 40.7179 21.7765V33.3742C40.7906 37.5208 42.4888 41.473 45.4469 44.3797C48.405 47.2864 52.3864 48.9151 56.5336 48.9151C60.6808 48.9151 64.6621 47.2864 67.6202 44.3797C70.5784 41.473 72.2766 37.5208 72.3493 33.3742V21.7765C72.3493 16.4342 71.7422 13.4814 70.4989 12.714C69.3964 12.0389 67.6092 12.9374 65.346 14.0739C62.9177 15.2977 59.8822 16.8179 56.5312 16.8179C53.1801 16.8179 50.1544 15.2977 47.7212 14.0739C46.0019 13.2094 44.5741 12.4809 43.4765 12.4809Z" fill="#093F68"/>
<path d="M72.8302 29.1633V33.374C72.8302 37.6968 71.113 41.8425 68.0564 44.8991C64.9998 47.9557 60.8541 49.673 56.5313 49.673C52.2086 49.673 48.0629 47.9557 45.0063 44.8991C41.9496 41.8425 40.2324 37.6968 40.2324 33.374V29.1633C40.235 32.0587 41.0072 34.9014 42.4699 37.4001C43.9326 39.8989 46.0333 41.9639 48.5567 43.3836C49.4066 40.5473 52.7043 37.2351 56.5313 37.2351C60.3584 37.2351 63.656 40.5473 64.5059 43.3836C67.0317 41.9666 69.1343 39.9022 70.5974 37.4029C72.0605 34.9035 72.8312 32.0594 72.8302 29.1633Z" fill="#725858"/>
<path d="M56.5312 50.1635C52.08 50.1597 47.8122 48.3894 44.6652 45.2415C41.5182 42.0935 39.7492 37.8253 39.7466 33.3741V29.1634C39.7466 29.0346 39.7977 28.9111 39.8888 28.82C39.9799 28.7289 40.1034 28.6777 40.2322 28.6777C40.3611 28.6777 40.4846 28.7289 40.5757 28.82C40.6667 28.9111 40.7179 29.0346 40.7179 29.1634C40.7216 31.8738 41.42 34.538 42.7464 36.9016C44.0727 39.2653 45.9828 41.2495 48.2943 42.6649C49.4599 39.7169 52.7673 36.7495 56.5506 36.7495C60.3339 36.7495 63.6267 39.7169 64.8069 42.6649C67.1187 41.2499 69.029 39.2657 70.3554 36.902C71.6818 34.5382 72.38 31.8739 72.3833 29.1634C72.3833 29.0346 72.4344 28.9111 72.5255 28.82C72.6166 28.7289 72.7401 28.6777 72.8689 28.6777C72.9977 28.6777 73.1213 28.7289 73.2123 28.82C73.3034 28.9111 73.3546 29.0346 73.3546 29.1634V33.3741C73.3494 37.8313 71.5742 42.1039 68.4194 45.2524C65.2645 48.4009 60.9883 50.1674 56.5312 50.1635ZM40.8102 35.0545C41.2252 38.9389 43.0632 42.5322 45.9701 45.1418C48.877 47.7515 52.647 49.1928 56.5535 49.188C60.46 49.1831 64.2264 47.7325 67.1268 45.1157C70.0273 42.4989 71.8565 38.901 72.2618 35.0157C70.875 38.7432 68.2111 41.858 64.7437 43.8062C64.6803 43.8411 64.6099 43.8614 64.5377 43.8656C64.4654 43.8698 64.3931 43.8578 64.3261 43.8305C64.2589 43.803 64.1987 43.7608 64.1499 43.707C64.1012 43.6533 64.0651 43.5892 64.0444 43.5196C63.2042 40.7222 59.9842 37.7208 56.5312 37.7208C53.0781 37.7208 49.863 40.7222 49.0228 43.5196C49.002 43.5892 48.966 43.6533 48.9172 43.707C48.8685 43.7608 48.8083 43.803 48.7411 43.8305C48.6741 43.8578 48.6018 43.8698 48.5295 43.8656C48.4572 43.8614 48.3868 43.8411 48.3234 43.8062C44.8728 41.8617 42.2139 38.768 40.8102 35.0642V35.0545Z" fill="#093F68"/>
<path d="M48.8481 27.4149C49.7037 27.4149 50.3974 26.7213 50.3974 25.8657C50.3974 25.01 49.7037 24.3164 48.8481 24.3164C47.9925 24.3164 47.2988 25.01 47.2988 25.8657C47.2988 26.7213 47.9925 27.4149 48.8481 27.4149Z" fill="#093F68"/>
<path d="M64.8217 27.4149C65.6774 27.4149 66.371 26.7213 66.371 25.8657C66.371 25.01 65.6774 24.3164 64.8217 24.3164C63.9661 24.3164 63.2725 25.01 63.2725 25.8657C63.2725 26.7213 63.9661 27.4149 64.8217 27.4149Z" fill="#093F68"/>
<path d="M51.4367 20.4116H45.06C44.9537 20.4201 44.8469 20.4064 44.7462 20.3716C44.6455 20.3367 44.5531 20.2814 44.4748 20.2091C44.3965 20.1368 44.3341 20.0491 44.2913 19.9514C44.2486 19.8538 44.2266 19.7484 44.2266 19.6418C44.2266 19.5353 44.2486 19.4299 44.2913 19.3322C44.3341 19.2346 44.3965 19.1469 44.4748 19.0746C44.5531 19.0023 44.6455 18.947 44.7462 18.9121C44.8469 18.8772 44.9537 18.8636 45.06 18.8721H51.4416C51.5478 18.8636 51.6547 18.8772 51.7554 18.9121C51.8561 18.947 51.9485 19.0023 52.0267 19.0746C52.105 19.1469 52.1675 19.2346 52.2102 19.3322C52.2529 19.4299 52.275 19.5353 52.275 19.6418C52.275 19.7484 52.2529 19.8538 52.2102 19.9514C52.1675 20.0491 52.105 20.1368 52.0267 20.2091C51.9485 20.2814 51.8561 20.3367 51.7554 20.3716C51.6547 20.4064 51.5478 20.4201 51.4416 20.4116H51.4367Z" fill="#093F68"/>
<path d="M68.0129 20.4116H61.6312C61.525 20.4201 61.4182 20.4064 61.3175 20.3716C61.2168 20.3367 61.1244 20.2814 61.0461 20.2091C60.9678 20.1368 60.9054 20.0491 60.8626 19.9514C60.8199 19.8538 60.7979 19.7484 60.7979 19.6418C60.7979 19.5353 60.8199 19.4299 60.8626 19.3322C60.9054 19.2346 60.9678 19.1469 61.0461 19.0746C61.1244 19.0023 61.2168 18.947 61.3175 18.9121C61.4182 18.8772 61.525 18.8636 61.6312 18.8721H68.0129C68.1191 18.8636 68.2259 18.8772 68.3266 18.9121C68.4273 18.947 68.5197 19.0023 68.598 19.0746C68.6763 19.1469 68.7388 19.2346 68.7815 19.3322C68.8242 19.4299 68.8463 19.5353 68.8463 19.6418C68.8463 19.7484 68.8242 19.8538 68.7815 19.9514C68.7388 20.0491 68.6763 20.1368 68.598 20.2091C68.5197 20.2814 68.4273 20.3367 68.3266 20.3716C68.2259 20.4064 68.1191 20.4201 68.0129 20.4116Z" fill="#093F68"/>
<path d="M56.5316 25.9531C56.5316 25.9531 60.6015 34.0103 58.5374 34.6951C57.9416 34.8938 57.3027 34.9261 56.6899 34.7883C56.077 34.6505 55.5135 34.3479 55.0601 33.9132" fill="#FFC9B0"/>
<path d="M57.4298 35.3654C56.4126 35.3487 55.4393 34.9479 54.7053 34.2435C54.6164 34.1502 54.5683 34.0253 54.5714 33.8964C54.5746 33.7675 54.6289 33.6452 54.7223 33.5563C54.8157 33.4674 54.9405 33.4193 55.0694 33.4225C55.1983 33.4257 55.3206 33.4799 55.4095 33.5733C55.7985 33.9426 56.2805 34.1991 56.8041 34.3154C57.3276 34.4318 57.873 34.4036 58.3817 34.2338C58.4233 34.2189 58.4608 34.1945 58.4912 34.1624C58.5215 34.1303 58.5439 34.0916 58.5566 34.0493C59.0422 32.8303 57.3133 28.5613 56.0991 26.1572C56.0412 26.0419 56.0314 25.9083 56.0719 25.7858C56.1124 25.6633 56.2 25.562 56.3152 25.504C56.4305 25.446 56.5641 25.4362 56.6866 25.4768C56.8091 25.5173 56.9105 25.6048 56.9685 25.7201C57.3084 26.3952 60.2807 32.3932 59.4551 34.4135C59.3909 34.5856 59.2892 34.7411 59.1573 34.8688C59.0254 34.9965 58.8666 35.0932 58.6926 35.1517C58.2866 35.293 57.8597 35.3653 57.4298 35.3654Z" fill="#093F68"/>
<path d="M56.5217 43.1747C55.1627 43.1748 53.8196 42.8833 52.5829 42.32C52.5258 42.2913 52.475 42.2516 52.4332 42.2032C52.3915 42.1549 52.3596 42.0988 52.3396 42.0381C52.3195 41.9775 52.3116 41.9134 52.3162 41.8497C52.3209 41.786 52.3381 41.7238 52.3668 41.6667C52.3955 41.6097 52.4352 41.5588 52.4835 41.517C52.5319 41.4753 52.588 41.4435 52.6486 41.4234C52.7093 41.4033 52.7733 41.3954 52.837 41.4001C52.9008 41.4047 52.9629 41.4219 53.02 41.4506C53.054 41.4506 56.8665 43.3204 60.475 41.0864C60.5845 41.0181 60.7166 40.9961 60.8423 41.0253C60.968 41.0544 61.0769 41.1323 61.1452 41.2418C61.2134 41.3513 61.2354 41.4834 61.2063 41.6091C61.1771 41.7348 61.0993 41.8437 60.9898 41.912C59.649 42.7452 58.1002 43.1829 56.5217 43.1747Z" fill="white"/>
<path d="M61.626 51.1689H51.4465C50.9154 51.1689 50.4849 51.5995 50.4849 52.1306V53.3156C50.4849 53.8467 50.9154 54.2772 51.4465 54.2772H61.626C62.1571 54.2772 62.5876 53.8467 62.5876 53.3156V52.1306C62.5876 51.5995 62.1571 51.1689 61.626 51.1689Z" fill="#68E1FD"/>
<path d="M61.6257 54.7677H51.4267C51.0403 54.7677 50.6697 54.6142 50.3965 54.341C50.1232 54.0678 49.9697 53.6972 49.9697 53.3107V52.1306C49.9697 51.7442 50.1232 51.3736 50.3965 51.1003C50.6697 50.8271 51.0403 50.6736 51.4267 50.6736H61.6257C62.0121 50.6736 62.3827 50.8271 62.6559 51.1003C62.9292 51.3736 63.0827 51.7442 63.0827 52.1306V53.3205C63.0801 53.7052 62.9255 54.0733 62.6525 54.3444C62.3795 54.6156 62.0104 54.7678 61.6257 54.7677ZM51.4267 51.6546C51.2979 51.6546 51.1744 51.7058 51.0833 51.7969C50.9922 51.888 50.9411 52.0115 50.9411 52.1403V53.3302C50.9411 53.459 50.9922 53.5825 51.0833 53.6736C51.1744 53.7647 51.2979 53.8158 51.4267 53.8158H61.6257C61.7545 53.8158 61.878 53.7647 61.9691 53.6736C62.0602 53.5825 62.1113 53.459 62.1113 53.3302V52.1306C62.1113 52.0018 62.0602 51.8782 61.9691 51.7872C61.878 51.6961 61.7545 51.6449 61.6257 51.6449L51.4267 51.6546Z" fill="#093F68"/>
<path d="M15.3224 84.67C23.5167 84.67 30.1595 78.0272 30.1595 69.8329C30.1595 61.6386 23.5167 54.9958 15.3224 54.9958C7.12813 54.9958 0.485352 61.6386 0.485352 69.8329C0.485352 78.0272 7.12813 84.67 15.3224 84.67Z" fill="#F56132"/>
<path d="M15.3227 85.1557C12.2922 85.1557 9.32969 84.257 6.80988 82.5734C4.29007 80.8897 2.32612 78.4966 1.16638 75.6967C0.00663752 72.8969 -0.296801 69.816 0.294429 66.8437C0.88566 63.8714 2.34501 61.1411 4.48793 58.9982C6.63085 56.8553 9.3611 55.3959 12.3334 54.8047C15.3057 54.2135 18.3866 54.5169 21.1865 55.6766C23.9863 56.8364 26.3794 58.8003 28.0631 61.3201C29.7468 63.8399 30.6455 66.8024 30.6455 69.833C30.6403 73.8953 29.0243 77.7897 26.1519 80.6621C23.2794 83.5346 19.385 85.1506 15.3227 85.1557ZM15.3227 55.4816C12.4843 55.4816 9.7096 56.3233 7.34952 57.9002C4.98945 59.4772 3.14999 61.7186 2.06377 64.3409C0.977549 66.9633 0.693343 69.8489 1.2471 72.6328C1.80085 75.4167 3.16768 77.9739 5.17476 79.981C7.18184 81.988 9.73901 83.3549 12.5229 83.9086C15.3068 84.4624 18.1924 84.1782 20.8148 83.0919C23.4371 82.0057 25.6785 80.1663 27.2555 77.8062C28.8324 75.4461 29.6741 72.6714 29.6741 69.833C29.669 66.0283 28.1553 62.381 25.465 59.6907C22.7747 57.0004 19.1274 55.4867 15.3227 55.4816Z" fill="#093F68"/>
<path d="M15.3228 80.9643C21.4706 80.9643 26.4543 75.9806 26.4543 69.8329C26.4543 63.6851 21.4706 58.7014 15.3228 58.7014C9.17512 58.7014 4.19141 63.6851 4.19141 69.8329C4.19141 75.9806 9.17512 80.9643 15.3228 80.9643Z" fill="white"/>
<path d="M15.3227 81.45C13.025 81.45 10.779 80.7687 8.86856 79.4922C6.95813 78.2157 5.46914 76.4013 4.58987 74.2786C3.7106 72.1558 3.48054 69.82 3.92879 67.5665C4.37704 65.313 5.48346 63.2431 7.10814 61.6184C8.73282 59.9937 10.8028 58.8873 13.0563 58.439C15.3098 57.9908 17.6456 58.2209 19.7683 59.1001C21.8911 59.9794 23.7054 61.4684 24.9819 63.3788C26.2584 65.2892 26.9398 67.5353 26.9398 69.8329C26.9295 72.9108 25.7023 75.8597 23.5259 78.0361C21.3495 80.2126 18.4006 81.4398 15.3227 81.45ZM15.3227 59.1872C13.2171 59.1872 11.1589 59.8115 9.4082 60.9813C7.65751 62.1511 6.29302 63.8137 5.48726 65.759C4.68151 67.7042 4.47069 69.8447 4.88146 71.9098C5.29223 73.9749 6.30614 75.8718 7.79498 77.3606C9.28381 78.8495 11.1807 79.8634 13.2458 80.2741C15.3109 80.6849 17.4514 80.4741 19.3966 79.6683C21.3419 78.8626 23.0045 77.4981 24.1743 75.7474C25.3441 73.9967 25.9684 71.9385 25.9684 69.8329C25.9646 67.0107 24.8418 64.3051 22.8461 62.3095C20.8505 60.3138 18.1449 59.191 15.3227 59.1872Z" fill="#093F68"/>
<path d="M15.3227 77.3704C19.4855 77.3704 22.8602 73.9958 22.8602 69.8329C22.8602 65.6701 19.4855 62.2954 15.3227 62.2954C11.1598 62.2954 7.78516 65.6701 7.78516 69.8329C7.78516 73.9958 11.1598 77.3704 15.3227 77.3704Z" fill="#F56132"/>
<path d="M15.3225 77.8562C13.7354 77.8571 12.1838 77.3874 10.8637 76.5064C9.54367 75.6254 8.51456 74.3727 7.90656 72.9067C7.29856 71.4407 7.13898 69.8274 7.44801 68.2707C7.75704 66.7141 8.52079 65.284 9.64266 64.1615C10.7645 63.0389 12.1941 62.2743 13.7506 61.9643C15.3071 61.6544 16.9205 61.813 18.3868 62.4201C19.8532 63.0272 21.1065 64.0555 21.9883 65.3751C22.8701 66.6946 23.3408 68.246 23.3408 69.833C23.3382 71.9593 22.4928 73.9978 20.9897 75.5017C19.4867 77.0056 17.4487 77.8523 15.3225 77.8562ZM15.3225 62.8006C13.9273 62.7996 12.5633 63.2125 11.4028 63.987C10.2424 64.7615 9.33783 65.8628 8.80349 67.1516C8.26915 68.4403 8.12909 69.8586 8.40103 71.227C8.67298 72.5954 9.3447 73.8523 10.3312 74.8388C11.3177 75.8253 12.5747 76.4971 13.9431 76.769C15.3114 77.041 16.7297 76.9009 18.0185 76.3666C19.3072 75.8322 20.4085 74.9276 21.183 73.7672C21.9575 72.6068 22.3704 71.2427 22.3695 69.8476C22.3708 67.9769 21.6292 66.1822 20.3078 64.858C18.9863 63.5339 17.1932 62.7886 15.3225 62.786V62.8006Z" fill="#093F68"/>
<path d="M15.3223 73.8056C17.5164 73.8056 19.2951 72.0269 19.2951 69.8328C19.2951 67.6388 17.5164 65.8601 15.3223 65.8601C13.1283 65.8601 11.3496 67.6388 11.3496 69.8328C11.3496 72.0269 13.1283 73.8056 15.3223 73.8056Z" fill="white"/>
<path d="M15.3227 74.2913C14.4409 74.2913 13.5789 74.0298 12.8457 73.5399C12.1125 73.05 11.5411 72.3537 11.2036 71.5391C10.8662 70.7244 10.7779 69.828 10.9499 68.9631C11.122 68.0983 11.5466 67.3039 12.1701 66.6804C12.7936 66.0568 13.588 65.6322 14.4529 65.4602C15.3177 65.2882 16.2142 65.3764 17.0288 65.7139C17.8435 66.0513 18.5398 66.6228 19.0297 67.356C19.5196 68.0891 19.7811 68.9511 19.7811 69.8329C19.7798 71.015 19.3096 72.1482 18.4738 72.9841C17.638 73.8199 16.5047 74.29 15.3227 74.2913ZM15.3227 66.3458C14.633 66.3458 13.9588 66.5504 13.3853 66.9335C12.8119 67.3167 12.365 67.8613 12.101 68.4985C11.8371 69.1356 11.768 69.8368 11.9026 70.5132C12.0371 71.1896 12.3693 71.811 12.8569 72.2987C13.3446 72.7863 13.9659 73.1184 14.6424 73.253C15.3188 73.3875 16.0199 73.3185 16.6571 73.0546C17.2943 72.7906 17.8389 72.3437 18.2221 71.7702C18.6052 71.1968 18.8097 70.5226 18.8097 69.8329C18.8084 68.9085 18.4406 68.0223 17.787 67.3686C17.1333 66.7149 16.2471 66.3471 15.3227 66.3458Z" fill="#093F68"/>
<path d="M27.6585 57.1669L27.3525 53.5535L30.5094 50.4355L30.9416 53.8012L27.6585 57.1669Z" fill="white"/>
<path d="M27.6584 57.6524C27.6021 57.6523 27.5463 57.6424 27.4933 57.6232C27.4054 57.5918 27.3284 57.5357 27.2715 57.4616C27.2147 57.3875 27.1804 57.2986 27.1728 57.2056L26.8717 53.5971C26.8651 53.5259 26.8744 53.4542 26.8987 53.3871C26.923 53.3199 26.9619 53.2589 27.0125 53.2085L30.1693 50.0906C30.2321 50.029 30.3105 49.9856 30.396 49.9651C30.4816 49.9445 30.5711 49.9476 30.655 49.974C30.7411 50.0033 30.8172 50.0561 30.8747 50.1265C30.9323 50.1969 30.9689 50.2821 30.9804 50.3722L31.4078 53.7379C31.4172 53.811 31.4098 53.8853 31.3863 53.9551C31.3627 54.025 31.3236 54.0885 31.2718 54.141L28.0033 57.5212C27.9101 57.6086 27.7862 57.6557 27.6584 57.6524ZM27.8576 53.7428L28.0615 56.0642L30.4364 53.6359L30.1645 51.4747L27.8576 53.7428Z" fill="#093F68"/>
<path d="M27.7847 56.9677L31.398 57.2736L34.516 54.1168L31.1503 53.6846L27.7847 56.9677Z" fill="white"/>
<path d="M31.3983 57.7594H31.3546L27.7461 57.4534C27.6538 57.4451 27.5657 57.4105 27.4924 57.3537C27.4191 57.2969 27.3636 57.2203 27.3324 57.1329C27.3013 57.0456 27.2958 56.9511 27.3166 56.8608C27.3374 56.7704 27.3836 56.6879 27.4499 56.623L30.8155 53.3399C30.8674 53.2888 30.9302 53.25 30.9991 53.2265C31.0681 53.203 31.1414 53.1952 31.2138 53.2039L34.5794 53.6313C34.6696 53.6427 34.7547 53.6793 34.8251 53.7367C34.8955 53.7942 34.9484 53.8702 34.9778 53.9562C35.0071 54.0422 35.0117 54.1347 34.9911 54.2233C34.9705 54.3118 34.9254 54.3927 34.8611 54.4569L31.7431 57.6137C31.6982 57.6596 31.6445 57.6961 31.5853 57.7211C31.5261 57.7461 31.4626 57.7591 31.3983 57.7594ZM28.8874 56.5744L31.2138 56.7687L33.4818 54.4715L31.3255 54.1995L28.8874 56.5744Z" fill="#093F68"/>
<path d="M15.3225 70.3185C15.1958 70.3193 15.0738 70.2705 14.9825 70.1826C14.937 70.1374 14.9009 70.0837 14.8762 70.0245C14.8516 69.9653 14.8389 69.9018 14.8389 69.8377C14.8389 69.7736 14.8516 69.7101 14.8762 69.6509C14.9009 69.5918 14.937 69.538 14.9825 69.4929L31.8594 52.179C31.9495 52.0869 32.0726 52.0344 32.2015 52.033C32.2653 52.0323 32.3286 52.0442 32.3878 52.068C32.447 52.0918 32.501 52.127 32.5466 52.1717C32.5922 52.2163 32.6286 52.2695 32.6536 52.3282C32.6786 52.3869 32.6919 52.45 32.6926 52.5138C32.6932 52.5776 32.6813 52.6409 32.6575 52.7001C32.6337 52.7593 32.5985 52.8133 32.5539 52.8589L15.6673 70.168C15.6227 70.2147 15.5693 70.2522 15.5101 70.278C15.4509 70.3039 15.3871 70.3176 15.3225 70.3185Z" fill="#093F68"/>
<path d="M102.009 60.7511C102.009 60.7511 105.554 54.1752 104.733 53.0436C103.913 51.912 101.033 55.5593 99.9543 54.8405C98.8762 54.1218 98.4682 51.0912 96.6664 51.708C94.8646 52.3248 95.1025 55.2534 94.5489 55.0494C93.9952 54.8454 93.121 52.7376 91.9943 53.301C90.8676 53.8643 93.5727 60.7511 93.5727 60.7511H102.009Z" fill="#70CC40"/>
<path d="M102.009 61.2367H93.5729C93.4778 61.2322 93.3862 61.1999 93.3093 61.1438C93.2325 61.0876 93.1738 61.0102 93.1406 60.921C91.8342 57.5942 90.5375 53.4903 91.8002 52.8638C92.9075 52.3053 93.7769 53.4126 94.3014 54.0731C94.3548 54.146 94.4228 54.2334 94.4908 54.3111C94.4908 54.2431 94.5296 54.1703 94.5442 54.1023C94.7773 53.2086 95.1707 51.7128 96.5354 51.2417C98.0701 50.722 98.8375 52.1499 99.396 53.1844C99.5975 53.6489 99.8879 54.0696 100.251 54.4228C100.494 54.5879 101.567 53.8206 102.082 53.4515C103.189 52.6647 104.442 51.7662 105.151 52.7424C106.054 53.9857 103.573 58.9055 102.461 60.9647C102.419 61.0487 102.355 61.1191 102.275 61.1673C102.195 61.2156 102.102 61.2396 102.009 61.2367ZM93.9031 60.2654H101.722C103.461 56.992 104.636 53.8497 104.34 53.3252C104.088 53.2135 103.097 53.9177 102.621 54.2577C101.523 55.0396 100.484 55.7778 99.7068 55.229C99.1988 54.7975 98.7981 54.2538 98.5364 53.6409C97.9001 52.451 97.5262 51.9119 96.8463 52.1499C95.9721 52.4462 95.6904 53.5389 95.4815 54.3354C95.331 54.9085 95.2338 55.3067 94.9036 55.4524C94.8289 55.4902 94.7473 55.5123 94.6638 55.5173C94.5802 55.5223 94.4966 55.5102 94.4179 55.4816C94.0628 55.2868 93.7635 55.0042 93.5486 54.6608C93.0629 54.0294 92.6453 53.5632 92.281 53.6895C91.975 54.2577 92.7181 57.1814 93.9031 60.2654Z" fill="#093F68"/>
<path d="M95.5692 63.6311H100.465C103.521 63.6311 106.453 64.8453 108.614 67.0067C110.775 69.168 111.99 72.0994 111.99 75.1559V82.8877C111.99 84.1217 111.499 85.3051 110.627 86.1777C109.754 87.0502 108.571 87.5404 107.337 87.5404H88.6825C87.4485 87.5404 86.2651 87.0502 85.3925 86.1777C84.52 85.3051 84.0298 84.1217 84.0298 82.8877V75.1559C84.0298 73.6412 84.3284 72.1414 84.9085 70.7422C85.4885 69.343 86.3388 68.0719 87.4105 67.0015C88.4822 65.9311 89.7544 65.0825 91.1543 64.5042C92.5543 63.9259 94.0545 63.6292 95.5692 63.6311Z" fill="#70CC40"/>
<path d="M107.322 88.0261H88.6823C87.3195 88.0235 86.0133 87.4807 85.0501 86.5166C84.0869 85.5525 83.5452 84.2457 83.5439 82.8829V75.156C83.5465 71.9689 84.8147 68.9133 87.0697 66.661C89.3247 64.4087 92.3819 63.1442 95.569 63.1455H100.465C103.65 63.1481 106.703 64.4141 108.956 66.6658C111.209 68.9176 112.476 71.971 112.48 75.156V82.8829C112.479 83.5594 112.345 84.2291 112.086 84.8538C111.826 85.4784 111.446 86.0458 110.967 86.5234C110.488 87.0011 109.919 87.3797 109.294 87.6375C108.669 87.8953 107.999 88.0274 107.322 88.0261ZM95.569 64.1168C92.642 64.1194 89.8357 65.2833 87.766 67.353C85.6963 69.4227 84.5324 72.229 84.5298 75.156V82.8829C84.5298 83.9885 84.9687 85.0489 85.75 85.8312C86.5314 86.6134 87.5913 87.0535 88.6969 87.0548H107.322C108.428 87.0535 109.489 86.6136 110.271 85.8315C111.053 85.0494 111.493 83.989 111.494 82.8829V75.156C111.49 72.2286 110.325 69.4222 108.255 67.3527C106.184 65.2831 103.377 64.1194 100.45 64.1168H95.569Z" fill="#093F68"/>
<path d="M93.5732 60.7512H102.441V63.6944H93.5732V60.7512Z" fill="#093F68"/>
<path d="M102.436 64.1798H93.5731C93.4443 64.1798 93.3207 64.1287 93.2296 64.0376C93.1386 63.9465 93.0874 63.823 93.0874 63.6942V60.751C93.0874 60.6222 93.1386 60.4987 93.2296 60.4076C93.3207 60.3165 93.4443 60.2654 93.5731 60.2654H102.436C102.565 60.2654 102.689 60.3165 102.78 60.4076C102.871 60.4987 102.922 60.6222 102.922 60.751V63.6942C102.922 63.823 102.871 63.9465 102.78 64.0376C102.689 64.1287 102.565 64.1798 102.436 64.1798ZM94.0587 63.2085H101.951V61.2367H94.0587V63.2085Z" fill="#093F68"/>
<path d="M96.7495 84.2573V82.8829C96.2638 82.7469 95.7782 82.6449 95.2925 82.4846C94.3798 82.1948 93.5923 81.6041 93.0584 80.8091C92.6161 80.1153 92.3912 79.3053 92.4125 78.4828H95.0837C95.1015 78.9481 95.2718 79.3946 95.5685 79.7536C95.8651 80.1125 96.2716 80.364 96.7252 80.4691V76.8315C96.1861 76.6712 95.6519 76.5255 95.1177 76.3458C94.5345 76.1784 93.9999 75.8736 93.5587 75.4571C93.1008 74.998 92.7984 74.4069 92.6942 73.767C92.5338 72.9875 92.5926 72.1789 92.8642 71.4309C93.0601 70.8932 93.3724 70.4054 93.7788 70.0024C94.1851 69.5994 94.6755 69.2912 95.2148 69.0997C95.659 68.9559 96.1115 68.8391 96.5698 68.75L96.7349 68.716V66.8997H99.241V67.0745V68.6335C99.241 68.7646 99.2847 68.8035 99.4061 68.8277C100.263 68.9946 101.065 69.3699 101.742 69.9205C102.455 70.5094 102.928 71.3384 103.073 72.2517C103.117 72.4994 103.136 72.7373 103.17 73.0142H100.441C100.435 72.642 100.32 72.2798 100.11 71.9724C99.9004 71.665 99.6049 71.426 99.2604 71.2852V74.6849C99.3527 74.6849 99.4498 74.7334 99.5566 74.7529C100.292 74.9007 101.009 75.1304 101.694 75.4376C102.206 75.6615 102.649 76.0199 102.975 76.4747C103.3 76.9295 103.497 77.4639 103.544 78.0214C103.704 79.0614 103.451 80.1227 102.84 80.9791C102.339 81.6791 101.63 82.2041 100.815 82.4798C100.329 82.6498 99.7898 82.7663 99.2458 82.9169V84.2476L96.7495 84.2573ZM99.2652 77.3512V80.5128C99.6714 80.4539 100.054 80.2861 100.373 80.0272C100.955 79.5415 101.164 78.3613 100.309 77.8368C99.9716 77.6538 99.6229 77.4916 99.2652 77.3512ZM96.7398 74.1166V71.0618C96.4063 71.2035 96.0819 71.3657 95.7685 71.5475C95.5904 71.6745 95.4467 71.8438 95.3503 72.0401C95.2538 72.2364 95.2076 72.4536 95.2157 72.6722C95.2239 72.8907 95.2863 73.1039 95.3971 73.2924C95.508 73.4809 95.664 73.639 95.851 73.7524C96.1376 73.8932 96.4338 73.9904 96.7398 74.1166Z" fill="#093F68"/>
<path d="M96.6815 44.9815C98.1004 44.9815 99.2506 44.1031 99.2506 43.0195C99.2506 41.9358 98.1004 41.0574 96.6815 41.0574C95.2626 41.0574 94.1123 41.9358 94.1123 43.0195C94.1123 44.1031 95.2626 44.9815 96.6815 44.9815Z" fill="#093F68"/>
<path d="M96.6813 45.4672C94.996 45.4672 93.6265 44.3696 93.6265 43.0389C93.6265 41.7082 94.996 40.6106 96.6813 40.6106C98.3666 40.6106 99.7361 41.7082 99.7361 43.0389C99.7361 44.3696 98.3666 45.4672 96.6813 45.4672ZM96.6813 41.5431C95.5497 41.5431 94.5978 42.2182 94.5978 43.0001C94.5978 43.782 95.5691 44.4571 96.6813 44.4571C97.7935 44.4571 98.7648 43.782 98.7648 43.0001C98.7648 42.2182 97.808 41.5431 96.6813 41.5431Z" fill="#093F68"/>
<path d="M104.311 29.4694C104.31 28.2186 104.001 26.9873 103.411 25.8844C102.821 24.7815 101.969 23.841 100.929 23.1461C99.8888 22.4512 98.6936 22.0234 97.4489 21.9004C96.2042 21.7774 94.9483 21.9631 93.7925 22.4411C92.6366 22.9191 91.6164 23.6746 90.8221 24.6407C90.0277 25.6069 89.4838 26.7539 89.2383 27.9804C88.9929 29.2068 89.0535 30.4749 89.4148 31.6723C89.7761 32.8697 90.427 33.9597 91.3098 34.8457C92.2801 35.8427 92.9529 37.0907 93.2525 38.4493L93.3156 38.7116H100.076L100.149 38.3959C100.486 37.0136 101.191 35.7483 102.189 34.734C103.552 33.3207 104.313 31.4331 104.311 29.4694Z" fill="#FFBC0E"/>
<path d="M100.061 39.1972H93.3009C93.1893 39.2002 93.0801 39.1646 92.9916 39.0965C92.9032 39.0284 92.8409 38.9319 92.8152 38.8232L92.7569 38.561C92.4749 37.29 91.8443 36.1228 90.9357 35.1905C89.8365 34.0873 89.0786 32.6907 88.7526 31.1679C88.4267 29.6451 88.5466 28.0606 89.098 26.6042C89.6495 25.1477 90.609 23.8811 91.8617 22.956C93.1144 22.0309 94.6073 21.4864 96.1615 21.3879C97.2675 21.3137 98.3769 21.4692 99.42 21.8445C100.463 22.2197 101.417 22.8067 102.223 23.5685C103.003 24.3012 103.63 25.1812 104.068 26.1577C104.505 27.1341 104.746 28.1876 104.774 29.2574C104.802 30.3272 104.619 31.392 104.233 32.3903C103.848 33.3887 103.268 34.3008 102.529 35.0739C101.583 36.0225 100.912 37.2089 100.586 38.5076L100.513 38.8232C100.489 38.9263 100.432 39.0186 100.35 39.0861C100.268 39.1536 100.167 39.1926 100.061 39.1972ZM93.6846 38.2259H99.6728C100.041 36.7832 100.783 35.4631 101.824 34.3988C102.793 33.3858 103.441 32.1096 103.688 30.7299C103.935 29.3501 103.77 27.9282 103.212 26.6421C102.655 25.356 101.731 24.2629 100.555 23.4995C99.38 22.7361 98.0054 22.3364 96.6038 22.3504C95.2023 22.3644 93.836 22.7915 92.6759 23.5783C91.5159 24.365 90.6137 25.4764 90.0823 26.7734C89.5509 28.0704 89.4138 29.4953 89.6883 30.8699C89.9628 32.2444 90.6366 33.5074 91.6253 34.5008C92.6383 35.5317 93.3504 36.8197 93.6846 38.2259Z" fill="#093F68"/>
<path d="M99.843 38.7117H93.5148C93.1258 38.7117 92.8105 39.027 92.8105 39.4159V39.5713C92.8105 39.9602 93.1258 40.2755 93.5148 40.2755H99.843C100.232 40.2755 100.547 39.9602 100.547 39.5713V39.4159C100.547 39.027 100.232 38.7117 99.843 38.7117Z" fill="white"/>
<path d="M99.8478 40.761H93.5341C93.2185 40.761 92.9159 40.6356 92.6927 40.4125C92.4696 40.1893 92.3442 39.8867 92.3442 39.5711V39.4157C92.3442 39.1001 92.4696 38.7975 92.6927 38.5743C92.9159 38.3512 93.2185 38.2258 93.5341 38.2258H99.8478C100.162 38.2271 100.464 38.353 100.686 38.5761C100.908 38.7991 101.033 39.101 101.033 39.4157V39.5517C101.035 39.7092 101.007 39.8656 100.948 40.0119C100.89 40.1582 100.803 40.2914 100.693 40.4039C100.583 40.5164 100.451 40.6059 100.306 40.6672C100.161 40.7285 100.005 40.7604 99.8478 40.761ZM93.5341 39.1972C93.4762 39.1972 93.4206 39.2202 93.3796 39.2612C93.3386 39.3022 93.3156 39.3577 93.3156 39.4157V39.5517C93.3156 39.6097 93.3386 39.6652 93.3796 39.7062C93.4206 39.7472 93.4762 39.7702 93.5341 39.7702H99.8478C99.9049 39.769 99.9592 39.7454 99.9992 39.7045C100.039 39.6637 100.061 39.6088 100.061 39.5517V39.3963C100.061 39.3391 100.039 39.2843 99.9992 39.2434C99.9592 39.2026 99.9049 39.179 99.8478 39.1777L93.5341 39.1972Z" fill="#093F68"/>
<path d="M99.843 40.2754H93.5148C93.1258 40.2754 92.8105 40.5907 92.8105 40.9796V41.135C92.8105 41.5239 93.1258 41.8392 93.5148 41.8392H99.843C100.232 41.8392 100.547 41.5239 100.547 41.135V40.9796C100.547 40.5907 100.232 40.2754 99.843 40.2754Z" fill="white"/>
<path d="M99.8478 42.325H93.5341C93.2185 42.325 92.9159 42.1996 92.6927 41.9765C92.4696 41.7533 92.3442 41.4507 92.3442 41.1351V40.9797C92.3442 40.6641 92.4696 40.3614 92.6927 40.1383C92.9159 39.9152 93.2185 39.7898 93.5341 39.7898H99.8478C100.162 39.7911 100.464 39.917 100.686 40.14C100.908 40.363 101.033 40.6649 101.033 40.9797V41.1351C101.033 41.4498 100.908 41.7517 100.686 41.9747C100.464 42.1978 100.162 42.3237 99.8478 42.325ZM93.5341 40.7611C93.4762 40.7611 93.4206 40.7841 93.3796 40.8251C93.3386 40.8661 93.3156 40.9217 93.3156 40.9797V41.1351C93.3156 41.193 93.3386 41.2486 93.3796 41.2896C93.4206 41.3306 93.4762 41.3536 93.5341 41.3536H99.8478C99.9049 41.3524 99.9592 41.3288 99.9992 41.2879C100.039 41.2471 100.061 41.1922 100.061 41.1351V40.9797C100.061 40.9225 100.039 40.8677 99.9992 40.8268C99.9592 40.786 99.9049 40.7624 99.8478 40.7611H93.5341Z" fill="#093F68"/>
<path d="M99.843 41.8391H93.5148C93.1258 41.8391 92.8105 42.1544 92.8105 42.5433V42.6987C92.8105 43.0877 93.1258 43.4029 93.5148 43.4029H99.843C100.232 43.4029 100.547 43.0877 100.547 42.6987V42.5433C100.547 42.1544 100.232 41.8391 99.843 41.8391Z" fill="white"/>
<path d="M99.8478 43.8838H93.5341C93.2194 43.8838 92.9175 43.7591 92.6945 43.537C92.4715 43.3149 92.3455 43.0135 92.3442 42.6988V42.5385C92.3455 42.2238 92.4715 41.9224 92.6945 41.7003C92.9175 41.4782 93.2194 41.3535 93.5341 41.3535H99.8478C100.162 41.3535 100.463 41.4784 100.686 41.7006C100.908 41.9228 101.033 42.2242 101.033 42.5385V42.6988C101.033 43.0131 100.908 43.3145 100.686 43.5367C100.463 43.759 100.162 43.8838 99.8478 43.8838ZM93.5341 42.3248C93.477 42.3248 93.4221 42.3472 93.3813 42.3871C93.3404 42.4271 93.3168 42.4814 93.3156 42.5385V42.6988C93.3168 42.7559 93.3404 42.8103 93.3813 42.8502C93.4221 42.8902 93.477 42.9125 93.5341 42.9125H99.8478C99.9044 42.9125 99.9588 42.89 99.9989 42.8499C100.039 42.8098 100.061 42.7555 100.061 42.6988V42.5385C100.061 42.4819 100.039 42.4275 99.9989 42.3874C99.9588 42.3474 99.9044 42.3248 99.8478 42.3248H93.5341Z" fill="#093F68"/>
<path d="M95.3894 39.1973C95.2716 39.1984 95.1573 39.1567 95.0679 39.0799C94.9786 39.003 94.9202 38.8963 94.9037 38.7796L93.6264 29.2849C93.6165 29.1858 93.6373 29.0861 93.6859 28.9992C93.7346 28.9123 93.8088 28.8425 93.8984 28.7992C93.992 28.7555 94.0971 28.7428 94.1984 28.7628C94.2997 28.7829 94.392 28.8348 94.4618 28.9109L96.7784 31.4315L99.1387 28.2795C99.2033 28.1949 99.2939 28.1339 99.3966 28.1058C99.4993 28.0777 99.6083 28.0842 99.707 28.1241C99.802 28.1628 99.8824 28.2307 99.9365 28.318C99.9906 28.4052 100.016 28.5074 100.008 28.6098L98.8376 38.7699C98.8228 38.8987 98.7574 39.0163 98.6559 39.0969C98.5543 39.1776 98.4249 39.2145 98.2961 39.1997C98.1673 39.1849 98.0497 39.1195 97.9691 39.018C97.8884 38.9164 97.8515 38.787 97.8663 38.6582L98.8376 30.2805L97.2058 32.4611C97.1631 32.5182 97.1083 32.5653 97.0453 32.5989C96.9824 32.6324 96.9128 32.6517 96.8415 32.6554C96.7701 32.6593 96.6986 32.6475 96.6323 32.6206C96.566 32.5937 96.5064 32.5525 96.4579 32.5L94.792 30.6884L95.8653 38.6485C95.882 38.7752 95.848 38.9034 95.7707 39.0052C95.6934 39.1071 95.5791 39.1743 95.4525 39.1924L95.3894 39.1973Z" fill="#093F68"/>
<path d="M84.0004 35.7198C83.8885 35.7196 83.7801 35.6808 83.6936 35.6099C83.607 35.539 83.5476 35.4404 83.5253 35.3308C83.5031 35.2212 83.5193 35.1072 83.5714 35.0082C83.6234 34.9092 83.708 34.8312 83.811 34.7873L87.2689 33.3303C87.3863 33.2859 87.5164 33.2886 87.6318 33.3379C87.7473 33.3872 87.8391 33.4793 87.8881 33.5949C87.9371 33.7105 87.9394 33.8406 87.8946 33.9579C87.8498 34.0752 87.7613 34.1705 87.6477 34.224L84.1849 35.681C84.1265 35.7058 84.0638 35.719 84.0004 35.7198Z" fill="#DFEAEF"/>
<path d="M86.7737 25.4674C86.6962 25.4659 86.62 25.4477 86.5503 25.414L83.3012 23.7045C83.2432 23.6757 83.1915 23.6356 83.1492 23.5866C83.1069 23.5376 83.0749 23.4806 83.0549 23.4191C83.0349 23.3575 83.0275 23.2925 83.033 23.228C83.0385 23.1635 83.0569 23.1008 83.087 23.0435C83.1171 22.9862 83.1584 22.9354 83.2083 22.8943C83.2583 22.8532 83.3161 22.8225 83.3781 22.804C83.4401 22.7855 83.5052 22.7795 83.5696 22.7866C83.6339 22.7936 83.6963 22.8134 83.7528 22.8448L87.0019 24.5544C87.0969 24.6056 87.1721 24.687 87.2156 24.7858C87.2592 24.8845 87.2686 24.9949 87.2424 25.0996C87.2163 25.2042 87.156 25.2972 87.0711 25.3638C86.9862 25.4304 86.8816 25.4669 86.7737 25.4674Z" fill="#DFEAEF"/>
<path d="M109.061 35.7199C108.996 35.7204 108.932 35.7089 108.872 35.6859L105.409 34.2289C105.348 34.2057 105.292 34.1705 105.245 34.1252C105.198 34.08 105.16 34.0257 105.134 33.9656C105.109 33.9055 105.095 33.8408 105.095 33.7754C105.095 33.7101 105.108 33.6454 105.134 33.5852C105.159 33.525 105.197 33.4706 105.244 33.4252C105.291 33.3798 105.346 33.3444 105.407 33.3211C105.469 33.2977 105.534 33.287 105.599 33.2894C105.664 33.2918 105.728 33.3074 105.788 33.3353L109.25 34.7922C109.369 34.8426 109.462 34.9378 109.511 35.0571C109.559 35.1764 109.558 35.31 109.508 35.4285C109.47 35.5153 109.407 35.5892 109.328 35.641C109.249 35.6928 109.156 35.7202 109.061 35.7199Z" fill="#DFEAEF"/>
<path d="M106.283 25.4676C106.175 25.467 106.071 25.4306 105.986 25.364C105.901 25.2974 105.84 25.2044 105.814 25.0997C105.788 24.995 105.798 24.8846 105.841 24.7859C105.885 24.6872 105.96 24.6058 106.055 24.5545L109.304 22.845C109.418 22.7886 109.549 22.779 109.669 22.8181C109.79 22.8572 109.891 22.9419 109.95 23.0542C110.009 23.1665 110.021 23.2974 109.985 23.4189C109.949 23.5405 109.866 23.643 109.756 23.7046L106.506 25.4142C106.437 25.4496 106.361 25.4679 106.283 25.4676Z" fill="#DFEAEF"/>
<path d="M96.8221 20.334C96.6933 20.334 96.5698 20.2828 96.4787 20.1917C96.3876 20.1007 96.3364 19.9771 96.3364 19.8483V16.2884C96.3364 16.1596 96.3876 16.0361 96.4787 15.945C96.5698 15.8539 96.6933 15.8027 96.8221 15.8027C96.9509 15.8027 97.0744 15.8539 97.1655 15.945C97.2566 16.0361 97.3078 16.1596 97.3078 16.2884V19.8483C97.3078 19.9771 97.2566 20.1007 97.1655 20.1917C97.0744 20.2828 96.9509 20.334 96.8221 20.334Z" fill="#DFEAEF"/>
</svg>
