<svg width="24" height="24" viewBox="0 0 24 24" fill="none" xmlns="http://www.w3.org/2000/svg">
<path fill-rule="evenodd" clip-rule="evenodd" d="M15.0697 18.8516C15.0698 19.3522 14.8807 19.8344 14.5403 20.2015C14.1999 20.5686 13.7333 20.7934 13.2341 20.831L13.0853 20.8359H11.1009C10.6003 20.8361 10.1181 20.647 9.751 20.3066C9.38391 19.9662 9.15905 19.4996 9.1215 19.0004L9.11654 18.8516H15.0697ZM12.0931 1.98438C13.8939 1.98435 15.6243 2.68376 16.9193 3.93509C18.2143 5.18642 18.9727 6.89182 19.0344 8.69156L19.0384 8.92969V12.6643L20.8462 16.2798C20.9251 16.4376 20.9646 16.6121 20.9613 16.7885C20.9579 16.9648 20.9119 17.1377 20.8272 17.2924C20.7424 17.4471 20.6214 17.5789 20.4746 17.6767C20.3277 17.7744 20.1594 17.835 19.984 17.8534L19.8699 17.8594H4.31634C4.13989 17.8594 3.96606 17.8167 3.80975 17.7348C3.65343 17.653 3.51929 17.5345 3.41882 17.3894C3.31835 17.2444 3.25455 17.0771 3.23287 16.902C3.2112 16.7269 3.23231 16.5492 3.29439 16.384L3.34003 16.2798L5.14779 12.6643V8.92969C5.14779 7.08768 5.87953 5.32111 7.18203 4.01861C8.48452 2.71611 10.2511 1.98438 12.0931 1.98438ZM12.0931 3.96875C10.8147 3.96882 9.58569 4.4624 8.66234 5.34656C7.73899 6.23072 7.19261 7.43719 7.13713 8.71438L7.13217 8.92969V12.6643C7.13218 12.9104 7.08642 13.1543 6.99723 13.3836L6.92281 13.5523L5.76196 15.875H18.4252L17.2644 13.5513C17.1543 13.3313 17.086 13.0928 17.063 12.8478L17.054 12.6643V8.92969C17.054 7.61397 16.5314 6.35213 15.601 5.42177C14.6707 4.49142 13.4088 3.96875 12.0931 3.96875Z" fill="black"/>
</svg>
