<svg width="12" height="9" viewBox="0 0 12 9" fill="none" xmlns="http://www.w3.org/2000/svg">
<path d="M6.00032 6.0004C6.88394 6.0004 7.60025 5.28409 7.60025 4.40047C7.60025 3.51685 6.88394 2.80054 6.00032 2.80054C5.1167 2.80054 4.40039 3.51685 4.40039 4.40047C4.40039 5.28409 5.1167 6.0004 6.00032 6.0004Z" fill="#919191"/>
<path d="M11.9753 4.26455C11.5049 3.04766 10.6882 1.99529 9.62614 1.23751C8.56411 0.479734 7.30331 0.0497595 5.99957 0.000732422C4.69584 0.0497595 3.43504 0.479734 2.37301 1.23751C1.31098 1.99529 0.494273 3.04766 0.0238288 4.26455C-0.00794294 4.35243 -0.00794294 4.44866 0.0238288 4.53654C0.494273 5.75343 1.31098 6.8058 2.37301 7.56358C3.43504 8.32136 4.69584 8.75133 5.99957 8.80036C7.30331 8.75133 8.56411 8.32136 9.62614 7.56358C10.6882 6.8058 11.5049 5.75343 11.9753 4.53654C12.0071 4.44866 12.0071 4.35243 11.9753 4.26455ZM5.99957 7.00044C5.48537 7.00044 4.9827 6.84795 4.55515 6.56227C4.1276 6.2766 3.79437 5.87055 3.59759 5.39548C3.40081 4.92041 3.34932 4.39766 3.44964 3.89333C3.54996 3.389 3.79757 2.92575 4.16118 2.56215C4.52478 2.19854 4.98803 1.95093 5.49236 1.85061C5.99669 1.75029 6.51944 1.80178 6.99451 1.99856C7.46958 2.19534 7.87562 2.52857 8.1613 2.95612C8.44698 3.38367 8.59946 3.88634 8.59946 4.40055C8.59841 5.08975 8.32415 5.75043 7.83681 6.23778C7.34946 6.72512 6.68878 6.99938 5.99957 7.00044Z" fill="#919191"/>
</svg>
