<svg width="12" height="9" viewBox="0 0 12 9" fill="none" xmlns="http://www.w3.org/2000/svg">
<path d="M6.00067 6.00049C6.88429 6.00049 7.60061 5.28418 7.60061 4.40056C7.60061 3.51694 6.88429 2.80063 6.00067 2.80063C5.11706 2.80063 4.40074 3.51694 4.40074 4.40056C4.40074 5.28418 5.11706 6.00049 6.00067 6.00049Z" fill="#919191"/>
<path d="M11.9763 4.26455C11.5059 3.04766 10.6891 1.99529 9.62712 1.23751C8.56509 0.479734 7.30429 0.0497595 6.00055 0.000732422C4.69681 0.0497595 3.43602 0.479734 2.37399 1.23751C1.31196 1.99529 0.49525 3.04766 0.0248054 4.26455C-0.00696638 4.35243 -0.00696638 4.44866 0.0248054 4.53654C0.49525 5.75343 1.31196 6.8058 2.37399 7.56358C3.43602 8.32136 4.69681 8.75133 6.00055 8.80036C7.30429 8.75133 8.56509 8.32136 9.62712 7.56358C10.6891 6.8058 11.5059 5.75343 11.9763 4.53654C12.0081 4.44866 12.0081 4.35243 11.9763 4.26455ZM6.00055 7.00044C5.48634 7.00044 4.98368 6.84795 4.55613 6.56227C4.12858 6.2766 3.79535 5.87055 3.59857 5.39548C3.40179 4.92041 3.3503 4.39766 3.45062 3.89333C3.55094 3.389 3.79855 2.92575 4.16215 2.56215C4.52575 2.19854 4.98901 1.95093 5.49334 1.85061C5.99767 1.75029 6.52042 1.80178 6.99549 1.99856C7.47055 2.19534 7.8766 2.52857 8.16228 2.95612C8.44796 3.38367 8.60044 3.88634 8.60044 4.40055C8.59938 5.08975 8.32513 5.75043 7.83778 6.23778C7.35044 6.72512 6.68976 6.99938 6.00055 7.00044Z" fill="#919191"/>
</svg>
