<svg width="29" height="30" viewBox="0 0 29 30" fill="none" xmlns="http://www.w3.org/2000/svg">
<path d="M26.2907 0.920273H2.28584C1.74118 0.91473 1.21658 1.12548 0.827126 1.50627C0.437675 1.88707 0.215192 2.40681 0.208496 2.95145V27.0532C0.216403 27.5971 0.439418 28.1156 0.828737 28.4954C1.21806 28.8752 1.74197 29.0853 2.28584 29.0798H26.2907C26.8354 29.0841 27.3596 28.8726 27.7489 28.4916C28.1381 28.1106 28.3607 27.591 28.368 27.0463V2.94453C28.3583 2.40148 28.1346 1.88422 27.7456 1.50517C27.3567 1.12612 26.8338 0.915928 26.2907 0.920273Z" fill="#0076B2"/>
<path d="M4.37705 11.4754H8.55712V24.925H4.37705V11.4754ZM6.46824 4.78174C6.94768 4.78174 7.41634 4.92394 7.81494 5.19034C8.21355 5.45675 8.52418 5.8354 8.70754 6.27838C8.89091 6.72136 8.93877 7.20878 8.84507 7.67897C8.75137 8.14915 8.52032 8.58099 8.18114 8.91984C7.84197 9.25869 7.40992 9.48933 6.93964 9.58258C6.46936 9.67583 5.98199 9.62751 5.53918 9.44372C5.09638 9.25993 4.71803 8.94894 4.452 8.55008C4.18597 8.15123 4.04422 7.68243 4.04468 7.20299C4.04529 6.56063 4.3009 5.94477 4.75534 5.49077C5.20978 5.03676 5.82587 4.78174 6.46824 4.78174ZM11.1792 11.4754H15.1862V13.3219H15.2415C15.8001 12.2648 17.1619 11.1499 19.1954 11.1499C23.4286 11.1407 24.2134 13.9267 24.2134 17.5389V24.925H20.0333V18.3814C20.0333 16.8234 20.0056 14.8176 17.8613 14.8176C15.717 14.8176 15.3523 16.5164 15.3523 18.2798V24.925H11.1792V11.4754Z" fill="white"/>
</svg>
