<svg width="124" height="124" viewBox="0 0 124 124" fill="none" xmlns="http://www.w3.org/2000/svg">
<path d="M94.632 29.3687H29.3691V94.6315H94.632V29.3687Z" fill="white"/>
<path d="M94.6312 124L124 94.6314L109.316 92.1262L94.6312 94.6314L91.9512 108.063L94.6312 124Z" fill="#EA4335"/>
<path d="M0 94.6314V114.21C0 119.619 4.38069 124 9.78923 124H29.3687L32.3839 109.316L29.3687 94.6314L13.3683 92.1262L0 94.6314Z" fill="#188038"/>
<path d="M124 29.3687V9.78923C124 4.38069 119.619 0 114.211 0H94.6312C92.8448 7.28307 91.9512 12.6427 91.9512 16.0793C91.9512 19.5155 92.8448 23.9456 94.6312 29.3687C101.127 31.2287 106.021 32.1587 109.316 32.1587C112.61 32.1587 117.504 31.2287 124 29.3687Z" fill="#1967D2"/>
<path d="M124 29.3687H94.6309V94.6315H124V29.3687Z" fill="#FBBC04"/>
<path d="M94.632 94.6313H29.3691V124H94.632V94.6313Z" fill="#34A853"/>
<path d="M94.6315 0H9.78971C4.38069 0 0 4.38069 0 9.78923V94.6315H29.3687V29.3687H94.6315V0Z" fill="#4285F4"/>
<path d="M42.7562 79.9965C40.3168 78.3487 38.6278 75.9423 37.7061 72.76L43.3679 70.4272C43.8814 72.385 44.7789 73.9026 46.0601 74.9794C47.3325 76.0561 48.8825 76.5865 50.6936 76.5865C52.5454 76.5865 54.1361 76.0237 55.4657 74.8975C56.7958 73.7718 57.4647 72.3361 57.4647 70.5987C57.4647 68.82 56.7628 67.3679 55.3601 66.2422C53.9569 65.1165 52.1947 64.5537 50.0901 64.5537H46.8186V58.9494H49.7554C51.5665 58.9494 53.0918 58.4597 54.3318 57.4803C55.5718 56.5019 56.1918 55.1636 56.1918 53.4586C56.1918 51.9415 55.6371 50.7339 54.5279 49.8286C53.4187 48.9229 52.015 48.4661 50.31 48.4661C48.6457 48.4661 47.3243 48.9069 46.3454 49.7957C45.367 50.6873 44.6314 51.8131 44.2078 53.0672L38.6036 50.7339C39.3457 48.6293 40.7082 46.7693 42.7067 45.1622C44.7058 43.555 47.2589 42.7476 50.3589 42.7476C52.6515 42.7476 54.7154 43.1883 56.5429 44.0772C58.37 44.9665 59.8057 46.1983 60.8418 47.7647C61.8783 49.3389 62.3918 51.1011 62.3918 53.0589C62.3918 55.0575 61.9108 56.7465 60.9483 58.1333C59.9854 59.52 58.8025 60.5803 57.3993 61.3229V61.6571C59.2112 62.4042 60.785 63.6312 61.9515 65.2061C63.1343 66.7968 63.7301 68.6975 63.7301 70.9169C63.7301 73.1353 63.1668 75.1179 62.0411 76.8554C60.9154 78.5933 59.3576 79.9636 57.3828 80.959C55.4008 81.9544 53.1736 82.4605 50.7018 82.4605C47.8382 82.4683 45.1955 81.6444 42.7562 79.9965ZM77.5329 51.9003L71.3169 56.3953L68.2086 51.6804L79.3604 43.6364H83.635V81.579H77.5329V51.9003Z" fill="#4285F4"/>
</svg>
