<svg width="29" height="30" viewBox="0 0 29 30" fill="none" xmlns="http://www.w3.org/2000/svg">
<path d="M9.95778 1.70783C7.05283 2.71559 4.54761 4.62834 2.81008 7.16513C1.07256 9.70192 0.194328 12.729 0.30438 15.8019C0.414432 18.8747 1.50697 21.8312 3.42152 24.2372C5.33606 26.6432 7.9717 28.3718 10.9413 29.1692C13.3488 29.7904 15.8712 29.8177 18.2916 29.2487C20.4842 28.7562 22.5114 27.7027 24.1745 26.1914C25.9055 24.5704 27.162 22.5082 27.8088 20.2267C28.5116 17.7455 28.6367 15.1363 28.1745 12.5993H14.6551V18.2074H22.4846C22.3281 19.1018 21.9928 19.9555 21.4987 20.7174C21.0046 21.4792 20.3619 22.1335 19.609 22.6412C18.6531 23.2738 17.5753 23.6994 16.4449 23.8904C15.3114 24.1013 14.1487 24.1013 13.0151 23.8904C11.8661 23.6532 10.7792 23.1789 9.82377 22.4981C8.28863 21.4114 7.13595 19.8676 6.53022 18.087C5.91442 16.273 5.91442 14.3065 6.53022 12.4925C6.9614 11.221 7.67418 10.0633 8.61538 9.10582C9.69246 7.98998 11.0561 7.19238 12.5566 6.80051C14.0572 6.40865 15.6367 6.43766 17.1218 6.88438C18.282 7.24036 19.343 7.86263 20.22 8.70151C21.1028 7.82323 21.9841 6.94268 22.8639 6.05986C23.3182 5.58513 23.8134 5.13312 24.2609 4.64704C22.9219 3.40121 21.3504 2.43174 19.6363 1.79415C16.5147 0.66069 13.0991 0.63023 9.95778 1.70783Z" fill="white"/>
<path d="M9.9578 1.70784C13.0989 0.629503 16.5144 0.659161 19.6363 1.79188C21.3507 2.43381 22.9215 3.40795 24.2586 4.6584C23.8043 5.14448 23.3251 5.59877 22.8617 6.07122C21.9804 6.95101 21.0998 7.82778 20.22 8.70152C19.343 7.86263 18.2821 7.24037 17.1218 6.88439C15.6372 6.4361 14.0577 6.40541 12.5568 6.79567C11.0558 7.18593 9.69139 7.98207 8.61313 9.09674C7.67193 10.0542 6.95914 11.2119 6.52797 12.4834L1.81934 8.8378C3.50474 5.49556 6.42292 2.939 9.9578 1.70784Z" fill="#E33629"/>
<path d="M0.569979 12.4493C0.822877 11.195 1.24306 9.98027 1.81925 8.83777L6.52789 12.4925C5.91209 14.3065 5.91209 16.273 6.52789 18.087C4.9591 19.2984 3.38956 20.5159 1.81925 21.7394C0.377251 18.869 -0.0625353 15.5986 0.569979 12.4493Z" fill="#F8BD00"/>
<path d="M14.6551 12.597H28.1745C28.6367 15.1341 28.5116 17.7433 27.8088 20.2244C27.162 22.506 25.9055 24.5682 24.1745 26.1892C22.655 25.0035 21.1286 23.8269 19.609 22.6412C20.3624 22.1331 21.0054 21.478 21.4995 20.7154C21.9937 19.9527 22.3287 19.0982 22.4846 18.2029H14.6551C14.6528 16.3358 14.6551 14.4664 14.6551 12.597Z" fill="#587DBD"/>
<path d="M1.81689 21.7393C3.3872 20.5279 4.95674 19.3104 6.52553 18.0869C7.13247 19.8681 8.28679 21.412 9.82362 22.498C10.782 23.1757 11.8713 23.6461 13.0218 23.879C14.1553 24.0898 15.318 24.0898 16.4516 23.879C17.5819 23.688 18.6597 23.2624 19.6157 22.6297C21.1352 23.8154 22.6616 24.992 24.1812 26.1777C22.5183 27.6898 20.4911 28.7441 18.2983 29.2373C15.8779 29.8063 13.3555 29.779 10.948 29.1578C9.04385 28.6494 7.26527 27.7531 5.72372 26.5252C4.09223 25.2296 2.75961 23.5972 1.81689 21.7393Z" fill="#319F43"/>
</svg>
