<svg width="70" height="70" viewBox="0 0 70 70" fill="none" xmlns="http://www.w3.org/2000/svg">
<path d="M22.7859 -0.00012207H47.216C48.028 -0.00012207 48.651 -0.000121702 49.197 0.0523786C53.0751 0.433881 56.2496 2.76489 57.5971 5.90441H12.4048C13.7523 2.76489 16.9268 0.433881 20.8049 0.0523786C21.3439 -0.000121702 21.9669 -0.00012207 22.7859 -0.00012207ZM15.0858 9.53043C10.2208 9.53043 6.23078 12.4704 4.90077 16.3695C4.87161 16.4507 4.8436 16.5324 4.81677 16.6145C6.20978 16.1945 7.66229 15.9145 9.1288 15.729C12.9088 15.2425 17.6898 15.2425 23.2409 15.2425H47.363C52.9141 15.2425 57.6916 15.2425 61.4751 15.729C62.9451 15.918 64.3941 16.191 65.7871 16.6145C65.7617 16.5324 65.7348 16.4507 65.7066 16.3695C64.3766 12.4704 60.3866 9.53043 55.5181 9.53043H15.0858Z" fill="url(#paint0_linear_2_261)"/>
<path fill-rule="evenodd" clip-rule="evenodd" d="M23.3533 19.397H46.6494C58.4585 19.397 64.3665 19.397 67.6845 22.8515C70.9991 26.306 70.2186 31.64 68.6575 42.3116L67.1805 52.4337C65.9555 60.8022 65.343 64.9882 62.2035 67.4943C59.064 70.0003 54.4335 70.0003 45.1689 70.0003H24.8338C15.5727 70.0003 10.9387 70.0003 7.7992 67.4943C4.65968 64.9882 4.04718 60.8022 2.82217 52.4337L1.34516 42.3151C-0.219349 31.64 -0.999854 26.306 2.31817 22.8515C5.63618 19.397 11.5442 19.397 23.3533 19.397ZM21.0013 56.0002C21.0013 54.5512 22.3068 53.3752 23.9168 53.3752H46.0859C47.6959 53.3752 49.0014 54.5512 49.0014 56.0002C49.0014 57.4492 47.6959 58.6252 46.0859 58.6252H23.9168C22.3068 58.6252 21.0013 57.4492 21.0013 56.0002Z" fill="url(#paint1_linear_2_261)"/>
<defs>
<linearGradient id="paint0_linear_2_261" x1="35.3019" y1="-0.00012207" x2="35.3019" y2="16.6145" gradientUnits="userSpaceOnUse">
<stop/>
<stop offset="0.28125" stop-color="#FF008D"/>
<stop offset="0.619792" stop-color="#0097FF"/>
<stop offset="1"/>
</linearGradient>
<linearGradient id="paint1_linear_2_261" x1="35" y1="19.397" x2="35" y2="70.0003" gradientUnits="userSpaceOnUse">
<stop/>
<stop offset="0.28125" stop-color="#FF008D"/>
<stop offset="0.619792" stop-color="#0097FF"/>
<stop offset="1"/>
</linearGradient>
</defs>
</svg>
