<svg width="62" height="94" viewBox="0 0 62 94" fill="none" xmlns="http://www.w3.org/2000/svg">
<path d="M15.5 93.5C24.056 93.5 31 86.556 31 78V62.5H15.5C6.944 62.5 0 69.444 0 78C0 86.556 6.944 93.5 15.5 93.5Z" fill="#0ACF83"/>
<path d="M0 47C0 38.444 6.944 31.5 15.5 31.5H31V62.5H15.5C6.944 62.5 0 55.556 0 47Z" fill="#A259FF"/>
<path d="M0 16C0 7.444 6.944 0.5 15.5 0.5H31V31.5H15.5C6.944 31.5 0 24.556 0 16Z" fill="#F24E1E"/>
<path d="M31 0.5H46.5C55.056 0.5 62 7.444 62 16C62 24.556 55.056 31.5 46.5 31.5H31V0.5Z" fill="#FF7262"/>
<path d="M62 47C62 55.556 55.056 62.5 46.5 62.5C37.944 62.5 31 55.556 31 47C31 38.444 37.944 31.5 46.5 31.5C55.056 31.5 62 38.444 62 47Z" fill="#1ABCFE"/>
</svg>
