<svg width="45" height="19" viewBox="0 0 45 19" fill="none" xmlns="http://www.w3.org/2000/svg">
<path d="M8.1675 2.32526C8.42139 2.18143 8.70821 2.10583 9 2.10583C9.29179 2.10583 9.57861 2.18143 9.8325 2.32526L17.145 6.46901C17.4046 6.61621 17.6204 6.82962 17.7706 7.08746C17.9208 7.3453 18 7.63836 18 7.93675V15.0625C18 15.5101 17.8222 15.9393 17.5057 16.2557C17.1893 16.5722 16.7601 16.75 16.3125 16.75H1.6875C1.23995 16.75 0.810725 16.5722 0.494257 16.2557C0.17779 15.9393 0 15.5101 0 15.0625L0 7.93751C0 7.33001 0.32625 6.76901 0.855 6.46901L8.1675 2.32526ZM9.2775 3.30401C9.19289 3.25602 9.09727 3.23079 9 3.23079C8.90273 3.23079 8.80711 3.25602 8.7225 3.30401L1.7355 7.26401L7.293 10.4388C7.78336 10.0642 8.3833 9.86121 9.00037 9.86121C9.61745 9.86121 10.2174 10.0642 10.7078 10.4388L16.2653 7.26326L9.2775 3.30401ZM15.4875 15.625L10.0425 11.347C9.7452 11.1134 9.37808 10.9865 9 10.9865C8.62192 10.9865 8.2548 11.1134 7.9575 11.347L2.5125 15.625H15.4875ZM16.875 8.21051L11.6625 11.1888L16.6597 15.1158C16.7265 15.1683 16.7805 15.235 16.8173 15.3108C16.8554 15.2336 16.8751 15.1486 16.875 15.0625V8.21051ZM6.3375 11.1888L1.125 8.21051V15.0625C1.125 15.1518 1.146 15.235 1.182 15.31C1.21913 15.2342 1.27298 15.1678 1.3395 15.1158L6.3375 11.1888Z" fill="black"/>
<g clip-path="url(#clip0_1_511)">
<path d="M33.8648 4.056C34.8151 2.352 35.2898 1.5 36.0001 1.5C36.7103 1.5 37.1851 2.352 38.1353 4.056L38.3813 4.497C38.6513 4.9815 38.7863 5.22375 38.9963 5.3835C39.2063 5.54325 39.4688 5.6025 39.9938 5.721L40.4708 5.829C42.3158 6.24675 43.2376 6.45525 43.4573 7.161C43.6763 7.866 43.0478 8.60175 41.7901 10.0725L41.4646 10.4528C41.1076 10.8705 40.9283 11.0797 40.8481 11.3377C40.7678 11.5965 40.7948 11.8755 40.8488 12.4327L40.8983 12.9405C41.0881 14.9032 41.1833 15.8843 40.6088 16.32C40.0343 16.7565 39.1703 16.3582 37.4438 15.5632L36.9961 15.3577C36.5056 15.1312 36.2603 15.0187 36.0001 15.0187C35.7398 15.0187 35.4946 15.1312 35.0033 15.3577L34.5571 15.5632C32.8298 16.3582 31.9658 16.7557 31.3921 16.3207C30.8168 15.8842 30.9121 14.9032 31.1018 12.9405L31.1513 12.4335C31.2053 11.8755 31.2323 11.5965 31.1513 11.3385C31.0718 11.0798 30.8926 10.8705 30.5356 10.4535L30.2101 10.0725C28.9523 8.6025 28.3238 7.86675 28.5428 7.161C28.7626 6.45525 29.6851 6.246 31.5301 5.829L32.0071 5.721C32.5313 5.6025 32.7931 5.54325 33.0038 5.3835C33.2138 5.22375 33.3488 4.9815 33.6188 4.497L33.8648 4.056Z" stroke="black" stroke-width="1.5"/>
</g>
<defs>
<clipPath id="clip0_1_511">
<rect width="18" height="18" fill="white" transform="translate(27)"/>
</clipPath>
</defs>
</svg>
