<svg width="21" height="25" viewBox="0 0 21 25" fill="none" xmlns="http://www.w3.org/2000/svg">
<path d="M15.3903 7.14667C14.9375 6.694 14.3234 6.4397 13.6832 6.4397C13.0429 6.4397 12.4288 6.694 11.976 7.14667L11.6017 7.52014L12.7398 8.65824L13.1141 8.28477C13.2659 8.13816 13.4692 8.05703 13.6803 8.05886C13.8913 8.0607 14.0932 8.14534 14.2424 8.29458C14.3916 8.44381 14.4763 8.64568 14.4781 8.85672C14.48 9.06776 14.3988 9.27107 14.2522 9.42287L11.6017 12.0733L12.7398 13.2114L15.3903 10.561C15.843 10.1082 16.0973 9.4941 16.0973 8.85382C16.0973 8.21355 15.843 7.59948 15.3903 7.14667ZM7.81317 15.8619C7.66137 16.0085 7.45805 16.0897 7.24701 16.0878C7.03598 16.086 6.8341 16.0013 6.68487 15.8521C6.53564 15.7029 6.45099 15.501 6.44916 15.29C6.44732 15.0789 6.52845 14.8756 6.67507 14.7238L9.32554 12.0733L8.18744 10.9352L5.53697 13.5857C5.30634 13.8085 5.12239 14.0749 4.99584 14.3695C4.86929 14.6641 4.80268 14.9809 4.7999 15.3016C4.79711 15.6222 4.8582 15.9401 4.97961 16.2369C5.10103 16.5336 5.28032 16.8032 5.50704 17.0299C5.73375 17.2567 6.00335 17.436 6.3001 17.5574C6.59685 17.6788 6.91481 17.7399 7.23543 17.7371C7.55604 17.7343 7.87289 17.6677 8.16749 17.5411C8.46208 17.4146 8.72853 17.2306 8.95127 17L9.32554 16.6265L8.18744 15.4884L7.81317 15.8619ZM8.95127 7.14748C8.49402 6.71829 7.88772 6.48383 7.26068 6.49372C6.63363 6.50361 6.03503 6.75706 5.59154 7.20045C5.14804 7.64384 4.89445 8.24238 4.88441 8.86942C4.87438 9.49647 5.10869 10.1028 5.53777 10.5602L5.91124 10.9344L7.04934 9.79634L6.67587 9.42207C6.52926 9.27027 6.44813 9.06695 6.44996 8.85591C6.4518 8.64488 6.53644 8.443 6.68568 8.29377C6.83491 8.14454 7.03678 8.05989 7.24782 8.05806C7.45886 8.05622 7.66217 8.13735 7.81397 8.28397L10.4636 10.9352L11.6017 9.79714L8.95127 7.14748Z" fill="#7D6004"/>
<path d="M15.39 13.5859L15.0165 13.2117L13.8784 14.3498L14.2519 14.724C14.3985 14.8758 14.4796 15.0792 14.4778 15.2902C14.4759 15.5012 14.3913 15.7031 14.2421 15.8523C14.0928 16.0016 13.891 16.0862 13.6799 16.0881C13.4689 16.0899 13.2656 16.0088 13.1138 15.8621L10.4633 13.2117L9.3252 14.3498L11.9757 17.0002C12.4311 17.4401 13.041 17.6835 13.6741 17.678C14.3072 17.6725 14.9129 17.4185 15.3606 16.9708C15.8082 16.5231 16.0622 15.9175 16.0677 15.2844C16.0732 14.6513 15.8298 14.0413 15.39 13.5859Z" fill="#7D6004"/>
<path d="M10.4634 24.1466C10.3209 24.1468 10.1809 24.109 10.0578 24.0372L0.399221 18.403C0.277702 18.3321 0.176893 18.2306 0.106845 18.1086C0.0367978 17.9865 -4.16557e-05 17.8483 3.53468e-08 17.7076V6.43928C-4.16557e-05 6.29858 0.0367978 6.16034 0.106845 6.03832C0.176893 5.9163 0.277702 5.81477 0.399221 5.74386L10.0578 0.109702C10.1809 0.0378578 10.3209 0 10.4634 0C10.606 0 10.746 0.0378578 10.8691 0.109702L20.5277 5.74386L19.7163 7.1347L10.4634 1.73717L1.60976 6.90128V17.2456L10.4634 22.4105L19.3171 17.2456V11.2686H20.9269V17.7076C20.9269 17.8483 20.8901 17.9865 20.82 18.1086C20.75 18.2306 20.6492 18.3321 20.5277 18.403L10.8691 24.0372C10.746 24.109 10.606 24.1468 10.4634 24.1466Z" fill="#7D6004"/>
</svg>
