<svg width="90" height="24" viewBox="0 0 90 24" fill="none" xmlns="http://www.w3.org/2000/svg">
<path d="M22 12C22 6.48 17.52 2 12 2C6.48 2 2 6.48 2 12C2 16.84 5.44 20.87 10 21.8V15H8V12H10V9.5C10 7.57 11.57 6 13.5 6H16V9H14C13.45 9 13 9.45 13 10V12H16V15H13V21.95C18.05 21.45 22 17.19 22 12Z" fill="black"/>
<path d="M55.46 6C54.69 6.35 53.86 6.58 53 6.69C53.88 6.16 54.56 5.32 54.88 4.31C54.05 4.81 53.13 5.16 52.16 5.36C51.37 4.5 50.26 4 49 4C46.65 4 44.73 5.92 44.73 8.29C44.73 8.63 44.77 8.96 44.84 9.27C41.28 9.09 38.11 7.38 36 4.79C35.63 5.42 35.42 6.16 35.42 6.94C35.42 8.43 36.17 9.75 37.33 10.5C36.62 10.5 35.96 10.3 35.38 10V10.03C35.38 12.11 36.86 13.85 38.82 14.24C38.1908 14.4122 37.5301 14.4362 36.89 14.31C37.1616 15.1625 37.6936 15.9084 38.4111 16.4429C39.1285 16.9775 39.9955 17.2737 40.89 17.29C39.3737 18.4904 37.494 19.1393 35.56 19.13C35.22 19.13 34.88 19.11 34.54 19.07C36.44 20.29 38.7 21 41.12 21C49 21 53.33 14.46 53.33 8.79C53.33 8.6 53.33 8.42 53.32 8.23C54.16 7.63 54.88 6.87 55.46 6Z" fill="black"/>
<path d="M79.028 2.00099C79.7577 1.99819 80.4874 2.00552 81.217 2.02299L81.411 2.02999C81.635 2.03799 81.856 2.04799 82.123 2.05999C83.187 2.10999 83.913 2.27799 84.55 2.52499C85.21 2.77899 85.766 3.12299 86.322 3.67899C86.8303 4.17859 87.2238 4.78293 87.475 5.44999C87.722 6.08699 87.89 6.81399 87.94 7.87799C87.952 8.14399 87.962 8.36599 87.97 8.58999L87.976 8.78399C87.9937 9.51318 88.0014 10.2426 87.999 10.972L88 11.718V13.028C88.0024 13.7577 87.9948 14.4875 87.977 15.217L87.971 15.411C87.963 15.635 87.953 15.856 87.941 16.123C87.891 17.187 87.721 17.913 87.475 18.55C87.2246 19.2177 86.8311 19.8226 86.322 20.322C85.8219 20.8303 85.2173 21.2237 84.55 21.475C83.913 21.722 83.187 21.89 82.123 21.94C81.856 21.952 81.635 21.962 81.411 21.97L81.217 21.976C80.4874 21.9938 79.7577 22.0014 79.028 21.999L78.282 22H76.973C76.2432 22.0025 75.5135 21.9948 74.784 21.977L74.59 21.971C74.3526 21.9624 74.1152 21.9524 73.878 21.941C72.814 21.891 72.088 21.721 71.45 21.475C70.7827 21.2243 70.1782 20.8308 69.679 20.322C69.17 19.8223 68.7762 19.2175 68.525 18.55C68.278 17.913 68.11 17.187 68.06 16.123C68.0488 15.8857 68.0388 15.6484 68.03 15.411L68.025 15.217C68.0065 14.4875 67.9982 13.7577 68 13.028V10.972C67.9972 10.2426 68.0045 9.51318 68.022 8.78399L68.029 8.58999C68.037 8.36599 68.047 8.14399 68.059 7.87799C68.109 6.81299 68.277 6.08799 68.524 5.44999C68.7753 4.78261 69.1699 4.17843 69.68 3.67999C70.1789 3.17074 70.7829 2.77656 71.45 2.52499C72.088 2.27799 72.813 2.10999 73.878 2.05999L74.59 2.02999L74.784 2.02499C75.5132 2.00656 76.2426 1.99823 76.972 1.99999L79.028 2.00099ZM78 7.00099C77.3375 6.99162 76.6797 7.11401 76.0649 7.36105C75.4502 7.6081 74.8906 7.97486 74.4188 8.44004C73.947 8.90522 73.5724 9.45952 73.3167 10.0707C73.0609 10.682 72.9293 11.3379 72.9293 12.0005C72.9293 12.663 73.0609 13.319 73.3167 13.9302C73.5724 14.5414 73.947 15.0958 74.4188 15.5609C74.8906 16.0261 75.4502 16.3929 76.0649 16.6399C76.6797 16.887 77.3375 17.0094 78 17C79.326 17 80.5978 16.4732 81.5355 15.5355C82.4732 14.5978 83 13.3261 83 12C83 10.6739 82.4732 9.40213 81.5355 8.46445C80.5978 7.52677 79.326 7.00099 78 7.00099ZM78 9.00099C78.3985 8.99364 78.7944 9.06578 79.1648 9.21319C79.5351 9.3606 79.8723 9.58033 80.1567 9.85953C80.4412 10.1387 80.6671 10.4718 80.8214 10.8393C80.9757 11.2068 81.0552 11.6014 81.0552 12C81.0553 12.3986 80.9759 12.7931 80.8218 13.1607C80.6677 13.5283 80.4418 13.8614 80.1575 14.1407C79.8731 14.42 79.536 14.6399 79.1657 14.7874C78.7954 14.9349 78.3995 15.0072 78.001 15C77.2053 15 76.4423 14.6839 75.8796 14.1213C75.317 13.5587 75.001 12.7956 75.001 12C75.001 11.2043 75.317 10.4413 75.8796 9.87867C76.4423 9.31606 77.2053 8.99999 78.001 8.99999L78 9.00099ZM83.25 5.50099C82.9274 5.5139 82.6223 5.65114 82.3986 5.88396C82.1749 6.11678 82.05 6.42712 82.05 6.74999C82.05 7.07285 82.1749 7.38319 82.3986 7.61601C82.6223 7.84884 82.9274 7.98607 83.25 7.99899C83.5815 7.99899 83.8994 7.86729 84.1339 7.63287C84.3683 7.39845 84.5 7.08051 84.5 6.74899C84.5 6.41747 84.3683 6.09952 84.1339 5.8651C83.8994 5.63068 83.5815 5.49899 83.25 5.49899V5.50099Z" fill="black"/>
</svg>
