<svg width="490" height="18" viewBox="0 0 490 18" fill="none" xmlns="http://www.w3.org/2000/svg">
<mask id="path-1-inside-1_2_2192" fill="white">
<path fill-rule="evenodd" clip-rule="evenodd" d="M481 18C485.971 18 490 13.9706 490 9C490 4.02944 485.971 0 481 0C478.335 0 475.94 1.15875 474.292 3H6C2.68629 3 0 5.68629 0 9C0 12.3137 2.68629 15 6 15H474.292C475.94 16.8412 478.335 18 481 18Z"/>
</mask>
<path fill-rule="evenodd" clip-rule="evenodd" d="M481 18C485.971 18 490 13.9706 490 9C490 4.02944 485.971 0 481 0C478.335 0 475.94 1.15875 474.292 3H6C2.68629 3 0 5.68629 0 9C0 12.3137 2.68629 15 6 15H474.292C475.94 16.8412 478.335 18 481 18Z" fill="#F8BD00"/>
<path d="M474.292 3V4H474.739L475.037 3.66691L474.292 3ZM474.292 15L475.037 14.3331L474.739 14H474.292V15ZM489 9C489 13.4183 485.418 17 481 17V19C486.523 19 491 14.5228 491 9H489ZM481 1C485.418 1 489 4.58172 489 9H491C491 3.47715 486.523 -1 481 -1V1ZM475.037 3.66691C476.503 2.02865 478.631 1 481 1V-1C478.038 -1 475.376 0.288851 473.547 2.33309L475.037 3.66691ZM6 4H474.292V2H6V4ZM1 9C1 6.23858 3.23858 4 6 4V2C2.13401 2 -1 5.13401 -1 9H1ZM6 14C3.23858 14 1 11.7614 1 9H-1C-1 12.866 2.13401 16 6 16V14ZM474.292 14H6V16H474.292V14ZM481 17C478.631 17 476.503 15.9713 475.037 14.3331L473.547 15.6669C475.376 17.7111 478.038 19 481 19V17Z" fill="#F8BD00" mask="url(#path-1-inside-1_2_2192)"/>
</svg>
