<svg width="178" height="59" viewBox="0 0 178 59" fill="none" xmlns="http://www.w3.org/2000/svg">
<path d="M12.2546 40.4282L12.2242 40.3312L31.4829 22.609V14.0701H0.585087V22.609H19.0404L19.0709 22.6907L0 40.4282V48.9671H31.7934V40.4282H12.2546ZM50.762 13.2566C47.1981 13.2566 44.2934 13.7966 42.0483 14.8776C39.957 15.8193 38.1954 17.3709 36.9919 19.3312C35.8407 21.3043 35.1178 23.4999 34.8707 25.7737L44.2456 27.0984C44.5849 25.0903 45.2635 23.6675 46.2805 22.8289C47.3186 22.0415 48.5764 21.6016 49.8765 21.571L50.3093 21.5761C52.2122 21.5761 53.5922 22.0872 54.4497 23.11C55.3001 24.1327 55.7324 25.5488 55.7324 27.4152V28.346H46.7175C42.1295 28.346 38.8331 29.3683 36.8286 31.4138C34.8246 33.4592 33.8241 36.1591 33.8275 39.513C33.8275 42.949 34.828 45.5061 36.8286 47.1832C38.8297 48.8604 41.346 49.6935 44.3776 49.6837C48.1386 49.6837 51.0319 48.3829 53.0558 45.782C54.2517 44.1839 55.1056 42.3543 55.5636 40.4082H55.9046L57.1966 48.9472H65.6916V27.3233C65.6916 22.854 64.5201 19.3925 62.1768 16.9383C59.8331 14.4838 56.0281 13.2566 50.7615 13.2566H50.762ZM53.7331 39.9119C52.3848 41.0422 50.6194 41.6044 48.422 41.6044C46.6114 41.6044 45.3532 41.2855 44.648 40.6484C44.3042 40.3469 44.0307 39.9729 43.8469 39.5531C43.663 39.1333 43.5734 38.678 43.5844 38.2194C43.5644 37.7871 43.6321 37.3552 43.7834 36.95C43.9347 36.5447 44.1663 36.1747 44.4644 35.8623C45.0325 35.3268 45.7721 35.0127 46.55 34.9765L55.7472 34.9778V35.5659C55.7651 36.397 55.5928 37.2211 55.2436 37.9746C54.8944 38.7282 54.3776 39.391 53.7331 39.9119ZM117.06 14.0696H107.024V48.9727H117.06V14.0696ZM176.317 14.0696C173.481 14.0696 171.246 15.0753 169.612 17.0863C168.439 18.5322 167.547 20.6673 166.937 23.4935H166.641L165.329 14.0701H156.758V48.9676H166.795V31.071C166.795 28.8147 167.32 27.0848 168.371 25.8813C169.423 24.6779 171.362 24.0761 174.19 24.0761H178V14.0701H176.316L176.317 14.0696ZM146.797 15.2101C144.455 13.809 141.498 13.1103 137.931 13.1137C132.315 13.1137 127.92 14.7211 124.746 17.9351C121.571 21.15 119.985 25.5811 119.985 31.2296C119.904 34.6446 120.645 38.0287 122.147 41.0933C123.521 43.824 125.66 46.0904 128.302 47.6123C130.96 49.1568 134.122 49.9308 137.789 49.9342C140.959 49.9342 143.608 49.443 145.734 48.4615C147.733 47.5797 149.474 46.1976 150.791 44.4472C152.044 42.7291 152.975 40.7954 153.537 38.7412L144.89 36.3071C144.526 37.6428 143.825 38.8615 142.855 39.8456C141.878 40.8275 140.242 41.3182 137.946 41.3182C135.216 41.3182 133.182 40.5324 131.842 38.9611C130.87 37.8257 130.26 36.205 129.99 34.1035H153.67C153.767 33.1216 153.818 32.2983 153.818 31.6336V29.4606C153.875 26.5413 153.275 23.6467 152.063 20.9931C150.928 18.5756 149.092 16.5596 146.797 15.2097V15.2101ZM137.641 21.4324C141.711 21.4324 144.018 23.4451 144.564 27.4709H130.168C130.397 26.1277 130.951 24.8618 131.781 23.7844C133.101 22.2131 135.054 21.429 137.641 21.4324ZM112.151 0.00329265C111.396 -0.0225938 110.643 0.104371 109.938 0.376639C109.233 0.648907 108.589 1.06092 108.045 1.58819C107.073 2.55446 106.499 3.85279 106.435 5.22533L106.433 5.67865C106.406 6.44051 106.535 7.19983 106.813 7.90918C107.091 8.61854 107.511 9.26269 108.048 9.80142C109.021 10.7792 110.322 11.3562 111.697 11.4191L112.151 11.4212C112.904 11.4497 113.655 11.3203 114.355 11.0412C115.056 10.7621 115.691 10.3395 116.22 9.80014C117.173 8.8123 117.732 7.50757 117.791 6.13323L117.792 5.67865C117.827 4.92522 117.705 4.17279 117.434 3.46949C117.163 2.76611 116.749 2.12716 116.219 1.59329C115.689 1.05988 115.053 0.643454 114.354 0.370574C113.654 0.0976951 112.905 -0.0256527 112.156 0.00839562L112.151 0.00329265ZM91.4167 13.1137C87.9984 13.1137 85.2511 14.1925 83.176 16.3498C81.6395 17.9487 80.5116 20.3352 79.7933 23.5088H79.473L78.1603 14.0854H69.5892V59H79.6249V40.5H79.9912C80.2974 41.7335 80.7268 42.9327 81.2731 44.0793C82.1225 45.947 83.5148 47.5122 85.2667 48.5687C87.0831 49.5653 89.1294 50.0612 91.198 50.006C95.3998 50.006 98.5989 48.3607 100.796 45.0714C102.994 41.7817 104.093 37.1916 104.093 31.3015C104.093 25.6117 103.03 21.1585 100.904 17.9402C98.7774 14.7224 95.6151 13.1137 91.4167 13.1137ZM92.4342 38.4036C91.3418 39.9944 89.6737 40.8428 87.4294 40.9487L86.9399 40.9602C85.9123 41.008 84.8881 40.8089 83.9523 40.3795C83.0164 39.95 82.1959 39.3026 81.5587 38.4907C80.259 36.851 79.6118 34.6061 79.6152 31.7565V31.0919C79.6152 28.1976 80.2624 25.9817 81.5583 24.4444C82.8532 22.9071 84.6478 22.1468 86.9395 22.1638C89.477 22.1638 91.3198 22.9735 92.4697 24.5928C93.6195 26.2121 94.1941 28.4702 94.1941 31.3678C94.2013 34.3641 93.6179 36.7094 92.4439 38.4036H92.4342Z" fill="white"/>
</svg>
