<svg width="28" height="28" viewBox="0 0 28 28" fill="none" xmlns="http://www.w3.org/2000/svg">
<path opacity="0.7" d="M10.1692 28L9.61194 23.52C9.31012 23.4033 9.02547 23.2633 8.75801 23.1C8.49055 22.9367 8.22959 22.7617 7.97513 22.575L3.83085 24.325L0 17.675L3.58706 14.945C3.56385 14.7817 3.55224 14.6239 3.55224 14.4718V13.5282C3.55224 13.3761 3.56385 13.2183 3.58706 13.055L0 10.325L3.83085 3.675L7.97513 5.425C8.23052 5.23833 8.49751 5.06333 8.77612 4.9C9.05473 4.73667 9.33333 4.59667 9.61194 4.48L10.1692 0H17.8308L18.3881 4.48C18.6899 4.59667 18.9745 4.73667 19.242 4.9C19.5095 5.06333 19.7704 5.23833 20.0249 5.425L24.1692 3.675L28 10.325L24.4129 13.055C24.4362 13.2183 24.4478 13.3761 24.4478 13.5282V14.4718C24.4478 14.6239 24.4245 14.7817 24.3781 14.945L27.9652 17.675L24.1343 24.325L20.0249 22.575C19.7695 22.7617 19.5025 22.9367 19.2239 23.1C18.9453 23.2633 18.6667 23.4033 18.3881 23.52L17.8308 28H10.1692ZM14.0697 18.9C15.4163 18.9 16.5655 18.4217 17.5174 17.465C18.4693 16.5083 18.9453 15.3533 18.9453 14C18.9453 12.6467 18.4693 11.4917 17.5174 10.535C16.5655 9.57833 15.4163 9.1 14.0697 9.1C12.6998 9.1 11.5445 9.57833 10.6038 10.535C9.66302 11.4917 9.1931 12.6467 9.19403 14C9.19403 15.3533 9.66395 16.5083 10.6038 17.465C11.5436 18.4217 12.6989 18.9 14.0697 18.9ZM14.0697 16.1C13.4892 16.1 12.9956 15.8956 12.5889 15.4868C12.1821 15.078 11.9792 14.5824 11.9801 14C11.9801 13.4167 12.1835 12.9206 12.5903 12.5118C12.997 12.103 13.4902 11.8991 14.0697 11.9C14.6501 11.9 15.1437 12.1044 15.5504 12.5132C15.9572 12.922 16.1601 13.4176 16.1592 14C16.1592 14.5833 15.9558 15.0794 15.5491 15.4882C15.1423 15.897 14.6492 16.1009 14.0697 16.1ZM12.607 25.2H15.3582L15.8458 21.49C16.5655 21.3033 17.2332 21.0289 17.849 20.6668C18.4647 20.3047 19.0275 19.8674 19.5373 19.355L22.9851 20.79L24.3433 18.41L21.3483 16.135C21.4643 15.8083 21.5456 15.4644 21.592 15.1032C21.6385 14.742 21.6617 14.3743 21.6617 14C21.6617 13.6267 21.6385 13.2594 21.592 12.8982C21.5456 12.537 21.4643 12.1926 21.3483 11.865L24.3433 9.59L22.9851 7.21L19.5373 8.68C19.0265 8.14333 18.4637 7.6944 17.849 7.3332C17.2342 6.972 16.5664 6.6976 15.8458 6.51L15.393 2.8H12.6418L12.1542 6.51C11.4345 6.69667 10.7672 6.97107 10.1524 7.3332C9.53765 7.69533 8.97439 8.1326 8.46269 8.645L5.01493 7.21L3.65672 9.59L6.65174 11.83C6.53566 12.18 6.4544 12.53 6.40796 12.88C6.36153 13.23 6.33831 13.6033 6.33831 14C6.33831 14.3733 6.36153 14.735 6.40796 15.085C6.4544 15.435 6.53566 15.785 6.65174 16.135L3.65672 18.41L5.01493 20.79L8.46269 19.32C8.97347 19.8567 9.53672 20.3061 10.1524 20.6682C10.7682 21.0303 11.4354 21.3043 12.1542 21.49L12.607 25.2Z" fill="black"/>
</svg>
