<svg width="17" height="18" viewBox="0 0 17 18" fill="none" xmlns="http://www.w3.org/2000/svg">
<path d="M16 16.4219L11 11.4219M1 7.25521C1 8.02125 1.15088 8.7798 1.44404 9.48753C1.73719 10.1953 2.16687 10.8383 2.70854 11.38C3.25022 11.9217 3.89328 12.3514 4.60101 12.6445C5.30875 12.9377 6.06729 13.0885 6.83333 13.0885C7.59938 13.0885 8.35792 12.9377 9.06565 12.6445C9.77339 12.3514 10.4164 11.9217 10.9581 11.38C11.4998 10.8383 11.9295 10.1953 12.2226 9.48753C12.5158 8.7798 12.6667 8.02125 12.6667 7.25521C12.6667 6.48916 12.5158 5.73062 12.2226 5.02289C11.9295 4.31516 11.4998 3.67209 10.9581 3.13042C10.4164 2.58874 9.77339 2.15906 9.06565 1.86591C8.35792 1.57276 7.59938 1.42188 6.83333 1.42188C6.06729 1.42188 5.30875 1.57276 4.60101 1.86591C3.89328 2.15906 3.25022 2.58874 2.70854 3.13042C2.16687 3.67209 1.73719 4.31516 1.44404 5.02289C1.15088 5.73062 1 6.48916 1 7.25521Z" stroke="black" stroke-width="2" stroke-linecap="round" stroke-linejoin="round"/>
</svg>
