<svg width="21" height="44" viewBox="0 0 21 44" fill="none" xmlns="http://www.w3.org/2000/svg">
<path d="M7.3 43.8056L6.9 36.8247C6.68333 36.6429 6.479 36.4247 6.287 36.1702C6.095 35.9157 5.90767 35.643 5.725 35.3521L2.75 38.079L0 27.7168L2.575 23.4628C2.55833 23.2083 2.55 22.9625 2.55 22.7255V21.2551C2.55 21.0181 2.55833 20.7723 2.575 20.5178L0 16.2638L2.75 5.90155L5.725 8.62846C5.90833 8.33759 6.1 8.0649 6.3 7.81039C6.5 7.55588 6.7 7.33772 6.9 7.15593L7.3 0.175049H12.8L13.2 7.15593C13.4167 7.33772 13.621 7.55588 13.813 7.81039C14.005 8.0649 14.1923 8.33759 14.375 8.62846L17.35 5.90155L20.1 16.2638L17.525 20.5178C17.5417 20.7723 17.55 21.0181 17.55 21.2551V22.7255C17.55 22.9625 17.5333 23.2083 17.5 23.4628L20.075 27.7168L17.325 38.079L14.375 35.3521C14.1917 35.643 14 35.9157 13.8 36.1702C13.6 36.4247 13.4 36.6429 13.2 36.8247L12.8 43.8056H7.3ZM10.1 29.6256C11.0667 29.6256 11.8917 28.8803 12.575 27.3896C13.2583 25.8989 13.6 24.0991 13.6 21.9903C13.6 19.8815 13.2583 18.0817 12.575 16.591C11.8917 15.1003 11.0667 14.355 10.1 14.355C9.11667 14.355 8.28733 15.1003 7.612 16.591C6.93667 18.0817 6.59933 19.8815 6.6 21.9903C6.6 24.0991 6.93733 25.8989 7.612 27.3896C8.28667 28.8803 9.116 29.6256 10.1 29.6256ZM10.1 25.2626C9.68333 25.2626 9.329 24.9441 9.037 24.3071C8.745 23.6701 8.59933 22.8978 8.6 21.9903C8.6 21.0813 8.746 20.3083 9.038 19.6713C9.33 19.0343 9.684 18.7166 10.1 18.718C10.5167 18.718 10.871 19.0365 11.163 19.6735C11.455 20.3105 11.6007 21.0828 11.6 21.9903C11.6 22.8993 11.454 23.6723 11.162 24.3093C10.87 24.9463 10.516 25.264 10.1 25.2626ZM9.05 39.4425H11.025L11.375 33.6615C11.8917 33.3706 12.371 32.943 12.813 32.3787C13.255 31.8144 13.659 31.1331 14.025 30.3346L16.5 32.5707L17.475 28.8621L15.325 25.3171C15.4083 24.8081 15.4667 24.2722 15.5 23.7093C15.5333 23.1465 15.55 22.5735 15.55 21.9903C15.55 21.4086 15.5333 20.8363 15.5 20.2734C15.4667 19.7106 15.4083 19.174 15.325 18.6635L17.475 15.1185L16.5 11.4099L14.025 13.7005C13.6583 12.8643 13.2543 12.1647 12.813 11.6019C12.3717 11.039 11.8923 10.6115 11.375 10.3191L11.05 4.5381H9.075L8.725 10.3191C8.20833 10.61 7.72933 11.0376 7.288 11.6019C6.84667 12.1662 6.44233 12.8475 6.075 13.646L3.6 11.4099L2.625 15.1185L4.775 18.6089C4.69167 19.1543 4.63333 19.6997 4.6 20.2451C4.56667 20.7905 4.55 21.3722 4.55 21.9903C4.55 22.572 4.56667 23.1356 4.6 23.681C4.63333 24.2264 4.69167 24.7717 4.775 25.3171L2.625 28.8621L3.6 32.5707L6.075 30.2801C6.44167 31.1163 6.846 31.8166 7.288 32.3809C7.73 32.9452 8.209 33.372 8.725 33.6615L9.05 39.4425Z" fill="white"/>
</svg>
