<svg width="186" height="46" viewBox="0 0 186 46" fill="none" xmlns="http://www.w3.org/2000/svg">
<path d="M73.4035 26.9427L83.6669 39.4285H75.5625L66.4285 27.9615V39.4285H59.7856V6.57153H66.4285V25.8915L74.865 16.4285H83.3345L73.4035 26.9427ZM46.832 15.7715C45.3776 15.7931 43.9501 16.163 42.6717 16.8497C41.3934 17.5363 40.3023 18.5192 39.4919 19.7142V16.4285H33.2144V39.4285H39.857V28.6842C39.7698 27.9044 39.8458 27.1151 40.0802 26.3656C40.3146 25.616 40.7025 24.9222 41.2197 24.3273C41.7369 23.7325 42.3723 23.2493 43.0864 22.9079C43.8005 22.5664 44.578 22.374 45.3706 22.3427C49.2235 22.3427 49.8215 26.0885 49.8215 28.6842V39.4285H56.4644V27.2385C56.4644 20.01 54.0395 15.7715 46.965 15.7715H46.832ZM106.286 28.4542C106.311 28.9358 106.311 29.4184 106.286 29.9H88.8481V30.13C89.1311 31.5002 89.8985 32.7257 91.0124 33.5868C92.1264 34.4478 93.5141 34.8881 94.9265 34.8285C96.0469 34.8767 97.1657 34.7008 98.2158 34.3112C99.2659 33.9217 100.226 33.3266 101.038 32.5615L105.455 35.8473C104.055 37.2607 102.371 38.3681 100.512 39.0981C98.6527 39.8282 96.6594 40.1646 94.6606 40.0858C93.0052 40.1892 91.3467 39.9401 89.7971 39.3552C88.2474 38.7703 86.8427 37.8632 85.6778 36.6952C84.5129 35.5272 83.6149 34.1255 83.0445 32.5848C82.4741 31.0441 82.2446 29.4002 82.3715 27.7642C82.3375 26.1492 82.6401 24.5446 83.2605 23.0504C83.8808 21.5561 84.8057 20.2043 85.9773 19.0792C87.149 17.954 88.5424 17.0797 90.0706 16.5106C91.5988 15.9415 93.2292 15.6899 94.86 15.7715C101.104 15.7715 106.286 20.1415 106.286 28.4542ZM100.108 25.6285C100.084 24.9776 99.9254 24.3386 99.6432 23.7502C99.361 23.1617 98.9607 22.6363 98.4666 22.206C97.9725 21.7756 97.395 21.4492 96.7692 21.2468C96.1435 21.0443 95.4826 20.9701 94.8269 21.0285C91.9062 20.7162 89.2611 22.7513 88.8481 25.6285H100.108ZM6.64296 6.57153H0V39.4285H19.9285V32.8577H6.64296V6.57153ZM126.214 6.57153H132.857V39.4285H126.58V37.1285C125.782 38.1 124.766 38.8735 123.613 39.387C122.46 39.9005 121.201 40.1398 119.937 40.0858C118.393 40.0466 116.874 39.6954 115.472 39.0539C114.07 38.4124 112.816 37.4941 111.786 36.3555C110.757 35.2168 109.973 33.8819 109.484 32.4327C108.995 30.9835 108.811 29.4507 108.943 27.9285C108.786 26.4041 108.952 24.8642 109.429 23.4066C109.907 21.949 110.686 20.6057 111.717 19.4622C112.748 18.3187 114.008 17.4001 115.418 16.7647C116.827 16.1293 118.355 15.791 119.904 15.7715C121.057 15.7215 122.209 15.8991 123.293 16.294C124.376 16.6889 125.369 17.2931 126.214 18.0715V6.57153ZM126.712 27.9285C126.817 27.1698 126.756 26.3977 126.533 25.6644C126.31 24.931 125.931 24.2535 125.421 23.6774C124.911 23.1014 124.282 22.6401 123.577 22.3249C122.872 22.0097 122.106 21.8477 121.332 21.85C118.154 22.0782 115.746 24.7814 115.918 27.9285C115.746 31.0755 118.154 33.7791 121.332 34.0073C122.106 34.0096 122.872 33.8476 123.577 33.5324C124.282 33.2171 124.911 32.7559 125.421 32.1798C125.931 31.6036 126.31 30.926 126.533 30.1927C126.756 29.4593 126.817 28.6872 126.712 27.9285ZM26.5715 5.91423C25.5033 5.92921 24.4806 6.3446 23.7099 7.07654C22.9393 7.80847 22.4781 8.80241 22.4195 9.85766C22.4195 12.1257 24.2784 13.9646 26.5715 13.9646C28.8645 13.9646 30.7227 12.1253 30.7227 9.85766C30.664 8.80254 30.2029 7.80873 29.4323 7.07689C28.6618 6.34504 27.6392 5.92965 26.5711 5.91459L26.5715 5.91423ZM23.25 39.4285H29.893V16.4285H23.25V39.4285ZM186 3.28577V42.7142C186 43.5857 185.65 44.4214 185.027 45.0376C184.404 45.6538 183.559 46 182.679 46H142.821C141.941 46 141.096 45.6538 140.473 45.0376C139.85 44.4214 139.5 43.5857 139.5 42.7142V3.28577C139.5 2.41433 139.85 1.57858 140.473 0.962379C141.096 0.346178 141.941 0 142.821 0L182.679 0C183.559 0 184.404 0.346178 185.027 0.962379C185.65 1.57858 186 2.41433 186 3.28577ZM152.786 16.4285H146.143V39.4285H152.786V16.4285ZM153.616 9.8573C153.616 7.58892 151.757 5.75 149.464 5.75C147.171 5.75 145.312 7.58892 145.312 9.8573C145.312 12.1253 147.171 13.9642 149.464 13.9642C151.757 13.9642 153.616 12.1253 153.616 9.8573ZM179.357 27.2385C179.357 20.01 176.933 15.7715 169.858 15.7715C168.381 15.7717 166.927 16.1314 165.623 16.819C164.32 17.5066 163.208 18.5009 162.385 19.7142V16.4285H156.107V39.4285H162.75V28.6842C162.663 27.9044 162.739 27.1151 162.973 26.3656C163.208 25.616 163.595 24.9222 164.113 24.3273C164.63 23.7325 165.265 23.2493 165.979 22.9079C166.694 22.5664 167.471 22.374 168.264 22.3427C172.116 22.3427 172.714 26.0885 172.714 28.6842V39.4285H179.357V27.2385Z" fill="white"/>
</svg>
