<svg width="16" height="14" viewBox="0 0 16 14" fill="none" xmlns="http://www.w3.org/2000/svg">
<path d="M8 5.0665e-06C6.94924 -0.00117901 5.9086 0.205192 4.93781 0.60727C3.96702 1.00935 3.08521 1.59921 2.343 2.343L0 5.0665e-06V6.00001H6L3.757 3.757C4.3254 3.18888 5.00215 2.74074 5.74706 2.43916C6.49198 2.13759 7.28989 1.98874 8.09344 2.00144C8.89698 2.01415 9.68979 2.18814 10.4248 2.51311C11.1598 2.83808 11.8221 3.3074 12.3722 3.8932C12.9224 4.47901 13.3492 5.16937 13.6275 5.92331C13.9057 6.67725 14.0297 7.47941 13.992 8.28217C13.9543 9.08493 13.7557 9.87194 13.408 10.5965C13.0603 11.321 12.5706 11.9683 11.968 12.5L13.291 14C14.5097 12.9252 15.3722 11.5048 15.7638 9.92775C16.1553 8.3507 16.0574 6.69181 15.4829 5.17181C14.9084 3.65181 13.8848 2.34278 12.548 1.4189C11.2113 0.495026 9.62493 0.000107153 8 5.0665e-06Z" fill="black"/>
</svg>
